<svg id="Layer_1" data-name="Layer 1" xmlns="http://www.w3.org/2000/svg" xmlns:xlink="http://www.w3.org/1999/xlink" viewBox="0 0 3150 800">
  <defs>
    <style>
      .cls-1 {
        fill: none;
      }

      .cls-2 {
        clip-path: url(#clip-path);
      }

      .cls-3 {
        fill: url(#linear-gradient);
      }

      .cls-4 {
        fill: #57bdba;
      }

      .cls-5 {
        fill: url(#linear-gradient-2);
      }

      .cls-6 {
        fill: #2d2d32;
      }
    </style>
    <clipPath id="clip-path">
      <rect class="cls-1" x="2450" y="199.9087" width="584.266" height="500"/>
    </clipPath>
    <linearGradient id="linear-gradient" x1="2742.1293" y1="7031.3248" x2="2742.1293" y2="6765.4267" gradientTransform="matrix(1, 0, 0, -1, 0, 7227.8824)" gradientUnits="userSpaceOnUse">
      <stop offset="0" stop-color="#ffd60d"/>
      <stop offset="0.999" stop-color="#f5be10"/>
    </linearGradient>
    <linearGradient id="linear-gradient-2" x1="2742.1293" y1="6846.4563" x2="2742.1293" y2="6620.7309" gradientTransform="matrix(1, 0, 0, -1, 0, 7227.8824)" gradientUnits="userSpaceOnUse">
      <stop offset="0" stop-color="#57bdba"/>
      <stop offset="1" stop-color="#30a7a6"/>
    </linearGradient>
  </defs>
  <g class="cls-2">
    <g>
      <path class="cls-3" d="M2945.782,403.5577c0,112.477-91.172,203.657-203.649,203.657s-203.6564-91.18-203.6564-203.657,91.18-203.649,203.6574-203.649S2945.782,291.0811,2945.782,403.5577Z"/>
      <path class="cls-4" d="M3033.479,458.1087a296.4289,296.4289,0,0,1-582.6906,0c-5.2918-28.388,16.739-54.551,45.6132-54.551h42.0754c0,112.477,91.18,203.657,203.657,203.657s203.648-91.18,203.648-203.657h42.076C3016.74,403.5577,3038.762,429.7207,3033.479,458.1087Z"/>
      <path class="cls-5" d="M2945.782,403.5577c0,112.477-91.172,203.657-203.649,203.657s-203.6564-91.18-203.6564-203.657h53.3224a46.2526,46.2526,0,0,1,44.246,32.559,110.9762,110.9762,0,0,0,212.177,0,46.2346,46.2346,0,0,1,44.238-32.559Z"/>
    </g>
  </g>
  <g>
    <path class="cls-6" d="M2200,300a49.9992,49.9992,0,0,0-50,50V531.25c0,26.31-7.4,43.795-15.7852,53.78C2126.47,594.25,2115.63,600,2100,600a50,50,0,0,0,0,100c44.37,0,83.53-18.2051,110.7852-50.655C2237.4,617.66,2250,575.775,2250,531.25V350A49.9992,49.9992,0,0,0,2200,300Z"/>
    <path class="cls-6" d="M2050,350a50,50,0,0,0-100,0V531.25c0,26.31-7.4,43.795-15.7852,53.78C1926.47,594.25,1915.63,600,1900,600a50,50,0,0,0,0,100c44.37,0,83.53-18.2051,110.7852-50.655C2037.4,617.66,2050,575.775,2050,531.25Z"/>
    <path class="cls-6" d="M2200.0049,250A50,50,0,1,0,2150,199.9976,50.057,50.057,0,0,0,2200.0049,250Z"/>
    <path class="cls-6" d="M1750,600H1600a50,50,0,0,0,0,100h150a50,50,0,0,0,0-100Z"/>
    <path class="cls-6" d="M1850,350a50,50,0,0,0-100,0v55c0,24.304-18.9551,45-50,45H1400c-31.0449,0-50-20.696-50-45V350a50,50,0,0,0-100,0V500a100,100,0,0,1-200,0V350a50,50,0,0,0-100,0V500c0,110.4551,89.5449,200,200,200,96.5747,0,177.1616-68.4542,195.8916-159.4861A158.335,158.335,0,0,0,1400,550h300c79.41,0,150-58.8469,150-145Z"/>
    <path class="cls-6" d="M1150.0049,250A50,50,0,1,0,1100,199.9976,50.057,50.057,0,0,0,1150.0049,250Z"/>
    <path class="cls-6" d="M550.0024,250A50,50,0,1,0,500,199.9976,50.0587,50.0587,0,0,0,550.0024,250Z"/>
    <path class="cls-6" d="M800,100a50,50,0,0,0-50,50V405c0,24.304-18.9551,45-50,45H650c-31.0449,0-50-20.696-50-45V350a50,50,0,0,0-100,0v55c0,24.303-18.9541,45-50,45-11.0093,0-19.4541-1.066-27.0938-4.8025-6.7163-3.285-17.4038-10.8879-28.14-32.469q-.42-.8437-.8711-1.671l-25.36-46.4934c-1.0245-2.3283-2.0977-4.6572-3.2662-6.9861q-.3514-.7012-.726-1.3915c-15.252-28.16-26.7559-48.547-34.5137-62.0019-3.8784-6.7276-6.8208-11.7232-8.8272-15.0906-1.0029-1.6835-1.7719-2.9609-2.3076-3.844-.2675-.442-.4765-.7849-.6269-1.0315l-.1822-.2975-.0791-.1285-.0083-.0134-.0034-.0062s-.0014,0-.32.1968l-.0029-.005.32-.1971a49.945,49.945,0,0,0-41.2886-23.7443c-.1338-.0047-.2685-.0035-.4023-.0072-.499-.0091-.9976-.02-1.4971-.0141a49.9972,49.9972,0,0,0-43.3823,74.5109l44.8408,79.7161,1.7744,3.2534a30.5,30.5,0,0,1-3.1992,27.7776C268.3511,445.2434,258.32,450,250.7188,450H150a50,50,0,0,0,0,100H250.7188c34.9619,0,68.0527-15.5649,92.0424-40.3884A143.24,143.24,0,0,0,378.9688,535.03C406.9541,548.715,433.51,550,450,550c37.4585,0,72.95-13.0988,100-35.9762C577.05,536.9011,612.5415,550,650,550h50c79.41,0,150-58.8469,150-145V150A50,50,0,0,0,800,100Z"/>
    <path class="cls-6" d="M846.7207,605.1294a31,31,0,0,0-41.5913-13.8633l-100,50A31,31,0,1,0,732.857,696.72l100-50A31.0006,31.0006,0,0,0,846.7207,605.1294Z"/>
  </g>
</svg>
