<svg width="40" height="40" viewBox="0 0 40 40" fill="none" xmlns="http://www.w3.org/2000/svg">
<rect x="0.5" y="0.5" width="39" height="39" rx="19.5" fill="#FAFAFA"/>
<path d="M19.9998 20.8752C16.3015 20.8752 13.2915 17.8652 13.2915 14.1668C13.2915 10.4685 16.3015 7.4585 19.9998 7.4585C23.6982 7.4585 26.7082 10.4685 26.7082 14.1668C26.7082 17.8652 23.6982 20.8752 19.9998 20.8752ZM19.9998 9.2085C17.2698 9.2085 15.0415 11.4368 15.0415 14.1668C15.0415 16.8968 17.2698 19.1252 19.9998 19.1252C22.7298 19.1252 24.9582 16.8968 24.9582 14.1668C24.9582 11.4368 22.7298 9.2085 19.9998 9.2085Z" fill="#64748B"/>
<path d="M30.0218 32.5417C29.5435 32.5417 29.1468 32.145 29.1468 31.6667C29.1468 27.6417 25.0402 24.375 20.0002 24.375C14.9602 24.375 10.8535 27.6417 10.8535 31.6667C10.8535 32.145 10.4568 32.5417 9.97852 32.5417C9.50018 32.5417 9.10352 32.145 9.10352 31.6667C9.10352 26.685 13.9918 22.625 20.0002 22.625C26.0085 22.625 30.8968 26.685 30.8968 31.6667C30.8968 32.145 30.5002 32.5417 30.0218 32.5417Z" fill="#64748B"/>
<rect x="0.5" y="0.5" width="39" height="39" rx="19.5" stroke="#E5E5E5"/>
</svg>
