<svg width="24" height="25" viewBox="0 0 24 25" fill="none" xmlns="http://www.w3.org/2000/svg">
<path d="M15 23.25H9C3.57 23.25 1.25 20.93 1.25 15.5V9.5C1.25 4.07 3.57 1.75 9 1.75H15C20.43 1.75 22.75 4.07 22.75 9.5V15.5C22.75 20.93 20.43 23.25 15 23.25ZM9 3.25C4.39 3.25 2.75 4.89 2.75 9.5V15.5C2.75 20.11 4.39 21.75 9 21.75H15C19.61 21.75 21.25 20.11 21.25 15.5V9.5C21.25 4.89 19.61 3.25 15 3.25H9Z" fill="#2F3943"/>
<path d="M10 23.25C9.59 23.25 9.25 22.91 9.25 22.5V2.5C9.25 2.09 9.59 1.75 10 1.75C10.41 1.75 10.75 2.09 10.75 2.5V22.5C10.75 22.91 10.41 23.25 10 23.25Z" fill="#2F3943"/>
<path d="M22 9.75H10C9.59 9.75 9.25 9.41 9.25 9C9.25 8.59 9.59 8.25 10 8.25H22C22.41 8.25 22.75 8.59 22.75 9C22.75 9.41 22.41 9.75 22 9.75Z" fill="#2F3943"/>
<path d="M22 16.75H10C9.59 16.75 9.25 16.41 9.25 16C9.25 15.59 9.59 15.25 10 15.25H22C22.41 15.25 22.75 15.59 22.75 16C22.75 16.41 22.41 16.75 22 16.75Z" fill="#2F3943"/>
</svg>
