<?xml version="1.0" standalone="no"?>
<!DOCTYPE svg PUBLIC "-//W3C//DTD SVG 1.1//EN" "http://www.w3.org/Graphics/SVG/1.1/DTD/svg11.dtd" >
<svg xmlns="http://www.w3.org/2000/svg" xmlns:xlink="http://www.w3.org/1999/xlink" version="1.1">
<metadata></metadata>
<defs>
<font id="estedadthin" horiz-adv-x="0" >
<font-face units-per-em="2048" ascent="1638" descent="-410" />
<missing-glyph horiz-adv-x="550" />
<glyph unicode="&#x627;&#x653;" horiz-adv-x="560" d="M563 1473l69 -31q-41 -88 -90.5 -123.5t-122.5 -35.5q-57 0 -166 39q-80 29 -116 29q-31 0 -60.5 -19.5t-46.5 -40t-42 -56.5l-60 37q91 167 212 167q65 0 142 -30q110 -42 152 -42q38 0 71.5 28.5t57.5 77.5zM330 1086v-1061h-100v1061h100z" />
<glyph unicode="&#x627;&#x654;" horiz-adv-x="500" d="M86 1286l-24 54l108 50q-69 77 -69 166q0 74 52 125t141 51h82v-60h-82q-67 0 -100 -33t-33 -83q0 -79 67 -140l230 104l24 -54zM300 25h-100v1161h100v-1161z" />
<glyph unicode="&#x648;&#x654;" horiz-adv-x="928" d="M698 29q-103 -30 -210 -30q-67 0 -124 15.5t-103.5 47.5t-72.5 87t-26 129q0 96 38 186.5t110.5 150.5t159.5 60q60 0 109.5 -24.5t83 -63.5t59 -93.5t40 -108.5t23.5 -115t12 -107t3 -90q0 -218 -159.5 -362t-474.5 -225l-25 96q275 71 408.5 180.5t148.5 266.5z M698 134q-4 82 -19.5 157t-42 140.5t-70 104.5t-96.5 39q-76 0 -142 -90t-66 -207q0 -97 55 -138t171 -41q105 0 210 35zM290 836l-24 54l108 50q-69 77 -69 166q0 74 52 125t141 51h82v-60h-82q-67 0 -100 -33t-33 -83q0 -79 67 -140l230 104l24 -54z" />
<glyph unicode="&#x627;&#x655;" horiz-adv-x="500" d="M86 -713l-24 54l108 50q-69 77 -69 166q0 74 52 125t141 51h82v-60h-82q-67 0 -100 -33t-33 -83q0 -79 67 -140l230 104l24 -54zM300 25h-100v1161h100v-1161z" />
<glyph unicode="&#x64a;&#x654;" horiz-adv-x="1449" d="M294 510l-24 54l108 50q-69 77 -69 166q0 74 52 125t141 51h82v-60h-82q-67 0 -100 -33t-33 -83q0 -79 67 -140l230 104l24 -54zM1299 649l-20 -97q-83 23 -158 23q-190 0 -284.5 -84t-94.5 -221q0 -39 8.5 -67.5t28.5 -47.5t42.5 -30.5t62 -18.5t74 -10t90.5 -6 q47 -2 83 -7.5t76 -21t66 -41t43 -69.5t17 -104q0 -94 -46 -163t-129 -109t-186 -59t-228 -19q-94 0 -174 15t-151.5 50t-121.5 88.5t-79 135t-29 184.5q0 97 18.5 207t40.5 179l96 -30q-19 -63 -37 -166t-18 -190q0 -198 119.5 -285.5t349.5 -87.5q223 0 349 63t126 187 q0 37 -7.5 62t-20 40t-40 23.5t-54.5 12t-75 5.5q-46 2 -81 5.5t-78 11.5t-74.5 20t-63.5 32.5t-52 48t-32.5 67.5t-12.5 89q0 189 122.5 300t357.5 111q92 0 177 -26z" />
<glyph unicode="&#xe015;&#xfe8e;" horiz-adv-x="1033" d="M514 1752l48 36l182 -243l182 243l48 -36l-230 -307zM656 530q-149 -197 -368 -361v-22q45 -20 112 -33.5t128 -13.5q243 0 243 128q0 105 -115 302zM658 712q77 131 113.5 234t36.5 240h100q0 -164 -47 -291.5t-142 -274.5q152 -247 152 -392q0 -68 -33 -116t-88 -71 t-108.5 -32t-113.5 -9q-94 0 -184 24.5t-156 64.5v130q123 93 224.5 188t186.5 214q-158 238 -474 459l58 82q146 -101 265 -209.5t210 -240.5z" />
<glyph unicode="&#xe016;&#xfe8e;" horiz-adv-x="1372" d="M754 1752l48 36l182 -243l182 243l48 -36l-230 -307zM449 340h-100q0 232 -42 421.5t-137 409.5l92 38q99 -230 143 -429t44 -440zM1372 0h-1q-316 0 -399 236q-87 -131 -296 -183.5t-576 -52.5v100q329 0 508 37t254.5 119.5t75.5 234.5v695h100v-694q0 -213 70 -301 q72 -91 263 -91h1v-100z" />
<glyph unicode="&#xfeea;&#x654;" horiz-adv-x="1041" arabic-form="final" d="M615 1671q-67 29 -109 29q-64 0 -105.5 -36t-41.5 -79q0 -50 28 -72.5t90 -41.5q24 -7 39 -13t37 -18t35.5 -26t23 -36t9.5 -49q0 -77 -75 -123t-168 -46q-94 0 -167 34l26 54q58 -28 141 -28q76 0 129.5 33.5t53.5 75.5q0 33 -22.5 49.5t-79.5 34.5q-32 10 -54.5 20 t-49.5 29.5t-41.5 50.5t-14.5 72q0 72 60.5 123.5t146.5 51.5q55 0 133 -33zM627 695q-174 -27 -285.5 -102.5t-111.5 -170.5q0 -81 66 -124t181 -43q80 0 177 29zM1041 0h-1q-146 0 -230.5 45t-127.5 141q-105 -31 -205 -31q-65 0 -124.5 15t-110.5 45.5t-81.5 83.5 t-30.5 123q0 79 42 145.5t113.5 111t155.5 73.5t180 43l-8 140l100 6l32 -539q5 -81 19.5 -133.5t46.5 -92.5t88 -58t141 -18h1v-100z" />
<glyph unicode="&#x627;&#xfedf;&#xfee0;&#xfeea;" horiz-adv-x="2710" arabic-form="isolated" d="M1571 1523q0 70 -29 151l56 20q33 -89 33 -171q0 -68 -35 -110t-87 -42q-36 0 -69 21.5t-55 59.5q-46 -81 -124 -81q-52 0 -87 42t-35 110q0 82 33 171l56 -20q-29 -81 -29 -151q0 -92 70 -92q31 0 58.5 29t27.5 74v70h60v-70q0 -45 27 -74t59 -29q70 0 70 92zM1355 2163 h60v-329h-60v329zM625 695q-174 -27 -285.5 -102.5t-111.5 -170.5q0 -81 66 -124t181 -43q80 0 177 29zM1039 0h-1q-146 0 -230.5 45t-127.5 141q-105 -31 -205 -31q-65 0 -124.5 15t-110.5 45.5t-81.5 83.5t-30.5 123q0 79 42 145.5t113.5 111t155.5 73.5t180 43l-8 140 l100 6l32 -539q5 -81 19.5 -133.5t46.5 -92.5t88 -58t141 -18h1v-100zM1039 100q172 0 238 85q58 75 58 264v737h100v-737q0 -182 54 -258q64 -91 241 -91h1v-100h-1q-258 0 -345 172q-87 -172 -346 -172q-21 0 -35.5 14.5t-14.5 35.5t14.5 35.5t35.5 14.5zM2127 366 q0 -175 -85 -264q-98 -102 -311 -102q-20 0 -35 15t-15 35t15 35t35 15q185 0 245 68q51 58 51 198v820h100v-820zM2582 25h-100v1161h100v-1161z" />
<glyph unicode="&#x640;&#x64b;" horiz-adv-x="811" arabic-form="medial" d="M0 100h811v-100h-811q-21 0 -35.5 14.5t-14.5 35.5t14.5 35.5t35.5 14.5zM581 1631l24 -54l-396 -180l-24 54zM648 1456l24 -54l-396 -180l-24 54z" />
<glyph unicode="&#x640;&#x64e;" horiz-adv-x="811" arabic-form="medial" d="M0 100h811v-100h-811q-21 0 -35.5 14.5t-14.5 35.5t14.5 35.5t35.5 14.5zM614 1456l24 -54l-396 -180l-24 54z" />
<glyph unicode="&#x640;&#x64f;" horiz-adv-x="811" arabic-form="medial" d="M0 100h811v-100h-811q-21 0 -35.5 14.5t-14.5 35.5t14.5 35.5t35.5 14.5zM477 1368q-147 56 -147 160q0 63 48 108t106 45q62 0 96.5 -46t34.5 -98q0 -67 -34 -129t-88.5 -106.5t-114.5 -75.5t-120 -47l-16 58q64 17 127.5 51.5t107.5 79.5zM517 1418q38 59 38 119 q0 32 -20 58t-51 26q-33 0 -63.5 -28.5t-30.5 -64.5q0 -33 34 -62t93 -48z" />
<glyph unicode="&#x640;&#x650;" horiz-adv-x="811" arabic-form="medial" d="M0 100h811v-100h-811q-21 0 -35.5 14.5t-14.5 35.5t14.5 35.5t35.5 14.5zM614 -431l24 -54l-396 -180l-24 54z" />
<glyph unicode="&#x640;&#x651;" horiz-adv-x="811" arabic-form="medial" d="M0 100h811v-100h-811q-21 0 -35.5 14.5t-14.5 35.5t14.5 35.5t35.5 14.5zM592 1448q0 70 -29 151l56 20q33 -89 33 -171q0 -68 -35 -110t-87 -42q-36 0 -69 21.5t-55 59.5q-46 -81 -124 -81q-52 0 -87 42t-35 110q0 82 33 171l56 -20q-29 -81 -29 -151q0 -92 70 -92 q31 0 58.5 29t27.5 74v70h60v-70q0 -45 27 -74t59 -29q70 0 70 92z" />
<glyph unicode="&#x640;&#x652;" horiz-adv-x="811" arabic-form="medial" d="M0 100h811v-100h-811q-21 0 -35.5 14.5t-14.5 35.5t14.5 35.5t35.5 14.5zM406 1622q-52 0 -88 -35.5t-36 -87.5t36 -88t88 -36q51 0 87.5 36.5t36.5 87.5t-36 87t-88 36zM406 1682q76 0 130 -53.5t54 -129.5q0 -77 -54 -130.5t-130 -53.5q-77 0 -130.5 54t-53.5 130 t53.5 129.5t130.5 53.5z" />
<glyph unicode="&#xfedf;&#xfe82;" horiz-adv-x="1033" arabic-form="isolated" d="M2 1395q23 48 64.5 82.5t94.5 34.5q52 0 103 -39q36 -28 70 -28q31 0 59 24.5t45 63.5l56 -24q-22 -52 -63.5 -88t-96.5 -36q-54 0 -106 40q-35 27 -67 27q-31 0 -59.5 -23.5t-45.5 -59.5zM656 530q-149 -197 -368 -361v-22q45 -20 112 -33.5t128 -13.5q243 0 243 128 q0 105 -115 302zM658 712q77 131 113.5 234t36.5 240h100q0 -164 -47 -291.5t-142 -274.5q152 -247 152 -392q0 -68 -33 -116t-88 -71t-108.5 -32t-113.5 -9q-94 0 -184 24.5t-156 64.5v130q123 93 224.5 188t186.5 214q-158 238 -474 459l58 82q146 -101 265 -209.5 t210 -240.5z" />
<glyph unicode="&#xfee0;&#xfe82;" horiz-adv-x="1372" arabic-form="final" d="M2 1395q23 48 64.5 82.5t94.5 34.5q52 0 103 -39q36 -28 70 -28q31 0 59 24.5t45 63.5l56 -24q-22 -52 -63.5 -88t-96.5 -36q-54 0 -106 40q-35 27 -67 27q-31 0 -59.5 -23.5t-45.5 -59.5zM449 340h-100q0 232 -42 421.5t-137 409.5l92 38q99 -230 143 -429t44 -440z M1372 0h-1q-316 0 -399 236q-87 -131 -296 -183.5t-576 -52.5v100q329 0 508 37t254.5 119.5t75.5 234.5v695h100v-694q0 -213 70 -301q72 -91 263 -91h1v-100z" />
<glyph unicode="&#xfedf;&#xfe84;" horiz-adv-x="1033" arabic-form="isolated" d="M149 1286l-24 54l108 50q-69 77 -69 166q0 74 52 125t141 51h82v-60h-82q-67 0 -100 -33t-33 -83q0 -79 67 -140l230 104l24 -54zM656 530q-149 -197 -368 -361v-22q45 -20 112 -33.5t128 -13.5q243 0 243 128q0 105 -115 302zM658 712q77 131 113.5 234t36.5 240h100 q0 -164 -47 -291.5t-142 -274.5q152 -247 152 -392q0 -68 -33 -116t-88 -71t-108.5 -32t-113.5 -9q-94 0 -184 24.5t-156 64.5v130q123 93 224.5 188t186.5 214q-158 238 -474 459l58 82q146 -101 265 -209.5t210 -240.5z" />
<glyph unicode="&#xfee0;&#xfe84;" horiz-adv-x="1372" arabic-form="final" d="M149 1286l-24 54l108 50q-69 77 -69 166q0 74 52 125t141 51h82v-60h-82q-67 0 -100 -33t-33 -83q0 -79 67 -140l230 104l24 -54zM449 340h-100q0 232 -42 421.5t-137 409.5l92 38q99 -230 143 -429t44 -440zM1372 0h-1q-316 0 -399 236q-87 -131 -296 -183.5t-576 -52.5 v100q329 0 508 37t254.5 119.5t75.5 234.5v695h100v-694q0 -213 70 -301q72 -91 263 -91h1v-100z" />
<glyph unicode="&#xfedf;&#xfe88;" horiz-adv-x="1033" arabic-form="isolated" d="M156 -671l-24 54l108 50q-69 77 -69 166q0 74 52 125t141 51h82v-60h-82q-67 0 -100 -33t-33 -83q0 -79 67 -140l230 104l24 -54zM656 530q-149 -197 -368 -361v-22q45 -20 112 -33.5t128 -13.5q243 0 243 128q0 105 -115 302zM658 712q77 131 113.5 234t36.5 240h100 q0 -164 -47 -291.5t-142 -274.5q152 -247 152 -392q0 -68 -33 -116t-88 -71t-108.5 -32t-113.5 -9q-94 0 -184 24.5t-156 64.5v130q123 93 224.5 188t186.5 214q-158 238 -474 459l58 82q146 -101 265 -209.5t210 -240.5z" />
<glyph unicode="&#xfee0;&#xfe88;" horiz-adv-x="1372" arabic-form="final" d="M156 -671l-24 54l108 50q-69 77 -69 166q0 74 52 125t141 51h82v-60h-82q-67 0 -100 -33t-33 -83q0 -79 67 -140l230 104l24 -54zM449 340h-100q0 232 -42 421.5t-137 409.5l92 38q99 -230 143 -429t44 -440zM1372 0h-1q-316 0 -399 236q-87 -131 -296 -183.5t-576 -52.5 v100q329 0 508 37t254.5 119.5t75.5 234.5v695h100v-694q0 -213 70 -301q72 -91 263 -91h1v-100z" />
<glyph unicode="&#xfedf;&#xfe8e;" horiz-adv-x="1033" arabic-form="isolated" d="M656 530q-149 -197 -368 -361v-22q45 -20 112 -33.5t128 -13.5q243 0 243 128q0 105 -115 302zM658 712q77 131 113.5 234t36.5 240h100q0 -164 -47 -291.5t-142 -274.5q152 -247 152 -392q0 -68 -33 -116t-88 -71t-108.5 -32t-113.5 -9q-94 0 -184 24.5t-156 64.5v130 q123 93 224.5 188t186.5 214q-158 238 -474 459l58 82q146 -101 265 -209.5t210 -240.5z" />
<glyph unicode="&#xfee0;&#xfe8e;" horiz-adv-x="1372" arabic-form="final" d="M449 340h-100q0 232 -42 421.5t-137 409.5l92 38q99 -230 143 -429t44 -440zM1372 0h-1q-316 0 -399 236q-87 -131 -296 -183.5t-576 -52.5v100q329 0 508 37t254.5 119.5t75.5 234.5v695h100v-694q0 -213 70 -301q72 -91 263 -91h1v-100z" />
<glyph unicode="&#x64e;&#x654;" d="M-186 1509l-24 54l108 50q-69 77 -69 166q0 74 52 125t141 51h82v-60h-82q-67 0 -100 -33t-33 -83q0 -79 67 -140l230 104l24 -54zM186 2251l24 -54l-396 -180l-24 54z" />
<glyph unicode="&#x64f;&#x654;" d="M-186 1509l-24 54l108 50q-69 77 -69 166q0 74 52 125t141 51h82v-60h-82q-67 0 -100 -33t-33 -83q0 -79 67 -140l230 104l24 -54zM48 2203q-147 56 -147 160q0 63 48 108t106 45q62 0 96.5 -46t34.5 -98q0 -67 -34 -129t-88.5 -106.5t-114.5 -75.5t-120 -47l-16 58 q64 17 127.5 51.5t107.5 79.5zM88 2253q38 59 38 119q0 32 -20 58t-51 26q-33 0 -63.5 -28.5t-30.5 -64.5q0 -33 34 -62t93 -48z" />
<glyph unicode="&#x64e;&#x651;" d="M186 1690q0 70 -29 151l56 20q33 -89 33 -171q0 -68 -35 -110t-87 -42q-36 0 -69 21.5t-55 59.5q-46 -81 -124 -81q-52 0 -87 42t-35 110q0 82 33 171l56 -20q-29 -81 -29 -151q0 -92 70 -92q31 0 58.5 29t27.5 74v70h60v-70q0 -45 27 -74t59 -29q70 0 70 92zM186 2204 l24 -54l-396 -180l-24 54z" />
<glyph unicode="&#x64b;&#x651;" d="M186 2409l24 -54l-396 -180l-24 54zM186 2195l24 -54l-396 -180l-24 54zM186 1690q0 70 -29 151l56 20q33 -89 33 -171q0 -68 -35 -110t-87 -42q-36 0 -69 21.5t-55 59.5q-46 -81 -124 -81q-52 0 -87 42t-35 110q0 82 33 171l56 -20q-29 -81 -29 -151q0 -92 70 -92 q31 0 58.5 29t27.5 74v70h60v-70q0 -45 27 -74t59 -29q70 0 70 92z" />
<glyph unicode="&#x650;&#x651;" d="M186 1742l24 -54l-396 -180l-24 54zM186 1992q0 70 -29 151l56 20q33 -89 33 -171q0 -68 -35 -110t-87 -42q-36 0 -69 21.5t-55 59.5q-46 -81 -124 -81q-52 0 -87 42t-35 110q0 82 33 171l56 -20q-29 -81 -29 -151q0 -92 70 -92q31 0 58.5 29t27.5 74v70h60v-70 q0 -45 27 -74t59 -29q70 0 70 92z" />
<glyph unicode="&#x64d;&#x651;" d="M186 1956l24 -54l-396 -180l-24 54zM186 1742l24 -54l-396 -180l-24 54zM186 2153q0 70 -29 151l56 20q33 -89 33 -171q0 -68 -35 -110t-87 -42q-36 0 -69 21.5t-55 59.5q-46 -81 -124 -81q-52 0 -87 42t-35 110q0 82 33 171l56 -20q-29 -81 -29 -151q0 -92 70 -92 q31 0 58.5 29t27.5 74v70h60v-70q0 -45 27 -74t59 -29q70 0 70 92z" />
<glyph unicode="&#x64f;&#x651;" d="M186 1690q0 70 -29 151l56 20q33 -89 33 -171q0 -68 -35 -110t-87 -42q-36 0 -69 21.5t-55 59.5q-46 -81 -124 -81q-52 0 -87 42t-35 110q0 82 33 171l56 -20q-29 -81 -29 -151q0 -92 70 -92q31 0 58.5 29t27.5 74v70h60v-70q0 -45 27 -74t59 -29q70 0 70 92zM66 2153 q-147 56 -147 160q0 63 48 108t106 45q62 0 96.5 -46t34.5 -98q0 -67 -34 -129t-88.5 -106.5t-114.5 -75.5t-120 -47l-16 58q64 17 127.5 51.5t107.5 79.5zM106 2203q38 59 38 119q0 32 -20 58t-51 26q-33 0 -63.5 -28.5t-30.5 -64.5q0 -33 34 -62t93 -48z" />
<glyph unicode="&#x64c;&#x651;" d="M-187 2343q0 -84 47 -153l-50 -34q-57 86 -57 187q0 139 98 237.5t238 98.5v-60q-115 0 -195.5 -81t-80.5 -195zM94 2177q-147 56 -147 160q0 63 48 108t106 45q62 0 96.5 -46t34.5 -98q0 -67 -34 -129t-88.5 -106.5t-114.5 -75.5t-120 -47l-16 58q64 17 127.5 51.5 t107.5 79.5zM134 2227q38 59 38 119q0 32 -20 58t-51 26q-33 0 -63.5 -28.5t-30.5 -64.5q0 -33 34 -62t93 -48zM186 1690q0 70 -29 151l56 20q33 -89 33 -171q0 -68 -35 -110t-87 -42q-36 0 -69 21.5t-55 59.5q-46 -81 -124 -81q-52 0 -87 42t-35 110q0 82 33 171l56 -20 q-29 -81 -29 -151q0 -92 70 -92q31 0 58.5 29t27.5 74v70h60v-70q0 -45 27 -74t59 -29q70 0 70 92z" />
<glyph unicode="&#x66e;" horiz-adv-x="1873" d="M1652 557q-51 -183 -51 -272q0 -44 9.5 -74t37 -57.5t83 -40.5t141.5 -13h1v-100h-1q-172 0 -262.5 62t-105.5 173q-127 -130 -303.5 -181.5t-453.5 -51.5q-111 0 -201.5 11.5t-170 39.5t-133.5 71.5t-84.5 110t-30.5 153.5q0 131 63 285l92 -38q-24 -60 -39.5 -129.5 t-15.5 -117.5q0 -150 124.5 -218t395.5 -68q180 0 309.5 19t217.5 54.5t145 96t87.5 133t48.5 176.5z" />
<glyph unicode="&#x66f;" horiz-adv-x="921" d="M691 378q-106 -31 -210 -31q-67 0 -124 15.5t-103.5 47.5t-72.5 87t-26 129q0 96 38 186.5t110.5 150.5t159.5 60q60 0 109.5 -24.5t83 -63.5t59 -93.5t40 -108.5t23.5 -115t12 -107t3 -90q0 -75 -10.5 -133.5t-38 -102t-58 -74.5t-87.5 -51.5t-108.5 -32.5t-139 -18 t-160.5 -7.5t-191 -1.5q-21 0 -35.5 14.5t-14.5 35.5t14.5 35.5t35.5 14.5q88 0 152 1t129 4t109 7.5t88 12.5t72 19t54.5 27t41 35.5t25.5 45.5t15.5 56.5t4.5 69.5zM691 482q-4 82 -19.5 157t-42 140.5t-70 104.5t-96.5 39q-76 0 -142 -90t-66 -207q0 -97 55 -138t171 -41 q103 0 210 35z" />
<glyph unicode="&#x66f;" horiz-adv-x="908" d="M0 100q183 0 323 32q-179 120 -179 332q0 151 86.5 238.5t223.5 87.5q135 0 222.5 -88t87.5 -238q0 -211 -179 -332q140 -32 322 -32h1v-100h-1q-269 0 -453 67q-184 -67 -454 -67q-21 0 -35.5 14.5t-14.5 35.5t14.5 35.5t35.5 14.5zM454 174q210 92 210 290 q0 112 -56.5 169t-153.5 57q-98 0 -154 -56.5t-56 -169.5q0 -199 210 -290z" />
<glyph unicode="&#x66f;" horiz-adv-x="1415" d="M1186 0h-211q-67 0 -124 15.5t-103.5 47.5t-72.5 87t-26 129q0 96 38 186.5t110.5 150.5t159.5 60q66 0 119.5 -28.5t88 -78t59 -107.5t37.5 -126.5t19 -124t7 -111.5h128v-100h-131q-12 -123 -62.5 -220t-131 -158t-183.5 -93t-223 -32q-118 0 -217.5 31t-176 91.5 t-119.5 158t-43 222.5q0 152 78 365l92 -32q-70 -193 -70 -333q0 -196 120.5 -299.5t335.5 -103.5q218 0 350.5 104t151.5 299zM1185 100q-1 86 -15.5 168t-41.5 152t-71.5 113t-99.5 43q-76 0 -142 -90t-66 -207q0 -97 55 -138t171 -41h210z" />
<glyph unicode="&#x6a1;" horiz-adv-x="1876" d="M1417 68q-193 -68 -526 -68q-93 0 -167 3t-156 13t-143.5 26.5t-119.5 45t-95 67.5t-59 94.5t-22 125.5q0 112 61 295l94 -32q-55 -169 -55 -263q0 -65 29 -113t82 -79t137 -49.5t182.5 -26t231.5 -7.5q238 0 395 35q-174 120 -174 329q0 151 86.5 238.5t223.5 87.5 q135 0 222.5 -88t87.5 -238q0 -215 -180 -331q146 -33 323 -33h1v-100h-1q-278 0 -458 68zM1419 176q213 87 213 288q0 112 -56.5 169t-153.5 57q-98 0 -154 -56.5t-56 -169.5q0 -196 207 -288z" />
<glyph unicode="&#x6ca;" horiz-adv-x="928" d="M203 1012l107 107l107 -107l-107 -107zM534 1012l107 107l107 -107l-107 -107zM795 0q-26 -189 -183.5 -315t-445.5 -199l-25 96q262 67 395 170.5t158 247.5h-206q-67 0 -124 15.5t-103.5 47.5t-72.5 87t-26 129q0 96 38 186.5t110.5 150.5t159.5 60q57 0 105.5 -22.5 t81 -59t58.5 -87.5t41 -102.5t25 -110t14 -104t5 -90.5h128v-100h-133zM700 100q-2 82 -16 162.5t-40.5 152.5t-71.5 116.5t-102 44.5q-76 0 -142 -90t-66 -207q0 -97 55 -138t171 -41h212z" />
<glyph unicode="&#x67e;" horiz-adv-x="1873" arabic-form="final" d="M711 -613l107 107l107 -107l-107 -107zM876 -329l107 107l107 -107l-107 -107zM545 -329l107 107l107 -107l-107 -107zM1652 557q-51 -183 -51 -272q0 -44 9.5 -74t37 -57.5t83 -40.5t141.5 -13h1v-100h-1q-172 0 -262.5 62t-105.5 173q-127 -130 -303.5 -181.5 t-453.5 -51.5q-111 0 -201.5 11.5t-170 39.5t-133.5 71.5t-84.5 110t-30.5 153.5q0 131 63 285l92 -38q-24 -60 -39.5 -129.5t-15.5 -117.5q0 -150 124.5 -218t395.5 -68q180 0 309.5 19t217.5 54.5t145 96t87.5 133t48.5 176.5z" />
<glyph unicode="&#x67e;" horiz-adv-x="547" arabic-form="initial" d="M-1 -613l107 107l107 -107l-107 -107zM164 -329l107 107l107 -107l-107 -107zM-167 -329l107 107l107 -107l-107 -107zM350 732q65 -198 65 -350q0 -86 -22 -153t-69.5 -120t-129.5 -81t-194 -28q-21 0 -35.5 14.5t-14.5 35.5t14.5 35.5t35.5 14.5q173 0 247.5 73 t74.5 204q0 123 -66 323z" />
<glyph unicode="&#x67e;" horiz-adv-x="767" arabic-form="medial" d="M-31 -613l107 107l107 -107l-107 -107zM134 -329l107 107l107 -107l-107 -107zM-197 -329l107 107l107 -107l-107 -107zM0 100q204 0 276 108q58 88 58 284v77h100v-77q0 -185 49 -270q36 -62 104 -92t179 -30h1v-100h-1q-290 0 -382 198q-93 -198 -384 -198 q-21 0 -35.5 14.5t-14.5 35.5t14.5 35.5t35.5 14.5z" />
<glyph unicode="&#x6a4;" horiz-adv-x="1875" arabic-form="final" d="M1314 1478l107 107l107 -107l-107 -107zM1480 1194l107 107l107 -107l-107 -107zM1149 1194l107 107l107 -107l-107 -107zM1416 68q-193 -68 -526 -68q-93 0 -167 3t-156 13t-143.5 26.5t-119.5 45t-95 67.5t-59 94.5t-22 125.5q0 112 61 295l94 -32q-55 -169 -55 -263 q0 -65 29 -113t82 -79t137 -49.5t182.5 -26t231.5 -7.5q238 0 395 35q-174 120 -174 329q0 151 86.5 238.5t223.5 87.5q135 0 222.5 -88t87.5 -238q0 -215 -180 -331q146 -33 323 -33h1v-100h-1q-278 0 -458 68zM1418 176q213 87 213 288q0 112 -56.5 169t-153.5 57 q-98 0 -154 -56.5t-56 -169.5q0 -196 207 -288z" />
<glyph unicode="&#x6a4;" horiz-adv-x="921" arabic-form="initial" d="M355 1655l107 107l107 -107l-107 -107zM521 1371l107 107l107 -107l-107 -107zM190 1371l107 107l107 -107l-107 -107zM691 378q-106 -31 -210 -31q-67 0 -124 15.5t-103.5 47.5t-72.5 87t-26 129q0 96 38 186.5t110.5 150.5t159.5 60q60 0 109.5 -24.5t83 -63.5 t59 -93.5t40 -108.5t23.5 -115t12 -107t3 -90q0 -75 -10.5 -133.5t-38 -102t-58 -74.5t-87.5 -51.5t-108.5 -32.5t-139 -18t-160.5 -7.5t-191 -1.5q-21 0 -35.5 14.5t-14.5 35.5t14.5 35.5t35.5 14.5q88 0 152 1t129 4t109 7.5t88 12.5t72 19t54.5 27t41 35.5t25.5 45.5 t15.5 56.5t4.5 69.5zM691 482q-4 82 -19.5 157t-42 140.5t-70 104.5t-96.5 39q-76 0 -142 -90t-66 -207q0 -97 55 -138t171 -41q103 0 210 35z" />
<glyph unicode="&#x6a4;" horiz-adv-x="908" arabic-form="medial" d="M346 1432l107 107l107 -107l-107 -107zM512 1148l107 107l107 -107l-107 -107zM181 1148l107 107l107 -107l-107 -107zM0 100q183 0 323 32q-179 120 -179 332q0 151 86.5 238.5t223.5 87.5q135 0 222.5 -88t87.5 -238q0 -211 -179 -332q140 -32 322 -32h1v-100h-1 q-269 0 -453 67q-184 -67 -454 -67q-21 0 -35.5 14.5t-14.5 35.5t14.5 35.5t35.5 14.5zM454 174q210 92 210 290q0 112 -56.5 169t-153.5 57q-98 0 -154 -56.5t-56 -169.5q0 -199 210 -290z" />
<glyph unicode="&#x686;" horiz-adv-x="1398" arabic-form="final" d="M812.947 -115.355l101.645 101.645l101.645 -101.645l-101.645 -101.645zM498.947 -115.355l101.645 101.645l101.645 -101.645l-101.645 -101.645zM655.947 -341.355l101.645 101.645l101.645 -101.645l-101.645 -101.645zM1220 -524l36 -94q-249 -94 -491 -94 q-101 0 -190.5 14t-173 48t-143.5 86t-96 132t-36 181q0 91 28.5 171.5t75.5 143.5t121.5 120t152 99.5t182.5 83.5t198 70.5t212 62.5l-483 185q-55 18 -106 18q-100 0 -156 -70.5t-73 -215.5l-100 12q9 81 33 147.5t63.5 118t99 80t133.5 28.5q73 0 138 -24l589 -223v-122 q-117 -31 -238 -68q38 -60 70.5 -100.5t81 -82t111 -62.5t138.5 -21h1v-100h-1q-75 0 -141 18.5t-116 48t-96 74t-79.5 90t-67.5 103.5q-124 -41 -220.5 -83t-183.5 -95.5t-144 -112.5t-90 -134t-33 -160q0 -94 40 -164.5t113 -113t169.5 -63t216.5 -20.5q126 0 231 22 t224 66z" />
<glyph unicode="&#x686;" horiz-adv-x="1316" arabic-form="initial" d="M507 -563l107 107l107 -107l-107 -107zM672 -279l107 107l107 -107l-107 -107zM341 -279l107 107l107 -107l-107 -107zM126 414q63 388 310 388q84 0 184 -48l537 -243v-122q-291 -205 -555.5 -297t-601.5 -92q-20 0 -35 15t-15 35t15 35t35 15q314 0 558 82t491 263 l-473 219q-80 38 -140 38q-163 0 -212 -304z" />
<glyph unicode="&#x686;" horiz-adv-x="1316" arabic-form="medial" d="M507 -563l107 107l107 -107l-107 -107zM672 -279l107 107l107 -107l-107 -107zM341 -279l107 107l107 -107l-107 -107zM126 414q63 388 310 388q84 0 184 -48l537 -243v-122q-106 -74 -177 -117q64 -83 139.5 -127.5t195.5 -44.5h1v-100h-1q-146 0 -246.5 59t-177.5 162 q-208 -114 -420 -167.5t-471 -53.5q-20 0 -35 15t-15 35t15 35t35 15q314 0 558 82t491 263l-473 219q-80 38 -140 38q-163 0 -212 -304z" />
<glyph unicode="&#x698;" horiz-adv-x="960" arabic-form="final" d="M456 1196l107 107l107 -107l-107 -107zM622 912l107 107l107 -107l-107 -107zM291 912l107 107l107 -107l-107 -107zM510 527l92 38l90 -305q26 -87 85 -123.5t182 -36.5h1v-100h-1q-161 0 -254 73q-9 -197 -151 -349t-387 -242l-34 94q230 84 351.5 218t121.5 312 q0 80 -18.5 168.5t-77.5 252.5z" />
<glyph unicode="&#x6a9;" horiz-adv-x="1864" arabic-form="final" d="M1864 100v-100h-1q-116 0 -201.5 32.5t-135 82.5t-95.5 128q-16 -64 -62.5 -110t-104.5 -71t-143.5 -39.5t-158.5 -18.5t-171 -4q-132 0 -231 11t-182 38.5t-135.5 72.5t-81.5 114t-29 162q0 122 46 272l96 -30q-42 -134 -42 -242q0 -70 18 -119t56.5 -84.5t105.5 -56 t158 -29.5t221 -9q136 0 231 9.5t170 34t111.5 68.5t36.5 109q0 110 -124.5 250.5t-321.5 281.5v141q164 107 377 194t416 132l22 -98q-181 -41 -374 -116.5t-341 -166.5v-34q134 -92 234.5 -193.5t153 -179t101.5 -174.5q22 -43 36.5 -68.5t35.5 -56.5t40 -48.5t46 -36 t58.5 -27.5t72.5 -15t91 -6h1z" />
<glyph unicode="&#x6a9;" horiz-adv-x="999" arabic-form="initial" d="M0 100h121q208 0 289 50.5t81 170.5q0 110 -124.5 250.5t-321.5 281.5v141q164 107 377 194t416 132l22 -98q-181 -41 -374 -116.5t-341 -166.5v-34q446 -317 446 -584q0 -171 -120 -246t-350 -75h-121q-21 0 -35.5 14.5t-14.5 35.5t14.5 35.5t35.5 14.5z" />
<glyph unicode="&#x6a9;" horiz-adv-x="1020" arabic-form="medial" d="M0 100h121q208 0 289 50.5t81 170.5q0 110 -124.5 250.5t-321.5 281.5v141q164 107 377 194t416 132l22 -98q-181 -41 -374 -116.5t-341 -166.5v-34q134 -92 234.5 -193.5t153 -179t101.5 -174.5q37 -73 64 -113.5t70.5 -77.5t103.5 -52t147 -15h1v-100h-1 q-116 0 -201.5 32t-137 81.5t-97.5 127.5q-27 -127 -144 -184t-318 -57h-121q-21 0 -35.5 14.5t-14.5 35.5t14.5 35.5t35.5 14.5z" />
<glyph unicode="&#x6af;" horiz-adv-x="1864" arabic-form="final" d="M1864 100v-100h-1q-116 0 -201.5 32.5t-135 82.5t-95.5 128q-16 -64 -62.5 -110t-104.5 -71t-143.5 -39.5t-158.5 -18.5t-171 -4q-132 0 -231 11t-182 38.5t-135.5 72.5t-81.5 114t-29 162q0 122 46 272l96 -30q-42 -134 -42 -242q0 -70 18 -119t56.5 -84.5t105.5 -56 t158 -29.5t221 -9q136 0 231 9.5t170 34t111.5 68.5t36.5 109q0 110 -124.5 250.5t-321.5 281.5v141q164 107 377 194t416 132l22 -98q-181 -41 -374 -116.5t-341 -166.5v-34q134 -92 234.5 -193.5t153 -179t101.5 -174.5q22 -43 36.5 -68.5t35.5 -56.5t40 -48.5t46 -36 t58.5 -27.5t72.5 -15t91 -6h1zM1628 1546l16 -74q-405 -83 -742 -298l-40 64q344 221 766 308z" />
<glyph unicode="&#x6af;" horiz-adv-x="999" arabic-form="initial" d="M772 1546l16 -74q-405 -83 -742 -298l-40 64q344 221 766 308zM0 100h121q208 0 289 50.5t81 170.5q0 110 -124.5 250.5t-321.5 281.5v141q164 107 377 194t416 132l22 -98q-181 -41 -374 -116.5t-341 -166.5v-34q446 -317 446 -584q0 -171 -120 -246t-350 -75h-121 q-21 0 -35.5 14.5t-14.5 35.5t14.5 35.5t35.5 14.5z" />
<glyph unicode="&#x6af;" horiz-adv-x="1020" arabic-form="medial" d="M772 1546l16 -74q-405 -83 -742 -298l-40 64q344 221 766 308zM0 100h121q208 0 289 50.5t81 170.5q0 110 -124.5 250.5t-321.5 281.5v141q164 107 377 194t416 132l22 -98q-181 -41 -374 -116.5t-341 -166.5v-34q134 -92 234.5 -193.5t153 -179t101.5 -174.5 q37 -73 64 -113.5t70.5 -77.5t103.5 -52t147 -15h1v-100h-1q-116 0 -201.5 32t-137 81.5t-97.5 127.5q-27 -127 -144 -184t-318 -57h-121q-21 0 -35.5 14.5t-14.5 35.5t14.5 35.5t35.5 14.5z" />
<glyph unicode="&#x6ba;" horiz-adv-x="1660" arabic-form="final" d="M270 524l84 -51q-125 -252 -125 -468q0 -133 66.5 -226.5t176.5 -137.5t252 -44q114 0 214.5 29.5t177.5 84t121.5 140.5t44.5 192q0 109 -42.5 231t-111.5 264l89 38l125 -294q28 -66 63.5 -103.5t97 -58t156.5 -20.5h1v-100h-1q-173 0 -276 67q0 -115 -35 -209.5 t-95.5 -160.5t-144 -111.5t-179 -67t-201.5 -21.5q-123 0 -231 33.5t-190.5 96.5t-130 161t-47.5 219q0 127 41 264t100 253z" />
<glyph unicode="&#x6c6;" horiz-adv-x="928" arabic-form="final" d="M795 0q-26 -189 -183.5 -315t-445.5 -199l-25 96q262 67 395 170.5t158 247.5h-206q-67 0 -124 15.5t-103.5 47.5t-72.5 87t-26 129q0 96 38 186.5t110.5 150.5t159.5 60q57 0 105.5 -22.5t81 -59t58.5 -87.5t41 -102.5t25 -110t14 -104t5 -90.5h128v-100h-133zM700 100 q-2 82 -16 162.5t-40.5 152.5t-71.5 116.5t-102 44.5q-76 0 -142 -90t-66 -207q0 -97 55 -138t171 -41h212zM240 1312l48 36l182 -243l182 243l48 -36l-230 -307z" />
<glyph unicode="&#x649;" horiz-adv-x="547" arabic-form="initial" d="M350 732q65 -198 65 -350q0 -86 -22 -153t-69.5 -120t-129.5 -81t-194 -28q-21 0 -35.5 14.5t-14.5 35.5t14.5 35.5t35.5 14.5q173 0 247.5 73t74.5 204q0 123 -66 323z" />
<glyph unicode="&#x649;" horiz-adv-x="767" arabic-form="medial" d="M0 100q204 0 276 108q58 88 58 284v77h100v-77q0 -185 49 -270q36 -62 104 -92t179 -30h1v-100h-1q-290 0 -382 198q-93 -198 -384 -198q-21 0 -35.5 14.5t-14.5 35.5t14.5 35.5t35.5 14.5z" />
<glyph unicode="&#x6cc;" horiz-adv-x="1453" arabic-form="final" d="M1453 100v-100h-253q61 -30 91.5 -86t30.5 -122q0 -165 -155.5 -270t-428.5 -105q-283 0 -440.5 132.5t-157.5 390.5q0 148 35.5 281.5t101.5 279.5l90 -47q-63 -140 -96 -263t-33 -262q0 -412 496 -412q106 0 192.5 17.5t140 45t90 63t51 69t14.5 64.5q0 105 -117 164.5 t-363 59.5v100h711z" />
<glyph unicode="&#x6cc;" horiz-adv-x="547" arabic-form="initial" d="M166 -330l107 107l107 -107l-107 -107zM-165 -330l107 107l107 -107l-107 -107zM350 732q65 -198 65 -350q0 -86 -22 -153t-69.5 -120t-129.5 -81t-194 -28q-21 0 -35.5 14.5t-14.5 35.5t14.5 35.5t35.5 14.5q173 0 247.5 73t74.5 204q0 123 -66 323z" />
<glyph unicode="&#x6cc;" horiz-adv-x="767" arabic-form="medial" d="M135 -330l107 107l107 -107l-107 -107zM-196 -330l107 107l107 -107l-107 -107zM0 100q204 0 276 108q58 88 58 284v77h100v-77q0 -185 49 -270q36 -62 104 -92t179 -30h1v-100h-1q-290 0 -382 198q-93 -198 -384 -198q-21 0 -35.5 14.5t-14.5 35.5t14.5 35.5t35.5 14.5z " />
<glyph unicode="&#xfdfc;" horiz-adv-x="3141" arabic-form="isolated" d="M1007 1186h100v-1165q0 -259 -131 -391.5t-374 -132.5q-218 0 -346 113.5t-128 315.5q0 174 88 390l91 -42q-80 -207 -80 -354q0 -156 101.5 -239.5t289.5 -83.5q195 0 292 102.5t97 321.5v1165zM1485 1186h100v-820q0 -140 51 -198q60 -68 244 -68h1v-100h-1 q-212 0 -310 102q-85 89 -85 264v820zM2047 -330l107 107l107 -107l-107 -107zM1716 -330l107 107l107 -107l-107 -107zM2231 732q65 -198 65 -350q0 -86 -22 -153t-69.5 -120t-129.5 -81t-194 -28q-21 0 -35.5 14.5t-14.5 35.5t14.5 35.5t35.5 14.5q173 0 247.5 73 t74.5 204q0 123 -66 323zM2867 527l92 38q104 -258 104 -459q0 -209 -142.5 -370t-396.5 -254l-34 94q230 84 351.5 218t121.5 312q0 179 -96 421z" />
<glyph unicode="&#x622;" horiz-adv-x="596" arabic-form="final" d="M2 1407q23 48 64.5 82.5t94.5 34.5q52 0 103 -39q36 -28 70 -28q31 0 59 24.5t45 63.5l56 -24q-22 -52 -63.5 -88t-96.5 -36q-54 0 -106 40q-35 27 -67 27q-31 0 -59.5 -23.5t-45.5 -59.5zM200 1186h100v-820q0 -140 51 -198q60 -68 244 -68h1v-100h-1q-212 0 -310 102 q-85 89 -85 264v820z" />
<glyph unicode="&#x623;" horiz-adv-x="596" arabic-form="final" d="M86 1286l-24 54l108 50q-69 77 -69 166q0 74 52 125t141 51h82v-60h-82q-67 0 -100 -33t-33 -83q0 -79 67 -140l230 104l24 -54zM200 1186h100v-820q0 -140 51 -198q60 -68 244 -68h1v-100h-1q-212 0 -310 102q-85 89 -85 264v820z" />
<glyph unicode="&#x624;" horiz-adv-x="928" arabic-form="final" d="M290 836l-24 54l108 50q-69 77 -69 166q0 74 52 125t141 51h82v-60h-82q-67 0 -100 -33t-33 -83q0 -79 67 -140l230 104l24 -54zM795 0q-26 -189 -183.5 -315t-445.5 -199l-25 96q262 67 395 170.5t158 247.5h-206q-67 0 -124 15.5t-103.5 47.5t-72.5 87t-26 129 q0 96 38 186.5t110.5 150.5t159.5 60q57 0 105.5 -22.5t81 -59t58.5 -87.5t41 -102.5t25 -110t14 -104t5 -90.5h128v-100h-133zM700 100q-2 82 -16 162.5t-40.5 152.5t-71.5 116.5t-102 44.5q-76 0 -142 -90t-66 -207q0 -97 55 -138t171 -41h212z" />
<glyph unicode="&#x625;" horiz-adv-x="596" arabic-form="final" d="M237 -713l-24 54l108 50q-69 77 -69 166q0 74 52 125t141 51h82v-60h-82q-67 0 -100 -33t-33 -83q0 -79 67 -140l230 104l24 -54zM200 1186h100v-820q0 -140 51 -198q60 -68 244 -68h1v-100h-1q-212 0 -310 102q-85 89 -85 264v820z" />
<glyph unicode="&#x626;" horiz-adv-x="1453" arabic-form="final" d="M652 308l-24 54l108 50q-69 77 -69 166q0 74 52 125t141 51h82v-60h-82q-67 0 -100 -33t-33 -83q0 -79 67 -140l230 104l24 -54zM1453 100v-100h-253q61 -30 91.5 -86t30.5 -122q0 -165 -155.5 -270t-428.5 -105q-283 0 -440.5 132.5t-157.5 390.5q0 148 35.5 281.5 t101.5 279.5l90 -47q-63 -140 -96 -263t-33 -262q0 -412 496 -412q106 0 192.5 17.5t140 45t90 63t51 69t14.5 64.5q0 105 -117 164.5t-363 59.5v100h711z" />
<glyph unicode="&#x626;" horiz-adv-x="547" arabic-form="initial" d="M72 869l-24 54l108 50q-69 77 -69 166q0 74 52 125t141 51h82v-60h-82q-67 0 -100 -33t-33 -83q0 -79 67 -140l230 104l24 -54zM350 732q65 -198 65 -350q0 -86 -22 -153t-69.5 -120t-129.5 -81t-194 -28q-21 0 -35.5 14.5t-14.5 35.5t14.5 35.5t35.5 14.5 q173 0 247.5 73t74.5 204q0 123 -66 323z" />
<glyph unicode="&#x626;" horiz-adv-x="767" arabic-form="medial" d="M39 669l-24 54l108 50q-69 77 -69 166q0 74 52 125t141 51h82v-60h-82q-67 0 -100 -33t-33 -83q0 -79 67 -140l230 104l24 -54zM0 100q204 0 276 108q58 88 58 284v77h100v-77q0 -185 49 -270q36 -62 104 -92t179 -30h1v-100h-1q-290 0 -382 198q-93 -198 -384 -198 q-21 0 -35.5 14.5t-14.5 35.5t14.5 35.5t35.5 14.5z" />
<glyph unicode="&#x627;" horiz-adv-x="596" arabic-form="final" d="M200 1186h100v-820q0 -140 51 -198q60 -68 244 -68h1v-100h-1q-212 0 -310 102q-85 89 -85 264v820z" />
<glyph unicode="&#x628;" horiz-adv-x="1873" arabic-form="final" d="M711 -330l107 107l107 -107l-107 -107zM1652 557q-51 -183 -51 -272q0 -44 9.5 -74t37 -57.5t83 -40.5t141.5 -13h1v-100h-1q-172 0 -262.5 62t-105.5 173q-127 -130 -303.5 -181.5t-453.5 -51.5q-111 0 -201.5 11.5t-170 39.5t-133.5 71.5t-84.5 110t-30.5 153.5 q0 131 63 285l92 -38q-24 -60 -39.5 -129.5t-15.5 -117.5q0 -150 124.5 -218t395.5 -68q180 0 309.5 19t217.5 54.5t145 96t87.5 133t48.5 176.5z" />
<glyph unicode="&#x628;" horiz-adv-x="547" arabic-form="initial" d="M25 -330l107 107l107 -107l-107 -107zM350 732q65 -198 65 -350q0 -86 -22 -153t-69.5 -120t-129.5 -81t-194 -28q-21 0 -35.5 14.5t-14.5 35.5t14.5 35.5t35.5 14.5q173 0 247.5 73t74.5 204q0 123 -66 323z" />
<glyph unicode="&#x628;" horiz-adv-x="767" arabic-form="medial" d="M25 -330l107 107l107 -107l-107 -107zM0 100q204 0 276 108q58 88 58 284v77h100v-77q0 -185 49 -270q36 -62 104 -92t179 -30h1v-100h-1q-290 0 -382 198q-93 -198 -384 -198q-21 0 -35.5 14.5t-14.5 35.5t14.5 35.5t35.5 14.5z" />
<glyph unicode="&#x629;" horiz-adv-x="1041" arabic-form="final" d="M552 1294l107 107l107 -107l-107 -107zM221 1294l107 107l107 -107l-107 -107zM627 695q-174 -27 -285.5 -102.5t-111.5 -170.5q0 -81 66 -124t181 -43q80 0 177 29zM1041 0h-1q-146 0 -230.5 45t-127.5 141q-105 -31 -205 -31q-65 0 -124.5 15t-110.5 45.5t-81.5 83.5 t-30.5 123q0 79 42 145.5t113.5 111t155.5 73.5t180 43l-8 140l100 6l32 -539q5 -81 19.5 -133.5t46.5 -92.5t88 -58t141 -18h1v-100z" />
<glyph unicode="&#x62a;" horiz-adv-x="1873" arabic-form="final" d="M927 708l107 107l107 -107l-107 -107zM596 708l107 107l107 -107l-107 -107zM1652 557q-51 -183 -51 -272q0 -44 9.5 -74t37 -57.5t83 -40.5t141.5 -13h1v-100h-1q-172 0 -262.5 62t-105.5 173q-127 -130 -303.5 -181.5t-453.5 -51.5q-111 0 -201.5 11.5t-170 39.5 t-133.5 71.5t-84.5 110t-30.5 153.5q0 131 63 285l92 -38q-24 -60 -39.5 -129.5t-15.5 -117.5q0 -150 124.5 -218t395.5 -68q180 0 309.5 19t217.5 54.5t145 96t87.5 133t48.5 176.5z" />
<glyph unicode="&#x62a;" horiz-adv-x="547" arabic-form="initial" d="M288 1084l107 107l107 -107l-107 -107zM-43 1084l107 107l107 -107l-107 -107zM350 732q65 -198 65 -350q0 -86 -22 -153t-69.5 -120t-129.5 -81t-194 -28q-21 0 -35.5 14.5t-14.5 35.5t14.5 35.5t35.5 14.5q173 0 247.5 73t74.5 204q0 123 -66 323z" />
<glyph unicode="&#x62a;" horiz-adv-x="767" arabic-form="medial" d="M354 939l107 107l107 -107l-107 -107zM23 939l107 107l107 -107l-107 -107zM0 100q204 0 276 108q58 88 58 284v77h100v-77q0 -185 49 -270q36 -62 104 -92t179 -30h1v-100h-1q-290 0 -382 198q-93 -198 -384 -198q-21 0 -35.5 14.5t-14.5 35.5t14.5 35.5t35.5 14.5z" />
<glyph unicode="&#x62b;" horiz-adv-x="1873" arabic-form="final" d="M761 992l107 107l107 -107l-107 -107zM927 708l107 107l107 -107l-107 -107zM596 708l107 107l107 -107l-107 -107zM1652 557q-51 -183 -51 -272q0 -44 9.5 -74t37 -57.5t83 -40.5t141.5 -13h1v-100h-1q-172 0 -262.5 62t-105.5 173q-127 -130 -303.5 -181.5 t-453.5 -51.5q-111 0 -201.5 11.5t-170 39.5t-133.5 71.5t-84.5 110t-30.5 153.5q0 131 63 285l92 -38q-24 -60 -39.5 -129.5t-15.5 -117.5q0 -150 124.5 -218t395.5 -68q180 0 309.5 19t217.5 54.5t145 96t87.5 133t48.5 176.5z" />
<glyph unicode="&#x62b;" horiz-adv-x="547" arabic-form="initial" d="M122 1368l107 107l107 -107l-107 -107zM288 1084l107 107l107 -107l-107 -107zM-43 1084l107 107l107 -107l-107 -107zM350 732q65 -198 65 -350q0 -86 -22 -153t-69.5 -120t-129.5 -81t-194 -28q-21 0 -35.5 14.5t-14.5 35.5t14.5 35.5t35.5 14.5q173 0 247.5 73 t74.5 204q0 123 -66 323z" />
<glyph unicode="&#x62b;" horiz-adv-x="767" arabic-form="medial" d="M188 1107l107 107l107 -107l-107 -107zM354 823l107 107l107 -107l-107 -107zM23 823l107 107l107 -107l-107 -107zM0 100q204 0 276 108q58 88 58 284v77h100v-77q0 -185 49 -270q36 -62 104 -92t179 -30h1v-100h-1q-290 0 -382 198q-93 -198 -384 -198 q-21 0 -35.5 14.5t-14.5 35.5t14.5 35.5t35.5 14.5z" />
<glyph unicode="&#x62c;" horiz-adv-x="1398" arabic-form="final" d="M632 -187l107 107l107 -107l-107 -107zM1220 -524l36 -94q-249 -94 -491 -94q-101 0 -190.5 14t-173 48t-143.5 86t-96 132t-36 181q0 91 28.5 171.5t75.5 143.5t121.5 120t152 99.5t182.5 83.5t198 70.5t212 62.5l-483 185q-55 18 -106 18q-100 0 -156 -70.5t-73 -215.5 l-100 12q9 81 33 147.5t63.5 118t99 80t133.5 28.5q73 0 138 -24l589 -223v-122q-117 -31 -238 -68q38 -60 70.5 -100.5t81 -82t111 -62.5t138.5 -21h1v-100h-1q-75 0 -141 18.5t-116 48t-96 74t-79.5 90t-67.5 103.5q-124 -41 -220.5 -83t-183.5 -95.5t-144 -112.5 t-90 -134t-33 -160q0 -94 40 -164.5t113 -113t169.5 -63t216.5 -20.5q126 0 231 22t224 66z" />
<glyph unicode="&#x62c;" horiz-adv-x="1316" arabic-form="initial" d="M494 -280l107 107l107 -107l-107 -107zM126 414q63 388 310 388q84 0 184 -48l537 -243v-122q-291 -205 -555.5 -297t-601.5 -92q-20 0 -35 15t-15 35t15 35t35 15q314 0 558 82t491 263l-473 219q-80 38 -140 38q-163 0 -212 -304z" />
<glyph unicode="&#x62c;" horiz-adv-x="1316" arabic-form="medial" d="M494 -280l107 107l107 -107l-107 -107zM126 414q63 388 310 388q84 0 184 -48l537 -243v-122q-106 -74 -177 -117q64 -83 139.5 -127.5t195.5 -44.5h1v-100h-1q-146 0 -246.5 59t-177.5 162q-208 -114 -420 -167.5t-471 -53.5q-20 0 -35 15t-15 35t15 35t35 15 q314 0 558 82t491 263l-473 219q-80 38 -140 38q-163 0 -212 -304z" />
<glyph unicode="&#x62d;" horiz-adv-x="1398" arabic-form="final" d="M1220 -524l36 -94q-249 -94 -491 -94q-101 0 -190.5 14t-173 48t-143.5 86t-96 132t-36 181q0 91 28.5 171.5t75.5 143.5t121.5 120t152 99.5t182.5 83.5t198 70.5t212 62.5l-483 185q-55 18 -106 18q-100 0 -156 -70.5t-73 -215.5l-100 12q9 81 33 147.5t63.5 118t99 80 t133.5 28.5q73 0 138 -24l589 -223v-122q-117 -31 -238 -68q38 -60 70.5 -100.5t81 -82t111 -62.5t138.5 -21h1v-100h-1q-75 0 -141 18.5t-116 48t-96 74t-79.5 90t-67.5 103.5q-124 -41 -220.5 -83t-183.5 -95.5t-144 -112.5t-90 -134t-33 -160q0 -94 40 -164.5t113 -113 t169.5 -63t216.5 -20.5q126 0 231 22t224 66z" />
<glyph unicode="&#x62d;" horiz-adv-x="1316" arabic-form="initial" d="M126 414q63 388 310 388q84 0 184 -48l537 -243v-122q-291 -205 -555.5 -297t-601.5 -92q-20 0 -35 15t-15 35t15 35t35 15q314 0 558 82t491 263l-473 219q-80 38 -140 38q-163 0 -212 -304z" />
<glyph unicode="&#x62d;" horiz-adv-x="1316" arabic-form="medial" d="M126 414q63 388 310 388q84 0 184 -48l537 -243v-122q-106 -74 -177 -117q64 -83 139.5 -127.5t195.5 -44.5h1v-100h-1q-146 0 -246.5 59t-177.5 162q-208 -114 -420 -167.5t-471 -53.5q-20 0 -35 15t-15 35t15 35t35 15q314 0 558 82t491 263l-473 219q-80 38 -140 38 q-163 0 -212 -304z" />
<glyph unicode="&#x62e;" horiz-adv-x="1398" arabic-form="final" d="M405 1142l107 107l107 -107l-107 -107zM1220 -524l36 -94q-249 -94 -491 -94q-101 0 -190.5 14t-173 48t-143.5 86t-96 132t-36 181q0 91 28.5 171.5t75.5 143.5t121.5 120t152 99.5t182.5 83.5t198 70.5t212 62.5l-483 185q-55 18 -106 18q-100 0 -156 -70.5t-73 -215.5 l-100 12q9 81 33 147.5t63.5 118t99 80t133.5 28.5q73 0 138 -24l589 -223v-122q-117 -31 -238 -68q38 -60 70.5 -100.5t81 -82t111 -62.5t138.5 -21h1v-100h-1q-75 0 -141 18.5t-116 48t-96 74t-79.5 90t-67.5 103.5q-124 -41 -220.5 -83t-183.5 -95.5t-144 -112.5 t-90 -134t-33 -160q0 -94 40 -164.5t113 -113t169.5 -63t216.5 -20.5q126 0 231 22t224 66z" />
<glyph unicode="&#x62e;" horiz-adv-x="1316" arabic-form="initial" d="M347 1201l107 107l107 -107l-107 -107zM126 414q63 388 310 388q84 0 184 -48l537 -243v-122q-291 -205 -555.5 -297t-601.5 -92q-20 0 -35 15t-15 35t15 35t35 15q314 0 558 82t491 263l-473 219q-80 38 -140 38q-163 0 -212 -304z" />
<glyph unicode="&#x62e;" horiz-adv-x="1316" arabic-form="medial" d="M347 1201l107 107l107 -107l-107 -107zM126 414q63 388 310 388q84 0 184 -48l537 -243v-122q-106 -74 -177 -117q64 -83 139.5 -127.5t195.5 -44.5h1v-100h-1q-146 0 -246.5 59t-177.5 162q-208 -114 -420 -167.5t-471 -53.5q-20 0 -35 15t-15 35t15 35t35 15 q314 0 558 82t491 263l-473 219q-80 38 -140 38q-163 0 -212 -304z" />
<glyph unicode="&#x62f;" horiz-adv-x="1180" arabic-form="final" d="M1180 100v-100h-1q-134 0 -224.5 43.5t-160.5 158.5q-41 -99 -141.5 -150.5t-223.5 -51.5q-209 0 -349 105l57 82q118 -87 292 -87q126 0 206 58t80 153q0 54 -28 118l-163 383l92 40l199 -467q41 -96 76 -152t79 -86t89 -38.5t120 -8.5h1z" />
<glyph unicode="&#x630;" horiz-adv-x="1180" arabic-form="final" d="M423 1220l107 107l107 -107l-107 -107zM1180 100v-100h-1q-134 0 -224.5 43.5t-160.5 158.5q-41 -99 -141.5 -150.5t-223.5 -51.5q-209 0 -349 105l57 82q118 -87 292 -87q126 0 206 58t80 153q0 54 -28 118l-163 383l92 40l199 -467q41 -96 76 -152t79 -86t89 -38.5 t120 -8.5h1z" />
<glyph unicode="&#x631;" horiz-adv-x="960" arabic-form="final" d="M510 527l92 38l90 -305q26 -87 85 -123.5t182 -36.5h1v-100h-1q-161 0 -254 73q-9 -197 -151 -349t-387 -242l-34 94q230 84 351.5 218t121.5 312q0 80 -18.5 168.5t-77.5 252.5z" />
<glyph unicode="&#x632;" horiz-adv-x="960" arabic-form="final" d="M414 904l107 107l107 -107l-107 -107zM510 527l92 38l90 -305q26 -87 85 -123.5t182 -36.5h1v-100h-1q-161 0 -254 73q-9 -197 -151 -349t-387 -242l-34 94q230 84 351.5 218t121.5 312q0 80 -18.5 168.5t-77.5 252.5z" />
<glyph unicode="&#x633;" horiz-adv-x="2614" arabic-form="final" d="M2213 650l38 -194q16 -76 24.5 -111t26.5 -86t40 -72.5t59 -46t88.5 -32.5t123.5 -8h1v-100h-1q-108 0 -186.5 25t-124.5 66t-77 103q-62 -194 -262 -194q-77 0 -146.5 37t-108.5 108q-80 -145 -235 -145q-109 0 -187 67q0 -141 -46 -251t-128.5 -179t-190.5 -104.5 t-237 -35.5q-118 0 -217.5 31t-176 91.5t-119.5 158t-43 222.5q0 101 40.5 249.5t103.5 264.5l87 -41q-59 -111 -95 -247.5t-36 -225.5q0 -196 120.5 -299.5t335.5 -103.5q235 0 370 120.5t135 343.5q0 150 -132 479l94 36q31 -88 51.5 -145t42.5 -111t37 -85t33.5 -58.5 t33 -40t35.5 -22.5t40.5 -12t48.5 -2q166 0 192 231l25 219l99 -9l-17 -169q-2 -20 -2 -60q0 -111 55.5 -161.5t137.5 -50.5q100 0 143 67t43 193q0 88 -12 156l-22 114z" />
<glyph unicode="&#x633;" horiz-adv-x="1538" arabic-form="initial" d="M1369 649q22 -104 31.5 -172.5t9.5 -158.5q0 -118 -55 -200q-79 -118 -227 -118q-86 0 -149.5 43.5t-98.5 114.5q-35 -71 -98.5 -114.5t-149.5 -43.5q-93 0 -159 50.5t-100 132.5q-98 -183 -373 -183q-21 0 -35.5 14.5t-14.5 35.5t14.5 35.5t35.5 14.5q193 0 266 92 q68 86 68 300v77h100v-159q0 -170 67 -251q48 -59 131 -59t131 59q67 81 67 251v149h100v-149q0 -170 67 -251q48 -59 131 -59q101 0 148 78q34 56 34 140q0 136 -38 310z" />
<glyph unicode="&#x633;" horiz-adv-x="1735" arabic-form="medial" d="M1369 649l33 -238q26 -164 91 -232q76 -79 241 -79h1v-100h-1q-251 0 -354 164q-32 -75 -97 -119.5t-155 -44.5q-86 0 -149.5 43.5t-98.5 114.5q-35 -71 -98.5 -114.5t-149.5 -43.5q-93 0 -159 50.5t-100 132.5q-98 -183 -373 -183q-21 0 -35.5 14.5t-14.5 35.5 t14.5 35.5t35.5 14.5q191 0 265 90q69 85 69 302v77h100v-159q0 -170 67 -251q48 -59 131 -59q91 0 141 70q57 80 57 240v149h100v-149q0 -151 52 -232q50 -78 146 -78q94 0 143 70q39 57 39 148t-39 315z" />
<glyph unicode="&#x634;" horiz-adv-x="2614" arabic-form="final" d="M1590 1199l107 107l107 -107l-107 -107zM1756 915l107 107l107 -107l-107 -107zM1425 915l107 107l107 -107l-107 -107zM2213 650l38 -194q16 -76 24.5 -111t26.5 -86t40 -72.5t59 -46t88.5 -32.5t123.5 -8h1v-100h-1q-108 0 -186.5 25t-124.5 66t-77 103 q-62 -194 -262 -194q-77 0 -146.5 37t-108.5 108q-80 -145 -235 -145q-109 0 -187 67q0 -141 -46 -251t-128.5 -179t-190.5 -104.5t-237 -35.5q-118 0 -217.5 31t-176 91.5t-119.5 158t-43 222.5q0 101 40.5 249.5t103.5 264.5l87 -41q-59 -111 -95 -247.5t-36 -225.5 q0 -196 120.5 -299.5t335.5 -103.5q235 0 370 120.5t135 343.5q0 150 -132 479l94 36q31 -88 51.5 -145t42.5 -111t37 -85t33.5 -58.5t33 -40t35.5 -22.5t40.5 -12t48.5 -2q166 0 192 231l25 219l99 -9l-17 -169q-2 -20 -2 -60q0 -111 55.5 -161.5t137.5 -50.5q100 0 143 67 t43 193q0 88 -12 156l-22 114z" />
<glyph unicode="&#x634;" horiz-adv-x="1538" arabic-form="initial" d="M773 1199l107 107l107 -107l-107 -107zM939 915l107 107l107 -107l-107 -107zM608 915l107 107l107 -107l-107 -107zM1369 649q22 -104 31.5 -172.5t9.5 -158.5q0 -118 -55 -200q-79 -118 -227 -118q-86 0 -149.5 43.5t-98.5 114.5q-35 -71 -98.5 -114.5t-149.5 -43.5 q-93 0 -159 50.5t-100 132.5q-98 -183 -373 -183q-21 0 -35.5 14.5t-14.5 35.5t14.5 35.5t35.5 14.5q193 0 266 92q68 86 68 300v77h100v-159q0 -170 67 -251q48 -59 131 -59t131 59q67 81 67 251v149h100v-149q0 -170 67 -251q48 -59 131 -59q101 0 148 78q34 56 34 140 q0 136 -38 310z" />
<glyph unicode="&#x634;" horiz-adv-x="1735" arabic-form="medial" d="M773 1199l107 107l107 -107l-107 -107zM939 915l107 107l107 -107l-107 -107zM608 915l107 107l107 -107l-107 -107zM1369 649l33 -238q26 -164 91 -232q76 -79 241 -79h1v-100h-1q-251 0 -354 164q-32 -75 -97 -119.5t-155 -44.5q-86 0 -149.5 43.5t-98.5 114.5 q-35 -71 -98.5 -114.5t-149.5 -43.5q-93 0 -159 50.5t-100 132.5q-98 -183 -373 -183q-21 0 -35.5 14.5t-14.5 35.5t14.5 35.5t35.5 14.5q191 0 265 90q69 85 69 302v77h100v-159q0 -170 67 -251q48 -59 131 -59q91 0 141 70q57 80 57 240v149h100v-149q0 -151 52 -232 q50 -78 146 -78q94 0 143 70q39 57 39 148t-39 315z" />
<glyph unicode="&#x635;" horiz-adv-x="2416" arabic-form="final" d="M1287 190q78 157 179.5 262.5t200 151t197.5 45.5q139 0 234 -84.5t95 -222.5q0 -82 -42 -150q66 -92 264 -92h1v-100h-1q-232 0 -332 117q-74 -59 -183.5 -88t-228.5 -29q-203 0 -382 78q0 -144 -45.5 -256t-127.5 -182.5t-191.5 -106.5t-240.5 -36q-118 0 -217.5 31 t-176 91.5t-119.5 158t-43 222.5q0 101 40.5 249.5t103.5 264.5l87 -41q-59 -111 -95 -247.5t-36 -225.5q0 -196 120.5 -299.5t335.5 -103.5q235 0 370 120.5t135 343.5q0 150 -132 479l94 36q83 -182 136 -386zM1378 149q136 -49 293 -49q185 0 303.5 66t118.5 176 q0 94 -63 150.5t-166 56.5q-56 0 -115 -20.5t-123 -65t-128.5 -125t-119.5 -189.5z" />
<glyph unicode="&#x635;" horiz-adv-x="1612" arabic-form="initial" d="M0 100q175 0 249 76q82 84 85 301v92h100v-225q0 -132 77 -185q69 139 152.5 244t168.5 166t166.5 91t158.5 30q79 0 147.5 -32t113 -97.5t44.5 -151.5q0 -76 -40 -143t-105.5 -115t-148.5 -82.5t-170 -51.5t-169 -17q-181 0 -294 37t-164 136q-98 -173 -371 -173 q-21 0 -35.5 14.5t-14.5 35.5t14.5 35.5t35.5 14.5zM603 121q81 -21 226 -21q128 0 252 43.5t202.5 116t78.5 149.5q0 84 -57.5 132.5t-147.5 48.5q-59 0 -124.5 -24t-139.5 -75.5t-150 -146.5t-140 -223z" />
<glyph unicode="&#x635;" horiz-adv-x="1635" arabic-form="medial" d="M603 121q81 -21 226 -21q128 0 252 43.5t202.5 116t78.5 149.5q0 84 -57.5 132.5t-147.5 48.5q-59 0 -124.5 -24t-139.5 -75.5t-150 -146.5t-140 -223zM434 569v-225q0 -132 77 -185q69 139 152.5 244t168.5 166t166.5 91t158.5 30q79 0 147.5 -32t113 -97.5t44.5 -151.5 q0 -117 -94 -213q36 -50 99.5 -73t166.5 -23h1v-100h-1q-241 0 -343 133q-95 -63 -220 -98t-242 -35q-182 0 -295 36.5t-164 135.5q-98 -172 -370 -172q-20 0 -35 15t-15 35t15 35t35 15q189 0 264 92q70 86 70 300v77h100z" />
<glyph unicode="&#x636;" horiz-adv-x="2416" arabic-form="final" d="M1757 1029l107 107l107 -107l-107 -107zM1287 190q78 157 179.5 262.5t200 151t197.5 45.5q139 0 234 -84.5t95 -222.5q0 -82 -42 -150q66 -92 264 -92h1v-100h-1q-232 0 -332 117q-74 -59 -183.5 -88t-228.5 -29q-203 0 -382 78q0 -144 -45.5 -256t-127.5 -182.5 t-191.5 -106.5t-240.5 -36q-118 0 -217.5 31t-176 91.5t-119.5 158t-43 222.5q0 101 40.5 249.5t103.5 264.5l87 -41q-59 -111 -95 -247.5t-36 -225.5q0 -196 120.5 -299.5t335.5 -103.5q235 0 370 120.5t135 343.5q0 150 -132 479l94 36q83 -182 136 -386zM1378 149 q136 -49 293 -49q185 0 303.5 66t118.5 176q0 94 -63 150.5t-166 56.5q-56 0 -115 -20.5t-123 -65t-128.5 -125t-119.5 -189.5z" />
<glyph unicode="&#x636;" horiz-adv-x="1612" arabic-form="initial" d="M1023 1027l107 107l107 -107l-107 -107zM0 100q175 0 249 76q82 84 85 301v92h100v-225q0 -132 77 -185q69 139 152.5 244t168.5 166t166.5 91t158.5 30q79 0 147.5 -32t113 -97.5t44.5 -151.5q0 -76 -40 -143t-105.5 -115t-148.5 -82.5t-170 -51.5t-169 -17 q-181 0 -294 37t-164 136q-98 -173 -371 -173q-21 0 -35.5 14.5t-14.5 35.5t14.5 35.5t35.5 14.5zM603 121q81 -21 226 -21q128 0 252 43.5t202.5 116t78.5 149.5q0 84 -57.5 132.5t-147.5 48.5q-59 0 -124.5 -24t-139.5 -75.5t-150 -146.5t-140 -223z" />
<glyph unicode="&#x636;" horiz-adv-x="1635" arabic-form="medial" d="M1023 1027l107 107l107 -107l-107 -107zM603 121q81 -21 226 -21q128 0 252 43.5t202.5 116t78.5 149.5q0 84 -57.5 132.5t-147.5 48.5q-59 0 -124.5 -24t-139.5 -75.5t-150 -146.5t-140 -223zM434 569v-225q0 -132 77 -185q69 139 152.5 244t168.5 166t166.5 91 t158.5 30q79 0 147.5 -32t113 -97.5t44.5 -151.5q0 -117 -94 -213q36 -50 99.5 -73t166.5 -23h1v-100h-1q-241 0 -343 133q-95 -63 -220 -98t-242 -35q-182 0 -295 36.5t-164 135.5q-98 -172 -370 -172q-20 0 -35 15t-15 35t15 35t35 15q189 0 264 92q70 86 70 300v77h100z " />
<glyph unicode="&#x637;" horiz-adv-x="1538" arabic-form="final" d="M528 100q137 1 246 11t185 25t132 37.5t89 47t52.5 57.5t26 63t6.5 68q0 84 -57.5 132.5t-147.5 48.5q-44 0 -97 -18t-114.5 -57t-118.5 -95t-111 -139t-91 -181zM428 100v1086h100v-863q110 171 259.5 269t272.5 98q79 0 147.5 -32t113 -97.5t44.5 -151.5 q0 -140 -82 -226q61 -83 254 -83h1v-100h-1q-116 0 -196 29t-137 92q-205 -121 -726 -121h-373v100h323z" />
<glyph unicode="&#x637;" horiz-adv-x="1317" arabic-form="initial" d="M308 100q137 1 246 11t185 25t132 37.5t89 47t52.5 57.5t26 63t6.5 68q0 84 -57.5 132.5t-147.5 48.5q-44 0 -97.5 -18t-114.5 -57t-118 -95t-111 -139t-91 -181zM0 100h208v1086h100v-863q110 171 259.5 269t272.5 98q79 0 147.5 -32t113 -97.5t44.5 -151.5 q0 -80 -25.5 -141.5t-87.5 -113t-162.5 -84.5t-253.5 -51.5t-358 -18.5h-258q-21 0 -35.5 14.5t-14.5 35.5t14.5 35.5t35.5 14.5z" />
<glyph unicode="&#x637;" horiz-adv-x="1318" arabic-form="medial" d="M308 100q190 2 326.5 20t215 44.5t123.5 68t58.5 81.5t13.5 95q0 84 -57.5 132.5t-147.5 48.5q-44 0 -97 -18t-114.5 -57t-118.5 -95t-111 -139t-91 -181zM0 100l208 1v1085h100v-863q110 171 259.5 269t272.5 98q79 0 147.5 -32t113 -97.5t44.5 -151.5q0 -140 -82 -226 q63 -83 254 -83h1v-100h-1q-116 0 -196.5 29t-136.5 92q-205 -121 -726 -121h-258q-21 0 -35.5 14.5t-14.5 35.5t14.5 35.5t35.5 14.5z" />
<glyph unicode="&#x638;" horiz-adv-x="1538" arabic-form="final" d="M981 1069l107 107l107 -107l-107 -107zM528 100q137 1 246 11t185 25t132 37.5t89 47t52.5 57.5t26 63t6.5 68q0 84 -57.5 132.5t-147.5 48.5q-44 0 -97 -18t-114.5 -57t-118.5 -95t-111 -139t-91 -181zM428 100v1086h100v-863q110 171 259.5 269t272.5 98 q79 0 147.5 -32t113 -97.5t44.5 -151.5q0 -140 -82 -226q61 -83 254 -83h1v-100h-1q-116 0 -196 29t-137 92q-205 -121 -726 -121h-373v100h323z" />
<glyph unicode="&#x638;" horiz-adv-x="1317" arabic-form="initial" d="M761 1069l107 107l107 -107l-107 -107zM308 100q137 1 246 11t185 25t132 37.5t89 47t52.5 57.5t26 63t6.5 68q0 84 -57.5 132.5t-147.5 48.5q-44 0 -97.5 -18t-114.5 -57t-118 -95t-111 -139t-91 -181zM0 100h208v1086h100v-863q110 171 259.5 269t272.5 98 q79 0 147.5 -32t113 -97.5t44.5 -151.5q0 -80 -25.5 -141.5t-87.5 -113t-162.5 -84.5t-253.5 -51.5t-358 -18.5h-258q-21 0 -35.5 14.5t-14.5 35.5t14.5 35.5t35.5 14.5z" />
<glyph unicode="&#x638;" horiz-adv-x="1318" arabic-form="medial" d="M761 1069l107 107l107 -107l-107 -107zM308 100q190 2 326.5 20t215 44.5t123.5 68t58.5 81.5t13.5 95q0 84 -57.5 132.5t-147.5 48.5q-44 0 -97 -18t-114.5 -57t-118.5 -95t-111 -139t-91 -181zM0 100l208 1v1085h100v-863q110 171 259.5 269t272.5 98q79 0 147.5 -32 t113 -97.5t44.5 -151.5q0 -140 -82 -226q63 -83 254 -83h1v-100h-1q-116 0 -196.5 29t-136.5 92q-205 -121 -726 -121h-258q-21 0 -35.5 14.5t-14.5 35.5t14.5 35.5t35.5 14.5z" />
<glyph unicode="&#x639;" horiz-adv-x="1144" arabic-form="final" d="M972 458q0 -50 -18.5 -94.5t-53 -80.5t-69 -62t-81.5 -55q180 -66 393 -66h1v-100h-1q-291 0 -504 104q-424 -177 -424 -430q0 -84 65 -156t182 -115t260 -43q161 0 317 58l35 -94q-169 -64 -351 -64q-159 0 -296 48.5t-224.5 144t-87.5 219.5q0 303 415 493 q-166 105 -353 307l5 120q73 60 182 95t230 35q97 0 182 -30t140.5 -91.5t55.5 -142.5zM872 457q0 63 -79 114t-197 51q-89 0 -175.5 -22.5t-139.5 -57.5l-2 -29q192 -204 363 -298q107 50 168.5 111.5t61.5 130.5z" />
<glyph unicode="&#x639;" horiz-adv-x="1083" arabic-form="initial" d="M253 386q0 -99 85 -155.5t220 -56.5q46 0 65 3l273 52l18 -98l-467 -89q-221 -42 -447 -42q-21 0 -35.5 14.5t-14.5 35.5t14.5 35.5t35.5 14.5q166 0 325 23q-78 39 -125 106t-47 157t31.5 167.5t83.5 129t119.5 81t139.5 29.5q193 0 315 -145l-76 -64q-90 109 -239 109 q-110 0 -192 -84t-82 -223z" />
<glyph unicode="&#x639;" horiz-adv-x="1026" arabic-form="medial" d="M118 552q63 78 180.5 123.5t250.5 45.5q67 0 129.5 -18t115.5 -52.5t85.5 -93.5t32.5 -133q0 -85 -50.5 -158t-134.5 -122q140 -44 298 -44h1v-100h-1q-228 0 -427 85q-115 -41 -275.5 -63t-322.5 -22q-21 0 -35.5 14.5t-14.5 35.5t14.5 35.5t35.5 14.5q276 0 470 50 q-90 53 -171.5 122t-180.5 165v115zM218 514v-33q73 -68 121.5 -110t121 -93.5t140.5 -83.5q97 40 154 102.5t57 127.5q0 92 -74.5 144.5t-188.5 52.5q-96 0 -189.5 -30.5t-141.5 -76.5z" />
<glyph unicode="&#x63a;" horiz-adv-x="1144" arabic-form="final" d="M489 1082l107 107l107 -107l-107 -107zM972 458q0 -50 -18.5 -94.5t-53 -80.5t-69 -62t-81.5 -55q180 -66 393 -66h1v-100h-1q-291 0 -504 104q-424 -177 -424 -430q0 -84 65 -156t182 -115t260 -43q161 0 317 58l35 -94q-169 -64 -351 -64q-159 0 -296 48.5t-224.5 144 t-87.5 219.5q0 303 415 493q-166 105 -353 307l5 120q73 60 182 95t230 35q97 0 182 -30t140.5 -91.5t55.5 -142.5zM872 457q0 63 -79 114t-197 51q-89 0 -175.5 -22.5t-139.5 -57.5l-2 -29q192 -204 363 -298q107 50 168.5 111.5t61.5 130.5z" />
<glyph unicode="&#x63a;" horiz-adv-x="1083" arabic-form="initial" d="M420 1156l107 107l107 -107l-107 -107zM253 386q0 -99 85 -155.5t220 -56.5q46 0 65 3l273 52l18 -98l-467 -89q-221 -42 -447 -42q-21 0 -35.5 14.5t-14.5 35.5t14.5 35.5t35.5 14.5q166 0 325 23q-78 39 -125 106t-47 157t31.5 167.5t83.5 129t119.5 81t139.5 29.5 q193 0 315 -145l-76 -64q-90 109 -239 109q-110 0 -192 -84t-82 -223z" />
<glyph unicode="&#x63a;" horiz-adv-x="1026" arabic-form="medial" d="M427 1076l107 107l107 -107l-107 -107zM118 552q63 78 180.5 123.5t250.5 45.5q67 0 129.5 -18t115.5 -52.5t85.5 -93.5t32.5 -133q0 -85 -50.5 -158t-134.5 -122q140 -44 298 -44h1v-100h-1q-228 0 -427 85q-115 -41 -275.5 -63t-322.5 -22q-21 0 -35.5 14.5t-14.5 35.5 t14.5 35.5t35.5 14.5q276 0 470 50q-90 53 -171.5 122t-180.5 165v115zM218 514v-33q73 -68 121.5 -110t121 -93.5t140.5 -83.5q97 40 154 102.5t57 127.5q0 92 -74.5 144.5t-188.5 52.5q-96 0 -189.5 -30.5t-141.5 -76.5z" />
<glyph unicode="&#x641;" horiz-adv-x="1875" arabic-form="final" d="M1314 1164l107 107l107 -107l-107 -107zM1416 68q-193 -68 -526 -68q-93 0 -167 3t-156 13t-143.5 26.5t-119.5 45t-95 67.5t-59 94.5t-22 125.5q0 112 61 295l94 -32q-55 -169 -55 -263q0 -65 29 -113t82 -79t137 -49.5t182.5 -26t231.5 -7.5q238 0 395 35 q-174 120 -174 329q0 151 86.5 238.5t223.5 87.5q135 0 222.5 -88t87.5 -238q0 -215 -180 -331q146 -33 323 -33h1v-100h-1q-278 0 -458 68zM1418 176q213 87 213 288q0 112 -56.5 169t-153.5 57q-98 0 -154 -56.5t-56 -169.5q0 -196 207 -288z" />
<glyph unicode="&#x641;" horiz-adv-x="921" arabic-form="initial" d="M356 1371l107 107l107 -107l-107 -107zM691 378q-106 -31 -210 -31q-67 0 -124 15.5t-103.5 47.5t-72.5 87t-26 129q0 96 38 186.5t110.5 150.5t159.5 60q60 0 109.5 -24.5t83 -63.5t59 -93.5t40 -108.5t23.5 -115t12 -107t3 -90q0 -75 -10.5 -133.5t-38 -102t-58 -74.5 t-87.5 -51.5t-108.5 -32.5t-139 -18t-160.5 -7.5t-191 -1.5q-21 0 -35.5 14.5t-14.5 35.5t14.5 35.5t35.5 14.5q88 0 152 1t129 4t109 7.5t88 12.5t72 19t54.5 27t41 35.5t25.5 45.5t15.5 56.5t4.5 69.5zM691 482q-4 82 -19.5 157t-42 140.5t-70 104.5t-96.5 39 q-76 0 -142 -90t-66 -207q0 -97 55 -138t171 -41q103 0 210 35z" />
<glyph unicode="&#x641;" horiz-adv-x="908" arabic-form="medial" d="M347 1147l107 107l107 -107l-107 -107zM0 100q183 0 323 32q-179 120 -179 332q0 151 86.5 238.5t223.5 87.5q135 0 222.5 -88t87.5 -238q0 -211 -179 -332q140 -32 322 -32h1v-100h-1q-269 0 -453 67q-184 -67 -454 -67q-21 0 -35.5 14.5t-14.5 35.5t14.5 35.5 t35.5 14.5zM454 174q210 92 210 290q0 112 -56.5 169t-153.5 57q-98 0 -154 -56.5t-56 -169.5q0 -199 210 -290z" />
<glyph unicode="&#x642;" horiz-adv-x="1415" arabic-form="final" d="M1019 1011l107 107l107 -107l-107 -107zM688 1011l107 107l107 -107l-107 -107zM1186 0h-211q-67 0 -124 15.5t-103.5 47.5t-72.5 87t-26 129q0 96 38 186.5t110.5 150.5t159.5 60q66 0 119.5 -28.5t88 -78t59 -107.5t37.5 -126.5t19 -124t7 -111.5h128v-100h-131 q-12 -123 -62.5 -220t-131 -158t-183.5 -93t-223 -32q-118 0 -217.5 31t-176 91.5t-119.5 158t-43 222.5q0 152 78 365l92 -32q-70 -193 -70 -333q0 -196 120.5 -299.5t335.5 -103.5q218 0 350.5 104t151.5 299zM1185 100q-1 86 -15.5 168t-41.5 152t-71.5 113t-99.5 43 q-76 0 -142 -90t-66 -207q0 -97 55 -138t171 -41h210z" />
<glyph unicode="&#x642;" horiz-adv-x="921" arabic-form="initial" d="M521 1351l107 107l107 -107l-107 -107zM190 1351l107 107l107 -107l-107 -107zM691 378q-106 -31 -210 -31q-67 0 -124 15.5t-103.5 47.5t-72.5 87t-26 129q0 96 38 186.5t110.5 150.5t159.5 60q60 0 109.5 -24.5t83 -63.5t59 -93.5t40 -108.5t23.5 -115t12 -107t3 -90 q0 -75 -10.5 -133.5t-38 -102t-58 -74.5t-87.5 -51.5t-108.5 -32.5t-139 -18t-160.5 -7.5t-191 -1.5q-21 0 -35.5 14.5t-14.5 35.5t14.5 35.5t35.5 14.5q88 0 152 1t129 4t109 7.5t88 12.5t72 19t54.5 27t41 35.5t25.5 45.5t15.5 56.5t4.5 69.5zM691 482q-4 82 -19.5 157 t-42 140.5t-70 104.5t-96.5 39q-76 0 -142 -90t-66 -207q0 -97 55 -138t171 -41q103 0 210 35z" />
<glyph unicode="&#x642;" horiz-adv-x="908" arabic-form="medial" d="M512 1128l107 107l107 -107l-107 -107zM181 1128l107 107l107 -107l-107 -107zM0 100q183 0 323 32q-179 120 -179 332q0 151 86.5 238.5t223.5 87.5q135 0 222.5 -88t87.5 -238q0 -211 -179 -332q140 -32 322 -32h1v-100h-1q-269 0 -453 67q-184 -67 -454 -67 q-21 0 -35.5 14.5t-14.5 35.5t14.5 35.5t35.5 14.5zM454 174q210 92 210 290q0 112 -56.5 169t-153.5 57q-98 0 -154 -56.5t-56 -169.5q0 -199 210 -290z" />
<glyph unicode="&#x643;" horiz-adv-x="1748" arabic-form="final" d="M967 983q-67 29 -109 29q-64 0 -105.5 -36t-41.5 -79q0 -50 28 -72.5t90 -41.5q24 -7 39 -13t37 -18t35.5 -26t23 -36t9.5 -49q0 -77 -75 -123t-168 -46q-94 0 -167 34l26 54q58 -28 141 -28q76 0 129.5 33.5t53.5 75.5q0 33 -22.5 49.5t-79.5 34.5q-32 10 -54.5 20 t-49.5 29.5t-41.5 50.5t-14.5 72q0 72 60.5 123.5t146.5 51.5q55 0 133 -33zM1315 1211h100v-719q0 -130 24 -211t83 -125q77 -56 225 -56h1v-100h-1q-170 0 -274 70q-71 48 -108 131q-19 -38 -43 -65q-65 -75 -186 -105.5t-324 -30.5q-77 0 -139 2.5t-135.5 12t-129.5 25 t-111 43t-90 65t-57 93t-22 124.5q0 106 32 242l98 -24q-30 -124 -30 -218q0 -55 19 -97t57 -71t88 -48t120.5 -30t144.5 -15t169 -4q183 0 280 19.5t144 73.5q37 42 51 112.5t14 186.5v719z" />
<glyph unicode="&#x643;" horiz-adv-x="999" arabic-form="initial" d="M0 100h121q208 0 289 50.5t81 170.5q0 110 -124.5 250.5t-321.5 281.5v141q164 107 377 194t416 132l22 -98q-181 -41 -374 -116.5t-341 -166.5v-34q446 -317 446 -584q0 -171 -120 -246t-350 -75h-121q-21 0 -35.5 14.5t-14.5 35.5t14.5 35.5t35.5 14.5z" />
<glyph unicode="&#x643;" horiz-adv-x="1020" arabic-form="medial" d="M0 100h121q208 0 289 50.5t81 170.5q0 110 -124.5 250.5t-321.5 281.5v141q164 107 377 194t416 132l22 -98q-181 -41 -374 -116.5t-341 -166.5v-34q134 -92 234.5 -193.5t153 -179t101.5 -174.5q37 -73 64 -113.5t70.5 -77.5t103.5 -52t147 -15h1v-100h-1 q-116 0 -201.5 32t-137 81.5t-97.5 127.5q-27 -127 -144 -184t-318 -57h-121q-21 0 -35.5 14.5t-14.5 35.5t14.5 35.5t35.5 14.5z" />
<glyph unicode="&#x644;" horiz-adv-x="1439" arabic-form="final" d="M1439 100v-100h-1q-229 0 -331 118v-97q0 -259 -131 -391.5t-374 -132.5q-218 0 -346 113.5t-128 315.5q0 174 88 390l91 -42q-80 -207 -80 -354q0 -156 101.5 -239.5t289.5 -83.5q195 0 292 102.5t97 321.5v1165h100v-694q0 -214 69 -301q72 -91 262 -91h1z" />
<glyph unicode="&#x644;" horiz-adv-x="596" arabic-form="initial" d="M396 366q0 -175 -85 -264q-98 -102 -311 -102q-20 0 -35 15t-15 35t15 35t35 15q185 0 245 68q51 58 51 198v820h100v-820z" />
<glyph unicode="&#x644;" horiz-adv-x="692" arabic-form="medial" d="M0 100q172 0 238 85q58 75 58 264v737h100v-737q0 -182 54 -258q64 -91 241 -91h1v-100h-1q-258 0 -345 172q-87 -172 -346 -172q-21 0 -35.5 14.5t-14.5 35.5t14.5 35.5t35.5 14.5z" />
<glyph unicode="&#x645;" horiz-adv-x="1329" arabic-form="final" d="M495 171q17 -5 85.5 -27.5t117 -33t95.5 -10.5q86 0 131 39t45 138q0 114 -59 191.5t-150 77.5q-61 0 -110.5 -32.5t-81 -87.5t-49.5 -119t-24 -136zM1329 0h-1q-92 0 -162.5 30t-129.5 98q-35 -64 -100 -96t-143 -32q-129 0 -271 57q-72 28 -121 28q-77 0 -125 -56 t-48 -153v-661h-100v661q0 129 74 218t194 91q6 60 19 118.5t41 122t67 111t100.5 78.5t136.5 31q86 0 154 -45.5t105 -115.5t47 -155q14 -122 78.5 -176t183.5 -54h1v-100z" />
<glyph unicode="&#x645;" horiz-adv-x="1046" arabic-form="initial" d="M0 100q88 0 137.5 38.5t93.5 132.5q17 37 44 110q47 127 129 206t201 79q57 0 107.5 -22t87.5 -59t64 -85t40.5 -100t13.5 -103q0 -123 -83.5 -210t-208.5 -87q-104 0 -179 47t-151 133q-101 -180 -296 -180q-21 0 -35.5 14.5t-14.5 35.5t14.5 35.5t35.5 14.5zM344 281 q48 -75 122 -128t161 -53q80 0 135.5 56.5t55.5 140.5q0 104 -63 186.5t-150 82.5q-156 0 -236 -220z" />
<glyph unicode="&#x645;" horiz-adv-x="1238" arabic-form="medial" d="M0 100q88 0 137.5 38.5t93.5 132.5q17 37 44 110q47 127 129 206t201 79q86 0 156 -49.5t108 -123t47 -155.5q16 -94 59 -147q72 -91 262 -91h1v-100h-1q-254 0 -355 150q-36 -67 -105 -108.5t-149 -41.5q-105 0 -181 47.5t-151 132.5q-101 -180 -296 -180 q-21 0 -35.5 14.5t-14.5 35.5t14.5 35.5t35.5 14.5zM344 281q48 -75 122.5 -128t161.5 -53q79 0 134.5 56.5t55.5 140.5q0 104 -63 186.5t-150 82.5q-156 0 -236 -220z" />
<glyph unicode="&#x646;" horiz-adv-x="1660" arabic-form="final" d="M645 284l107 107l107 -107l-107 -107zM270 524l84 -51q-125 -252 -125 -468q0 -133 66.5 -226.5t176.5 -137.5t252 -44q114 0 214.5 29.5t177.5 84t121.5 140.5t44.5 192q0 109 -42.5 231t-111.5 264l89 38l125 -294q28 -66 63.5 -103.5t97 -58t156.5 -20.5h1v-100h-1 q-173 0 -276 67q0 -115 -35 -209.5t-95.5 -160.5t-144 -111.5t-179 -67t-201.5 -21.5q-123 0 -231 33.5t-190.5 96.5t-130 161t-47.5 219q0 127 41 264t100 253z" />
<glyph unicode="&#x646;" horiz-adv-x="547" arabic-form="initial" d="M107 1084l107 107l107 -107l-107 -107zM350 732q65 -198 65 -350q0 -86 -22 -153t-69.5 -120t-129.5 -81t-194 -28q-21 0 -35.5 14.5t-14.5 35.5t14.5 35.5t35.5 14.5q173 0 247.5 73t74.5 204q0 123 -66 323z" />
<glyph unicode="&#x646;" horiz-adv-x="767" arabic-form="medial" d="M189 939l107 107l107 -107l-107 -107zM0 100q204 0 276 108q58 88 58 284v77h100v-77q0 -185 49 -270q36 -62 104 -92t179 -30h1v-100h-1q-290 0 -382 198q-93 -198 -384 -198q-21 0 -35.5 14.5t-14.5 35.5t14.5 35.5t35.5 14.5z" />
<glyph unicode="&#x647;" horiz-adv-x="1041" arabic-form="final" d="M627 695q-174 -27 -285.5 -102.5t-111.5 -170.5q0 -81 66 -124t181 -43q80 0 177 29zM1041 0h-1q-146 0 -230.5 45t-127.5 141q-105 -31 -205 -31q-65 0 -124.5 15t-110.5 45.5t-81.5 83.5t-30.5 123q0 79 42 145.5t113.5 111t155.5 73.5t180 43l-8 140l100 6l32 -539 q5 -81 19.5 -133.5t46.5 -92.5t88 -58t141 -18h1v-100z" />
<glyph unicode="&#x647;" horiz-adv-x="1293" arabic-form="initial" d="M0 100q197 0 342 37q-195 120 -195 299q0 100 63 187t149 123l-174 64l42 103l429 -169q54 -22 87.5 -36t87 -38t87.5 -44.5t77 -49.5t70 -59t52 -66t36.5 -78t11.5 -88q0 -123 -81 -204t-230 -81q-74 0 -183 20t-198 54q-190 -74 -473 -74q-21 0 -35.5 14.5t-14.5 35.5 t14.5 35.5t35.5 14.5zM472 183q192 90 192 263q0 105 -39.5 170t-125.5 65q-41 0 -84.5 -17t-81 -47t-62 -77.5t-24.5 -103.5q0 -80 61 -144t164 -109zM597 139q143 -39 257 -39q211 0 211 185q0 182 -326 320q48 -151 7.5 -270.5t-149.5 -195.5z" />
<glyph unicode="&#x647;" horiz-adv-x="986" arabic-form="medial" d="M278 119q217 33 322 112t105 191q0 195 -161 195q-120 0 -191 -128t-75 -370zM986 0h-1q-126 0 -180.5 -41t-54.5 -144v-252l-104 -65q-178 10 -306 155t-156 354q-81 -7 -184 -7q-20 0 -35 15t-15 35t15 35t35 15q101 0 178 7q1 130 23 238.5t65 192.5t114 131.5 t164 47.5q117 0 189 -79t72 -216q0 -163 -139 -266t-383 -138q23 -168 127.5 -289t222.5 -130l17 10v206q0 76 25.5 132t71.5 89t105.5 48.5t132.5 15.5h1v-100z" />
<glyph unicode="&#x648;" horiz-adv-x="928" arabic-form="final" d="M795 0q-26 -189 -183.5 -315t-445.5 -199l-25 96q262 67 395 170.5t158 247.5h-206q-67 0 -124 15.5t-103.5 47.5t-72.5 87t-26 129q0 96 38 186.5t110.5 150.5t159.5 60q57 0 105.5 -22.5t81 -59t58.5 -87.5t41 -102.5t25 -110t14 -104t5 -90.5h128v-100h-133zM700 100 q-2 82 -16 162.5t-40.5 152.5t-71.5 116.5t-102 44.5q-76 0 -142 -90t-66 -207q0 -97 55 -138t171 -41h212z" />
<glyph unicode="&#x649;" horiz-adv-x="1453" arabic-form="final" d="M1453 100v-100h-253q61 -30 91.5 -86t30.5 -122q0 -165 -155.5 -270t-428.5 -105q-283 0 -440.5 132.5t-157.5 390.5q0 148 35.5 281.5t101.5 279.5l90 -47q-63 -140 -96 -263t-33 -262q0 -412 496 -412q106 0 192.5 17.5t140 45t90 63t51 69t14.5 64.5q0 105 -117 164.5 t-363 59.5v100h711z" />
<glyph unicode="&#x64a;" horiz-adv-x="1453" arabic-form="final" d="M816 -871l107 107l107 -107l-107 -107zM485 -871l107 107l107 -107l-107 -107zM1453 100v-100h-253q61 -30 91.5 -86t30.5 -122q0 -165 -155.5 -270t-428.5 -105q-283 0 -440.5 132.5t-157.5 390.5q0 148 35.5 281.5t101.5 279.5l90 -47q-63 -140 -96 -263t-33 -262 q0 -412 496 -412q106 0 192.5 17.5t140 45t90 63t51 69t14.5 64.5q0 105 -117 164.5t-363 59.5v100h711z" />
<glyph unicode="&#x64a;" horiz-adv-x="547" arabic-form="initial" d="M166 -330l107 107l107 -107l-107 -107zM-165 -330l107 107l107 -107l-107 -107zM350 732q65 -198 65 -350q0 -86 -22 -153t-69.5 -120t-129.5 -81t-194 -28q-21 0 -35.5 14.5t-14.5 35.5t14.5 35.5t35.5 14.5q173 0 247.5 73t74.5 204q0 123 -66 323z" />
<glyph unicode="&#x64a;" horiz-adv-x="767" arabic-form="medial" d="M135 -330l107 107l107 -107l-107 -107zM-196 -330l107 107l107 -107l-107 -107zM0 100q204 0 276 108q58 88 58 284v77h100v-77q0 -185 49 -270q36 -62 104 -92t179 -30h1v-100h-1q-290 0 -382 198q-93 -198 -384 -198q-21 0 -35.5 14.5t-14.5 35.5t14.5 35.5t35.5 14.5z " />
<glyph />
<glyph horiz-adv-x="682" />
<glyph unicode=" "  horiz-adv-x="550" />
<glyph unicode="&#x09;" horiz-adv-x="550" />
<glyph unicode="&#xa0;" horiz-adv-x="550" />
<glyph unicode="!" horiz-adv-x="610" d="M355 391h-100v1020h100v-1020zM220 85q0 35 25.5 59.5t60.5 24.5t59.5 -24.5t24.5 -59.5t-24.5 -60t-59.5 -25t-60.5 25t-25.5 60z" />
<glyph unicode="&#x22;" horiz-adv-x="676" d="M436 1386h80v-515h-80v515zM160 1386h80v-515h-80v515z" />
<glyph unicode="#" horiz-adv-x="1683" d="M395 -36l-96 22l133 437h-312v86h338l116 380h-362v84h388l130 424l96 -22l-122 -402h444l130 424l96 -22l-122 -402h311v-84h-337l-116 -380h361v-86h-387l-141 -459l-96 22l133 437h-444zM1122 889h-444l-116 -380h444z" />
<glyph unicode="$" horiz-adv-x="1126" d="M90 374h100q0 -98 57 -170t143 -105t187 -33q153 0 256 71.5t103 209.5q0 50 -19.5 91t-51.5 71t-83.5 56t-102.5 44t-122 38q-64 18 -121 40t-117 57.5t-102.5 77t-69.5 99t-27 123.5q0 115 60.5 199.5t156.5 125t213 40.5q90 0 172 -27t145.5 -76.5t101 -124.5 t37.5 -165h-100q0 144 -103 226.5t-253 82.5q-146 0 -238 -72.5t-92 -208.5q0 -214 368 -317q72 -20 125 -38t118 -51t106.5 -70.5t70 -95t28.5 -125.5q0 -74 -26 -135.5t-70.5 -103.5t-104 -71.5t-124.5 -43t-134 -13.5q-90 0 -175.5 25.5t-155.5 73t-113 124.5t-43 171z M526 1590h74v-1817h-74v1817z" />
<glyph unicode="%" horiz-adv-x="1464" d="M1222 213q0 66 -44.5 113.5t-109.5 47.5t-109.5 -47.5t-44.5 -113.5q0 -65 45 -111t109 -46t109 46t45 111zM1296 213q0 -96 -66 -163.5t-162 -67.5t-163 67.5t-67 163.5q0 94 66 165.5t164 71.5t163 -71t65 -166zM551 1112q0 66 -44.5 113.5t-109.5 47.5t-109.5 -47.5 t-44.5 -113.5q0 -65 45 -111t109 -46t109 46t45 111zM625 1112q0 -96 -66 -163.5t-162 -67.5t-163 67.5t-67 163.5q0 94 66 165.5t164 71.5t163 -71t65 -166zM1012 1407l90 -42l-650 -1411l-90 42z" />
<glyph unicode="&#x26;" horiz-adv-x="1138" d="M443 773q51 27 78.5 42.5t68.5 41t62.5 47t44.5 50.5t32.5 62.5t9.5 71.5q0 80 -59.5 135.5t-160.5 55.5q-107 0 -168 -62.5t-61 -158.5q0 -81 59 -159zM786 157l-373 498q-104 -61 -158.5 -130t-54.5 -174q0 -127 85.5 -197.5t234.5 -70.5q161 0 266 74zM912 146 l111 -148l-84 -46l-99 133q-131 -88 -320 -88q-187 0 -303.5 97t-116.5 257q0 68 20.5 126.5t59.5 104t81 79t98 66.5l-93 125q-76 92 -76 206q0 124 88 214.5t241 90.5q144 0 232 -82t88 -193q0 -43 -11.5 -83t-28 -70.5t-47 -61.5t-54.5 -51t-65.5 -45.5t-66.5 -38.5 t-69 -36l358 -479q83 105 83 268h100q0 -213 -126 -345z" />
<glyph unicode="'" horiz-adv-x="400" d="M160 1386h80v-515h-80v515z" />
<glyph unicode="(" horiz-adv-x="598" d="M440 2l-84 -54q-206 323 -206 733q0 409 206 732l84 -54q-190 -297 -190 -678q0 -382 190 -679z" />
<glyph unicode=")" horiz-adv-x="598" d="M158 1359l84 54q206 -323 206 -733q0 -409 -206 -732l-84 54q190 297 190 678q0 382 -190 679z" />
<glyph unicode="*" horiz-adv-x="1133" d="M188 1084l24 72l316 -104v334h76v-334l317 104l24 -72l-318 -104l197 -270l-60 -44l-198 270l-197 -270l-60 44l196 270z" />
<glyph unicode="+" horiz-adv-x="993" d="M873 527v-84h-327v-334h-100v334h-326v84h326v334h100v-334h327z" />
<glyph unicode="," horiz-adv-x="453" d="M223 -223l-49 38q28 31 59.5 93t31.5 119q-110 0 -110 98q0 40 26 66t64 26q48 0 75 -32t27 -93q0 -163 -124 -315z" />
<glyph unicode="-" horiz-adv-x="993" d="M873 527v-84h-753v84h753z" />
<glyph unicode="." horiz-adv-x="550" d="M190 85q0 35 25.5 59.5t60.5 24.5t59.5 -24.5t24.5 -59.5t-24.5 -60t-59.5 -25t-60.5 25t-25.5 60z" />
<glyph unicode="/" horiz-adv-x="1050" d="M805 1407l90 -42l-650 -1411l-90 42z" />
<glyph unicode="0" horiz-adv-x="1169" d="M585 -43q-80 0 -147 25.5t-114 68.5t-83 103t-57.5 123.5t-35 137.5t-18.5 137.5t-5 128.5t5 128.5t18.5 137t35 137t57.5 123.5t83 102.5t114 68t147 25.5t147 -25.5t113.5 -68t82.5 -102.5t57.5 -123.5t35 -137t18.5 -136.5t5 -129t-5 -129t-18.5 -137t-35 -137.5 t-57.5 -123.5t-82.5 -103t-113.5 -68.5t-147 -25.5zM585 43q80 0 143 38.5t103 100.5t66 147t36.5 171.5t10.5 180.5t-10.5 180.5t-36.5 171.5t-66 147t-103 100.5t-143 38.5t-143 -38.5t-103 -100.5t-66.5 -147t-37 -172t-10.5 -180t10.5 -180t37 -172t66.5 -147 t103 -100.5t143 -38.5z" />
<glyph unicode="1" horiz-adv-x="882" d="M202 1054l-2 84l92 1q108 1 159 20.5t81 64.5v162h100v-1411h-100v1135q-75 -53 -238 -55z" />
<glyph unicode="2" horiz-adv-x="1126" d="M1026 0h-916v103q0 71 31 135t79.5 111.5t120.5 92t140.5 75t152.5 61.5q150 55 208.5 152t58.5 225q0 80 -29 143.5t-77.5 102t-108.5 59t-125 20.5q-61 0 -119.5 -22t-108.5 -63t-80.5 -109t-30.5 -151h-100q0 100 38.5 183.5t101.5 136.5t140.5 82t158.5 29 q84 0 162.5 -27.5t140.5 -78t99.5 -130t37.5 -175.5q0 -67 -14.5 -128t-49.5 -124.5t-102.5 -116.5t-162.5 -88q-102 -37 -181 -76t-144.5 -87.5t-101 -107t-35.5 -124.5v-17h816v-86z" />
<glyph unicode="3" horiz-adv-x="1109" d="M100 383h100q0 -76 29.5 -135t79 -94t110.5 -53t129 -18q69 0 129.5 15.5t111.5 48.5t80.5 90.5t29.5 133.5q0 83 -29 144.5t-80 97.5t-113.5 53t-137.5 17h-73v85h73q145 0 233 65t88 180q0 130 -87 198t-212 68q-61 0 -113.5 -15t-95.5 -44.5t-68 -80.5t-25 -117h-100 q0 85 35 152.5t93.5 107.5t128.5 61t145 21q76 0 146 -22.5t127 -64.5t91.5 -110.5t34.5 -153.5q0 -96 -52 -170.5t-144 -115.5q107 -44 171 -135t64 -221q0 -96 -40.5 -170.5t-107.5 -117.5t-144 -64.5t-159 -21.5q-84 0 -162.5 24t-143 70t-103.5 122t-39 170z" />
<glyph unicode="4" horiz-adv-x="1117" d="M764 409v826l-580 -826h580zM1077 409v-84h-213v-350h-100v350h-684v102l658 936h126v-954h213z" />
<glyph unicode="5" horiz-adv-x="1162" d="M170 376h100q0 -136 79 -214.5t219 -78.5q184 0 276.5 94.5t92.5 298.5q0 189 -95.5 291t-273.5 102q-144 0 -306 -106l-74 37l54 563h820v-84h-728l-38 -392q136 68 272 68q223 0 346 -132.5t123 -346.5q0 -230 -121.5 -354.5t-347.5 -124.5q-184 0 -291 107.5 t-107 271.5z" />
<glyph unicode="6" horiz-adv-x="1125" d="M594 769q-87 0 -182.5 -41t-180.5 -120q3 -93 14 -167t36.5 -143t65 -114.5t102 -73t144.5 -27.5q99 0 176 47.5t116.5 121.5t39.5 159q0 170 -95 264t-236 94zM594 853q186 0 308.5 -121.5t122.5 -320.5q0 -75 -29 -148t-82.5 -132.5t-137 -96.5t-183.5 -37 q-84 0 -153 22t-116.5 58t-83 89.5t-56 109.5t-33.5 126t-17 131t-4 131q0 323 131.5 511t361.5 188q226 0 387 -140l-72 -60q-134 116 -315 116q-79 0 -146 -33.5t-120.5 -100t-86.5 -173.5t-39 -245q172 126 363 126z" />
<glyph unicode="7" horiz-adv-x="1062" d="M80 1279v84h838l34 -92l-591 -1311l-94 30l582 1289h-769z" />
<glyph unicode="8" horiz-adv-x="1057" d="M793 1039q0 99 -67 169.5t-197 70.5t-197.5 -70.5t-67.5 -169.5q0 -129 63.5 -192.5t200.5 -63.5t201 63t64 193zM200 361q0 -126 87.5 -202t241.5 -76t241 76t87 202q0 141 -97.5 238.5t-231.5 97.5q-138 0 -233 -96t-95 -240zM723 737q107 -53 170.5 -155t63.5 -221 q0 -159 -117.5 -261.5t-310.5 -102.5q-194 0 -311.5 102.5t-117.5 261.5q0 121 62.5 222.5t169.5 154.5q-83 41 -125.5 119t-42.5 182q0 58 22 114t65 104t115 77t163 29t163 -29t114.5 -77t64.5 -104t22 -114q0 -105 -43 -183t-127 -119z" />
<glyph unicode="9" horiz-adv-x="1125" d="M894 753q-3 93 -14 167t-36.5 143t-65 115t-102 73.5t-144.5 27.5q-99 0 -176 -48t-116.5 -122t-39.5 -159q0 -170 95 -263.5t236 -93.5q87 0 182.5 40.5t180.5 119.5zM894 634q-173 -127 -363 -127q-186 0 -308.5 121.5t-122.5 321.5q0 75 29 148t82.5 132.5t137 96 t183.5 36.5q85 0 153.5 -21.5t116 -57.5t83 -89.5t56 -109.5t33.5 -126t17 -131t4 -131q0 -334 -131 -517t-362 -183q-225 0 -387 141l72 60q132 -115 315 -115q80 0 147 31t120.5 95.5t86 172.5t38.5 252z" />
<glyph unicode=":" horiz-adv-x="613" d="M221 657q0 35 25.5 59.5t60.5 24.5t59.5 -24.5t24.5 -59.5t-24.5 -60t-59.5 -25t-60.5 25t-25.5 60zM221 135q0 35 25.5 59.5t60.5 24.5t59.5 -24.5t24.5 -59.5t-24.5 -60t-59.5 -25t-60.5 25t-25.5 60z" />
<glyph unicode=";" horiz-adv-x="613" d="M221 657q0 35 25.5 59.5t60.5 24.5t59.5 -24.5t24.5 -59.5t-24.5 -60t-59.5 -25t-60.5 25t-25.5 60zM278 -200l-49 38q28 31 59.5 93t31.5 119q-110 0 -110 98q0 40 26 66t64 26q48 0 75 -32t27 -93q0 -163 -124 -315z" />
<glyph unicode="&#x3c;" horiz-adv-x="775" d="M571 1007l52 -54l-391 -370l391 -371l-52 -54l-447 425z" />
<glyph unicode="=" horiz-adv-x="993" d="M873 327v-84h-753v84h753zM873 777v-84h-753v84h753z" />
<glyph unicode="&#x3e;" horiz-adv-x="775" d="M176 158l-52 54l391 370l-391 371l52 54l447 -425z" />
<glyph unicode="?" horiz-adv-x="1067" d="M255 975l-100 -12q-5 36 -5 82q0 100 40.5 181t128 132t209.5 51q179 0 284 -117.5t105 -287.5q0 -67 -27.5 -123t-62 -88t-85.5 -66q-43 -28 -68 -49t-54 -56.5t-43 -84t-14 -111.5h-100q0 74 18.5 134.5t54 105t67.5 72t77 57.5q71 46 104 90t33 119q0 144 -79.5 232.5 t-209.5 88.5q-136 0 -207 -75.5t-71 -204.5q0 -41 5 -70zM608 85q0 35 -25.5 59.5t-60.5 24.5t-59.5 -24.5t-24.5 -59.5t24.5 -60t59.5 -25t60.5 25t25.5 60z" />
<glyph unicode="@" horiz-adv-x="2161" d="M1096 1013q92 0 167.5 -21t117.5 -46t98 -69l-53 -591q-1 -10 -1 -29q0 -93 46.5 -143t132.5 -50q134 0 220.5 128.5t86.5 315.5q0 138 -42.5 266.5t-120 231t-180 179.5t-228.5 119t-259 42q-167 0 -320 -65.5t-265 -177t-179 -267.5t-67 -328q0 -229 113 -422.5 t304 -304.5t414 -111q116 0 226 32l32 -80q-128 -36 -258 -36q-191 0 -364 73.5t-297 198t-197 294.5t-73 356t73 356.5t196.5 295t296.5 198.5t365 74q191 0 364 -74t297 -198.5t196.5 -295t72.5 -356.5q0 -77 -15 -151.5t-48 -143t-80 -120t-115 -82.5t-149 -31 q-100 0 -168 47.5t-95 126.5q-60 -86 -145.5 -130t-182.5 -44q-64 0 -122.5 16t-111.5 51t-92 86.5t-62 127.5t-23 169q0 138 39 249.5t107 184t157 111t191 38.5zM1096 929q-60 0 -116 -17.5t-107 -57t-88.5 -96t-60 -141t-22.5 -187.5q0 -102 27 -176.5t73.5 -114 t98.5 -57.5t112 -18q55 0 106.5 21.5t99 65.5t80.5 123t42 183l34 386q-58 43 -119 64.5t-160 21.5z" />
<glyph unicode="A" horiz-adv-x="1267" d="M330 499h608l-304 775zM134 0h-104l544 1389h120l543 -1389h-104l-162 413h-674z" />
<glyph unicode="B" horiz-adv-x="1266" d="M190 1389h515q161 0 274.5 -115.5t113.5 -271.5q0 -96 -46.5 -175.5t-127.5 -127.5q107 -42 172 -133.5t65 -206.5q0 -153 -112.5 -256t-275.5 -103h-578v1389zM290 642v-556h478q120 0 204 76t84 197q0 123 -85 203t-203 80h-478zM705 726q120 0 204 77t84 199 q0 124 -85.5 213.5t-202.5 89.5h-415v-579h415z" />
<glyph unicode="C" horiz-adv-x="1289" d="M1097 187l72 -58q-165 -149 -408 -149q-156 0 -279 60.5t-198.5 163t-114.5 230t-39 270.5q0 113 24 216t75 192.5t124 155.5t178 103.5t230 37.5q245 0 408 -147l-72 -58q-134 121 -336 121q-171 0 -293 -82.5t-180 -221t-58 -317.5q0 -134 34 -248.5t99 -202 t167 -137.5t231 -50q202 0 336 121z" />
<glyph unicode="D" horiz-adv-x="1342" d="M580 1389q127 0 232.5 -37.5t178.5 -103t123.5 -155t74 -193.5t23.5 -219q0 -145 -38.5 -266.5t-114 -215t-198 -146.5t-281.5 -53h-390v1389h390zM580 1305h-290v-1219h290q262 0 397 159t135 436q0 136 -33 249t-97.5 197t-167 131t-234.5 47z" />
<glyph unicode="E" horiz-adv-x="1091" d="M1021 86v-86h-831v1389h831v-84h-731v-582h731v-84h-731v-553h731z" />
<glyph unicode="F" horiz-adv-x="1081" d="M290 0h-100v1389h831v-84h-731v-582h615v-84h-615v-639z" />
<glyph unicode="G" horiz-adv-x="1460" d="M762 622v84l528 3v-291q0 -74 -14.5 -136t-50.5 -119t-91.5 -96.5t-142.5 -63t-200 -23.5q-156 0 -279 60.5t-198.5 163t-114.5 230t-39 270.5q0 113 24 216t75 192.5t124 155.5t178 103.5t230 37.5q127 0 242.5 -38.5t192.5 -108.5l-72 -58q-62 56 -159 88.5t-204 32.5 q-171 0 -293 -82.5t-180 -221t-58 -317.5q0 -134 34 -248.5t99 -202t167 -137.5t231 -50q95 0 165.5 17t115 46.5t71.5 75t37 96.5t10 117v205z" />
<glyph unicode="H" horiz-adv-x="1349" d="M1059 1389h100v-1389h-100v661h-769v-661h-100v1389h100v-644h769v644z" />
<glyph unicode="I" horiz-adv-x="560" d="M330 0h-100v1389h100v-1389z" />
<glyph unicode="J" horiz-adv-x="866" d="M80 28l52 72q64 -34 160 -34q132 0 208 66.5t76 225.5v1031h100v-1031q0 -96 -30 -170t-83.5 -118.5t-121.5 -67t-149 -22.5q-120 0 -212 48z" />
<glyph unicode="K" horiz-adv-x="1210" d="M1032 1389h128l-636 -679l636 -710h-124l-576 642l-170 -181v-461h-100v1389h100v-792z" />
<glyph unicode="L" horiz-adv-x="1071" d="M1021 86v-86h-831v1389h100v-1303h731z" />
<glyph unicode="M" horiz-adv-x="1795" d="M290 0h-100v1389h123l559 -1260l612 1260h121v-1389h-100v1207l-585 -1207h-98l-532 1197v-1197z" />
<glyph unicode="N" horiz-adv-x="1396" d="M1106 1389h100v-1389h-114l-802 1232v-1232h-100v1389h113l803 -1232v1232z" />
<glyph unicode="O" horiz-adv-x="1512" d="M756 1409q125 0 230 -40t178 -109t124 -162t75 -198.5t24 -218.5t-24 -215.5t-74.5 -191.5t-124 -154t-178 -102.5t-230.5 -37.5t-230.5 37.5t-178 102.5t-124 154t-74.5 191.5t-24 215.5t24 218.5t75 198.5t124 162t178 109t230 40zM756 1325q-129 0 -231.5 -51 t-167 -139.5t-98.5 -204t-34 -249.5q0 -133 34 -244.5t99 -194.5t167 -129.5t231 -46.5t231 46.5t167 129.5t99 194.5t34 244.5q0 134 -34 249.5t-98.5 204t-167 139.5t-231.5 51z" />
<glyph unicode="P" horiz-adv-x="1193" d="M290 0h-100v1389h515q163 0 275.5 -105t112.5 -259t-112.5 -257t-275.5 -103h-415v-665zM290 1305v-556h415q120 0 204 77t84 199t-84.5 201t-203.5 79h-415z" />
<glyph unicode="Q" horiz-adv-x="1512" d="M756 1409q125 0 230 -40t178 -109t124 -162t75 -198.5t24 -218.5t-24 -215.5t-74.5 -191.5t-124 -154t-178 -102.5t-230.5 -37.5t-230.5 37.5t-178 102.5t-124 154t-74.5 191.5t-24 215.5t24 218.5t75 198.5t124 162t178 109t230 40zM756 1325q-129 0 -231.5 -51 t-167 -139.5t-98.5 -204t-34 -249.5q0 -133 34 -244.5t99 -194.5t167 -129.5t231 -46.5t231 46.5t167 129.5t99 194.5t34 244.5q0 134 -34 249.5t-98.5 204t-167 139.5t-231.5 51zM1341 -30l-58 -48l-469 560l58 48z" />
<glyph unicode="R" horiz-adv-x="1283" d="M190 1389h515q163 0 275.5 -105.5t112.5 -259.5q0 -105 -55 -189.5t-148 -129.5q93 -47 148 -133t55 -191v-381h-100v381q0 123 -85 203t-203 80h-415v-664h-100v1389zM290 748h415q120 0 204 77t84 199t-84.5 201.5t-203.5 79.5h-415v-557z" />
<glyph unicode="S" horiz-adv-x="1126" d="M90 374h100q0 -98 57 -170t143 -105t187 -33q153 0 256 71.5t103 209.5q0 50 -19.5 91t-51.5 71t-83.5 56t-102.5 44t-122 38q-64 18 -121 40t-117 57.5t-102.5 77t-69.5 99t-27 123.5q0 115 60.5 199.5t156.5 125t213 40.5q90 0 172 -27t145.5 -76.5t101 -124.5 t37.5 -165h-100q0 144 -103 226.5t-253 82.5q-146 0 -238 -72.5t-92 -208.5q0 -214 368 -317q72 -20 125 -38t118 -51t106.5 -70.5t70 -95t28.5 -125.5q0 -74 -26 -135.5t-70.5 -103.5t-104 -71.5t-124.5 -43t-134 -13.5q-90 0 -175.5 25.5t-155.5 73t-113 124.5t-43 171z " />
<glyph unicode="T" horiz-adv-x="1200" d="M650 0h-100v1305h-500v84h1100v-84h-500v-1305z" />
<glyph unicode="U" horiz-adv-x="1336" d="M1056 1389h100v-953q0 -132 -66 -237t-177 -162t-245 -57t-245 57t-177 162t-66 237v953h100v-953q0 -168 112 -269t276 -101t276 101t112 269v953z" />
<glyph unicode="V" horiz-adv-x="1267" d="M1133 1389h104l-553 -1389h-102l-552 1389h104l499 -1251z" />
<glyph unicode="W" horiz-adv-x="1916" d="M1752 1389h104l-414 -1389h-115l-369 1231l-370 -1231h-115l-413 1389h104l367 -1232l371 1232h112l370 -1232z" />
<glyph unicode="X" horiz-adv-x="1160" d="M1110 0h-114l-416 595l-416 -595h-114l472 681l-472 708h114l416 -623l416 623h114l-472 -708z" />
<glyph unicode="Y" horiz-adv-x="1120" d="M976 1389h114l-480 -754v-635h-100v635l-480 754h114l416 -654z" />
<glyph unicode="Z" horiz-adv-x="1280" d="M90 1305v84h1100v-104l-995 -1199h995v-86h-1100v105l995 1200h-995z" />
<glyph unicode="[" horiz-adv-x="642" d="M542 86v-86h-372v1389h372v-84h-272v-1219h272z" />
<glyph unicode="\" horiz-adv-x="1019" d="M914 -2l-90 -46l-719 1411l90 46z" />
<glyph unicode="]" horiz-adv-x="642" d="M100 1305v84h372v-1389h-372v86h272v1219h-272z" />
<glyph unicode="^" horiz-adv-x="704" d="M608 1137l-48 -38l-208 263l-208 -263l-48 38l221 279h70z" />
<glyph unicode="_" horiz-adv-x="666" d="M666 100v-100h-666v100h666z" />
<glyph unicode="`" horiz-adv-x="524" d="M386 1158l-50 -32l-198 316l50 32z" />
<glyph unicode="a" horiz-adv-x="993" d="M863 0h-98q-39 136 -39 322v402q0 98 -75 151.5t-184 53.5q-108 0 -182.5 -53.5t-74.5 -151.5h-100q0 92 54 159.5t133.5 98.5t169.5 31q91 0 170.5 -31t134 -98.5t54.5 -159.5v-402q0 -199 37 -322zM790 549l-30 -82q-84 23 -185 23q-104 0 -189 -24.5t-140.5 -79.5 t-55.5 -132q0 -93 58 -140.5t169 -47.5q125 0 217 72.5t92 195.5h100q0 -110 -61 -192.5t-153 -122t-199 -39.5q-143 0 -233 75t-90 204q0 67 30.5 122t79 90t113.5 59t130 34t132 10q117 0 215 -25z" />
<glyph unicode="b" horiz-adv-x="1168" d="M270 0h-100v1389h100v-1389zM639 1013q84 0 154 -29t118 -79t82 -116.5t49.5 -140t15.5 -152.5t-15.5 -152.5t-49 -140t-82 -116t-118.5 -78.5t-154 -29q-135 0 -236 70t-152 186t-51 260t51 260.5t152 186.5t236 70zM614 933q-163 0 -253.5 -124t-90.5 -313 q0 -190 90.5 -313t253.5 -123t253.5 123t90.5 313q0 189 -90.5 313t-253.5 124z" />
<glyph unicode="c" horiz-adv-x="999" d="M819 229l90 -36q-54 -98 -149.5 -155.5t-225.5 -57.5q-90 0 -164.5 29t-125.5 78.5t-86.5 116t-51.5 140t-16 152.5q0 99 26.5 189t78.5 164.5t140 119t199 44.5q129 0 225.5 -57t149.5 -153l-90 -36q-90 162 -285 162q-110 0 -189 -59t-117 -155.5t-38 -218.5 q0 -188 90 -309t254 -121q196 0 285 163z" />
<glyph unicode="d" horiz-adv-x="1168" d="M998 0h-100v1389h100v-1389zM529 -20q-84 0 -154 29t-118 79t-82 116.5t-49.5 140t-15.5 152.5t15.5 152.5t49 140t82 116t118.5 78.5t154 29q135 0 236 -70t152 -186t51 -260t-51 -260.5t-152 -186.5t-236 -70zM554 60q163 0 253.5 124t90.5 313q0 190 -90.5 313 t-253.5 123t-253.5 -123t-90.5 -313q0 -189 90.5 -313t253.5 -124z" />
<glyph unicode="e" horiz-adv-x="1048" d="M181 453q14 -202 116.5 -294.5t272.5 -92.5q175 0 328 81l36 -73q-172 -94 -367 -94q-221 0 -354 133t-133 383q0 99 26.5 189t78.5 164.5t140 119t199 44.5q90 0 164.5 -29t125.5 -78.5t86.5 -116.5t51.5 -140.5t16 -152.5l-1 -43h-786zM181 539h686 q-12 173 -100.5 281.5t-242.5 108.5t-243 -109t-100 -281z" />
<glyph unicode="f" horiz-adv-x="644" d="M643 1388v-84h-187q-49 0 -87.5 -38t-38.5 -95v-1171h-100v1171q0 88 65 152.5t161 64.5h187zM60 917v76h584v-76h-584z" />
<glyph unicode="g" horiz-adv-x="1168" d="M898 993h100v-945q0 -98 -25 -178.5t-68 -135.5t-103 -92.5t-129 -54.5t-146 -17q-207 0 -405 113l38 75q184 -106 372 -106q77 0 141 21.5t115.5 67t80.5 124t29 183.5v945zM529 -20q-84 0 -154 29t-118 79t-82 116.5t-49.5 140t-15.5 152.5t15.5 152.5t49 140t82 116 t118.5 78.5t154 29q135 0 236 -70t152 -186t51 -260t-51 -260.5t-152 -186.5t-236 -70zM554 60q163 0 253.5 124t90.5 313q0 190 -90.5 313t-253.5 123t-253.5 -123t-90.5 -313q0 -189 90.5 -313t253.5 -124z" />
<glyph unicode="h" horiz-adv-x="1088" d="M260 0h-100v1389h100v-1389zM200 596q0 191 98.5 304t275.5 113q171 0 262.5 -107.5t91.5 -289.5v-616h-100v616q0 146 -78.5 229.5t-205.5 83.5q-135 0 -209.5 -87t-74.5 -246h-60z" />
<glyph unicode="i" horiz-adv-x="470" d="M150 1313q0 35 25.5 59.5t60.5 24.5t59.5 -24.5t24.5 -59.5t-24.5 -60t-59.5 -25t-60.5 25t-25.5 60zM182 993h100v-993h-100v993z" />
<glyph unicode="j" horiz-adv-x="500" d="M172 1313q0 35 25.5 59.5t60.5 24.5t59.5 -24.5t24.5 -59.5t-24.5 -60t-59.5 -25t-60.5 25t-25.5 60zM203 -192v1185h100v-1185q0 -88 -65.5 -153t-161.5 -65h-78v86h78q49 0 88 38t39 94z" />
<glyph unicode="k" horiz-adv-x="931" d="M804 993h127l-475 -496l442 -497h-124l-381 426l-133 -146v-280h-100v1389h100v-969z" />
<glyph unicode="l" horiz-adv-x="460" d="M280 0h-100v1389h100v-1389z" />
<glyph unicode="m" horiz-adv-x="1536" d="M150 993h100v-993h-100v993zM210 667q0 65 17.5 125t52.5 111t95.5 81.5t138.5 30.5q83 0 144 -28.5t95 -78.5t49.5 -109.5t15.5 -131.5v-692h-100v692q0 115 -61.5 189.5t-172.5 74.5q-72 0 -127 -40.5t-81 -99.5t-26 -124h-40zM778 667q0 65 17.5 125t52.5 111 t95.5 81.5t138.5 30.5q83 0 144 -28.5t95 -78.5t49.5 -109.5t15.5 -131.5v-692h-100v692q0 115 -61.5 189.5t-172.5 74.5q-72 0 -127 -40.5t-81 -99.5t-26 -124h-40z" />
<glyph unicode="n" horiz-adv-x="1088" d="M260 0h-100v993h100v-993zM200 596q0 191 98.5 304t275.5 113q171 0 262.5 -107.5t91.5 -289.5v-616h-100v616q0 146 -78.5 229.5t-205.5 83.5q-135 0 -209.5 -87t-74.5 -246h-60z" />
<glyph unicode="o" horiz-adv-x="1068" d="M534 929q-110 0 -189 -59t-117 -155.5t-38 -218.5q0 -188 90 -309t254 -121t254 121t90 309q0 122 -38 218.5t-117 155.5t-189 59zM534 1013q111 0 199 -44.5t140 -119t78.5 -164.5t26.5 -189q0 -79 -16 -152.5t-51.5 -140t-86.5 -116t-125.5 -78.5t-164.5 -29t-164.5 29 t-125.5 78.5t-86.5 116t-51.5 140t-16 152.5q0 99 26.5 189t78.5 164.5t140 119t199 44.5z" />
<glyph unicode="p" horiz-adv-x="1158" d="M160 993h100v-1403h-100v1403zM629 1013q84 0 154 -29t118 -79t82 -116.5t49.5 -140t15.5 -152.5t-15.5 -152.5t-49 -140t-82 -116t-118.5 -78.5t-154 -29q-135 0 -236 70t-152 186t-51 260t51 260.5t152 186.5t236 70zM604 933q-163 0 -253.5 -124t-90.5 -313 q0 -190 90.5 -313t253.5 -123t253.5 123t90.5 313q0 189 -90.5 313t-253.5 124z" />
<glyph unicode="q" horiz-adv-x="1158" d="M898 993h100v-1403h-100v1403zM529 -20q-84 0 -154 29t-118 79t-82 116.5t-49.5 140t-15.5 152.5t15.5 152.5t49 140t82 116t118.5 78.5t154 29q135 0 236 -70t152 -186t51 -260t-51 -260.5t-152 -186.5t-236 -70zM554 60q163 0 253.5 124t90.5 313q0 190 -90.5 313 t-253.5 123t-253.5 -123t-90.5 -313q0 -189 90.5 -313t253.5 -124z" />
<glyph unicode="r" horiz-adv-x="694" d="M160 993h100v-993h-100v993zM260 504h-100q0 72 15.5 141t49.5 132.5t83 111t122 76t161 28.5h73v-84h-73q-156 0 -243.5 -116t-87.5 -289z" />
<glyph unicode="s" horiz-adv-x="959" d="M100 300h100q0 -108 79 -161t200 -53t200.5 53.5t79.5 160.5q0 28 -7.5 50.5t-19 38.5t-34 28.5t-42.5 20.5t-55 15t-60.5 11t-70.5 9q-43 5 -68 8.5t-67.5 12.5t-68.5 19t-58 28t-50 40t-30.5 54.5t-12.5 71.5q0 73 32 130t85.5 90t116 49.5t130.5 16.5q53 0 104 -10 t98.5 -32.5t83 -55t56.5 -81t21 -107.5h-100q0 102 -74 152t-189 50t-189.5 -50t-74.5 -152q0 -33 13.5 -57t32.5 -38t58 -25.5t72 -16.5t93 -13q44 -5 71 -9t71 -13.5t72.5 -21t62 -31t52.5 -44t32.5 -60t13.5 -78.5q0 -76 -33.5 -135.5t-89.5 -94.5t-121.5 -52.5 t-135.5 -17.5t-135.5 17.5t-121 52.5t-89 94.5t-33.5 135.5z" />
<glyph unicode="t" horiz-adv-x="684" d="M614 86v-86h-160q-96 0 -161 65t-65 153v1061h100v-1061q0 -57 38.5 -94.5t87.5 -37.5h160zM30 917v76h584v-76h-584z" />
<glyph unicode="u" horiz-adv-x="1088" d="M828 993h100v-993h-100v993zM888 399q0 -191 -98.5 -304t-275.5 -113q-171 0 -262.5 107.5t-91.5 289.5v616h100v-616q0 -146 78.5 -229.5t205.5 -83.5q135 0 209.5 87t74.5 246h60z" />
<glyph unicode="v" horiz-adv-x="989" d="M854 993h105l-404 -993h-119l-406 993h105l360 -876z" />
<glyph unicode="w" horiz-adv-x="1481" d="M1307 993h104l-298 -993h-125l-247 831l-247 -831h-125l-299 993h104l257 -853l254 853h111l255 -853z" />
<glyph unicode="x" horiz-adv-x="1097" d="M926 993h121l-438 -511l414 -482h-122l-352 407l-353 -407h-122l414 482l-438 511h121l378 -437z" />
<glyph unicode="y" horiz-adv-x="988" d="M854 993h104l-389 -966q-18 -46 -29.5 -73.5t-30.5 -69.5t-34.5 -68.5t-39 -61t-46 -55.5t-53.5 -44t-63.5 -35.5t-74 -21t-87.5 -8.5h-54v84h54q67 0 118 21t91 67t69 100t63 138h-14l-408 993h105l363 -880z" />
<glyph unicode="z" horiz-adv-x="961" d="M70 909v84h821v-103l-714 -804h714v-86h-821v105l713 804h-713z" />
<glyph unicode="{" horiz-adv-x="656" d="M247 696q64 -39 101 -101.5t37 -138.5v-288q0 -82 87 -82h134v-86h-134q-81 0 -134 48t-53 120v288q0 73 -42.5 124.5t-108.5 70.5l-34 10v70l34 10q66 19 108.5 70.5t42.5 124.5v287q0 72 52.5 119t134.5 47h134v-84h-134q-87 0 -87 -82v-287q0 -77 -37 -139t-101 -101z " />
<glyph unicode="|" horiz-adv-x="440" d="M170 1389h100v-1799h-100v1799z" />
<glyph unicode="}" horiz-adv-x="656" d="M459 696q-64 39 -101 101t-37 139v287q0 82 -87 82h-134v84h134q82 0 134.5 -47t52.5 -119v-287q0 -73 42.5 -124.5t108.5 -70.5l34 -10v-70l-34 -10q-66 -19 -108.5 -70.5t-42.5 -124.5v-288q0 -72 -53 -120t-134 -48h-134v86h134q87 0 87 82v288q0 76 37 138.5 t101 101.5z" />
<glyph unicode="~" horiz-adv-x="868" d="M86 1134q37 86 91.5 128t110.5 42q81 0 164 -63q40 -30 67 -41t62 -11q34 0 74.5 33.5t71.5 106.5l56 -24q-37 -86 -91.5 -131t-110.5 -45q-82 0 -165 64q-41 30 -67 40.5t-61 10.5q-36 0 -75.5 -30.5t-70.5 -103.5z" />
<glyph unicode="&#xa1;" horiz-adv-x="610" d="M255 652h100v-1020h-100v1020zM390 958q0 -35 -25.5 -59.5t-60.5 -24.5t-59.5 24.5t-24.5 59.5t24.5 60t59.5 25t60.5 -25t25.5 -60z" />
<glyph unicode="&#xa2;" horiz-adv-x="999" d="M584 978h-100v411h100v-411zM584 -342h-100v407h100v-407zM819 229l90 -36q-54 -98 -149.5 -155.5t-225.5 -57.5q-90 0 -164.5 29t-125.5 78.5t-86.5 116t-51.5 140t-16 152.5q0 99 26.5 189t78.5 164.5t140 119t199 44.5q129 0 225.5 -57t149.5 -153l-90 -36 q-90 162 -285 162q-110 0 -189 -59t-117 -155.5t-38 -218.5q0 -188 90 -309t254 -121q196 0 285 163z" />
<glyph unicode="&#xa3;" horiz-adv-x="1254" d="M594 1325q-75 0 -131 -56t-56 -140v-869q0 -108 -59 -174h786v-86h-1014v86q93 0 140 42t47 132v869q0 114 82 197t205 83q108 0 186.5 -66t96.5 -163l-98 -12q-13 69 -66 113t-119 44zM120 455v76h584v-76h-584z" />
<glyph unicode="&#xa4;" horiz-adv-x="1263" d="M390 889l-80 -50l-230 263l80 50zM310 202l80 -50l-230 -263l-80 50zM953 839l-80 50l230 263l80 -50zM873 152l80 50l230 -263l-80 -50zM622 929q-110 0 -189 -59t-117 -155.5t-38 -218.5q0 -188 90 -309t254 -121t254 121t90 309q0 122 -38 218.5t-117 155.5t-189 59z M622 1013q111 0 199 -44.5t140 -119t78.5 -164.5t26.5 -189q0 -79 -16 -152.5t-51.5 -140t-86.5 -116t-125.5 -78.5t-164.5 -29t-164.5 29t-125.5 78.5t-86.5 116t-51.5 140t-16 152.5q0 99 26.5 189t78.5 164.5t140 119t199 44.5z" />
<glyph unicode="&#xa5;" horiz-adv-x="1120" d="M976 1389h114l-480 -754v-635h-100v635l-480 754h114l416 -654zM223 233v76h674v-76h-674zM223 559v76h674v-76h-674z" />
<glyph unicode="&#xa6;" horiz-adv-x="440" d="M270 850h-100v539h100v-539zM270 0h-100v494h100v-494z" />
<glyph unicode="&#xa7;" horiz-adv-x="952" d="M102 264h100q0 -106 77.5 -159t196.5 -53t197.5 53t78.5 159q0 67 -70 98.5t-214 51.5q-42 6 -71.5 11t-71 15t-70.5 22t-60.5 31.5t-50.5 43.5t-31.5 58t-12.5 75q0 92 47 157.5t126 102.5q-173 58 -173 194q0 61 22 111t58.5 83.5t85.5 57t102 34t108 10.5 q70 0 134.5 -17.5t119.5 -52t88 -93t33 -133.5h-100q0 106 -77.5 158t-197.5 52t-198 -52.5t-78 -157.5q0 -35 19.5 -60.5t61.5 -42.5t87 -27.5t117 -21.5q42 -6 72.5 -11.5t71 -16.5t69.5 -23.5t60 -33t50 -45t31.5 -59.5t12.5 -77q0 -173 -167 -250q167 -58 167 -192 q0 -61 -22 -111t-58.5 -83.5t-85.5 -57t-102 -34t-108 -10.5t-108 10.5t-101.5 34t-85 57.5t-58 84t-21.5 110zM472 887q-116 -1 -194 -56t-78 -161q0 -36 13.5 -62.5t35 -43.5t60 -30t75.5 -20t96 -15q119 1 195.5 51.5t76.5 155.5q0 38 -13.5 66t-35 45.5t-60.5 31.5 t-75.5 21.5t-95.5 16.5z" />
<glyph unicode="&#xa8;" horiz-adv-x="666" d="M414.998 1215q0 27.999 20.3994 47.5996q20.3994 19.5996 48.3994 19.5996q27.999 0 47.5986 -19.5996q19.6006 -19.6006 19.6006 -47.5996q0 -28 -19.6006 -47.999q-19.5996 -20 -47.5986 -20q-28 0 -48.3994 20q-20.3994 19.999 -20.3994 47.999zM112.998 1215 q0 27.999 20.3994 47.5996q20.3994 19.5996 48.3994 19.5996q27.999 0 47.5986 -19.5996q19.6006 -19.6006 19.6006 -47.5996q0 -28 -19.6006 -47.999q-19.5996 -20 -47.5986 -20q-28 0 -48.3994 20q-20.3994 19.999 -20.3994 47.999z" />
<glyph unicode="&#xa9;" horiz-adv-x="1710" d="M220 693q0 -132 51 -251.5t137 -205t203 -135.5t244 -50t244 50t203 135.5t137 205t51 251.5t-51 251.5t-137 204t-203 134.5t-244 50t-244 -50t-203 -134.5t-137 -204t-51 -251.5zM120 693q0 146 57.5 280t155 232t234.5 156t288 58t288 -58t234.5 -156t155 -232 t57.5 -280t-57.5 -280t-155 -232t-234.5 -156t-288 -58t-288 58t-234.5 156t-155 232t-57.5 280zM1162 935l-82 -48q-41 51 -101 78.5t-124 27.5q-121 0 -205.5 -87t-84.5 -212q0 -124 84.5 -210.5t205.5 -86.5q64 0 124 27t101 78l82 -48q-56 -67 -137 -105t-170 -38 q-112 0 -202.5 54t-139 141.5t-48.5 187.5q0 154 111 268.5t279 114.5q89 0 170 -37.5t137 -104.5z" />
<glyph unicode="&#xaa;" horiz-adv-x="747" d="M510 1201v81q0 58 -44.5 88t-115.5 30t-114 -29.5t-43 -88.5h-60q0 61 34 103t81 58.5t102 16.5q88 0 154 -44t66 -134v-255q0 -100 46 -135l-38 -48q-40 33 -56 90q-77 -95 -212 -95q-84 0 -137 47t-53 120q0 104 81 153t210 49q50 0 99 -7zM510 1140q-61 8 -99 8 q-231 0 -231 -142q0 -47 33.5 -77t96.5 -30q147 0 200 133v108z" />
<glyph unicode="&#xab;" horiz-adv-x="1173" d="M969 1007l52 -54l-391 -370l391 -371l-52 -54l-447 425zM571 1007l52 -54l-391 -370l391 -371l-52 -54l-447 425z" />
<glyph unicode="&#xac;" horiz-adv-x="1073" d="M100 443v84h803v-314h-100v230h-703z" />
<glyph unicode="&#xad;" horiz-adv-x="993" d="M873 527v-84h-753v84h753z" />
<glyph unicode="&#xae;" horiz-adv-x="1710" d="M120 693q0 146 57.5 280t155 232t234.5 156t288 58t288 -58t234.5 -156t155 -232t57.5 -280t-57.5 -280t-155 -232t-234.5 -156t-288 -58t-288 58t-234.5 156t-155 232t-57.5 280zM220 693q0 -132 51 -251.5t137 -205t203 -135.5t244 -50t244 50t203 135.5t137 205 t51 251.5t-51 251.5t-137 204t-203 134.5t-244 50t-244 -50t-203 -134.5t-137 -204t-51 -251.5zM690 643h196q86 0 143.5 48t57.5 128t-57.5 129t-143.5 49h-196v-354zM1165 334l-82 -48l-223 271h-170v-247h-100v773h296q126 0 213.5 -75.5t87.5 -188.5q0 -92 -60 -160 t-154 -91z" />
<glyph unicode="&#xaf;" horiz-adv-x="993" d="M873 1034v-84h-753v84h753z" />
<glyph unicode="&#xb0;" horiz-adv-x="646" d="M485 1403q0 68 -47 115t-115 47t-115 -47t-47 -115t47 -115t115 -47t115 47t47 115zM545 1403q0 -92 -65 -157t-157 -65t-157 65t-65 157t65 157t157 65t157 -65t65 -157z" />
<glyph unicode="&#xb1;" horiz-adv-x="993" d="M873 84v-84h-753v84h753zM873 575v-84h-327v-334h-100v334h-326v84h326v334h100v-334h327z" />
<glyph unicode="&#xb2;" horiz-adv-x="658" d="M120 864v60l272 251q25 25 35.5 45.5t10.5 57.5q0 59 -37 90.5t-92 31.5t-92 -31.5t-37 -90.5h-60q0 87 56.5 134.5t132.5 47.5t132.5 -47.5t56.5 -134.5q0 -81 -64 -145l-229 -209h303v-60h-388z" />
<glyph unicode="&#xb3;" horiz-adv-x="606" d="M180 1296h-60q0 70 54.5 117t128.5 47t128.5 -47t54.5 -117q0 -85 -77 -134q77 -50 77 -134q0 -70 -54.5 -117t-128.5 -47t-128.5 47t-54.5 117h60q0 -42 35.5 -73t87.5 -31t87.5 31t35.5 73t-35.5 73t-87.5 31h-61v60h61q52 0 87.5 31t35.5 73t-35.5 73t-87.5 31 t-87.5 -31t-35.5 -73z" />
<glyph unicode="&#xb4;" horiz-adv-x="517" d="M332 1474l50 -32l-197 -316l-50 32z" />
<glyph unicode="&#xb5;" horiz-adv-x="1108" d="M170 993h100v-669q0 -50 11 -92.5t36 -81.5t73 -61.5t114 -22.5q145 0 239.5 98t94.5 245v584h100v-993h-100v130q-127 -150 -334 -150q-149 0 -234 82v-472h-100v1403z" />
<glyph unicode="&#xb6;" horiz-adv-x="1236" d="M708 1305h-192q-128 0 -222 -98.5t-94 -254.5t94 -253.5t222 -97.5h192v704zM1066 -410h-100v1715h-158v-1715h-100v925h-192q-177 0 -296.5 126.5t-119.5 310.5t119.5 310.5t296.5 126.5h550v-1799z" />
<glyph unicode="&#xb7;" horiz-adv-x="345" d="M146 747q0 35 25.5 59.5t60.5 24.5t59.5 -24.5t24.5 -59.5t-24.5 -60t-59.5 -25t-60.5 25t-25.5 60z" />
<glyph unicode="&#xb8;" horiz-adv-x="723" d="M160 -377q74 -62 192 -62q63 0 113 29t50 67q0 64 -57 145t-134 140l50 76q100 -72 160.5 -166t60.5 -195q0 -50 -23 -87.5t-60.5 -58t-78 -30.5t-82.5 -10q-77 0 -133 22t-107 70z" />
<glyph unicode="&#xb9;" horiz-adv-x="457" d="M89 1258v60h160l1 112h60v-626h-60v454h-161z" />
<glyph unicode="&#xba;" horiz-adv-x="646" d="M485 1403q0 68 -47 115t-115 47t-115 -47t-47 -115t47 -115t115 -47t115 47t47 115zM545 1403q0 -92 -65 -157t-157 -65t-157 65t-65 157t65 157t157 65t157 -65t65 -157z" />
<glyph unicode="&#xbb;" horiz-adv-x="1172" d="M176 158l-52 54l391 370l-391 371l52 54l447 -425zM573 158l-52 54l391 370l-391 371l52 54l447 -425z" />
<glyph unicode="&#xbc;" horiz-adv-x="1965" d="M150 1158v86h32q109 0 160 17t79 59v170h100v-1060h-100v783q-77 -55 -239 -55h-32zM1815 -122v-84h-146v-252h-100v252h-514v89l497 759h117v-764h146zM1569 -122v616l-403 -616h403zM609 -79l-84 46l1030 1367l84 -46z" />
<glyph unicode="&#xbd;" horiz-adv-x="2096" d="M606 -79l-84 46l1031 1367l84 -46zM1956 -376v-84h-687v95l489 462q51 48 74.5 95t23.5 126q0 122 -72 184t-172 62q-99 0 -170.5 -62t-71.5 -184h-100q0 154 101 243t241 89q89 0 166 -37t127.5 -114t50.5 -181q0 -93 -32.5 -157.5t-91.5 -119.5l-440 -417h564z M150 1158v86h32q109 0 160 17t79 59v170h100v-1060h-100v783q-77 -55 -239 -55h-32z" />
<glyph unicode="&#xbe;" horiz-adv-x="2140" d="M1990 -122v-84h-146v-252h-100v252h-514v89l498 759h116v-764h146zM1744 -122v615l-403 -615h403zM426 900h-86v84h86q125 0 192 51t67 168q0 87 -71.5 148t-170.5 61t-171 -62.5t-72 -184.5h-100q0 154 101.5 243.5t241.5 89.5t241 -87t101 -208q0 -185 -151 -261 q151 -76 151 -260q0 -121 -100.5 -207.5t-241.5 -86.5q-140 0 -241.5 88.5t-101.5 242.5h100q0 -122 72 -184.5t171 -62.5t170.5 61.5t71.5 148.5q0 117 -67 167.5t-192 50.5zM784 -79l-84 46l1031 1367l84 -46z" />
<glyph unicode="&#xbf;" horiz-adv-x="1127" d="M872 68l100 12q5 -36 5 -82q0 -100 -40.5 -181t-128 -132t-209.5 -51q-179 0 -284 117.5t-105 287.5q0 67 27.5 123t62 88t85.5 66q43 28 68 49t54 56.5t43 84t14 111.5h100q0 -74 -18.5 -134.5t-54 -105t-67.5 -72t-77 -57.5q-71 -46 -104 -90t-33 -119 q0 -144 79.5 -232.5t209.5 -88.5q136 0 207 75.5t71 204.5q0 41 -5 70zM519 958q0 -35 25.5 -59.5t60.5 -24.5t59.5 24.5t24.5 59.5t-24.5 60t-59.5 25t-60.5 -25t-25.5 -60z" />
<glyph unicode="&#xc0;" horiz-adv-x="1267" d="M330 499h608l-304 775zM134 0h-104l544 1389h120l543 -1389h-104l-162 413h-674zM758 1752l-50 -32l-198 316l50 32z" />
<glyph unicode="&#xc1;" horiz-adv-x="1267" d="M330 499h608l-304 775zM134 0h-104l544 1389h120l543 -1389h-104l-162 413h-674zM707 2068l50 -32l-197 -316l-50 32z" />
<glyph unicode="&#xc2;" horiz-adv-x="1267" d="M330 499h608l-304 775zM134 0h-104l544 1389h120l543 -1389h-104l-162 413h-674zM890 1731l-48 -38l-208 263l-208 -263l-48 38l221 279h70z" />
<glyph unicode="&#xc3;" horiz-adv-x="1267" d="M330 499h608l-304 775zM134 0h-104l544 1389h120l543 -1389h-104l-162 413h-674zM285 1748q37 86 91.5 128t110.5 42q81 0 164 -63q40 -30 67 -41t62 -11q34 0 74.5 33.5t71.5 106.5l56 -24q-37 -86 -91.5 -131t-110.5 -45q-82 0 -165 64q-41 30 -67 40.5t-61 10.5 q-36 0 -75.5 -30.5t-70.5 -103.5z" />
<glyph unicode="&#xc4;" horiz-adv-x="1267" d="M330 499h608l-304 775zM134 0h-104l544 1389h120l543 -1389h-104l-162 413h-674zM715.998 1829q0 27.999 20.3994 47.5996q20.3994 19.5996 48.3994 19.5996q27.999 0 47.5986 -19.5996q19.6006 -19.6006 19.6006 -47.5996q0 -28 -19.6006 -47.999 q-19.5996 -20 -47.5986 -20q-28 0 -48.3994 20q-20.3994 19.999 -20.3994 47.999zM413.998 1829q0 27.999 20.3994 47.5996q20.3994 19.5996 48.3994 19.5996q27.999 0 47.5986 -19.5996q19.6006 -19.6006 19.6006 -47.5996q0 -28 -19.6006 -47.999 q-19.5996 -20 -47.5986 -20q-28 0 -48.3994 20q-20.3994 19.999 -20.3994 47.999z" />
<glyph unicode="&#xc5;" horiz-adv-x="1267" d="M330 499h608l-304 775zM134 0h-104l544 1389h120l543 -1389h-104l-162 413h-674zM795 1969q0 68 -47 115t-115 47t-115 -47t-47 -115t47 -115t115 -47t115 47t47 115zM855 1969q0 -92 -65 -157t-157 -65t-157 65t-65 157t65 157t157 65t157 -65t65 -157z" />
<glyph unicode="&#xc6;" horiz-adv-x="1788" d="M844 1305h-61l-409 -865h470v865zM717 1389h1011v-84h-784v-591h784v-86h-784v-542h784v-86h-884v356h-512l-184 -356h-108z" />
<glyph unicode="&#xc7;" horiz-adv-x="1451" d="M1097 187l72 -58q-165 -149 -408 -149q-156 0 -279 60.5t-198.5 163t-114.5 230t-39 270.5q0 113 24 216t75 192.5t124 155.5t178 103.5t230 37.5q245 0 408 -147l-72 -58q-134 121 -336 121q-171 0 -293 -82.5t-180 -221t-58 -317.5q0 -134 34 -248.5t99 -202 t167 -137.5t231 -50q202 0 336 121zM476 -355q74 -62 192 -62q63 0 113 29t50 67q0 64 -57 145t-134 140l50 76q100 -72 160.5 -166t60.5 -195q0 -50 -23 -87.5t-60.5 -58t-78 -30.5t-82.5 -10q-77 0 -133 22t-107 70z" />
<glyph unicode="&#xc8;" horiz-adv-x="1091" d="M1021 86v-86h-831v1389h831v-84h-731v-582h731v-84h-731v-553h731zM720 1752l-50 -32l-198 316l50 32z" />
<glyph unicode="&#xc9;" horiz-adv-x="1091" d="M1021 86v-86h-831v1389h831v-84h-731v-582h731v-84h-731v-553h731zM669 2068l50 -32l-197 -316l-50 32z" />
<glyph unicode="&#xca;" horiz-adv-x="1091" d="M1021 86v-86h-831v1389h831v-84h-731v-582h731v-84h-731v-553h731zM852 1731l-48 -38l-208 263l-208 -263l-48 38l221 279h70z" />
<glyph unicode="&#xcb;" horiz-adv-x="1091" d="M1021 86v-86h-831v1389h831v-84h-731v-582h731v-84h-731v-553h731zM677.998 1829q0 27.999 20.3994 47.5996q20.3994 19.5996 48.3994 19.5996q27.999 0 47.5986 -19.5996q19.6006 -19.6006 19.6006 -47.5996q0 -28 -19.6006 -47.999q-19.5996 -20 -47.5986 -20 q-28 0 -48.3994 20q-20.3994 19.999 -20.3994 47.999zM375.998 1829q0 27.999 20.3994 47.5996q20.3994 19.5996 48.3994 19.5996q27.999 0 47.5986 -19.5996q19.6006 -19.6006 19.6006 -47.5996q0 -28 -19.6006 -47.999q-19.5996 -20 -47.5986 -20q-28 0 -48.3994 20 q-20.3994 19.999 -20.3994 47.999z" />
<glyph unicode="&#xcc;" horiz-adv-x="560" d="M330 0h-100v1389h100v-1389zM404 1752l-50 -32l-198 316l50 32z" />
<glyph unicode="&#xcd;" horiz-adv-x="560" d="M330 0h-100v1389h100v-1389zM354 2068l50 -32l-197 -316l-50 32z" />
<glyph unicode="&#xce;" horiz-adv-x="560" d="M330 0h-100v1389h100v-1389zM536 1731l-48 -38l-208 263l-208 -263l-48 38l221 279h70z" />
<glyph unicode="&#xcf;" horiz-adv-x="560" d="M330 0h-100v1389h100v-1389zM362.998 1829q0 27.999 20.3994 47.5996q20.3994 19.5996 48.3994 19.5996q27.999 0 47.5986 -19.5996q19.6006 -19.6006 19.6006 -47.5996q0 -28 -19.6006 -47.999q-19.5996 -20 -47.5986 -20q-28 0 -48.3994 20 q-20.3994 19.999 -20.3994 47.999zM60.998 1829q0 27.999 20.3994 47.5996q20.3994 19.5996 48.3994 19.5996q27.999 0 47.5986 -19.5996q19.6006 -19.6006 19.6006 -47.5996q0 -28 -19.6006 -47.999q-19.5996 -20 -47.5986 -20q-28 0 -48.3994 20 q-20.3994 19.999 -20.3994 47.999z" />
<glyph unicode="&#xd0;" horiz-adv-x="1554" d="M873 719v-84h-753v84h753zM842 1389q127 0 232.5 -37.5t178.5 -103t123.5 -155t74 -193.5t23.5 -219q0 -145 -38.5 -266.5t-114 -215t-198 -146.5t-281.5 -53h-390v1389h390zM842 1305h-290v-1219h290q262 0 397 159t135 436q0 136 -33 249t-97.5 197t-167 131t-234.5 47 z" />
<glyph unicode="&#xd1;" horiz-adv-x="1396" d="M1106 1389h100v-1389h-114l-802 1232v-1232h-100v1389h113l803 -1232v1232zM350 1781q37 86 91.5 128t110.5 42q81 0 164 -63q40 -30 67 -41t62 -11q34 0 74.5 33.5t71.5 106.5l56 -24q-37 -86 -91.5 -131t-110.5 -45q-82 0 -165 64q-41 30 -67 40.5t-61 10.5 q-36 0 -75.5 -30.5t-70.5 -103.5z" />
<glyph unicode="&#xd2;" horiz-adv-x="1512" d="M756 1409q125 0 230 -40t178 -109t124 -162t75 -198.5t24 -218.5t-24 -215.5t-74.5 -191.5t-124 -154t-178 -102.5t-230.5 -37.5t-230.5 37.5t-178 102.5t-124 154t-74.5 191.5t-24 215.5t24 218.5t75 198.5t124 162t178 109t230 40zM756 1325q-129 0 -231.5 -51 t-167 -139.5t-98.5 -204t-34 -249.5q0 -133 34 -244.5t99 -194.5t167 -129.5t231 -46.5t231 46.5t167 129.5t99 194.5t34 244.5q0 134 -34 249.5t-98.5 204t-167 139.5t-231.5 51zM880 1752l-50 -32l-198 316l50 32z" />
<glyph unicode="&#xd3;" horiz-adv-x="1512" d="M756 1409q125 0 230 -40t178 -109t124 -162t75 -198.5t24 -218.5t-24 -215.5t-74.5 -191.5t-124 -154t-178 -102.5t-230.5 -37.5t-230.5 37.5t-178 102.5t-124 154t-74.5 191.5t-24 215.5t24 218.5t75 198.5t124 162t178 109t230 40zM756 1325q-129 0 -231.5 -51 t-167 -139.5t-98.5 -204t-34 -249.5q0 -133 34 -244.5t99 -194.5t167 -129.5t231 -46.5t231 46.5t167 129.5t99 194.5t34 244.5q0 134 -34 249.5t-98.5 204t-167 139.5t-231.5 51zM829 2068l50 -32l-197 -316l-50 32z" />
<glyph unicode="&#xd4;" horiz-adv-x="1512" d="M756 1409q125 0 230 -40t178 -109t124 -162t75 -198.5t24 -218.5t-24 -215.5t-74.5 -191.5t-124 -154t-178 -102.5t-230.5 -37.5t-230.5 37.5t-178 102.5t-124 154t-74.5 191.5t-24 215.5t24 218.5t75 198.5t124 162t178 109t230 40zM756 1325q-129 0 -231.5 -51 t-167 -139.5t-98.5 -204t-34 -249.5q0 -133 34 -244.5t99 -194.5t167 -129.5t231 -46.5t231 46.5t167 129.5t99 194.5t34 244.5q0 134 -34 249.5t-98.5 204t-167 139.5t-231.5 51zM1012 1731l-48 -38l-208 263l-208 -263l-48 38l221 279h70z" />
<glyph unicode="&#xd5;" horiz-adv-x="1512" d="M756 1409q125 0 230 -40t178 -109t124 -162t75 -198.5t24 -218.5t-24 -215.5t-74.5 -191.5t-124 -154t-178 -102.5t-230.5 -37.5t-230.5 37.5t-178 102.5t-124 154t-74.5 191.5t-24 215.5t24 218.5t75 198.5t124 162t178 109t230 40zM756 1325q-129 0 -231.5 -51 t-167 -139.5t-98.5 -204t-34 -249.5q0 -133 34 -244.5t99 -194.5t167 -129.5t231 -46.5t231 46.5t167 129.5t99 194.5t34 244.5q0 134 -34 249.5t-98.5 204t-167 139.5t-231.5 51zM407 1748q37 86 91.5 128t110.5 42q81 0 164 -63q40 -30 67 -41t62 -11q34 0 74.5 33.5 t71.5 106.5l56 -24q-37 -86 -91.5 -131t-110.5 -45q-82 0 -165 64q-41 30 -67 40.5t-61 10.5q-36 0 -75.5 -30.5t-70.5 -103.5z" />
<glyph unicode="&#xd6;" horiz-adv-x="1512" d="M756 1409q125 0 230 -40t178 -109t124 -162t75 -198.5t24 -218.5t-24 -215.5t-74.5 -191.5t-124 -154t-178 -102.5t-230.5 -37.5t-230.5 37.5t-178 102.5t-124 154t-74.5 191.5t-24 215.5t24 218.5t75 198.5t124 162t178 109t230 40zM756 1325q-129 0 -231.5 -51 t-167 -139.5t-98.5 -204t-34 -249.5q0 -133 34 -244.5t99 -194.5t167 -129.5t231 -46.5t231 46.5t167 129.5t99 194.5t34 244.5q0 134 -34 249.5t-98.5 204t-167 139.5t-231.5 51zM838.998 1829q0 27.999 20.3994 47.5996q20.3994 19.5996 48.3994 19.5996 q27.999 0 47.5986 -19.5996q19.6006 -19.6006 19.6006 -47.5996q0 -28 -19.6006 -47.999q-19.5996 -20 -47.5986 -20q-28 0 -48.3994 20q-20.3994 19.999 -20.3994 47.999zM536.998 1829q0 27.999 20.3994 47.5996q20.3994 19.5996 48.3994 19.5996 q27.999 0 47.5986 -19.5996q19.6006 -19.6006 19.6006 -47.5996q0 -28 -19.6006 -47.999q-19.5996 -20 -47.5986 -20q-28 0 -48.3994 20q-20.3994 19.999 -20.3994 47.999z" />
<glyph unicode="&#xd7;" horiz-adv-x="820" d="M642.622 773.93l59.4004 -59.3965l-532.44 -532.44l-59.4004 59.3955zM701.93 241.293l-59.3965 -59.3955l-532.44 532.486l59.3955 59.3955z" />
<glyph unicode="&#xd8;" horiz-adv-x="1750" d="M1580 1413l52 -54l-1462 -1411l-52 54zM900 1409q125 0 230 -40t178 -109t124 -162t75 -198.5t24 -218.5t-24 -215.5t-74.5 -191.5t-124 -154t-178 -102.5t-230.5 -37.5t-230.5 37.5t-178 102.5t-124 154t-74.5 191.5t-24 215.5t24 218.5t75 198.5t124 162t178 109 t230 40zM900 1325q-129 0 -231.5 -51t-167 -139.5t-98.5 -204t-34 -249.5q0 -133 34 -244.5t99 -194.5t167 -129.5t231 -46.5t231 46.5t167 129.5t99 194.5t34 244.5q0 134 -34 249.5t-98.5 204t-167 139.5t-231.5 51z" />
<glyph unicode="&#xd9;" horiz-adv-x="1336" d="M1056 1389h100v-953q0 -132 -66 -237t-177 -162t-245 -57t-245 57t-177 162t-66 237v953h100v-953q0 -168 112 -269t276 -101t276 101t112 269v953zM792 1752l-50 -32l-198 316l50 32z" />
<glyph unicode="&#xda;" horiz-adv-x="1336" d="M1056 1389h100v-953q0 -132 -66 -237t-177 -162t-245 -57t-245 57t-177 162t-66 237v953h100v-953q0 -168 112 -269t276 -101t276 101t112 269v953zM742 2068l50 -32l-197 -316l-50 32z" />
<glyph unicode="&#xdb;" horiz-adv-x="1336" d="M1056 1389h100v-953q0 -132 -66 -237t-177 -162t-245 -57t-245 57t-177 162t-66 237v953h100v-953q0 -168 112 -269t276 -101t276 101t112 269v953zM924 1731l-48 -38l-208 263l-208 -263l-48 38l221 279h70z" />
<glyph unicode="&#xdc;" horiz-adv-x="1336" d="M1056 1389h100v-953q0 -132 -66 -237t-177 -162t-245 -57t-245 57t-177 162t-66 237v953h100v-953q0 -168 112 -269t276 -101t276 101t112 269v953zM750.998 1829q0 27.999 20.3994 47.5996q20.3994 19.5996 48.3994 19.5996q27.999 0 47.5986 -19.5996 q19.6006 -19.6006 19.6006 -47.5996q0 -28 -19.6006 -47.999q-19.5996 -20 -47.5986 -20q-28 0 -48.3994 20q-20.3994 19.999 -20.3994 47.999zM448.998 1829q0 27.999 20.3994 47.5996q20.3994 19.5996 48.3994 19.5996q27.999 0 47.5986 -19.5996 q19.6006 -19.6006 19.6006 -47.5996q0 -28 -19.6006 -47.999q-19.5996 -20 -47.5986 -20q-28 0 -48.3994 20q-20.3994 19.999 -20.3994 47.999z" />
<glyph unicode="&#xdd;" horiz-adv-x="1120" d="M976 1389h114l-480 -754v-635h-100v635l-480 754h114l416 -654zM633 2068l50 -32l-197 -316l-50 32z" />
<glyph unicode="&#xde;" horiz-adv-x="1149" d="M290 389h287q151 0 246.5 74t95.5 219t-95.5 219t-246.5 74h-287v-586zM290 0h-100v1389h100v-328h287q89 0 167.5 -24t140.5 -70t98 -119.5t36 -165.5t-36 -165.5t-98 -119.5t-140.5 -70t-167.5 -24h-287v-303z" />
<glyph unicode="&#xdf;" horiz-adv-x="1129" d="M537 0v86q230 0 306 27t76 119q0 63 -34 107.5t-99 90.5q-36 25 -57.5 43.5t-49.5 49t-41.5 68t-13.5 80.5q0 45 13 83.5t27.5 59t40.5 52.5q27 32 40 51t26.5 56.5t13.5 79.5q0 125 -66.5 198.5t-191.5 73.5q-128 0 -192.5 -72.5t-64.5 -199.5v-1053h-100v1053 q0 72 21.5 135t63.5 113t112 79t160 29q116 0 199 -50.5t121 -129.5t38 -176q0 -49 -14 -90.5t-28.5 -62.5t-42.5 -54q-25 -30 -38 -48.5t-25.5 -53t-12.5 -73.5q0 -56 30 -92t96 -83q35 -25 60.5 -47.5t52.5 -55.5t41.5 -74t14.5 -87q0 -51 -15.5 -89.5t-48.5 -63.5 t-72.5 -41t-98.5 -24t-114.5 -11t-132.5 -3z" />
<glyph unicode="&#xe0;" horiz-adv-x="993" d="M863 0h-98q-39 136 -39 322v402q0 98 -75 151.5t-184 53.5q-108 0 -182.5 -53.5t-74.5 -151.5h-100q0 92 54 159.5t133.5 98.5t169.5 31q91 0 170.5 -31t134 -98.5t54.5 -159.5v-402q0 -199 37 -322zM790 549l-30 -82q-84 23 -185 23q-104 0 -189 -24.5t-140.5 -79.5 t-55.5 -132q0 -93 58 -140.5t169 -47.5q125 0 217 72.5t92 195.5h100q0 -110 -61 -192.5t-153 -122t-199 -39.5q-143 0 -233 75t-90 204q0 67 30.5 122t79 90t113.5 59t130 34t132 10q117 0 215 -25zM592 1310l-50 -32l-198 316l50 32z" />
<glyph unicode="&#xe1;" horiz-adv-x="993" d="M863 0h-98q-39 136 -39 322v402q0 98 -75 151.5t-184 53.5q-108 0 -182.5 -53.5t-74.5 -151.5h-100q0 92 54 159.5t133.5 98.5t169.5 31q91 0 170.5 -31t134 -98.5t54.5 -159.5v-402q0 -199 37 -322zM790 549l-30 -82q-84 23 -185 23q-104 0 -189 -24.5t-140.5 -79.5 t-55.5 -132q0 -93 58 -140.5t169 -47.5q125 0 217 72.5t92 195.5h100q0 -110 -61 -192.5t-153 -122t-199 -39.5q-143 0 -233 75t-90 204q0 67 30.5 122t79 90t113.5 59t130 34t132 10q117 0 215 -25zM542 1626l50 -32l-197 -316l-50 32z" />
<glyph unicode="&#xe2;" horiz-adv-x="993" d="M863 0h-98q-39 136 -39 322v402q0 98 -75 151.5t-184 53.5q-108 0 -182.5 -53.5t-74.5 -151.5h-100q0 92 54 159.5t133.5 98.5t169.5 31q91 0 170.5 -31t134 -98.5t54.5 -159.5v-402q0 -199 37 -322zM790 549l-30 -82q-84 23 -185 23q-104 0 -189 -24.5t-140.5 -79.5 t-55.5 -132q0 -93 58 -140.5t169 -47.5q125 0 217 72.5t92 195.5h100q0 -110 -61 -192.5t-153 -122t-199 -39.5q-143 0 -233 75t-90 204q0 67 30.5 122t79 90t113.5 59t130 34t132 10q117 0 215 -25zM724 1289l-48 -38l-208 263l-208 -263l-48 38l221 279h70z" />
<glyph unicode="&#xe3;" horiz-adv-x="993" d="M863 0h-98q-39 136 -39 322v402q0 98 -75 151.5t-184 53.5q-108 0 -182.5 -53.5t-74.5 -151.5h-100q0 92 54 159.5t133.5 98.5t169.5 31q91 0 170.5 -31t134 -98.5t54.5 -159.5v-402q0 -199 37 -322zM790 549l-30 -82q-84 23 -185 23q-104 0 -189 -24.5t-140.5 -79.5 t-55.5 -132q0 -93 58 -140.5t169 -47.5q125 0 217 72.5t92 195.5h100q0 -110 -61 -192.5t-153 -122t-199 -39.5q-143 0 -233 75t-90 204q0 67 30.5 122t79 90t113.5 59t130 34t132 10q117 0 215 -25zM120 1332q37 86 91.5 128t110.5 42q81 0 164 -63q40 -30 67 -41t62 -11 q34 0 74.5 33.5t71.5 106.5l56 -24q-37 -86 -91.5 -131t-110.5 -45q-82 0 -165 64q-41 30 -67 40.5t-61 10.5q-36 0 -75.5 -30.5t-70.5 -103.5z" />
<glyph unicode="&#xe4;" horiz-adv-x="993" d="M863 0h-98q-39 136 -39 322v402q0 98 -75 151.5t-184 53.5q-108 0 -182.5 -53.5t-74.5 -151.5h-100q0 92 54 159.5t133.5 98.5t169.5 31q91 0 170.5 -31t134 -98.5t54.5 -159.5v-402q0 -199 37 -322zM790 549l-30 -82q-84 23 -185 23q-104 0 -189 -24.5t-140.5 -79.5 t-55.5 -132q0 -93 58 -140.5t169 -47.5q125 0 217 72.5t92 195.5h100q0 -110 -61 -192.5t-153 -122t-199 -39.5q-143 0 -233 75t-90 204q0 67 30.5 122t79 90t113.5 59t130 34t132 10q117 0 215 -25zM550.998 1387q0 27.999 20.3994 47.5996 q20.3994 19.5996 48.3994 19.5996q27.999 0 47.5986 -19.5996q19.6006 -19.6006 19.6006 -47.5996q0 -28 -19.6006 -47.999q-19.5996 -20 -47.5986 -20q-28 0 -48.3994 20q-20.3994 19.999 -20.3994 47.999zM248.998 1387q0 27.999 20.3994 47.5996 q20.3994 19.5996 48.3994 19.5996q27.999 0 47.5986 -19.5996q19.6006 -19.6006 19.6006 -47.5996q0 -28 -19.6006 -47.999q-19.5996 -20 -47.5986 -20q-28 0 -48.3994 20q-20.3994 19.999 -20.3994 47.999z" />
<glyph unicode="&#xe5;" horiz-adv-x="993" d="M863 0h-98q-39 136 -39 322v402q0 98 -75 151.5t-184 53.5q-108 0 -182.5 -53.5t-74.5 -151.5h-100q0 92 54 159.5t133.5 98.5t169.5 31q91 0 170.5 -31t134 -98.5t54.5 -159.5v-402q0 -199 37 -322zM790 549l-30 -82q-84 23 -185 23q-104 0 -189 -24.5t-140.5 -79.5 t-55.5 -132q0 -93 58 -140.5t169 -47.5q125 0 217 72.5t92 195.5h100q0 -110 -61 -192.5t-153 -122t-199 -39.5q-143 0 -233 75t-90 204q0 67 30.5 122t79 90t113.5 59t130 34t132 10q117 0 215 -25zM630 1527q0 68 -47 115t-115 47t-115 -47t-47 -115t47 -115t115 -47 t115 47t47 115zM690 1527q0 -92 -65 -157t-157 -65t-157 65t-65 157t65 157t157 65t157 -65t65 -157z" />
<glyph unicode="&#xe6;" horiz-adv-x="1690" d="M816 476q12 -187 112.5 -298.5t274.5 -111.5q163 0 318 82l48 -74q-181 -94 -372 -94q-300 0 -413 256q-45 -114 -144.5 -185t-246.5 -71q-135 0 -224 75.5t-89 199.5q0 83 36.5 147t101.5 103t148.5 58.5t182.5 19.5q77 0 167 -11v112q0 106 -70 175.5t-189 69.5 q-114 0 -185.5 -53t-71.5 -152h-100q0 92 52 159.5t131 98.5t174 31q120 0 209.5 -64t130.5 -164q145 228 362 228q112 0 200 -40.5t142 -110.5t81.5 -157t27.5 -186v-43h-794zM816 562h693q-12 168 -102.5 267.5t-247.5 99.5q-156 0 -244 -99t-99 -268zM716 485 q-87 13 -172 13q-168 0 -266 -59.5t-98 -180.5q0 -94 55.5 -143t157.5 -49q150 0 236.5 87.5t86.5 220.5v111z" />
<glyph unicode="&#xe7;" horiz-adv-x="999" d="M819 229l90 -36q-54 -98 -149.5 -155.5t-225.5 -57.5q-90 0 -164.5 29t-125.5 78.5t-86.5 116t-51.5 140t-16 152.5q0 99 26.5 189t78.5 164.5t140 119t199 44.5q129 0 225.5 -57t149.5 -153l-90 -36q-90 162 -285 162q-110 0 -189 -59t-117 -155.5t-38 -218.5 q0 -188 90 -309t254 -121q196 0 285 163zM288 -354q74 -62 192 -62q63 0 113 29t50 67q0 64 -57 145t-134 140l50 76q100 -72 160.5 -166t60.5 -195q0 -50 -23 -87.5t-60.5 -58t-78 -30.5t-82.5 -10q-77 0 -133 22t-107 70z" />
<glyph unicode="&#xe8;" horiz-adv-x="1048" d="M181 453q14 -202 116.5 -294.5t272.5 -92.5q175 0 328 81l36 -73q-172 -94 -367 -94q-221 0 -354 133t-133 383q0 99 26.5 189t78.5 164.5t140 119t199 44.5q90 0 164.5 -29t125.5 -78.5t86.5 -116.5t51.5 -140.5t16 -152.5l-1 -43h-786zM181 539h686 q-12 173 -100.5 281.5t-242.5 108.5t-243 -109t-100 -281zM652 1310l-50 -32l-198 316l50 32z" />
<glyph unicode="&#xe9;" horiz-adv-x="1048" d="M181 453q14 -202 116.5 -294.5t272.5 -92.5q175 0 328 81l36 -73q-172 -94 -367 -94q-221 0 -354 133t-133 383q0 99 26.5 189t78.5 164.5t140 119t199 44.5q90 0 164.5 -29t125.5 -78.5t86.5 -116.5t51.5 -140.5t16 -152.5l-1 -43h-786zM181 539h686 q-12 173 -100.5 281.5t-242.5 108.5t-243 -109t-100 -281zM601 1626l50 -32l-197 -316l-50 32z" />
<glyph unicode="&#xea;" horiz-adv-x="1048" d="M181 453q14 -202 116.5 -294.5t272.5 -92.5q175 0 328 81l36 -73q-172 -94 -367 -94q-221 0 -354 133t-133 383q0 99 26.5 189t78.5 164.5t140 119t199 44.5q90 0 164.5 -29t125.5 -78.5t86.5 -116.5t51.5 -140.5t16 -152.5l-1 -43h-786zM181 539h686 q-12 173 -100.5 281.5t-242.5 108.5t-243 -109t-100 -281zM784 1289l-48 -38l-208 263l-208 -263l-48 38l221 279h70z" />
<glyph unicode="&#xeb;" horiz-adv-x="1048" d="M181 453q14 -202 116.5 -294.5t272.5 -92.5q175 0 328 81l36 -73q-172 -94 -367 -94q-221 0 -354 133t-133 383q0 99 26.5 189t78.5 164.5t140 119t199 44.5q90 0 164.5 -29t125.5 -78.5t86.5 -116.5t51.5 -140.5t16 -152.5l-1 -43h-786zM181 539h686 q-12 173 -100.5 281.5t-242.5 108.5t-243 -109t-100 -281zM609.998 1387q0 27.999 20.3994 47.5996q20.3994 19.5996 48.3994 19.5996q27.999 0 47.5986 -19.5996q19.6006 -19.6006 19.6006 -47.5996q0 -28 -19.6006 -47.999q-19.5996 -20 -47.5986 -20q-28 0 -48.3994 20 q-20.3994 19.999 -20.3994 47.999zM307.998 1387q0 27.999 20.3994 47.5996q20.3994 19.5996 48.3994 19.5996q27.999 0 47.5986 -19.5996q19.6006 -19.6006 19.6006 -47.5996q0 -28 -19.6006 -47.999q-19.5996 -20 -47.5986 -20q-28 0 -48.3994 20 q-20.3994 19.999 -20.3994 47.999z" />
<glyph unicode="&#xec;" horiz-adv-x="507" d="M378 1310l-50 -32l-198 316l50 32zM204 993h100v-993h-100v993z" />
<glyph unicode="&#xed;" horiz-adv-x="507" d="M327 1626l50 -32l-197 -316l-50 32zM204 993h100v-993h-100v993z" />
<glyph unicode="&#xee;" horiz-adv-x="507" d="M510 1289l-48 -38l-208 263l-208 -263l-48 38l221 279h70zM204 993h100v-993h-100v993z" />
<glyph unicode="&#xef;" horiz-adv-x="507" d="M335.998 1387q0 27.999 20.3994 47.5996q20.3994 19.5996 48.3994 19.5996q27.999 0 47.5986 -19.5996q19.6006 -19.6006 19.6006 -47.5996q0 -28 -19.6006 -47.999q-19.5996 -20 -47.5986 -20q-28 0 -48.3994 20q-20.3994 19.999 -20.3994 47.999zM33.998 1387 q0 27.999 20.3994 47.5996q20.3994 19.5996 48.3994 19.5996q27.999 0 47.5986 -19.5996q19.6006 -19.6006 19.6006 -47.5996q0 -28 -19.6006 -47.999q-19.5996 -20 -47.5986 -20q-28 0 -48.3994 20q-20.3994 19.999 -20.3994 47.999zM204 993h100v-993h-100v993z" />
<glyph unicode="&#xf0;" horiz-adv-x="1088" d="M544 929q-110 0 -189 -59t-117 -155.5t-38 -218.5q0 -188 90 -309t254 -121t254 121t90 309q0 122 -38 218.5t-117 155.5t-189 59zM544 1013q114 0 201 -45q-85 127 -193 226l-166 -134l-62 78l149 121q-115 83 -225 103l18 98q147 -27 288 -136l155 126l62 -78 l-141 -114q170 -163 264 -365t94 -397q0 -79 -16 -152.5t-51.5 -140t-86.5 -116t-125.5 -78.5t-164.5 -29t-164.5 29t-125.5 78.5t-86.5 116t-51.5 140t-16 152.5q0 99 26.5 189t78.5 164.5t140 119t199 44.5z" />
<glyph unicode="&#xf1;" horiz-adv-x="1088" d="M260 0h-100v993h100v-993zM200 596q0 191 98.5 304t275.5 113q171 0 262.5 -107.5t91.5 -289.5v-616h-100v616q0 146 -78.5 229.5t-205.5 83.5q-135 0 -209.5 -87t-74.5 -246h-60zM196 1312q37 86 91.5 128t110.5 42q81 0 164 -63q40 -30 67 -41t62 -11q34 0 74.5 33.5 t71.5 106.5l56 -24q-37 -86 -91.5 -131t-110.5 -45q-82 0 -165 64q-41 30 -67 40.5t-61 10.5q-36 0 -75.5 -30.5t-70.5 -103.5z" />
<glyph unicode="&#xf2;" horiz-adv-x="1068" d="M534 929q-110 0 -189 -59t-117 -155.5t-38 -218.5q0 -188 90 -309t254 -121t254 121t90 309q0 122 -38 218.5t-117 155.5t-189 59zM534 1013q111 0 199 -44.5t140 -119t78.5 -164.5t26.5 -189q0 -79 -16 -152.5t-51.5 -140t-86.5 -116t-125.5 -78.5t-164.5 -29t-164.5 29 t-125.5 78.5t-86.5 116t-51.5 140t-16 152.5q0 99 26.5 189t78.5 164.5t140 119t199 44.5zM658 1310l-50 -32l-198 316l50 32z" />
<glyph unicode="&#xf3;" horiz-adv-x="1068" d="M534 929q-110 0 -189 -59t-117 -155.5t-38 -218.5q0 -188 90 -309t254 -121t254 121t90 309q0 122 -38 218.5t-117 155.5t-189 59zM534 1013q111 0 199 -44.5t140 -119t78.5 -164.5t26.5 -189q0 -79 -16 -152.5t-51.5 -140t-86.5 -116t-125.5 -78.5t-164.5 -29t-164.5 29 t-125.5 78.5t-86.5 116t-51.5 140t-16 152.5q0 99 26.5 189t78.5 164.5t140 119t199 44.5zM608 1626l50 -32l-197 -316l-50 32z" />
<glyph unicode="&#xf4;" horiz-adv-x="1068" d="M534 929q-110 0 -189 -59t-117 -155.5t-38 -218.5q0 -188 90 -309t254 -121t254 121t90 309q0 122 -38 218.5t-117 155.5t-189 59zM534 1013q111 0 199 -44.5t140 -119t78.5 -164.5t26.5 -189q0 -79 -16 -152.5t-51.5 -140t-86.5 -116t-125.5 -78.5t-164.5 -29t-164.5 29 t-125.5 78.5t-86.5 116t-51.5 140t-16 152.5q0 99 26.5 189t78.5 164.5t140 119t199 44.5zM790 1289l-48 -38l-208 263l-208 -263l-48 38l221 279h70z" />
<glyph unicode="&#xf5;" horiz-adv-x="1068" d="M534 929q-110 0 -189 -59t-117 -155.5t-38 -218.5q0 -188 90 -309t254 -121t254 121t90 309q0 122 -38 218.5t-117 155.5t-189 59zM534 1013q111 0 199 -44.5t140 -119t78.5 -164.5t26.5 -189q0 -79 -16 -152.5t-51.5 -140t-86.5 -116t-125.5 -78.5t-164.5 -29t-164.5 29 t-125.5 78.5t-86.5 116t-51.5 140t-16 152.5q0 99 26.5 189t78.5 164.5t140 119t199 44.5zM186 1306q37 86 91.5 128t110.5 42q81 0 164 -63q40 -30 67 -41t62 -11q34 0 74.5 33.5t71.5 106.5l56 -24q-37 -86 -91.5 -131t-110.5 -45q-82 0 -165 64q-41 30 -67 40.5t-61 10.5 q-36 0 -75.5 -30.5t-70.5 -103.5z" />
<glyph unicode="&#xf6;" horiz-adv-x="1068" d="M534 929q-110 0 -189 -59t-117 -155.5t-38 -218.5q0 -188 90 -309t254 -121t254 121t90 309q0 122 -38 218.5t-117 155.5t-189 59zM534 1013q111 0 199 -44.5t140 -119t78.5 -164.5t26.5 -189q0 -79 -16 -152.5t-51.5 -140t-86.5 -116t-125.5 -78.5t-164.5 -29t-164.5 29 t-125.5 78.5t-86.5 116t-51.5 140t-16 152.5q0 99 26.5 189t78.5 164.5t140 119t199 44.5zM616.998 1387q0 27.999 20.3994 47.5996q20.3994 19.5996 48.3994 19.5996q27.999 0 47.5986 -19.5996q19.6006 -19.6006 19.6006 -47.5996q0 -28 -19.6006 -47.999 q-19.5996 -20 -47.5986 -20q-28 0 -48.3994 20q-20.3994 19.999 -20.3994 47.999zM314.998 1387q0 27.999 20.3994 47.5996q20.3994 19.5996 48.3994 19.5996q27.999 0 47.5986 -19.5996q19.6006 -19.6006 19.6006 -47.5996q0 -28 -19.6006 -47.999 q-19.5996 -20 -47.5986 -20q-28 0 -48.3994 20q-20.3994 19.999 -20.3994 47.999z" />
<glyph unicode="&#xf7;" horiz-adv-x="953" d="M853 527v-84h-753v84h753zM391 785q0 35 25.5 59.5t60.5 24.5t59.5 -24.5t24.5 -59.5t-24.5 -60t-59.5 -25t-60.5 25t-25.5 60zM391 204q0 35 25.5 59.5t60.5 24.5t59.5 -24.5t24.5 -59.5t-24.5 -60t-59.5 -25t-60.5 25t-25.5 60z" />
<glyph unicode="&#xf8;" horiz-adv-x="1068" d="M534 929q-110 0 -189 -59t-117 -155.5t-38 -218.5q0 -188 90 -309t254 -121t254 121t90 309q0 122 -38 218.5t-117 155.5t-189 59zM534 1013q111 0 199 -44.5t140 -119t78.5 -164.5t26.5 -189q0 -79 -16 -152.5t-51.5 -140t-86.5 -116t-125.5 -78.5t-164.5 -29t-164.5 29 t-125.5 78.5t-86.5 116t-51.5 140t-16 152.5q0 99 26.5 189t78.5 164.5t140 119t199 44.5zM170 -48l-60 46l788 1013l60 -46z" />
<glyph unicode="&#xf9;" horiz-adv-x="1088" d="M828 993h100v-993h-100v993zM888 399q0 -191 -98.5 -304t-275.5 -113q-171 0 -262.5 107.5t-91.5 289.5v616h100v-616q0 -146 78.5 -229.5t205.5 -83.5q135 0 209.5 87t74.5 246h60zM668 1310l-50 -32l-198 316l50 32z" />
<glyph unicode="&#xfa;" horiz-adv-x="1088" d="M828 993h100v-993h-100v993zM888 399q0 -191 -98.5 -304t-275.5 -113q-171 0 -262.5 107.5t-91.5 289.5v616h100v-616q0 -146 78.5 -229.5t205.5 -83.5q135 0 209.5 87t74.5 246h60zM618 1626l50 -32l-197 -316l-50 32z" />
<glyph unicode="&#xfb;" horiz-adv-x="1088" d="M828 993h100v-993h-100v993zM888 399q0 -191 -98.5 -304t-275.5 -113q-171 0 -262.5 107.5t-91.5 289.5v616h100v-616q0 -146 78.5 -229.5t205.5 -83.5q135 0 209.5 87t74.5 246h60zM800 1289l-48 -38l-208 263l-208 -263l-48 38l221 279h70z" />
<glyph unicode="&#xfc;" horiz-adv-x="1088" d="M828 993h100v-993h-100v993zM888 399q0 -191 -98.5 -304t-275.5 -113q-171 0 -262.5 107.5t-91.5 289.5v616h100v-616q0 -146 78.5 -229.5t205.5 -83.5q135 0 209.5 87t74.5 246h60zM626.998 1387q0 27.999 20.3994 47.5996q20.3994 19.5996 48.3994 19.5996 q27.999 0 47.5986 -19.5996q19.6006 -19.6006 19.6006 -47.5996q0 -28 -19.6006 -47.999q-19.5996 -20 -47.5986 -20q-28 0 -48.3994 20q-20.3994 19.999 -20.3994 47.999zM324.998 1387q0 27.999 20.3994 47.5996q20.3994 19.5996 48.3994 19.5996 q27.999 0 47.5986 -19.5996q19.6006 -19.6006 19.6006 -47.5996q0 -28 -19.6006 -47.999q-19.5996 -20 -47.5986 -20q-28 0 -48.3994 20q-20.3994 19.999 -20.3994 47.999z" />
<glyph unicode="&#xfd;" horiz-adv-x="988" d="M854 993h104l-389 -966q-18 -46 -29.5 -73.5t-30.5 -69.5t-34.5 -68.5t-39 -61t-46 -55.5t-53.5 -44t-63.5 -35.5t-74 -21t-87.5 -8.5h-54v84h54q67 0 118 21t91 67t69 100t63 138h-14l-408 993h105l363 -880zM559 1626l50 -32l-197 -316l-50 32z" />
<glyph unicode="&#xfe;" horiz-adv-x="1238" d="M669 1013q84 0 154 -29t118 -79t82 -116.5t49.5 -140t15.5 -152.5t-15.5 -152.5t-49 -140t-82 -116t-118.5 -78.5t-154 -29q-135 0 -236 70t-152 186t-51 260t51 260.5t152 186.5t236 70zM644 933q-163 0 -253.5 -124t-90.5 -313q0 -190 90.5 -313t253.5 -123t253.5 123 t90.5 313q0 189 -90.5 313t-253.5 124zM200 1389h100v-1799h-100v1799z" />
<glyph unicode="&#xff;" horiz-adv-x="988" d="M854 993h104l-389 -966q-18 -46 -29.5 -73.5t-30.5 -69.5t-34.5 -68.5t-39 -61t-46 -55.5t-53.5 -44t-63.5 -35.5t-74 -21t-87.5 -8.5h-54v84h54q67 0 118 21t91 67t69 100t63 138h-14l-408 993h105l363 -880zM567.998 1393q0 27.999 20.3994 47.5996 q20.3994 19.5996 48.3994 19.5996q27.999 0 47.5986 -19.5996q19.6006 -19.6006 19.6006 -47.5996q0 -28 -19.6006 -47.999q-19.5996 -20 -47.5986 -20q-28 0 -48.3994 20q-20.3994 19.999 -20.3994 47.999zM265.998 1393q0 27.999 20.3994 47.5996 q20.3994 19.5996 48.3994 19.5996q27.999 0 47.5986 -19.5996q19.6006 -19.6006 19.6006 -47.5996q0 -28 -19.6006 -47.999q-19.5996 -20 -47.5986 -20q-28 0 -48.3994 20q-20.3994 19.999 -20.3994 47.999z" />
<glyph unicode="&#x131;" horiz-adv-x="400" d="M150 993h100v-993h-100v993z" />
<glyph unicode="&#x152;" horiz-adv-x="1685" d="M704 86v1218q-123 -4 -219.5 -53.5t-158.5 -134t-94 -195t-32 -240.5q0 -265 129.5 -425.5t374.5 -169.5zM1535 1389v-84h-731v-582h731v-84h-731v-553h731v-86h-804q-126 0 -230.5 35t-178 97.5t-124 148.5t-74.5 186.5t-24 213.5t24 216.5t75 193.5t124 156t178 104 t230 38h804z" />
<glyph unicode="&#x153;" horiz-adv-x="1883" d="M969 453q14 -202 116.5 -294.5t272.5 -92.5q175 0 328 81l36 -73q-172 -94 -367 -94q-221 0 -354 133t-133 383q0 99 26.5 189t78.5 164.5t140 119t199 44.5q90 0 164.5 -29t125.5 -78.5t86.5 -116.5t51.5 -140.5t16 -152.5l-1 -43h-786zM969 539h686 q-12 173 -100.5 281.5t-242.5 108.5t-243 -109t-100 -281zM534 929q-110 0 -189 -59t-117 -155.5t-38 -218.5q0 -188 90 -309t254 -121t254 121t90 309q0 122 -38 218.5t-117 155.5t-189 59zM534 1013q111 0 199 -44.5t140 -119t78.5 -164.5t26.5 -189q0 -79 -16 -152.5 t-51.5 -140t-86.5 -116t-125.5 -78.5t-164.5 -29t-164.5 29t-125.5 78.5t-86.5 116t-51.5 140t-16 152.5q0 99 26.5 189t78.5 164.5t140 119t199 44.5z" />
<glyph unicode="&#x237;" horiz-adv-x="400" d="M150 -192v1185h100v-1185q0 -88 -65.5 -153t-161.5 -65h-78v86h78q49 0 88 38t39 94z" />
<glyph unicode="&#x60c;" horiz-adv-x="550" d="M273 433l56 -39q-27 -45 -50 -113.5t-23 -108.5q45 0 78 -21t33 -63q0 -35 -21.5 -61.5t-66.5 -26.5q-46 0 -71 30t-25 81q0 183 90 322z" />
<glyph unicode="&#x615;" d="M266 1712q0 -39 -14.5 -68t-45.5 -47.5t-64.5 -30t-86.5 -17t-95 -7t-107 -2.5h-119v60h120v433h60v-319q99 132 214 132q59 0 98.5 -37t39.5 -97zM-85 1601q159 4 225 28.5t66 82.5q0 36 -21 55t-57 19q-49 0 -107 -46t-106 -139z" />
<glyph unicode="&#x61b;" horiz-adv-x="550" d="M273 778l56 -39q-27 -45 -50 -113.5t-23 -108.5q45 0 78 -21t33 -63q0 -35 -21.5 -61.5t-66.5 -26.5q-46 0 -71 30t-25 81q0 183 90 322zM190 85q0 35 25.5 59.5t60.5 24.5t59.5 -24.5t24.5 -59.5t-24.5 -60t-59.5 -25t-60.5 25t-25.5 60z" />
<glyph unicode="&#x61f;" horiz-adv-x="1067" d="M604 405h-100q0 63 -14 111.5t-43 84t-54 56.5t-68 49q-51 34 -85.5 66t-62 88t-27.5 123q0 170 105 287.5t284 117.5q122 0 209.5 -51t128 -132t40.5 -181q0 -46 -5 -82l-100 12q5 29 5 70q0 129 -71 204.5t-207 75.5q-130 0 -209.5 -88.5t-79.5 -232.5q0 -75 33 -119 t104 -90q45 -30 77 -57.5t67.5 -72t54 -105t18.5 -134.5zM638 85q0 35 -25.5 59.5t-60.5 24.5t-59.5 -24.5t-24.5 -59.5t24.5 -60t59.5 -25t60.5 25t25.5 60z" />
<glyph unicode="&#x621;" horiz-adv-x="878" d="M669 582l-58 -48q-71 85 -180 85q-83 0 -146 -64t-63 -170q0 -154 286 -154l225 93l28 -70l-615 -254l-28 70l243 100q-215 42 -215 215q0 136 85 222t200 86q145 0 238 -111z" />
<glyph unicode="&#x627;" horiz-adv-x="500" d="M300 25h-100v1161h100v-1161z" />
<glyph unicode="&#x628;" horiz-adv-x="1782" d="M785 -410l107 107l107 -107l-107 -107zM1604 670q46 -150 46 -272q0 -79 -23.5 -141t-70.5 -105.5t-110.5 -73t-151.5 -47t-184.5 -24.5t-218.5 -7t-218.5 7t-184.5 24.5t-151.5 47t-110.5 73t-70.5 105.5t-23.5 141q0 122 46 272l96 -30q-42 -134 -42 -242 q0 -165 148.5 -231.5t510.5 -66.5t510.5 66.5t148.5 231.5q0 108 -42 242z" />
<glyph unicode="&#x629;" horiz-adv-x="869" d="M494 1127l107 107l107 -107l-107 -107zM163 1127l107 107l107 -107l-107 -107zM435 100q95 0 144 48t49 133q0 87 -52.5 183.5t-140.5 181.5q-87 -84 -140.5 -181.5t-53.5 -183.5q0 -85 49.5 -133t144.5 -48zM435 0q-132 0 -213 78.5t-81 202.5q0 135 83.5 263t210.5 236 q128 -109 210.5 -236.5t82.5 -262.5q0 -125 -80.5 -203t-212.5 -78z" />
<glyph unicode="&#x62a;" horiz-adv-x="1782" d="M950 751l107 107l107 -107l-107 -107zM619 751l107 107l107 -107l-107 -107zM1604 670q46 -150 46 -272q0 -79 -23.5 -141t-70.5 -105.5t-110.5 -73t-151.5 -47t-184.5 -24.5t-218.5 -7t-218.5 7t-184.5 24.5t-151.5 47t-110.5 73t-70.5 105.5t-23.5 141q0 122 46 272 l96 -30q-42 -134 -42 -242q0 -165 148.5 -231.5t510.5 -66.5t510.5 66.5t148.5 231.5q0 108 -42 242z" />
<glyph unicode="&#x62b;" horiz-adv-x="1782" d="M784 1035l107 107l107 -107l-107 -107zM950 751l107 107l107 -107l-107 -107zM619 751l107 107l107 -107l-107 -107zM1604 670q46 -150 46 -272q0 -79 -23.5 -141t-70.5 -105.5t-110.5 -73t-151.5 -47t-184.5 -24.5t-218.5 -7t-218.5 7t-184.5 24.5t-151.5 47t-110.5 73 t-70.5 105.5t-23.5 141q0 122 46 272l96 -30q-42 -134 -42 -242q0 -165 148.5 -231.5t510.5 -66.5t510.5 66.5t148.5 231.5q0 108 -42 242z" />
<glyph unicode="&#x62c;" horiz-adv-x="1360" d="M662 -170l107 107l107 -107l-107 -107zM1220 -524l36 -94q-249 -94 -491 -94q-101 0 -190.5 14t-173 48t-143.5 86t-96 132t-36 181q0 91 28.5 171.5t75.5 143.5t121.5 120t152 99.5t182.5 83.5t198 70.5t212 62.5l-483 185q-55 18 -106 18q-100 0 -156 -70.5t-73 -215.5 l-100 12q9 81 33 147.5t63.5 118t99 80t133.5 28.5q73 0 138 -24l589 -223v-122q-101 -27 -181 -51t-169 -53.5t-158 -57.5t-139.5 -63.5t-123 -71.5t-99 -79.5t-75.5 -90.5t-46 -102t-17 -116q0 -94 40 -164.5t113 -113t169.5 -63t216.5 -20.5q126 0 231 22t224 66z" />
<glyph unicode="&#x62d;" horiz-adv-x="1360" d="M1220 -524l36 -94q-249 -94 -491 -94q-101 0 -190.5 14t-173 48t-143.5 86t-96 132t-36 181q0 91 28.5 171.5t75.5 143.5t121.5 120t152 99.5t182.5 83.5t198 70.5t212 62.5l-483 185q-55 18 -106 18q-100 0 -156 -70.5t-73 -215.5l-100 12q9 81 33 147.5t63.5 118t99 80 t133.5 28.5q73 0 138 -24l589 -223v-122q-101 -27 -181 -51t-169 -53.5t-158 -57.5t-139.5 -63.5t-123 -71.5t-99 -79.5t-75.5 -90.5t-46 -102t-17 -116q0 -94 40 -164.5t113 -113t169.5 -63t216.5 -20.5q126 0 231 22t224 66z" />
<glyph unicode="&#x62e;" horiz-adv-x="1360" d="M405 1142l107 107l107 -107l-107 -107zM1220 -524l36 -94q-249 -94 -491 -94q-101 0 -190.5 14t-173 48t-143.5 86t-96 132t-36 181q0 91 28.5 171.5t75.5 143.5t121.5 120t152 99.5t182.5 83.5t198 70.5t212 62.5l-483 185q-55 18 -106 18q-100 0 -156 -70.5t-73 -215.5 l-100 12q9 81 33 147.5t63.5 118t99 80t133.5 28.5q73 0 138 -24l589 -223v-122q-101 -27 -181 -51t-169 -53.5t-158 -57.5t-139.5 -63.5t-123 -71.5t-99 -79.5t-75.5 -90.5t-46 -102t-17 -116q0 -94 40 -164.5t113 -113t169.5 -63t216.5 -20.5q126 0 231 22t224 66z" />
<glyph unicode="&#x62f;" horiz-adv-x="936" d="M808 302q0 -66 -27 -118.5t-70.5 -86.5t-104 -56t-123 -31.5t-131.5 -9.5q-123 0 -246 32l25 96q108 -28 221 -28q165 0 260.5 52.5t95.5 149.5q0 115 -74 233.5t-234 253.5l64 76q172 -145 258 -282t86 -281z" />
<glyph unicode="&#x630;" horiz-adv-x="936" d="M378 1220l107 107l107 -107l-107 -107zM808 302q0 -66 -27 -118.5t-70.5 -86.5t-104 -56t-123 -31.5t-131.5 -9.5q-123 0 -246 32l25 96q108 -28 221 -28q165 0 260.5 52.5t95.5 149.5q0 115 -74 233.5t-234 253.5l64 76q172 -145 258 -282t86 -281z" />
<glyph unicode="&#x631;" horiz-adv-x="834" d="M510 527l92 38q104 -258 104 -459q0 -209 -142.5 -370t-396.5 -254l-34 94q230 84 351.5 218t121.5 312q0 179 -96 421z" />
<glyph unicode="&#x632;" horiz-adv-x="834" d="M414 925l107 107l107 -107l-107 -107zM510 527l92 38q104 -258 104 -459q0 -209 -142.5 -370t-396.5 -254l-34 94q230 84 351.5 218t121.5 312q0 179 -96 421z" />
<glyph unicode="&#x633;" horiz-adv-x="2378" d="M1963 0q-77 0 -146.5 37t-108.5 108q-80 -145 -235 -145q-109 0 -187 67q0 -141 -46 -251t-128.5 -179t-190.5 -104.5t-237 -35.5q-118 0 -217.5 31t-176 91.5t-119.5 158t-43 222.5q0 101 40.5 249.5t103.5 264.5l87 -41q-59 -111 -95 -247.5t-36 -225.5 q0 -196 120.5 -299.5t335.5 -103.5q235 0 370 120.5t135 343.5q0 150 -132 479l94 36q31 -88 51.5 -145t42.5 -111t37 -85t33.5 -58.5t33 -40t35.5 -22.5t40.5 -12t48.5 -2q166 0 192 231l25 219l99 -9l-17 -169q-2 -20 -2 -60q0 -111 55.5 -161.5t137.5 -50.5 q99 0 143 67.5t44 194.5q0 140 -53 304l96 30q57 -180 57 -334q0 -71 -15 -132.5t-46.5 -114.5t-89.5 -84t-136 -31z" />
<glyph unicode="&#x634;" horiz-adv-x="2378" d="M1560 1199l107 107l107 -107l-107 -107zM1726 915l107 107l107 -107l-107 -107zM1395 915l107 107l107 -107l-107 -107zM1963 0q-77 0 -146.5 37t-108.5 108q-80 -145 -235 -145q-109 0 -187 67q0 -141 -46 -251t-128.5 -179t-190.5 -104.5t-237 -35.5q-118 0 -217.5 31 t-176 91.5t-119.5 158t-43 222.5q0 101 40.5 249.5t103.5 264.5l87 -41q-59 -111 -95 -247.5t-36 -225.5q0 -196 120.5 -299.5t335.5 -103.5q235 0 370 120.5t135 343.5q0 150 -132 479l94 36q31 -88 51.5 -145t42.5 -111t37 -85t33.5 -58.5t33 -40t35.5 -22.5t40.5 -12 t48.5 -2q166 0 192 231l25 219l99 -9l-17 -169q-2 -20 -2 -60q0 -111 55.5 -161.5t137.5 -50.5q99 0 143 67.5t44 194.5q0 140 -53 304l96 30q57 -180 57 -334q0 -71 -15 -132.5t-46.5 -114.5t-89.5 -84t-136 -31z" />
<glyph unicode="&#x635;" horiz-adv-x="2322" d="M1671 0q-203 0 -382 78q0 -144 -45.5 -256t-127.5 -182.5t-191.5 -106.5t-240.5 -36q-118 0 -217.5 31t-176 91.5t-119.5 158t-43 222.5q0 101 40.5 249.5t103.5 264.5l87 -41q-59 -111 -95 -247.5t-36 -225.5q0 -196 120.5 -299.5t335.5 -103.5q235 0 370 120.5 t135 343.5q0 150 -132 479l94 36q83 -182 136 -386q78 157 179.5 262.5t200 151t197.5 45.5q139 0 234 -84.5t95 -222.5q0 -89 -46 -157t-123 -107t-166.5 -58.5t-186.5 -19.5zM1378 149q136 -49 293 -49q185 0 303.5 66t118.5 176q0 94 -63 150.5t-166 56.5 q-56 0 -115 -20.5t-123 -65t-128.5 -125t-119.5 -189.5z" />
<glyph unicode="&#x636;" horiz-adv-x="2408" d="M1757 1009l107 107l107 -107l-107 -107zM1671 0q-203 0 -382 78q0 -144 -45.5 -256t-127.5 -182.5t-191.5 -106.5t-240.5 -36q-118 0 -217.5 31t-176 91.5t-119.5 158t-43 222.5q0 101 40.5 249.5t103.5 264.5l87 -41q-59 -111 -95 -247.5t-36 -225.5 q0 -196 120.5 -299.5t335.5 -103.5q235 0 370 120.5t135 343.5q0 150 -132 479l94 36q83 -182 136 -386q78 157 179.5 262.5t200 151t197.5 45.5q139 0 234 -84.5t95 -222.5q0 -89 -46 -157t-123 -107t-166.5 -58.5t-186.5 -19.5zM1378 149q136 -49 293 -49q185 0 303.5 66 t118.5 176q0 94 -63 150.5t-166 56.5q-56 0 -115 -20.5t-123 -65t-128.5 -125t-119.5 -189.5z" />
<glyph unicode="&#x637;" horiz-adv-x="1515" d="M528 127v-27q137 1 246 11t185 25t132 37.5t89 47t52.5 57.5t26 63t6.5 68q0 84 -57.5 132.5t-147.5 48.5q-45 0 -97.5 -15t-114 -50.5t-118.5 -87t-111 -132t-91 -178.5zM428 100v1086h100v-836q108 167 256 253.5t276 86.5q79 0 147.5 -32t113 -97.5t44.5 -151.5 q0 -80 -25.5 -141.5t-87.5 -113t-162.5 -84.5t-253.5 -51.5t-358 -18.5h-373v100h323z" />
<glyph unicode="&#x638;" horiz-adv-x="1515" d="M981 1049l107 107l107 -107l-107 -107zM528 127v-27q137 1 246 11t185 25t132 37.5t89 47t52.5 57.5t26 63t6.5 68q0 84 -57.5 132.5t-147.5 48.5q-45 0 -97.5 -15t-114 -50.5t-118.5 -87t-111 -132t-91 -178.5zM428 100v1086h100v-836q108 167 256 253.5t276 86.5 q79 0 147.5 -32t113 -97.5t44.5 -151.5q0 -80 -25.5 -141.5t-87.5 -113t-162.5 -84.5t-253.5 -51.5t-358 -18.5h-373v100h323z" />
<glyph unicode="&#x639;" horiz-adv-x="1299" d="M926 917l-76 -64q-99 118 -254 118q-117 0 -204.5 -89.5t-87.5 -237.5q0 -106 108 -161.5t284 -55.5q96 0 258 26l21 -105q-125 -16 -230 -42.5t-202 -71t-164.5 -104t-107.5 -144.5t-40 -188q0 -120 72.5 -210t194.5 -136t274 -46q197 0 357 69l40 -92 q-179 -77 -397 -77q-98 0 -191 19.5t-174.5 60t-143 97.5t-97 138t-35.5 177q0 191 108 327t290 216q-65 12 -120.5 34.5t-103 58t-74.5 89.5t-27 121q0 94 33 175.5t87.5 135.5t125 85t146.5 31q106 0 190 -44t140 -110z" />
<glyph unicode="&#x63a;" horiz-adv-x="1299" d="M489 1459l107 107l107 -107l-107 -107zM926 917l-76 -64q-99 118 -254 118q-117 0 -204.5 -89.5t-87.5 -237.5q0 -106 108 -161.5t284 -55.5q96 0 258 26l21 -105q-125 -16 -230 -42.5t-202 -71t-164.5 -104t-107.5 -144.5t-40 -188q0 -120 72.5 -210t194.5 -136t274 -46 q197 0 357 69l40 -92q-179 -77 -397 -77q-98 0 -191 19.5t-174.5 60t-143 97.5t-97 138t-35.5 177q0 191 108 327t290 216q-65 12 -120.5 34.5t-103 58t-74.5 89.5t-27 121q0 94 33 175.5t87.5 135.5t125 85t146.5 31q106 0 190 -44t140 -110z" />
<glyph unicode="&#x640;" horiz-adv-x="811" d="M0 100h811v-100h-811q-21 0 -35.5 14.5t-14.5 35.5t14.5 35.5t35.5 14.5z" />
<glyph unicode="&#x641;" horiz-adv-x="1752" d="M1206 1371l107 107l107 -107l-107 -107zM1522 482q-4 82 -19.5 157t-42 140.5t-70 104.5t-96.5 39q-76 0 -142 -90t-66 -207q0 -97 55 -138t171 -41q105 0 210 35zM1624 421q0 -99 -38.5 -174t-103 -121.5t-160.5 -75t-199.5 -39.5t-231.5 -11q-167 0 -285.5 11 t-212.5 38t-149 72.5t-83.5 113.5t-28.5 163q0 122 46 272l96 -30q-42 -134 -42 -242q0 -60 10.5 -101.5t39 -76.5t75 -56.5t121.5 -36.5t174.5 -21t238.5 -6q301 0 456.5 64.5t173.5 212.5q-103 -30 -209 -30q-67 0 -124 15.5t-103.5 47.5t-72.5 87t-26 129q0 96 38 186.5 t110.5 150.5t159.5 60q60 0 109.5 -24.5t83 -63.5t59 -93.5t40 -108.5t23.5 -115t12 -107t3 -90z" />
<glyph unicode="&#x642;" horiz-adv-x="1415" d="M1019 1011l107 107l107 -107l-107 -107zM688 1011l107 107l107 -107l-107 -107zM1185 135q-4 82 -19.5 157t-42 140.5t-70 104.5t-96.5 39q-76 0 -142 -90t-66 -207q0 -97 55 -138t171 -41q105 0 210 35zM1188 32q-109 -32 -213 -32q-67 0 -124 15.5t-103.5 47.5 t-72.5 87t-26 129q0 96 38 186.5t110.5 150.5t159.5 60q59 0 108.5 -24t83 -62.5t59 -92t40.5 -108t24 -115.5t12 -108t3 -92q0 -141 -46.5 -252t-128.5 -181.5t-191 -107t-237 -36.5q-118 0 -217.5 31t-176 91.5t-119.5 158t-43 222.5q0 152 78 365l92 -32 q-70 -193 -70 -333q0 -196 120.5 -299.5t335.5 -103.5q227 0 361 113t143 322z" />
<glyph unicode="&#x643;" horiz-adv-x="1585" d="M967 983q-67 29 -109 29q-64 0 -105.5 -36t-41.5 -79q0 -50 28 -72.5t90 -41.5q24 -7 39 -13t37 -18t35.5 -26t23 -36t9.5 -49q0 -77 -75 -123t-168 -46q-94 0 -167 34l26 54q58 -28 141 -28q76 0 129.5 33.5t53.5 75.5q0 33 -22.5 49.5t-79.5 34.5q-32 10 -54.5 20 t-49.5 29.5t-41.5 50.5t-14.5 72q0 72 60.5 123.5t146.5 51.5q55 0 133 -33zM1315 1211h100v-719q0 -249 -93 -356q-65 -75 -186 -105.5t-324 -30.5q-77 0 -139 2.5t-135.5 12t-129.5 25t-111 43t-90 65t-57 93t-22 124.5q0 106 32 242l98 -24q-30 -124 -30 -218 q0 -55 19 -97t57 -71t88 -48t120.5 -30t144.5 -15t169 -4q183 0 280 19.5t144 73.5q37 42 51 112.5t14 186.5v719z" />
<glyph unicode="&#x644;" horiz-adv-x="1268" d="M1007 1186h100v-1165q0 -259 -131 -391.5t-374 -132.5q-218 0 -346 113.5t-128 315.5q0 174 88 390l91 -42q-80 -207 -80 -354q0 -156 101.5 -239.5t289.5 -83.5q195 0 292 102.5t97 321.5v1165z" />
<glyph unicode="&#x645;" horiz-adv-x="1199" d="M396 185q6 60 19 118.5t41 122t67 111t100.5 78.5t136.5 31q95 0 167 -54.5t107 -137.5t35 -177q0 -73 -23 -128t-62.5 -86.5t-87.5 -47t-103 -15.5q-129 0 -271 57q-72 28 -121 28q-77 0 -125 -56t-48 -153v-661h-100v661q0 129 74 218t194 91zM495 171 q17 -5 85.5 -27.5t117 -33t95.5 -10.5q86 0 131 39t45 138q0 114 -59 191.5t-150 77.5q-61 0 -110.5 -32.5t-81 -87.5t-49.5 -119t-24 -136z" />
<glyph unicode="&#x646;" horiz-adv-x="1512" d="M645 284l107 107l107 -107l-107 -107zM1282 43q0 109 -42.5 231t-111.5 264l90 40q35 -72 57 -121t50.5 -125.5t43 -150t14.5 -142.5q0 -106 -37 -196t-99.5 -153t-147 -107t-178.5 -65t-194 -21q-122 0 -229.5 33.5t-190 96t-130.5 160t-48 218.5q0 126 41 264.5 t99 254.5l84 -51q-52 -105 -88 -230t-36 -239q0 -100 38 -179t105.5 -128t156.5 -74.5t194 -25.5q114 0 214.5 29.5t178 84t122 140.5t44.5 192z" />
<glyph unicode="&#x647;" horiz-adv-x="869" d="M435 100q95 0 144 48t49 133q0 87 -52.5 183.5t-140.5 181.5q-87 -84 -140.5 -181.5t-53.5 -183.5q0 -85 49.5 -133t144.5 -48zM435 0q-132 0 -213 78.5t-81 202.5q0 135 83.5 263t210.5 236q128 -109 210.5 -236.5t82.5 -262.5q0 -125 -80.5 -203t-212.5 -78z" />
<glyph unicode="&#x648;" horiz-adv-x="928" d="M698 29q-103 -30 -210 -30q-67 0 -124 15.5t-103.5 47.5t-72.5 87t-26 129q0 96 38 186.5t110.5 150.5t159.5 60q60 0 109.5 -24.5t83 -63.5t59 -93.5t40 -108.5t23.5 -115t12 -107t3 -90q0 -218 -159.5 -362t-474.5 -225l-25 96q275 71 408.5 180.5t148.5 266.5z M698 134q-4 82 -19.5 157t-42 140.5t-70 104.5t-96.5 39q-76 0 -142 -90t-66 -207q0 -97 55 -138t171 -41q105 0 210 35z" />
<glyph unicode="&#x649;" horiz-adv-x="1449" d="M1288 649l-20 -97q-83 23 -158 23q-190 0 -284.5 -84t-94.5 -221q0 -39 8.5 -67.5t28.5 -47.5t42.5 -30.5t62 -18.5t74 -10t90.5 -6q47 -2 83 -7.5t76 -21t66 -41t43 -69.5t17 -104q0 -94 -46 -163t-129 -109t-186 -59t-228 -19q-94 0 -174 15t-151.5 50t-121.5 88.5 t-79 135t-29 184.5q0 97 18.5 207t40.5 179l96 -30q-19 -63 -37 -166t-18 -190q0 -198 119.5 -285.5t349.5 -87.5q223 0 349 63t126 187q0 37 -7.5 62t-20 40t-40 23.5t-54.5 12t-75 5.5q-46 2 -81 5.5t-78 11.5t-74.5 20t-63.5 32.5t-52 48t-32.5 67.5t-12.5 89 q0 189 122.5 300t357.5 111q92 0 177 -26z" />
<glyph unicode="&#x64a;" horiz-adv-x="1449" d="M834 -833l107 107l107 -107l-107 -107zM503 -833l107 107l107 -107l-107 -107zM1288 649l-20 -97q-83 23 -158 23q-190 0 -284.5 -84t-94.5 -221q0 -39 8.5 -67.5t28.5 -47.5t42.5 -30.5t62 -18.5t74 -10t90.5 -6q47 -2 83 -7.5t76 -21t66 -41t43 -69.5t17 -104 q0 -94 -46 -163t-129 -109t-186 -59t-228 -19q-94 0 -174 15t-151.5 50t-121.5 88.5t-79 135t-29 184.5q0 97 18.5 207t40.5 179l96 -30q-19 -63 -37 -166t-18 -190q0 -198 119.5 -285.5t349.5 -87.5q223 0 349 63t126 187q0 37 -7.5 62t-20 40t-40 23.5t-54.5 12t-75 5.5 q-46 2 -81 5.5t-78 11.5t-74.5 20t-63.5 32.5t-52 48t-32.5 67.5t-12.5 89q0 189 122.5 300t357.5 111q92 0 177 -26z" />
<glyph unicode="&#x64b;" d="M187 1958l24 -54l-396 -180l-24 54zM187 1744l24 -54l-396 -180l-24 54z" />
<glyph unicode="&#x64c;" d="M-234 1867q0 -84 47 -153l-50 -34q-57 86 -57 187q0 139 98 237.5t238 98.5v-60q-115 0 -195.5 -81t-80.5 -195zM47 1701q-147 56 -147 160q0 63 48 108t106 45q62 0 96.5 -46t34.5 -98q0 -67 -34 -129t-88.5 -106.5t-114.5 -75.5t-120 -47l-16 58q64 17 127.5 51.5 t107.5 79.5zM87 1751q38 59 38 119q0 32 -20 58t-51 26q-33 0 -63.5 -28.5t-30.5 -64.5q0 -33 34 -62t93 -48z" />
<glyph unicode="&#x64d;" d="M187 -352l24 -54l-396 -180l-24 54zM187 -138l24 -54l-396 -180l-24 54z" />
<glyph unicode="&#x64e;" d="M186 1745l24 -54l-396 -180l-24 54z" />
<glyph unicode="&#x64f;" d="M47 1701q-147 56 -147 160q0 63 48 108t106 45q62 0 96.5 -46t34.5 -98q0 -67 -34 -129t-88.5 -106.5t-114.5 -75.5t-120 -47l-16 58q64 17 127.5 51.5t107.5 79.5zM87 1751q38 59 38 119q0 32 -20 58t-51 26q-33 0 -63.5 -28.5t-30.5 -64.5q0 -33 34 -62t93 -48z" />
<glyph unicode="&#x650;" d="M187 -138l24 -54l-396 -180l-24 54z" />
<glyph unicode="&#x651;" d="M186 1693q0 70 -29 151l56 20q33 -89 33 -171q0 -68 -35 -110t-87 -42q-36 0 -69 21.5t-55 59.5q-46 -81 -124 -81q-52 0 -87 42t-35 110q0 82 33 171l56 -20q-29 -81 -29 -151q0 -92 70 -92q31 0 58.5 29t27.5 74v70h60v-70q0 -45 27 -74t59 -29q70 0 70 92z" />
<glyph unicode="&#x652;" d="M0 1848q-52 0 -88 -35.5t-36 -87.5t36 -88t88 -36q51 0 87.5 36.5t36.5 87.5t-36 87t-88 36zM0 1908q76 0 130 -53.5t54 -129.5q0 -77 -54 -130.5t-130 -53.5q-77 0 -130.5 54t-53.5 130t53.5 129.5t130.5 53.5z" />
<glyph unicode="&#x653;" d="M-246 1537q23 48 64.5 82.5t94.5 34.5q52 0 103 -39q36 -28 70 -28q31 0 59 24.5t45 63.5l56 -24q-22 -52 -63.5 -88t-96.5 -36q-54 0 -106 40q-35 27 -67 27q-31 0 -59.5 -23.5t-45.5 -59.5z" />
<glyph unicode="&#x654;" d="M-186 1511l-24 54l108 50q-69 77 -69 166q0 74 52 125t141 51h82v-60h-82q-67 0 -100 -33t-33 -83q0 -79 67 -140l230 104l24 -54z" />
<glyph unicode="&#x655;" d="M-163 -645l-24 54l108 50q-69 77 -69 166q0 74 52 125t141 51h82v-60h-82q-67 0 -100 -33t-33 -83q0 -79 67 -140l230 104l24 -54z" />
<glyph unicode="&#x656;" d="M-30 -189h60v-329h-60v329z" />
<glyph unicode="&#x657;" d="M-47 1824q147 -55.9912 147 -159.991q0 -63 -48 -108.003t-106 -45.0059q-62 -0.00390625 -96.5 45.9941q-34.5 45.9971 -34.5 97.9971q0 67 34 129.003q34 62.002 88.5 106.505q54.5 44.5039 114.5 75.5068q60 31.0039 120 47.0078l16 -57.999 q-64 -17.0039 -127.5 -51.5078t-107.5 -79.5068zM-87 1774q-38 -59.0029 -38 -119.003q0 -32 20 -57.999q20 -25.998 51 -25.9961q33 0.00195312 63.5 28.5039q30.5 28.501 30.5 64.501q0 33 -34 61.998t-93 47.9951z" />
<glyph unicode="&#x65a;" d="M-230 1818l48 36l182 -243l182 243l48 -36l-230 -307z" />
<glyph unicode="&#x660;" horiz-adv-x="845" d="M422 598q-73 0 -122.5 -49.5t-49.5 -122.5t50 -123.5t122 -50.5t122.5 50.5t50.5 123.5q0 72 -50 122t-123 50zM422 698q114 0 193.5 -79t79.5 -193t-79.5 -194t-193.5 -80t-193 80t-79 194q0 113 79.5 192.5t192.5 79.5z" />
<glyph unicode="&#x661;" horiz-adv-x="618" d="M468 0h-100q0 328 -49.5 581.5t-165.5 588.5l94 32q118 -343 169.5 -605.5t51.5 -596.5z" />
<glyph unicode="&#x662;" horiz-adv-x="1046" d="M567 750q51 0 88.5 14t62.5 44t41 66.5t23.5 91.5t10.5 108t3 128h100q0 -50 -0.5 -83t-4 -83t-9.5 -84.5t-18 -78t-28 -73t-41.5 -60t-57 -49t-75 -30t-95.5 -11.5q-53 0 -92 12.5t-82 44.5q75 -361 75 -707h-100q0 168 -15.5 319.5t-51 309t-64.5 260.5t-85 284l96 29 l22.5 -73.5t22 -67.5t23.5 -65.5t24 -58t28 -54.5t30 -44t34.5 -38.5t38.5 -26.5t45 -18.5t51 -5.5z" />
<glyph unicode="&#x663;" horiz-adv-x="1383" d="M823 1183q-13 -109 -13 -190q0 -31 0.5 -50t2.5 -44.5t6.5 -41.5t11.5 -34t18 -29t26.5 -21t37 -14t48.5 -4q170 0 170 285q0 73 -16 156l98 20q18 -86 18 -174q0 -60 -9 -114.5t-30 -105t-52 -87t-78.5 -58.5t-107.5 -22q-90 0 -136 40t-78 122q-38 -81 -83.5 -121.5 t-128.5 -40.5q-74 0 -132 37q72 -355 72 -692h-100q0 319 -55 587t-161 585l96 29q22 -71 36 -115.5t31.5 -94t30.5 -78.5t29.5 -59.5t31.5 -46t34 -29t40 -18.5t47 -5q34 0 61 11t45.5 27t32.5 49t22.5 62t15.5 83t10 94t8 111z" />
<glyph unicode="&#x664;" horiz-adv-x="997" d="M375 617q-72 28 -118 104.5t-46 167.5q0 84 35.5 146t99 98t142.5 52.5t176 16.5v-100q-180 0 -266.5 -52t-86.5 -161q0 -104 92.5 -158.5t267.5 -54.5v-100q-95 0 -176.5 -29.5t-133.5 -76.5t-81.5 -104.5t-29.5 -115.5q0 -34 9 -59.5t29 -42t42 -26.5t58 -14.5t67 -6 t78 -1.5h264v-100h-312q-335 0 -335 250q0 110 63 216t162 151z" />
<glyph unicode="&#x665;" horiz-adv-x="1196" d="M494 1202q84 -70 151.5 -132.5t146 -151t131 -172t88 -184.5t35.5 -198q0 -189 -119 -276.5t-326 -87.5q-77 0 -143.5 12t-123.5 39.5t-97.5 69t-63.5 102.5t-23 138q0 176 93.5 332.5t289.5 340.5q-60 57 -103 92zM604 964q-185 -172 -269.5 -312t-84.5 -291 q0 -139 88.5 -200t262.5 -61q179 0 262 59t83 205q0 76 -26 154t-77 155.5t-106.5 144t-132.5 146.5z" />
<glyph unicode="&#x666;" horiz-adv-x="1168" d="M189 1104l22 98q188 -41 407 -41q132 0 234 17l58 -51q-6 -139 -6 -266q0 -260 21.5 -410t91.5 -427l-97 -24q-70 280 -93 439t-23 422q0 110 4 210q-83 -10 -190 -10q-233 0 -429 43z" />
<glyph unicode="&#x667;" horiz-adv-x="1315" d="M1075 1202l80 -62q-122 -159 -200 -305t-139.5 -347t-110.5 -488h-94q-72 419 -170.5 662t-280.5 478l80 62q162 -211 256 -411.5t162 -510.5q68 309 161.5 510t255.5 412z" />
<glyph unicode="&#x668;" horiz-adv-x="1315" d="M240 0l-80 62q122 159 200 305t139.5 347t110.5 488h94q72 -419 170.5 -662t280.5 -478l-80 -62q-162 211 -256 411.5t-162 510.5q-68 -309 -161.5 -510t-255.5 -412z" />
<glyph unicode="&#x669;" horiz-adv-x="1035" d="M681 547q-90 -22 -180 -22q-57 0 -106.5 8.5t-95.5 29.5t-78.5 52t-51.5 78.5t-19 107.5q0 100 35 190t109 150.5t173 60.5q70 0 124.5 -24t89 -64t57 -96.5t31.5 -116t9 -127.5q0 -122 1 -175q3 -163 15.5 -263.5t29.5 -152t57 -143.5l-92 -40q-58 132 -80 233.5 t-28 313.5zM679 650l-1 124q0 163 -49.5 245.5t-161.5 82.5q-93 0 -155 -87t-62 -214q0 -94 61.5 -135t189.5 -41q87 0 178 25z" />
<glyph unicode="&#x66a;" horiz-adv-x="1464" d="M1222 213q0 66 -44.5 113.5t-109.5 47.5t-109.5 -47.5t-44.5 -113.5q0 -65 45 -111t109 -46t109 46t45 111zM1296 213q0 -96 -66 -163.5t-162 -67.5t-163 67.5t-67 163.5q0 94 66 165.5t164 71.5t163 -71t65 -166zM551 1112q0 66 -44.5 113.5t-109.5 47.5t-109.5 -47.5 t-44.5 -113.5q0 -65 45 -111t109 -46t109 46t45 111zM625 1112q0 -96 -66 -163.5t-162 -67.5t-163 67.5t-67 163.5q0 94 66 165.5t164 71.5t163 -71t65 -166zM1012 1407l90 -42l-650 -1411l-90 42z" />
<glyph unicode="&#x66b;" horiz-adv-x="787" d="M221 -310l-94 36l448 1144l94 -36z" />
<glyph unicode="&#x66c;" horiz-adv-x="587" d="M179 735l-58 69q54 67 109 158t70 148q-50 0 -97.5 38.5t-47.5 98.5q0 57 37.5 98t92.5 41q63 0 105 -42t42 -125q0 -88 -83 -240t-170 -244z" />
<glyph unicode="&#x66d;" horiz-adv-x="910" d="M492 576h-74v340l-294 -169l-38 64l294 171l-294 170l38 64l294 -169v339h74v-339l294 169l38 -64l-294 -170l294 -171l-38 -64l-294 169v-340z" />
<glyph unicode="&#x66e;" horiz-adv-x="1782" d="M1604 670q46 -150 46 -272q0 -79 -23.5 -141t-70.5 -105.5t-110.5 -73t-151.5 -47t-184.5 -24.5t-218.5 -7t-218.5 7t-184.5 24.5t-151.5 47t-110.5 73t-70.5 105.5t-23.5 141q0 122 46 272l96 -30q-42 -134 -42 -242q0 -165 148.5 -231.5t510.5 -66.5t510.5 66.5 t148.5 231.5q0 108 -42 242z" />
<glyph unicode="&#x66f;" horiz-adv-x="1415" d="M1185 135q-4 82 -19.5 157t-42 140.5t-70 104.5t-96.5 39q-76 0 -142 -90t-66 -207q0 -97 55 -138t171 -41q105 0 210 35zM1188 32q-109 -32 -213 -32q-67 0 -124 15.5t-103.5 47.5t-72.5 87t-26 129q0 96 38 186.5t110.5 150.5t159.5 60q59 0 108.5 -24t83 -62.5t59 -92 t40.5 -108t24 -115.5t12 -108t3 -92q0 -141 -46.5 -252t-128.5 -181.5t-191 -107t-237 -36.5q-118 0 -217.5 31t-176 91.5t-119.5 158t-43 222.5q0 152 78 365l92 -32q-70 -193 -70 -333q0 -196 120.5 -299.5t335.5 -103.5q227 0 361 113t143 322z" />
<glyph unicode="&#x670;" d="M-30 1869h60v-329h-60v329z" />
<glyph unicode="&#x67e;" horiz-adv-x="1782" d="M785 -613l107 107l107 -107l-107 -107zM950 -329l107 107l107 -107l-107 -107zM619 -329l107 107l107 -107l-107 -107zM1604 670q46 -150 46 -272q0 -79 -23.5 -141t-70.5 -105.5t-110.5 -73t-151.5 -47t-184.5 -24.5t-218.5 -7t-218.5 7t-184.5 24.5t-151.5 47 t-110.5 73t-70.5 105.5t-23.5 141q0 122 46 272l96 -30q-42 -134 -42 -242q0 -165 148.5 -231.5t510.5 -66.5t510.5 66.5t148.5 231.5q0 108 -42 242z" />
<glyph unicode="&#x686;" horiz-adv-x="1360" d="M852.947 -96.3555l101.645 101.645l101.645 -101.645l-101.645 -101.645zM538.947 -96.3555l101.645 101.645l101.645 -101.645l-101.645 -101.645zM695.947 -331.355l101.645 101.645l101.645 -101.645l-101.645 -101.645zM1220 -524l36 -94q-249 -94 -491 -94 q-101 0 -190.5 14t-173 48t-143.5 86t-96 132t-36 181q0 91 28.5 171.5t75.5 143.5t121.5 120t152 99.5t182.5 83.5t198 70.5t212 62.5l-483 185q-55 18 -106 18q-100 0 -156 -70.5t-73 -215.5l-100 12q9 81 33 147.5t63.5 118t99 80t133.5 28.5q73 0 138 -24l589 -223v-122 q-101 -27 -181 -51t-169 -53.5t-158 -57.5t-139.5 -63.5t-123 -71.5t-99 -79.5t-75.5 -90.5t-46 -102t-17 -116q0 -94 40 -164.5t113 -113t169.5 -63t216.5 -20.5q126 0 231 22t224 66z" />
<glyph unicode="&#x695;" horiz-adv-x="834" d="M154 -764l48 36l182 -243l182 243l48 -36l-230 -307zM510 527l92 38q104 -258 104 -459q0 -209 -142.5 -370t-396.5 -254l-34 94q230 84 351.5 218t121.5 312q0 179 -96 421z" />
<glyph unicode="&#x698;" horiz-adv-x="834" d="M444 1145l107 107l107 -107l-107 -107zM610 861l107 107l107 -107l-107 -107zM279 861l107 107l107 -107l-107 -107zM510 527l92 38q104 -258 104 -459q0 -209 -142.5 -370t-396.5 -254l-34 94q230 84 351.5 218t121.5 312q0 179 -96 421z" />
<glyph unicode="&#x6a1;" horiz-adv-x="1752" d="M1522 482q-4 82 -19.5 157t-42 140.5t-70 104.5t-96.5 39q-76 0 -142 -90t-66 -207q0 -97 55 -138t171 -41q105 0 210 35zM1624 421q0 -99 -38.5 -174t-103 -121.5t-160.5 -75t-199.5 -39.5t-231.5 -11q-167 0 -285.5 11t-212.5 38t-149 72.5t-83.5 113.5t-28.5 163 q0 122 46 272l96 -30q-42 -134 -42 -242q0 -60 10.5 -101.5t39 -76.5t75 -56.5t121.5 -36.5t174.5 -21t238.5 -6q301 0 456.5 64.5t173.5 212.5q-103 -30 -209 -30q-67 0 -124 15.5t-103.5 47.5t-72.5 87t-26 129q0 96 38 186.5t110.5 150.5t159.5 60q60 0 109.5 -24.5 t83 -63.5t59 -93.5t40 -108.5t23.5 -115t12 -107t3 -90z" />
<glyph unicode="&#x6a4;" horiz-adv-x="1752" d="M1190 1662l107 107l107 -107l-107 -107zM1356 1378l107 107l107 -107l-107 -107zM1025 1378l107 107l107 -107l-107 -107zM1522 482q-4 82 -19.5 157t-42 140.5t-70 104.5t-96.5 39q-76 0 -142 -90t-66 -207q0 -97 55 -138t171 -41q105 0 210 35zM1624 421 q0 -99 -38.5 -174t-103 -121.5t-160.5 -75t-199.5 -39.5t-231.5 -11q-167 0 -285.5 11t-212.5 38t-149 72.5t-83.5 113.5t-28.5 163q0 122 46 272l96 -30q-42 -134 -42 -242q0 -60 10.5 -101.5t39 -76.5t75 -56.5t121.5 -36.5t174.5 -21t238.5 -6q301 0 456.5 64.5 t173.5 212.5q-103 -30 -209 -30q-67 0 -124 15.5t-103.5 47.5t-72.5 87t-26 129q0 96 38 186.5t110.5 150.5t159.5 60q60 0 109.5 -24.5t83 -63.5t59 -93.5t40 -108.5t23.5 -115t12 -107t3 -90z" />
<glyph unicode="&#x6a9;" horiz-adv-x="1848" d="M178 670l96 -30q-42 -134 -42 -242q0 -70 18 -119t56.5 -84.5t105.5 -56t158 -29.5t221 -9q136 0 231 9.5t170 34t111.5 68.5t36.5 109q0 110 -124.5 250.5t-321.5 281.5v141q164 107 377 194t416 132l22 -98q-181 -41 -374 -116.5t-341 -166.5v-34q446 -317 446 -584 q0 -61 -20 -109.5t-53 -82t-84.5 -57.5t-104 -37.5t-122.5 -21.5t-129.5 -10.5t-135.5 -2.5q-132 0 -231 11t-182 38.5t-135.5 72.5t-81.5 114t-29 162q0 122 46 272z" />
<glyph unicode="&#x6af;" horiz-adv-x="1848" d="M1628 1546l16 -74q-405 -83 -742 -298l-40 64q344 221 766 308zM178 670l96 -30q-42 -134 -42 -242q0 -70 18 -119t56.5 -84.5t105.5 -56t158 -29.5t221 -9q136 0 231 9.5t170 34t111.5 68.5t36.5 109q0 110 -124.5 250.5t-321.5 281.5v141q164 107 377 194t416 132 l22 -98q-181 -41 -374 -116.5t-341 -166.5v-34q446 -317 446 -584q0 -61 -20 -109.5t-53 -82t-84.5 -57.5t-104 -37.5t-122.5 -21.5t-129.5 -10.5t-135.5 -2.5q-132 0 -231 11t-182 38.5t-135.5 72.5t-81.5 114t-29 162q0 122 46 272z" />
<glyph unicode="&#x6b5;" horiz-adv-x="1268" d="M829 1762l48 36l182 -243l182 243l48 -36l-230 -307zM1007 1186h100v-1165q0 -259 -131 -391.5t-374 -132.5q-218 0 -346 113.5t-128 315.5q0 174 88 390l91 -42q-80 -207 -80 -354q0 -156 101.5 -239.5t289.5 -83.5q195 0 292 102.5t97 321.5v1165z" />
<glyph unicode="&#x6ba;" horiz-adv-x="1512" d="M1282 43q0 109 -42.5 231t-111.5 264l90 40q35 -72 57 -121t50.5 -125.5t43 -150t14.5 -142.5q0 -106 -37 -196t-99.5 -153t-147 -107t-178.5 -65t-194 -21q-122 0 -229.5 33.5t-190 96t-130.5 160t-48 218.5q0 126 41 264.5t99 254.5l84 -51q-52 -105 -88 -230t-36 -239 q0 -100 38 -179t105.5 -128t156.5 -74.5t194 -25.5q114 0 214.5 29.5t178 84t122 140.5t44.5 192z" />
<glyph unicode="&#x6be;" horiz-adv-x="1293" d="M0 100q197 0 342 37q-195 120 -195 299q0 100 63 187t149 123l-174 64l42 103l429 -169q54 -22 87.5 -36t87 -38t87.5 -44.5t77 -49.5t70 -59t52 -66t36.5 -78t11.5 -88q0 -123 -81 -204t-230 -81q-74 0 -183 20t-198 54q-190 -74 -473 -74q-21 0 -35.5 14.5t-14.5 35.5 t14.5 35.5t35.5 14.5zM472 183q192 90 192 263q0 105 -39.5 170t-125.5 65q-41 0 -84.5 -17t-81 -47t-62 -77.5t-24.5 -103.5q0 -80 61 -144t164 -109zM597 139q143 -39 257 -39q211 0 211 185q0 182 -326 320q48 -151 7.5 -270.5t-149.5 -195.5z" />
<glyph unicode="&#x6c0;" horiz-adv-x="869" d="M581 1543q-67 29 -109 29q-64 0 -105.5 -36t-41.5 -79q0 -50 28 -72.5t90 -41.5q24 -7 39 -13t37 -18t35.5 -26t23 -36t9.5 -49q0 -77 -75 -123t-168 -46q-94 0 -167 34l26 54q58 -28 141 -28q76 0 129.5 33.5t53.5 75.5q0 33 -22.5 49.5t-79.5 34.5q-32 10 -54.5 20 t-49.5 29.5t-41.5 50.5t-14.5 72q0 72 60.5 123.5t146.5 51.5q55 0 133 -33zM435 100q95 0 144 48t49 133q0 87 -52.5 183.5t-140.5 181.5q-87 -84 -140.5 -181.5t-53.5 -183.5q0 -85 49.5 -133t144.5 -48zM435 0q-132 0 -213 78.5t-81 202.5q0 135 83.5 263t210.5 236 q128 -109 210.5 -236.5t82.5 -262.5q0 -125 -80.5 -203t-212.5 -78z" />
<glyph unicode="&#x6c2;" horiz-adv-x="869" d="M236 956l-24 54l108 50q-69 77 -69 166q0 74 52 125t141 51h82v-60h-82q-67 0 -100 -33t-33 -83q0 -79 67 -140l230 104l24 -54zM435 100q95 0 144 48t49 133q0 87 -52.5 183.5t-140.5 181.5q-87 -84 -140.5 -181.5t-53.5 -183.5q0 -85 49.5 -133t144.5 -48zM435 0 q-132 0 -213 78.5t-81 202.5q0 135 83.5 263t210.5 236q128 -109 210.5 -236.5t82.5 -262.5q0 -125 -80.5 -203t-212.5 -78z" />
<glyph unicode="&#x6c6;" horiz-adv-x="928" d="M240 1312l48 36l182 -243l182 243l48 -36l-230 -307zM698 29q-103 -30 -210 -30q-67 0 -124 15.5t-103.5 47.5t-72.5 87t-26 129q0 96 38 186.5t110.5 150.5t159.5 60q60 0 109.5 -24.5t83 -63.5t59 -93.5t40 -108.5t23.5 -115t12 -107t3 -90q0 -218 -159.5 -362 t-474.5 -225l-25 96q275 71 408.5 180.5t148.5 266.5zM698 134q-4 82 -19.5 157t-42 140.5t-70 104.5t-96.5 39q-76 0 -142 -90t-66 -207q0 -97 55 -138t171 -41q105 0 210 35z" />
<glyph unicode="&#x6ca;" horiz-adv-x="928" d="M548 1033l107 107l107 -107l-107 -107zM217 1033l107 107l107 -107l-107 -107zM698 29q-103 -30 -210 -30q-67 0 -124 15.5t-103.5 47.5t-72.5 87t-26 129q0 96 38 186.5t110.5 150.5t159.5 60q60 0 109.5 -24.5t83 -63.5t59 -93.5t40 -108.5t23.5 -115t12 -107t3 -90 q0 -218 -159.5 -362t-474.5 -225l-25 96q275 71 408.5 180.5t148.5 266.5zM698 134q-4 82 -19.5 157t-42 140.5t-70 104.5t-96.5 39q-76 0 -142 -90t-66 -207q0 -97 55 -138t171 -41q105 0 210 35z" />
<glyph unicode="&#x6cc;" horiz-adv-x="1449" d="M1288 649l-20 -97q-83 23 -158 23q-190 0 -284.5 -84t-94.5 -221q0 -39 8.5 -67.5t28.5 -47.5t42.5 -30.5t62 -18.5t74 -10t90.5 -6q47 -2 83 -7.5t76 -21t66 -41t43 -69.5t17 -104q0 -94 -46 -163t-129 -109t-186 -59t-228 -19q-94 0 -174 15t-151.5 50t-121.5 88.5 t-79 135t-29 184.5q0 97 18.5 207t40.5 179l96 -30q-19 -63 -37 -166t-18 -190q0 -198 119.5 -285.5t349.5 -87.5q223 0 349 63t126 187q0 37 -7.5 62t-20 40t-40 23.5t-54.5 12t-75 5.5q-46 2 -81 5.5t-78 11.5t-74.5 20t-63.5 32.5t-52 48t-32.5 67.5t-12.5 89 q0 189 122.5 300t357.5 111q92 0 177 -26z" />
<glyph unicode="&#x6ce;" horiz-adv-x="1504" d="M153 978l48 36l182 -243l182 243l48 -36l-230 -307zM1288 649l-20 -97q-83 23 -158 23q-190 0 -284.5 -84t-94.5 -221q0 -39 8.5 -67.5t28.5 -47.5t42.5 -30.5t62 -18.5t74 -10t90.5 -6q47 -2 83 -7.5t76 -21t66 -41t43 -69.5t17 -104q0 -94 -46 -163t-129 -109t-186 -59 t-228 -19q-94 0 -174 15t-151.5 50t-121.5 88.5t-79 135t-29 184.5q0 97 18.5 207t40.5 179l96 -30q-19 -63 -37 -166t-18 -190q0 -198 119.5 -285.5t349.5 -87.5q223 0 349 63t126 187q0 37 -7.5 62t-20 40t-40 23.5t-54.5 12t-75 5.5q-46 2 -81 5.5t-78 11.5t-74.5 20 t-63.5 32.5t-52 48t-32.5 67.5t-12.5 89q0 189 122.5 300t357.5 111q92 0 177 -26z" />
<glyph unicode="&#x6d5;" horiz-adv-x="869" d="M435 100q95 0 144 48t49 133q0 87 -52.5 183.5t-140.5 181.5q-87 -84 -140.5 -181.5t-53.5 -183.5q0 -85 49.5 -133t144.5 -48zM435 0q-132 0 -213 78.5t-81 202.5q0 135 83.5 263t210.5 236q128 -109 210.5 -236.5t82.5 -262.5q0 -125 -80.5 -203t-212.5 -78z" />
<glyph unicode="&#x6f0;" horiz-adv-x="845" d="M422 598q-73 0 -122.5 -49.5t-49.5 -122.5t50 -123.5t122 -50.5t122.5 50.5t50.5 123.5q0 72 -50 122t-123 50zM422 698q114 0 193.5 -79t79.5 -193t-79.5 -194t-193.5 -80t-193 80t-79 194q0 113 79.5 192.5t192.5 79.5z" />
<glyph unicode="&#x6f1;" horiz-adv-x="618" d="M468 0h-100q0 328 -49.5 581.5t-165.5 588.5l94 32q118 -343 169.5 -605.5t51.5 -596.5z" />
<glyph unicode="&#x6f2;" horiz-adv-x="1086" d="M567 750q51 0 88.5 14t62.5 44t41 66.5t23.5 91.5t10.5 108t3 128h100q0 -50 -0.5 -83t-4 -83t-9.5 -84.5t-18 -78t-28 -73t-41.5 -60t-57 -49t-75 -30t-95.5 -11.5q-53 0 -92 12.5t-82 44.5q75 -361 75 -707h-100q0 168 -15.5 319.5t-51 309t-64.5 260.5t-85 284l96 29 l22.5 -73.5t22 -67.5t23.5 -65.5t24 -58t28 -54.5t30 -44t34.5 -38.5t38.5 -26.5t45 -18.5t51 -5.5z" />
<glyph unicode="&#x6f3;" horiz-adv-x="1383" d="M823 1183q-13 -109 -13 -190q0 -31 0.5 -50t2.5 -44.5t6.5 -41.5t11.5 -34t18 -29t26.5 -21t37 -14t48.5 -4q170 0 170 285q0 73 -16 156l98 20q18 -86 18 -174q0 -60 -9 -114.5t-30 -105t-52 -87t-78.5 -58.5t-107.5 -22q-90 0 -136 40t-78 122q-38 -81 -83.5 -121.5 t-128.5 -40.5q-74 0 -132 37q72 -355 72 -692h-100q0 319 -55 587t-161 585l96 29q22 -71 36 -115.5t31.5 -94t30.5 -78.5t29.5 -59.5t31.5 -46t34 -29t40 -18.5t47 -5q34 0 61 11t45.5 27t32.5 49t22.5 62t15.5 83t10 94t8 111z" />
<glyph unicode="&#x6f4;" horiz-adv-x="1179" d="M406 646q62 -338 62 -646h-100q0 166 -15.5 318.5t-49.5 306t-65 264.5t-84 283l96 30q57 -137 108 -338q21 161 127 259.5t246 98.5q103 0 208 -58l-47 -87q-73 45 -161 45q-115 0 -198.5 -89t-83.5 -238q0 -58 43 -97.5t106 -56t141 -16.5q127 0 222 39l25 -90 q-120 -45 -255 -45q-102 0 -188 29.5t-137 87.5z" />
<glyph unicode="&#x6f5;" horiz-adv-x="1276" d="M647 99q-38 -48 -94 -73.5t-119 -25.5q-120 0 -202 86t-82 255q0 165 101 343t319 352q-43 36 -111 84l58 82q81 -56 158 -124q451 -396 451 -752q0 -162 -79 -244t-195 -82q-60 0 -114.5 26t-90.5 73zM598 274h100v-29q0 -65 46 -105t108 -40q174 0 174 226 q0 288 -380 643q-208 -162 -302 -323.5t-94 -304.5q0 -71 16.5 -121t45 -75t58 -35t64.5 -10q65 0 114.5 40.5t49.5 104.5v29z" />
<glyph unicode="&#x6f6;" horiz-adv-x="1034" d="M565 611q139 0 275 82l68 -81q-224 -151 -385.5 -293.5t-279.5 -318.5l-86 50q86 128 188 229.5t260 232.5q-81 -5 -158.5 11t-143.5 52.5t-106.5 102.5t-40.5 152q0 162 103 267t255 105q150 0 262 -104l-68 -72q-80 76 -194 76q-111 0 -184.5 -75t-73.5 -197 q0 -105 87 -162t222 -57z" />
<glyph unicode="&#x6f7;" horiz-adv-x="1315" d="M1075 1202l80 -62q-122 -159 -200 -305t-139.5 -347t-110.5 -488h-94q-72 419 -170.5 662t-280.5 478l80 62q162 -211 256 -411.5t162 -510.5q68 309 161.5 510t255.5 412z" />
<glyph unicode="&#x6f8;" horiz-adv-x="1315" d="M240 0l-80 62q122 159 200 305t139.5 347t110.5 488h94q72 -419 170.5 -662t280.5 -478l-80 -62q-162 211 -256 411.5t-162 510.5q-68 -309 -161.5 -510t-255.5 -412z" />
<glyph unicode="&#x6f9;" horiz-adv-x="1095" d="M681 547q-90 -22 -180 -22q-57 0 -106.5 8.5t-95.5 29.5t-78.5 52t-51.5 78.5t-19 107.5q0 100 35 190t109 150.5t173 60.5q70 0 124.5 -24t89 -64t57 -96.5t31.5 -116t9 -127.5q0 -122 1 -175q3 -163 15.5 -263.5t29.5 -152t57 -143.5l-92 -40q-58 132 -80 233.5 t-28 313.5zM679 650l-1 124q0 163 -49.5 245.5t-161.5 82.5q-93 0 -155 -87t-62 -214q0 -94 61.5 -135t189.5 -41q87 0 178 25z" />
<glyph unicode="&#x2018;" horiz-adv-x="598" d="M276 721q-51 95 -85.5 232.5t-34.5 246.5q0 85 39 135.5t111 50.5q69 0 102.5 -40t33.5 -104q0 -41 -19.5 -61.5t-47.5 -24t-56 -4t-47.5 -9.5t-19.5 -33q0 -57 29 -165.5t61 -175.5z" />
<glyph unicode="&#x2019;" horiz-adv-x="598" d="M322 721l-66 48q32 67 61 175.5t29 165.5q0 24 -19.5 33t-47.5 9.5t-56 4t-47.5 24t-19.5 61.5q0 64 33.5 104t102.5 40q72 0 111 -50.5t39 -135.5q0 -109 -34.5 -246.5t-85.5 -232.5z" />
<glyph unicode="&#x201c;" horiz-adv-x="1038" d="M716 721q-51 95 -85.5 232.5t-34.5 246.5q0 85 39 135.5t111 50.5q69 0 102.5 -40t33.5 -104q0 -41 -19.5 -61.5t-47.5 -24t-56 -4t-47.5 -9.5t-19.5 -33q0 -57 29 -165.5t61 -175.5zM276 721q-51 95 -85.5 232.5t-34.5 246.5q0 85 39 135.5t111 50.5q69 0 102.5 -40 t33.5 -104q0 -41 -19.5 -61.5t-47.5 -24t-56 -4t-47.5 -9.5t-19.5 -33q0 -57 29 -165.5t61 -175.5z" />
<glyph unicode="&#x201d;" horiz-adv-x="1038" d="M762 721l-66 48q32 67 61 175.5t29 165.5q0 24 -19.5 33t-47.5 9.5t-56 4t-47.5 24t-19.5 61.5q0 64 33.5 104t102.5 40q72 0 111 -50.5t39 -135.5q0 -109 -34.5 -246.5t-85.5 -232.5zM322 721l-66 48q32 67 61 175.5t29 165.5q0 24 -19.5 33t-47.5 9.5t-56 4t-47.5 24 t-19.5 61.5q0 64 33.5 104t102.5 40q72 0 111 -50.5t39 -135.5q0 -109 -34.5 -246.5t-85.5 -232.5z" />
<glyph unicode="&#x25fc;" horiz-adv-x="995" d="M0 995h995v-995h-995v995z" />
<glyph unicode="&#xe000;" horiz-adv-x="120" d="M0 100h120v-100h-120q-21 0 -35.5 14.5t-14.5 35.5t14.5 35.5t35.5 14.5z" />
<glyph unicode="&#xe001;" horiz-adv-x="320" d="M0 100h320v-100h-320q-21 0 -35.5 14.5t-14.5 35.5t14.5 35.5t35.5 14.5z" />
<glyph unicode="&#xe002;" horiz-adv-x="450" d="M0 100h450v-100h-450q-21 0 -35.5 14.5t-14.5 35.5t14.5 35.5t35.5 14.5z" />
<glyph unicode="&#xe003;" horiz-adv-x="1762" d="M1586 1413l52 -54l-1462 -1411l-52 54z" />
<glyph unicode="&#xe004;" horiz-adv-x="1088" d="M180 -48l-60 46l788 1013l60 -46z" />
<glyph unicode="&#xe005;" horiz-adv-x="1462" d="M1341 -30l-58 -48l-469 560l58 48z" />
<glyph unicode="&#xe006;" horiz-adv-x="1146" d="M236 87v76h674v-76h-674zM236 413v76h674v-76h-674z" />
<glyph unicode="&#xe007;" horiz-adv-x="869" d="M581 1543q-67 29 -109 29q-64 0 -105.5 -36t-41.5 -79q0 -50 28 -72.5t90 -41.5q24 -7 39 -13t37 -18t35.5 -26t23 -36t9.5 -49q0 -77 -75 -123t-168 -46q-94 0 -167 34l26 54q58 -28 141 -28q76 0 129.5 33.5t53.5 75.5q0 33 -22.5 49.5t-79.5 34.5q-32 10 -54.5 20 t-49.5 29.5t-41.5 50.5t-14.5 72q0 72 60.5 123.5t146.5 51.5q55 0 133 -33z" />
<glyph unicode="&#xe008;" horiz-adv-x="1454" d="M546 1112q0 66 -44.5 113.5t-109.5 47.5t-109.5 -47.5t-44.5 -113.5q0 -65 45 -111t109 -46t109 46t45 111zM620 1112q0 -96 -66 -163.5t-162 -67.5t-163 67.5t-67 163.5q0 94 66 165.5t164 71.5t163 -71t65 -166z" />
<glyph unicode="&#xe009;" horiz-adv-x="1146" d="M536 1590h74v-1817h-74v1817z" />
<glyph unicode="&#xe00a;" horiz-adv-x="1214" d="M100 455v76h584v-76h-584z" />
<glyph unicode="&#xe00b;" horiz-adv-x="1108" d="M850 549l-30 -82q-84 23 -185 23q-104 0 -189 -24.5t-140.5 -79.5t-55.5 -132q0 -93 58 -140.5t169 -47.5q125 0 217 72.5t92 195.5h100q0 -110 -61 -192.5t-153 -122t-199 -39.5q-143 0 -233 75t-90 204q0 67 30.5 122t79 90t113.5 59t130 34t132 10q117 0 215 -25z" />
<glyph unicode="&#xe00c;" horiz-adv-x="1536" d="M778 667q0 65 17.5 125t52.5 111t95.5 81.5t138.5 30.5q83 0 144 -28.5t95 -78.5t49.5 -109.5t15.5 -131.5v-692h-100v692q0 115 -61.5 189.5t-172.5 74.5q-72 0 -127 -40.5t-81 -99.5t-26 -124h-40z" />
<glyph unicode="&#xe00d;" horiz-adv-x="1068" d="M190 596q0 191 98.5 304t275.5 113q171 0 262.5 -107.5t91.5 -289.5v-616h-100v616q0 146 -78.5 229.5t-205.5 83.5q-135 0 -209.5 -87t-74.5 -246h-60z" />
<glyph unicode="&#xe00e;" horiz-adv-x="754" d="M250 506h-100q0 72 15.5 141t49.5 132.5t83 111t122 76t161 28.5h73v-84h-73q-156 0 -243.5 -116t-87.5 -289z" />
<glyph unicode="&#xe00f;" horiz-adv-x="1158" d="M639 1013q84 0 154 -29t118 -79t82 -116.5t49.5 -140t15.5 -152.5t-15.5 -152.5t-49 -140t-82 -116t-118.5 -78.5t-154 -29q-135 0 -236 70t-152 186t-51 260t51 260.5t152 186.5t236 70zM614 933q-163 0 -253.5 -124t-90.5 -313q0 -190 90.5 -313t253.5 -123t253.5 123 t90.5 313q0 189 -90.5 313t-253.5 124z" />
<glyph unicode="&#xe010;" horiz-adv-x="960" d="M154 -764l48 36l182 -243l182 243l48 -36l-230 -307zM510 527l92 38l90 -305q26 -87 85 -123.5t182 -36.5h1v-100h-1q-161 0 -254 73q-9 -197 -151 -349t-387 -242l-34 94q230 84 351.5 218t121.5 312q0 80 -18.5 168.5t-77.5 252.5z" />
<glyph unicode="&#xe011;" horiz-adv-x="1453" d="M591 765l48 36l182 -243l182 243l48 -36l-230 -307zM1453 100v-100h-253q61 -30 91.5 -86t30.5 -122q0 -165 -155.5 -270t-428.5 -105q-283 0 -440.5 132.5t-157.5 390.5q0 148 35.5 281.5t101.5 279.5l90 -47q-63 -140 -96 -263t-33 -262q0 -412 496 -412 q106 0 192.5 17.5t140 45t90 63t51 69t14.5 64.5q0 105 -117 164.5t-363 59.5v100h711z" />
<glyph unicode="&#xe012;" horiz-adv-x="547" d="M57 1376l48 36l182 -243l182 243l48 -36l-230 -307zM166 -330l107 107l107 -107l-107 -107zM-165 -330l107 107l107 -107l-107 -107zM350 732q65 -198 65 -350q0 -86 -22 -153t-69.5 -120t-129.5 -81t-194 -28q-21 0 -35.5 14.5t-14.5 35.5t14.5 35.5t35.5 14.5 q173 0 247.5 73t74.5 204q0 123 -66 323z" />
<glyph unicode="&#xe013;" horiz-adv-x="767" d="M154 1166l48 36l182 -243l182 243l48 -36l-230 -307zM135 -330l107 107l107 -107l-107 -107zM-196 -330l107 107l107 -107l-107 -107zM0 100q204 0 276 108q58 88 58 284v77h100v-77q0 -185 49 -270q36 -62 104 -92t179 -30h1v-100h-1q-290 0 -382 198 q-93 -198 -384 -198q-21 0 -35.5 14.5t-14.5 35.5t14.5 35.5t35.5 14.5z" />
<glyph unicode="&#xe014;" horiz-adv-x="1439" d="M831 1762l48 36l182 -243l182 243l48 -36l-230 -307zM1439 100v-100h-1q-229 0 -331 118v-97q0 -259 -131 -391.5t-374 -132.5q-218 0 -346 113.5t-128 315.5q0 174 88 390l91 -42q-80 -207 -80 -354q0 -156 101.5 -239.5t289.5 -83.5q195 0 292 102.5t97 321.5v1165h100 v-694q0 -214 69 -301q72 -91 262 -91h1z" />
<glyph unicode="&#xe015;" horiz-adv-x="596" d="M68 1762l48 36l182 -243l182 243l48 -36l-230 -307zM396 366q0 -175 -85 -264q-98 -102 -311 -102q-20 0 -35 15t-15 35t15 35t35 15q185 0 245 68q51 58 51 198v820h100v-820z" />
<glyph unicode="&#xe016;" horiz-adv-x="692" d="M120 1762l48 36l182 -243l182 243l48 -36l-230 -307zM0 100q172 0 238 85q58 75 58 264v737h100v-737q0 -182 54 -258q64 -91 241 -91h1v-100h-1q-258 0 -345 172q-87 -172 -346 -172q-21 0 -35.5 14.5t-14.5 35.5t14.5 35.5t35.5 14.5z" />
<glyph unicode="&#xe020;" horiz-adv-x="878" d="M669 582l-58 -48q-71 85 -180 85q-83 0 -146 -64t-63 -170q0 -154 286 -154l225 93l28 -70l-615 -254l-28 70l243 100q-215 42 -215 215q0 136 85 222t200 86q145 0 238 -111z" />
<glyph unicode="&#xe021;" horiz-adv-x="560" d="M563 1473l69 -31q-41 -88 -90.5 -123.5t-122.5 -35.5q-57 0 -166 39q-80 29 -116 29q-31 0 -60.5 -19.5t-46.5 -40t-42 -56.5l-60 37q91 167 212 167q65 0 142 -30q110 -42 152 -42q38 0 71.5 28.5t57.5 77.5zM330 1086v-1061h-100v1061h100z" />
<glyph unicode="&#xe022;" horiz-adv-x="500" d="M300 25h-100v1161h100v-1161z" />
<glyph unicode="&#xe023;" horiz-adv-x="1360" d="M1220 -524l36 -94q-249 -94 -491 -94q-101 0 -190.5 14t-173 48t-143.5 86t-96 132t-36 181q0 91 28.5 171.5t75.5 143.5t121.5 120t152 99.5t182.5 83.5t198 70.5t212 62.5l-483 185q-55 18 -106 18q-100 0 -156 -70.5t-73 -215.5l-100 12q9 81 33 147.5t63.5 118t99 80 t133.5 28.5q73 0 138 -24l589 -223v-122q-101 -27 -181 -51t-169 -53.5t-158 -57.5t-139.5 -63.5t-123 -71.5t-99 -79.5t-75.5 -90.5t-46 -102t-17 -116q0 -94 40 -164.5t113 -113t169.5 -63t216.5 -20.5q126 0 231 22t224 66z" />
<glyph unicode="&#xe024;" horiz-adv-x="936" d="M808 302q0 -66 -27 -118.5t-70.5 -86.5t-104 -56t-123 -31.5t-131.5 -9.5q-123 0 -246 32l25 96q108 -28 221 -28q165 0 260.5 52.5t95.5 149.5q0 115 -74 233.5t-234 253.5l64 76q172 -145 258 -282t86 -281z" />
<glyph unicode="&#xe025;" horiz-adv-x="834" d="M510 527l92 38q104 -258 104 -459q0 -209 -142.5 -370t-396.5 -254l-34 94q230 84 351.5 218t121.5 312q0 179 -96 421z" />
<glyph unicode="&#xe026;" horiz-adv-x="2378" d="M1963 0q-77 0 -146.5 37t-108.5 108q-80 -145 -235 -145q-109 0 -187 67q0 -141 -46 -251t-128.5 -179t-190.5 -104.5t-237 -35.5q-118 0 -217.5 31t-176 91.5t-119.5 158t-43 222.5q0 101 40.5 249.5t103.5 264.5l87 -41q-59 -111 -95 -247.5t-36 -225.5 q0 -196 120.5 -299.5t335.5 -103.5q235 0 370 120.5t135 343.5q0 150 -132 479l94 36q31 -88 51.5 -145t42.5 -111t37 -85t33.5 -58.5t33 -40t35.5 -22.5t40.5 -12t48.5 -2q166 0 192 231l25 219l99 -9l-17 -169q-2 -20 -2 -60q0 -111 55.5 -161.5t137.5 -50.5 q99 0 143 67.5t44 194.5q0 140 -53 304l96 30q57 -180 57 -334q0 -71 -15 -132.5t-46.5 -114.5t-89.5 -84t-136 -31z" />
<glyph unicode="&#xe027;" horiz-adv-x="2322" d="M1671 0q-203 0 -382 78q0 -144 -45.5 -256t-127.5 -182.5t-191.5 -106.5t-240.5 -36q-118 0 -217.5 31t-176 91.5t-119.5 158t-43 222.5q0 101 40.5 249.5t103.5 264.5l87 -41q-59 -111 -95 -247.5t-36 -225.5q0 -196 120.5 -299.5t335.5 -103.5q235 0 370 120.5 t135 343.5q0 150 -132 479l94 36q83 -182 136 -386q78 157 179.5 262.5t200 151t197.5 45.5q139 0 234 -84.5t95 -222.5q0 -89 -46 -157t-123 -107t-166.5 -58.5t-186.5 -19.5zM1378 149q136 -49 293 -49q185 0 303.5 66t118.5 176q0 94 -63 150.5t-166 56.5 q-56 0 -115 -20.5t-123 -65t-128.5 -125t-119.5 -189.5z" />
<glyph unicode="&#xe028;" horiz-adv-x="1515" d="M528 127v-27q137 1 246 11t185 25t132 37.5t89 47t52.5 57.5t26 63t6.5 68q0 84 -57.5 132.5t-147.5 48.5q-45 0 -97.5 -15t-114 -50.5t-118.5 -87t-111 -132t-91 -178.5zM428 100v1086h100v-836q108 167 256 253.5t276 86.5q79 0 147.5 -32t113 -97.5t44.5 -151.5 q0 -80 -25.5 -141.5t-87.5 -113t-162.5 -84.5t-253.5 -51.5t-358 -18.5h-373v100h323z" />
<glyph unicode="&#xe029;" horiz-adv-x="1299" d="M926 917l-76 -64q-99 118 -254 118q-117 0 -204.5 -89.5t-87.5 -237.5q0 -106 108 -161.5t284 -55.5q96 0 258 26l21 -105q-125 -16 -230 -42.5t-202 -71t-164.5 -104t-107.5 -144.5t-40 -188q0 -120 72.5 -210t194.5 -136t274 -46q197 0 357 69l40 -92 q-179 -77 -397 -77q-98 0 -191 19.5t-174.5 60t-143 97.5t-97 138t-35.5 177q0 191 108 327t290 216q-65 12 -120.5 34.5t-103 58t-74.5 89.5t-27 121q0 94 33 175.5t87.5 135.5t125 85t146.5 31q106 0 190 -44t140 -110z" />
<glyph unicode="&#xe02a;" horiz-adv-x="811" d="M0 100h811v-100h-811q-21 0 -35.5 14.5t-14.5 35.5t14.5 35.5t35.5 14.5z" />
<glyph unicode="&#xe02b;" horiz-adv-x="1585" d="M1315 1211h100v-719q0 -249 -93 -356q-65 -75 -186 -105.5t-324 -30.5q-77 0 -139 2.5t-135.5 12t-129.5 25t-111 43t-90 65t-57 93t-22 124.5q0 106 32 242l98 -24q-30 -124 -30 -218q0 -55 19 -97t57 -71t88 -48t120.5 -30t144.5 -15t169 -4q183 0 280 19.5t144 73.5 q37 42 51 112.5t14 186.5v719z" />
<glyph unicode="&#xe02c;" horiz-adv-x="1268" d="M1007 1186h100v-1165q0 -259 -131 -391.5t-374 -132.5q-218 0 -346 113.5t-128 315.5q0 174 88 390l91 -42q-80 -207 -80 -354q0 -156 101.5 -239.5t289.5 -83.5q195 0 292 102.5t97 321.5v1165z" />
<glyph unicode="&#xe02d;" horiz-adv-x="1199" d="M396 185q6 60 19 118.5t41 122t67 111t100.5 78.5t136.5 31q95 0 167 -54.5t107 -137.5t35 -177q0 -73 -23 -128t-62.5 -86.5t-87.5 -47t-103 -15.5q-129 0 -271 57q-72 28 -121 28q-77 0 -125 -56t-48 -153v-661h-100v661q0 129 74 218t194 91zM495 171 q17 -5 85.5 -27.5t117 -33t95.5 -10.5q86 0 131 39t45 138q0 114 -59 191.5t-150 77.5q-61 0 -110.5 -32.5t-81 -87.5t-49.5 -119t-24 -136z" />
<glyph unicode="&#xe02e;" horiz-adv-x="869" d="M435 100q95 0 144 48t49 133q0 87 -52.5 183.5t-140.5 181.5q-87 -84 -140.5 -181.5t-53.5 -183.5q0 -85 49.5 -133t144.5 -48zM435 0q-132 0 -213 78.5t-81 202.5q0 135 83.5 263t210.5 236q128 -109 210.5 -236.5t82.5 -262.5q0 -125 -80.5 -203t-212.5 -78z" />
<glyph unicode="&#xe02f;" horiz-adv-x="928" d="M698 29q-103 -30 -210 -30q-67 0 -124 15.5t-103.5 47.5t-72.5 87t-26 129q0 96 38 186.5t110.5 150.5t159.5 60q60 0 109.5 -24.5t83 -63.5t59 -93.5t40 -108.5t23.5 -115t12 -107t3 -90q0 -218 -159.5 -362t-474.5 -225l-25 96q275 71 408.5 180.5t148.5 266.5z M698 134q-4 82 -19.5 157t-42 140.5t-70 104.5t-96.5 39q-76 0 -142 -90t-66 -207q0 -97 55 -138t171 -41q105 0 210 35z" />
<glyph unicode="&#xe030;" d="M-234 1867q0 -84 47 -153l-50 -34q-57 86 -57 187q0 139 98 237.5t238 98.5v-60q-115 0 -195.5 -81t-80.5 -195z" />
<glyph unicode="&#xe031;" d="M186 1745l24 -54l-396 -180l-24 54z" />
<glyph unicode="&#xe032;" d="M47 1701q-147 56 -147 160q0 63 48 108t106 45q62 0 96.5 -46t34.5 -98q0 -67 -34 -129t-88.5 -106.5t-114.5 -75.5t-120 -47l-16 58q64 17 127.5 51.5t107.5 79.5zM87 1751q38 59 38 119q0 32 -20 58t-51 26q-33 0 -63.5 -28.5t-30.5 -64.5q0 -33 34 -62t93 -48z" />
<glyph unicode="&#xe033;" d="M186 1693q0 70 -29 151l56 20q33 -89 33 -171q0 -68 -35 -110t-87 -42q-36 0 -69 21.5t-55 59.5q-46 -81 -124 -81q-52 0 -87 42t-35 110q0 82 33 171l56 -20q-29 -81 -29 -151q0 -92 70 -92q31 0 58.5 29t27.5 74v70h60v-70q0 -45 27 -74t59 -29q70 0 70 92z" />
<glyph unicode="&#xe034;" d="M0 1848q-52 0 -88 -35.5t-36 -87.5t36 -88t88 -36q51 0 87.5 36.5t36.5 87.5t-36 87t-88 36zM0 1908q76 0 130 -53.5t54 -129.5q0 -77 -54 -130.5t-130 -53.5q-77 0 -130.5 54t-53.5 130t53.5 129.5t130.5 53.5z" />
<glyph unicode="&#xe035;" d="M-246 1537q23 48 64.5 82.5t94.5 34.5q52 0 103 -39q36 -28 70 -28q31 0 59 24.5t45 63.5l56 -24q-22 -52 -63.5 -88t-96.5 -36q-54 0 -106 40q-35 27 -67 27q-31 0 -59.5 -23.5t-45.5 -59.5z" />
<glyph unicode="&#xe036;" d="M-186 1511l-24 54l108 50q-69 77 -69 166q0 74 52 125t141 51h82v-60h-82q-67 0 -100 -33t-33 -83q0 -79 67 -140l230 104l24 -54z" />
<glyph unicode="&#xe037;" d="M-230 1818l48 36l182 -243l182 243l48 -36l-230 -307z" />
<glyph unicode="&#xe038;" horiz-adv-x="1782" d="M1604 670q46 -150 46 -272q0 -79 -23.5 -141t-70.5 -105.5t-110.5 -73t-151.5 -47t-184.5 -24.5t-218.5 -7t-218.5 7t-184.5 24.5t-151.5 47t-110.5 73t-70.5 105.5t-23.5 141q0 122 46 272l96 -30q-42 -134 -42 -242q0 -165 148.5 -231.5t510.5 -66.5t510.5 66.5 t148.5 231.5q0 108 -42 242z" />
<glyph unicode="&#xe039;" horiz-adv-x="1415" d="M1185 135q-4 82 -19.5 157t-42 140.5t-70 104.5t-96.5 39q-76 0 -142 -90t-66 -207q0 -97 55 -138t171 -41q105 0 210 35zM1188 32q-109 -32 -213 -32q-67 0 -124 15.5t-103.5 47.5t-72.5 87t-26 129q0 96 38 186.5t110.5 150.5t159.5 60q59 0 108.5 -24t83 -62.5t59 -92 t40.5 -108t24 -115.5t12 -108t3 -92q0 -141 -46.5 -252t-128.5 -181.5t-191 -107t-237 -36.5q-118 0 -217.5 31t-176 91.5t-119.5 158t-43 222.5q0 152 78 365l92 -32q-70 -193 -70 -333q0 -196 120.5 -299.5t335.5 -103.5q227 0 361 113t143 322z" />
<glyph unicode="&#xe03a;" d="M-30 1869h60v-329h-60v329z" />
<glyph unicode="&#xe03b;" horiz-adv-x="1752" d="M1522 482q-4 82 -19.5 157t-42 140.5t-70 104.5t-96.5 39q-76 0 -142 -90t-66 -207q0 -97 55 -138t171 -41q105 0 210 35zM1624 421q0 -99 -38.5 -174t-103 -121.5t-160.5 -75t-199.5 -39.5t-231.5 -11q-167 0 -285.5 11t-212.5 38t-149 72.5t-83.5 113.5t-28.5 163 q0 122 46 272l96 -30q-42 -134 -42 -242q0 -60 10.5 -101.5t39 -76.5t75 -56.5t121.5 -36.5t174.5 -21t238.5 -6q301 0 456.5 64.5t173.5 212.5q-103 -30 -209 -30q-67 0 -124 15.5t-103.5 47.5t-72.5 87t-26 129q0 96 38 186.5t110.5 150.5t159.5 60q60 0 109.5 -24.5 t83 -63.5t59 -93.5t40 -108.5t23.5 -115t12 -107t3 -90z" />
<glyph unicode="&#xe03c;" horiz-adv-x="1848" d="M178 670l96 -30q-42 -134 -42 -242q0 -70 18 -119t56.5 -84.5t105.5 -56t158 -29.5t221 -9q136 0 231 9.5t170 34t111.5 68.5t36.5 109q0 110 -124.5 250.5t-321.5 281.5v141q164 107 377 194t416 132l22 -98q-181 -41 -374 -116.5t-341 -166.5v-34q446 -317 446 -584 q0 -61 -20 -109.5t-53 -82t-84.5 -57.5t-104 -37.5t-122.5 -21.5t-129.5 -10.5t-135.5 -2.5q-132 0 -231 11t-182 38.5t-135.5 72.5t-81.5 114t-29 162q0 122 46 272z" />
<glyph unicode="&#xe03d;" horiz-adv-x="1512" d="M1282 43q0 109 -42.5 231t-111.5 264l90 40q35 -72 57 -121t50.5 -125.5t43 -150t14.5 -142.5q0 -106 -37 -196t-99.5 -153t-147 -107t-178.5 -65t-194 -21q-122 0 -229.5 33.5t-190 96t-130.5 160t-48 218.5q0 126 41 264.5t99 254.5l84 -51q-52 -105 -88 -230t-36 -239 q0 -100 38 -179t105.5 -128t156.5 -74.5t194 -25.5q114 0 214.5 29.5t178 84t122 140.5t44.5 192z" />
<glyph unicode="&#xe03e;" horiz-adv-x="1449" d="M1288 649l-20 -97q-83 23 -158 23q-190 0 -284.5 -84t-94.5 -221q0 -39 8.5 -67.5t28.5 -47.5t42.5 -30.5t62 -18.5t74 -10t90.5 -6q47 -2 83 -7.5t76 -21t66 -41t43 -69.5t17 -104q0 -94 -46 -163t-129 -109t-186 -59t-228 -19q-94 0 -174 15t-151.5 50t-121.5 88.5 t-79 135t-29 184.5q0 97 18.5 207t40.5 179l96 -30q-19 -63 -37 -166t-18 -190q0 -198 119.5 -285.5t349.5 -87.5q223 0 349 63t126 187q0 37 -7.5 62t-20 40t-40 23.5t-54.5 12t-75 5.5q-46 2 -81 5.5t-78 11.5t-74.5 20t-63.5 32.5t-52 48t-32.5 67.5t-12.5 89 q0 189 122.5 300t357.5 111q92 0 177 -26z" />
<glyph unicode="&#xe03f;" horiz-adv-x="1864" d="M1864 100v-100h-1q-116 0 -201.5 32.5t-135 82.5t-95.5 128q-16 -64 -62.5 -110t-104.5 -71t-143.5 -39.5t-158.5 -18.5t-171 -4q-132 0 -231 11t-182 38.5t-135.5 72.5t-81.5 114t-29 162q0 122 46 272l96 -30q-42 -134 -42 -242q0 -70 18 -119t56.5 -84.5t105.5 -56 t158 -29.5t221 -9q136 0 231 9.5t170 34t111.5 68.5t36.5 109q0 110 -124.5 250.5t-321.5 281.5v141q164 107 377 194t416 132l22 -98q-181 -41 -374 -116.5t-341 -166.5v-34q134 -92 234.5 -193.5t153 -179t101.5 -174.5q22 -43 36.5 -68.5t35.5 -56.5t40 -48.5t46 -36 t58.5 -27.5t72.5 -15t91 -6h1z" />
<glyph unicode="&#xe040;" horiz-adv-x="1660" d="M270 524l84 -51q-125 -252 -125 -468q0 -133 66.5 -226.5t176.5 -137.5t252 -44q114 0 214.5 29.5t177.5 84t121.5 140.5t44.5 192q0 109 -42.5 231t-111.5 264l89 38l125 -294q28 -66 63.5 -103.5t97 -58t156.5 -20.5h1v-100h-1q-173 0 -276 67q0 -115 -35 -209.5 t-95.5 -160.5t-144 -111.5t-179 -67t-201.5 -21.5q-123 0 -231 33.5t-190.5 96.5t-130 161t-47.5 219q0 127 41 264t100 253z" />
<glyph unicode="&#xe041;" horiz-adv-x="547" d="M350 732q65 -198 65 -350q0 -86 -22 -153t-69.5 -120t-129.5 -81t-194 -28q-21 0 -35.5 14.5t-14.5 35.5t14.5 35.5t35.5 14.5q173 0 247.5 73t74.5 204q0 123 -66 323z" />
<glyph unicode="&#xe042;" horiz-adv-x="767" d="M0 100q204 0 276 108q58 88 58 284v77h100v-77q0 -185 49 -270q36 -62 104 -92t179 -30h1v-100h-1q-290 0 -382 198q-93 -198 -384 -198q-21 0 -35.5 14.5t-14.5 35.5t14.5 35.5t35.5 14.5z" />
<glyph unicode="&#xe043;" horiz-adv-x="1453" d="M1453 100v-100h-253q61 -30 91.5 -86t30.5 -122q0 -165 -155.5 -270t-428.5 -105q-283 0 -440.5 132.5t-157.5 390.5q0 148 35.5 281.5t101.5 279.5l90 -47q-63 -140 -96 -263t-33 -262q0 -412 496 -412q106 0 192.5 17.5t140 45t90 63t51 69t14.5 64.5q0 105 -117 164.5 t-363 59.5v100h711z" />
<glyph unicode="&#xe044;" horiz-adv-x="596" d="M200 1186h100v-820q0 -140 51 -198q60 -68 244 -68h1v-100h-1q-212 0 -310 102q-85 89 -85 264v820z" />
<glyph unicode="&#xe045;" horiz-adv-x="1398" d="M1220 -524l36 -94q-249 -94 -491 -94q-101 0 -190.5 14t-173 48t-143.5 86t-96 132t-36 181q0 91 28.5 171.5t75.5 143.5t121.5 120t152 99.5t182.5 83.5t198 70.5t212 62.5l-483 185q-55 18 -106 18q-100 0 -156 -70.5t-73 -215.5l-100 12q9 81 33 147.5t63.5 118t99 80 t133.5 28.5q73 0 138 -24l589 -223v-122q-117 -31 -238 -68q38 -60 70.5 -100.5t81 -82t111 -62.5t138.5 -21h1v-100h-1q-75 0 -141 18.5t-116 48t-96 74t-79.5 90t-67.5 103.5q-124 -41 -220.5 -83t-183.5 -95.5t-144 -112.5t-90 -134t-33 -160q0 -94 40 -164.5t113 -113 t169.5 -63t216.5 -20.5q126 0 231 22t224 66z" />
<glyph unicode="&#xe046;" horiz-adv-x="1316" d="M126 414q63 388 310 388q84 0 184 -48l537 -243v-122q-291 -205 -555.5 -297t-601.5 -92q-20 0 -35 15t-15 35t15 35t35 15q314 0 558 82t491 263l-473 219q-80 38 -140 38q-163 0 -212 -304z" />
<glyph unicode="&#xe047;" horiz-adv-x="1316" d="M126 414q63 388 310 388q84 0 184 -48l537 -243v-122q-106 -74 -177 -117q64 -83 139.5 -127.5t195.5 -44.5h1v-100h-1q-146 0 -246.5 59t-177.5 162q-208 -114 -420 -167.5t-471 -53.5q-20 0 -35 15t-15 35t15 35t35 15q314 0 558 82t491 263l-473 219q-80 38 -140 38 q-163 0 -212 -304z" />
<glyph unicode="&#xe048;" horiz-adv-x="1180" d="M1180 100v-100h-1q-134 0 -224.5 43.5t-160.5 158.5q-41 -99 -141.5 -150.5t-223.5 -51.5q-209 0 -349 105l57 82q118 -87 292 -87q126 0 206 58t80 153q0 54 -28 118l-163 383l92 40l199 -467q41 -96 76 -152t79 -86t89 -38.5t120 -8.5h1z" />
<glyph unicode="&#xe049;" horiz-adv-x="960" d="M510 527l92 38l90 -305q26 -87 85 -123.5t182 -36.5h1v-100h-1q-161 0 -254 73q-9 -197 -151 -349t-387 -242l-34 94q230 84 351.5 218t121.5 312q0 80 -18.5 168.5t-77.5 252.5z" />
<glyph unicode="&#xe04a;" horiz-adv-x="2614" d="M2213 650l38 -194q16 -76 24.5 -111t26.5 -86t40 -72.5t59 -46t88.5 -32.5t123.5 -8h1v-100h-1q-108 0 -186.5 25t-124.5 66t-77 103q-62 -194 -262 -194q-77 0 -146.5 37t-108.5 108q-80 -145 -235 -145q-109 0 -187 67q0 -141 -46 -251t-128.5 -179t-190.5 -104.5 t-237 -35.5q-118 0 -217.5 31t-176 91.5t-119.5 158t-43 222.5q0 101 40.5 249.5t103.5 264.5l87 -41q-59 -111 -95 -247.5t-36 -225.5q0 -196 120.5 -299.5t335.5 -103.5q235 0 370 120.5t135 343.5q0 150 -132 479l94 36q31 -88 51.5 -145t42.5 -111t37 -85t33.5 -58.5 t33 -40t35.5 -22.5t40.5 -12t48.5 -2q166 0 192 231l25 219l99 -9l-17 -169q-2 -20 -2 -60q0 -111 55.5 -161.5t137.5 -50.5q100 0 143 67t43 193q0 88 -12 156l-22 114z" />
<glyph unicode="&#xe04b;" horiz-adv-x="1538" d="M1369 649q22 -104 31.5 -172.5t9.5 -158.5q0 -118 -55 -200q-79 -118 -227 -118q-86 0 -149.5 43.5t-98.5 114.5q-35 -71 -98.5 -114.5t-149.5 -43.5q-93 0 -159 50.5t-100 132.5q-98 -183 -373 -183q-21 0 -35.5 14.5t-14.5 35.5t14.5 35.5t35.5 14.5q193 0 266 92 q68 86 68 300v77h100v-159q0 -170 67 -251q48 -59 131 -59t131 59q67 81 67 251v149h100v-149q0 -170 67 -251q48 -59 131 -59q101 0 148 78q34 56 34 140q0 136 -38 310z" />
<glyph unicode="&#xe04c;" horiz-adv-x="1735" d="M1369 649l33 -238q26 -164 91 -232q76 -79 241 -79h1v-100h-1q-251 0 -354 164q-32 -75 -97 -119.5t-155 -44.5q-86 0 -149.5 43.5t-98.5 114.5q-35 -71 -98.5 -114.5t-149.5 -43.5q-93 0 -159 50.5t-100 132.5q-98 -183 -373 -183q-21 0 -35.5 14.5t-14.5 35.5 t14.5 35.5t35.5 14.5q191 0 265 90q69 85 69 302v77h100v-159q0 -170 67 -251q48 -59 131 -59q91 0 141 70q57 80 57 240v149h100v-149q0 -151 52 -232q50 -78 146 -78q94 0 143 70q39 57 39 148t-39 315z" />
<glyph unicode="&#xe04d;" horiz-adv-x="2416" d="M1287 190q78 157 179.5 262.5t200 151t197.5 45.5q139 0 234 -84.5t95 -222.5q0 -82 -42 -150q66 -92 264 -92h1v-100h-1q-232 0 -332 117q-74 -59 -183.5 -88t-228.5 -29q-203 0 -382 78q0 -144 -45.5 -256t-127.5 -182.5t-191.5 -106.5t-240.5 -36q-118 0 -217.5 31 t-176 91.5t-119.5 158t-43 222.5q0 101 40.5 249.5t103.5 264.5l87 -41q-59 -111 -95 -247.5t-36 -225.5q0 -196 120.5 -299.5t335.5 -103.5q235 0 370 120.5t135 343.5q0 150 -132 479l94 36q83 -182 136 -386zM1378 149q136 -49 293 -49q185 0 303.5 66t118.5 176 q0 94 -63 150.5t-166 56.5q-56 0 -115 -20.5t-123 -65t-128.5 -125t-119.5 -189.5z" />
<glyph unicode="&#xe04e;" horiz-adv-x="1612" d="M0 100q175 0 249 76q82 84 85 301v92h100v-225q0 -132 77 -185q69 139 152.5 244t168.5 166t166.5 91t158.5 30q79 0 147.5 -32t113 -97.5t44.5 -151.5q0 -76 -40 -143t-105.5 -115t-148.5 -82.5t-170 -51.5t-169 -17q-181 0 -294 37t-164 136q-98 -173 -371 -173 q-21 0 -35.5 14.5t-14.5 35.5t14.5 35.5t35.5 14.5zM603 121q81 -21 226 -21q128 0 252 43.5t202.5 116t78.5 149.5q0 84 -57.5 132.5t-147.5 48.5q-59 0 -124.5 -24t-139.5 -75.5t-150 -146.5t-140 -223z" />
<glyph unicode="&#xe04f;" horiz-adv-x="1635" d="M603 121q81 -21 226 -21q128 0 252 43.5t202.5 116t78.5 149.5q0 84 -57.5 132.5t-147.5 48.5q-59 0 -124.5 -24t-139.5 -75.5t-150 -146.5t-140 -223zM434 569v-225q0 -132 77 -185q69 139 152.5 244t168.5 166t166.5 91t158.5 30q79 0 147.5 -32t113 -97.5t44.5 -151.5 q0 -117 -94 -213q36 -50 99.5 -73t166.5 -23h1v-100h-1q-241 0 -343 133q-95 -63 -220 -98t-242 -35q-182 0 -295 36.5t-164 135.5q-98 -172 -370 -172q-20 0 -35 15t-15 35t15 35t35 15q189 0 264 92q70 86 70 300v77h100z" />
<glyph unicode="&#xe050;" horiz-adv-x="1538" d="M528 100q137 1 246 11t185 25t132 37.5t89 47t52.5 57.5t26 63t6.5 68q0 84 -57.5 132.5t-147.5 48.5q-44 0 -97 -18t-114.5 -57t-118.5 -95t-111 -139t-91 -181zM428 100v1086h100v-863q110 171 259.5 269t272.5 98q79 0 147.5 -32t113 -97.5t44.5 -151.5 q0 -140 -82 -226q61 -83 254 -83h1v-100h-1q-116 0 -196 29t-137 92q-205 -121 -726 -121h-373v100h323z" />
<glyph unicode="&#xe051;" horiz-adv-x="1317" d="M308 100q137 1 246 11t185 25t132 37.5t89 47t52.5 57.5t26 63t6.5 68q0 84 -57.5 132.5t-147.5 48.5q-44 0 -97.5 -18t-114.5 -57t-118 -95t-111 -139t-91 -181zM0 100h208v1086h100v-863q110 171 259.5 269t272.5 98q79 0 147.5 -32t113 -97.5t44.5 -151.5 q0 -80 -25.5 -141.5t-87.5 -113t-162.5 -84.5t-253.5 -51.5t-358 -18.5h-258q-21 0 -35.5 14.5t-14.5 35.5t14.5 35.5t35.5 14.5z" />
<glyph unicode="&#xe052;" horiz-adv-x="1318" d="M308 100q190 2 326.5 20t215 44.5t123.5 68t58.5 81.5t13.5 95q0 84 -57.5 132.5t-147.5 48.5q-44 0 -97 -18t-114.5 -57t-118.5 -95t-111 -139t-91 -181zM0 100l208 1v1085h100v-863q110 171 259.5 269t272.5 98q79 0 147.5 -32t113 -97.5t44.5 -151.5q0 -140 -82 -226 q63 -83 254 -83h1v-100h-1q-116 0 -196.5 29t-136.5 92q-205 -121 -726 -121h-258q-21 0 -35.5 14.5t-14.5 35.5t14.5 35.5t35.5 14.5z" />
<glyph unicode="&#xe053;" horiz-adv-x="1144" d="M972 458q0 -50 -18.5 -94.5t-53 -80.5t-69 -62t-81.5 -55q180 -66 393 -66h1v-100h-1q-291 0 -504 104q-424 -177 -424 -430q0 -84 65 -156t182 -115t260 -43q161 0 317 58l35 -94q-169 -64 -351 -64q-159 0 -296 48.5t-224.5 144t-87.5 219.5q0 303 415 493 q-166 105 -353 307l5 120q73 60 182 95t230 35q97 0 182 -30t140.5 -91.5t55.5 -142.5zM872 457q0 63 -79 114t-197 51q-89 0 -175.5 -22.5t-139.5 -57.5l-2 -29q192 -204 363 -298q107 50 168.5 111.5t61.5 130.5z" />
<glyph unicode="&#xe054;" horiz-adv-x="1083" d="M253 386q0 -99 85 -155.5t220 -56.5q46 0 65 3l273 52l18 -98l-467 -89q-221 -42 -447 -42q-21 0 -35.5 14.5t-14.5 35.5t14.5 35.5t35.5 14.5q166 0 325 23q-78 39 -125 106t-47 157t31.5 167.5t83.5 129t119.5 81t139.5 29.5q193 0 315 -145l-76 -64q-90 109 -239 109 q-110 0 -192 -84t-82 -223z" />
<glyph unicode="&#xe055;" horiz-adv-x="1026" d="M118 552q63 78 180.5 123.5t250.5 45.5q67 0 129.5 -18t115.5 -52.5t85.5 -93.5t32.5 -133q0 -85 -50.5 -158t-134.5 -122q140 -44 298 -44h1v-100h-1q-228 0 -427 85q-115 -41 -275.5 -63t-322.5 -22q-21 0 -35.5 14.5t-14.5 35.5t14.5 35.5t35.5 14.5q276 0 470 50 q-90 53 -171.5 122t-180.5 165v115zM218 514v-33q73 -68 121.5 -110t121 -93.5t140.5 -83.5q97 40 154 102.5t57 127.5q0 92 -74.5 144.5t-188.5 52.5q-96 0 -189.5 -30.5t-141.5 -76.5z" />
<glyph unicode="&#xe056;" horiz-adv-x="1748" d="M1315 1211h100v-719q0 -130 24 -211t83 -125q77 -56 225 -56h1v-100h-1q-170 0 -274 70q-71 48 -108 131q-19 -38 -43 -65q-65 -75 -186 -105.5t-324 -30.5q-77 0 -139 2.5t-135.5 12t-129.5 25t-111 43t-90 65t-57 93t-22 124.5q0 106 32 242l98 -24q-30 -124 -30 -218 q0 -55 19 -97t57 -71t88 -48t120.5 -30t144.5 -15t169 -4q183 0 280 19.5t144 73.5q37 42 51 112.5t14 186.5v719z" />
<glyph unicode="&#xe057;" horiz-adv-x="999" d="M0 100h121q208 0 289 50.5t81 170.5q0 110 -124.5 250.5t-321.5 281.5v141q164 107 377 194t416 132l22 -98q-181 -41 -374 -116.5t-341 -166.5v-34q446 -317 446 -584q0 -171 -120 -246t-350 -75h-121q-21 0 -35.5 14.5t-14.5 35.5t14.5 35.5t35.5 14.5z" />
<glyph unicode="&#xe058;" horiz-adv-x="1020" d="M0 100h121q208 0 289 50.5t81 170.5q0 110 -124.5 250.5t-321.5 281.5v141q164 107 377 194t416 132l22 -98q-181 -41 -374 -116.5t-341 -166.5v-34q134 -92 234.5 -193.5t153 -179t101.5 -174.5q37 -73 64 -113.5t70.5 -77.5t103.5 -52t147 -15h1v-100h-1 q-116 0 -201.5 32t-137 81.5t-97.5 127.5q-27 -127 -144 -184t-318 -57h-121q-21 0 -35.5 14.5t-14.5 35.5t14.5 35.5t35.5 14.5z" />
<glyph unicode="&#xe059;" horiz-adv-x="1439" d="M1439 100v-100h-1q-229 0 -331 118v-97q0 -259 -131 -391.5t-374 -132.5q-218 0 -346 113.5t-128 315.5q0 174 88 390l91 -42q-80 -207 -80 -354q0 -156 101.5 -239.5t289.5 -83.5q195 0 292 102.5t97 321.5v1165h100v-694q0 -214 69 -301q72 -91 262 -91h1z" />
<glyph unicode="&#xe05a;" horiz-adv-x="596" d="M396 366q0 -175 -85 -264q-98 -102 -311 -102q-20 0 -35 15t-15 35t15 35t35 15q185 0 245 68q51 58 51 198v820h100v-820z" />
<glyph unicode="&#xe05b;" horiz-adv-x="692" d="M0 100q172 0 238 85q58 75 58 264v737h100v-737q0 -182 54 -258q64 -91 241 -91h1v-100h-1q-258 0 -345 172q-87 -172 -346 -172q-21 0 -35.5 14.5t-14.5 35.5t14.5 35.5t35.5 14.5z" />
<glyph unicode="&#xe05c;" horiz-adv-x="1329" d="M495 171q17 -5 85.5 -27.5t117 -33t95.5 -10.5q86 0 131 39t45 138q0 114 -59 191.5t-150 77.5q-61 0 -110.5 -32.5t-81 -87.5t-49.5 -119t-24 -136zM1329 0h-1q-92 0 -162.5 30t-129.5 98q-35 -64 -100 -96t-143 -32q-129 0 -271 57q-72 28 -121 28q-77 0 -125 -56 t-48 -153v-661h-100v661q0 129 74 218t194 91q6 60 19 118.5t41 122t67 111t100.5 78.5t136.5 31q86 0 154 -45.5t105 -115.5t47 -155q14 -122 78.5 -176t183.5 -54h1v-100z" />
<glyph unicode="&#xe05d;" horiz-adv-x="1046" d="M0 100q88 0 137.5 38.5t93.5 132.5q17 37 44 110q47 127 129 206t201 79q57 0 107.5 -22t87.5 -59t64 -85t40.5 -100t13.5 -103q0 -123 -83.5 -210t-208.5 -87q-104 0 -179 47t-151 133q-101 -180 -296 -180q-21 0 -35.5 14.5t-14.5 35.5t14.5 35.5t35.5 14.5zM344 281 q48 -75 122 -128t161 -53q80 0 135.5 56.5t55.5 140.5q0 104 -63 186.5t-150 82.5q-156 0 -236 -220z" />
<glyph unicode="&#xe05e;" horiz-adv-x="1238" d="M0 100q88 0 137.5 38.5t93.5 132.5q17 37 44 110q47 127 129 206t201 79q86 0 156 -49.5t108 -123t47 -155.5q16 -94 59 -147q72 -91 262 -91h1v-100h-1q-254 0 -355 150q-36 -67 -105 -108.5t-149 -41.5q-105 0 -181 47.5t-151 132.5q-101 -180 -296 -180 q-21 0 -35.5 14.5t-14.5 35.5t14.5 35.5t35.5 14.5zM344 281q48 -75 122.5 -128t161.5 -53q79 0 134.5 56.5t55.5 140.5q0 104 -63 186.5t-150 82.5q-156 0 -236 -220z" />
<glyph unicode="&#xe05f;" horiz-adv-x="1041" d="M627 695q-174 -27 -285.5 -102.5t-111.5 -170.5q0 -81 66 -124t181 -43q80 0 177 29zM1041 0h-1q-146 0 -230.5 45t-127.5 141q-105 -31 -205 -31q-65 0 -124.5 15t-110.5 45.5t-81.5 83.5t-30.5 123q0 79 42 145.5t113.5 111t155.5 73.5t180 43l-8 140l100 6l32 -539 q5 -81 19.5 -133.5t46.5 -92.5t88 -58t141 -18h1v-100z" />
<glyph unicode="&#xe060;" horiz-adv-x="1293" d="M0 100q197 0 342 37q-195 120 -195 299q0 100 63 187t149 123l-174 64l42 103l429 -169q54 -22 87.5 -36t87 -38t87.5 -44.5t77 -49.5t70 -59t52 -66t36.5 -78t11.5 -88q0 -123 -81 -204t-230 -81q-74 0 -183 20t-198 54q-190 -74 -473 -74q-21 0 -35.5 14.5t-14.5 35.5 t14.5 35.5t35.5 14.5zM472 183q192 90 192 263q0 105 -39.5 170t-125.5 65q-41 0 -84.5 -17t-81 -47t-62 -77.5t-24.5 -103.5q0 -80 61 -144t164 -109zM597 139q143 -39 257 -39q211 0 211 185q0 182 -326 320q48 -151 7.5 -270.5t-149.5 -195.5z" />
<glyph unicode="&#xe061;" horiz-adv-x="986" d="M278 119q217 33 322 112t105 191q0 195 -161 195q-120 0 -191 -128t-75 -370zM986 0h-1q-126 0 -180.5 -41t-54.5 -144v-252l-104 -65q-178 10 -306 155t-156 354q-81 -7 -184 -7q-20 0 -35 15t-15 35t15 35t35 15q101 0 178 7q1 130 23 238.5t65 192.5t114 131.5 t164 47.5q117 0 189 -79t72 -216q0 -163 -139 -266t-383 -138q23 -168 127.5 -289t222.5 -130l17 10v206q0 76 25.5 132t71.5 89t105.5 48.5t132.5 15.5h1v-100z" />
<glyph unicode="&#xe062;" horiz-adv-x="928" d="M795 0q-26 -189 -183.5 -315t-445.5 -199l-25 96q262 67 395 170.5t158 247.5h-206q-67 0 -124 15.5t-103.5 47.5t-72.5 87t-26 129q0 96 38 186.5t110.5 150.5t159.5 60q57 0 105.5 -22.5t81 -59t58.5 -87.5t41 -102.5t25 -110t14 -104t5 -90.5h128v-100h-133zM700 100 q-2 82 -16 162.5t-40.5 152.5t-71.5 116.5t-102 44.5q-76 0 -142 -90t-66 -207q0 -97 55 -138t171 -41h212z" />
<glyph unicode="&#xe063;" horiz-adv-x="1033" d="M656 530q-149 -197 -368 -361v-22q45 -20 112 -33.5t128 -13.5q243 0 243 128q0 105 -115 302zM658 712q77 131 113.5 234t36.5 240h100q0 -164 -47 -291.5t-142 -274.5q152 -247 152 -392q0 -68 -33 -116t-88 -71t-108.5 -32t-113.5 -9q-94 0 -184 24.5t-156 64.5v130 q123 93 224.5 188t186.5 214q-158 238 -474 459l58 82q146 -101 265 -209.5t210 -240.5z" />
<glyph unicode="&#xe064;" horiz-adv-x="1372" d="M449 340h-100q0 232 -42 421.5t-137 409.5l92 38q99 -230 143 -429t44 -440zM1372 0h-1q-316 0 -399 236q-87 -131 -296 -183.5t-576 -52.5v100q329 0 508 37t254.5 119.5t75.5 234.5v695h100v-694q0 -213 70 -301q72 -91 263 -91h1v-100z" />
<glyph unicode="&#xe065;" horiz-adv-x="1873" d="M1652 557q-51 -183 -51 -272q0 -44 9.5 -74t37 -57.5t83 -40.5t141.5 -13h1v-100h-1q-172 0 -262.5 62t-105.5 173q-127 -130 -303.5 -181.5t-453.5 -51.5q-111 0 -201.5 11.5t-170 39.5t-133.5 71.5t-84.5 110t-30.5 153.5q0 131 63 285l92 -38q-24 -60 -39.5 -129.5 t-15.5 -117.5q0 -150 124.5 -218t395.5 -68q180 0 309.5 19t217.5 54.5t145 96t87.5 133t48.5 176.5z" />
<glyph unicode="&#xe066;" horiz-adv-x="921" d="M691 378q-106 -31 -210 -31q-67 0 -124 15.5t-103.5 47.5t-72.5 87t-26 129q0 96 38 186.5t110.5 150.5t159.5 60q60 0 109.5 -24.5t83 -63.5t59 -93.5t40 -108.5t23.5 -115t12 -107t3 -90q0 -75 -10.5 -133.5t-38 -102t-58 -74.5t-87.5 -51.5t-108.5 -32.5t-139 -18 t-160.5 -7.5t-191 -1.5q-21 0 -35.5 14.5t-14.5 35.5t14.5 35.5t35.5 14.5q88 0 152 1t129 4t109 7.5t88 12.5t72 19t54.5 27t41 35.5t25.5 45.5t15.5 56.5t4.5 69.5zM691 482q-4 82 -19.5 157t-42 140.5t-70 104.5t-96.5 39q-76 0 -142 -90t-66 -207q0 -97 55 -138t171 -41 q103 0 210 35z" />
<glyph unicode="&#xe067;" horiz-adv-x="1876" d="M1417 68q-193 -68 -526 -68q-93 0 -167 3t-156 13t-143.5 26.5t-119.5 45t-95 67.5t-59 94.5t-22 125.5q0 112 61 295l94 -32q-55 -169 -55 -263q0 -65 29 -113t82 -79t137 -49.5t182.5 -26t231.5 -7.5q238 0 395 35q-174 120 -174 329q0 151 86.5 238.5t223.5 87.5 q135 0 222.5 -88t87.5 -238q0 -215 -180 -331q146 -33 323 -33h1v-100h-1q-278 0 -458 68zM1419 176q213 87 213 288q0 112 -56.5 169t-153.5 57q-98 0 -154 -56.5t-56 -169.5q0 -196 207 -288z" />
<glyph unicode="&#xe068;" horiz-adv-x="908" d="M0 100q183 0 323 32q-179 120 -179 332q0 151 86.5 238.5t223.5 87.5q135 0 222.5 -88t87.5 -238q0 -211 -179 -332q140 -32 322 -32h1v-100h-1q-269 0 -453 67q-184 -67 -454 -67q-21 0 -35.5 14.5t-14.5 35.5t14.5 35.5t35.5 14.5zM454 174q210 92 210 290 q0 112 -56.5 169t-153.5 57q-98 0 -154 -56.5t-56 -169.5q0 -199 210 -290z" />
<glyph unicode="&#xe069;" horiz-adv-x="1415" d="M1186 0h-211q-67 0 -124 15.5t-103.5 47.5t-72.5 87t-26 129q0 96 38 186.5t110.5 150.5t159.5 60q66 0 119.5 -28.5t88 -78t59 -107.5t37.5 -126.5t19 -124t7 -111.5h128v-100h-131q-12 -123 -62.5 -220t-131 -158t-183.5 -93t-223 -32q-118 0 -217.5 31t-176 91.5 t-119.5 158t-43 222.5q0 152 78 365l92 -32q-70 -193 -70 -333q0 -196 120.5 -299.5t335.5 -103.5q218 0 350.5 104t151.5 299zM1185 100q-1 86 -15.5 168t-41.5 152t-71.5 113t-99.5 43q-76 0 -142 -90t-66 -207q0 -97 55 -138t171 -41h210z" />
<glyph unicode="&#xe06a;" horiz-adv-x="548" />
<glyph unicode="&#xe06b;" horiz-adv-x="548" />
<glyph unicode="&#xe06c;" horiz-adv-x="548" />
<glyph unicode="&#xe06d;" horiz-adv-x="548" />
<glyph unicode="&#xfd3e;" horiz-adv-x="598" d="M440 2l-84 -54q-206 323 -206 733q0 409 206 732l84 -54q-190 -297 -190 -678q0 -382 190 -679z" />
<glyph unicode="&#xfd3f;" horiz-adv-x="598" d="M158 1359l84 54q206 -323 206 -733q0 -409 -206 -732l-84 54q190 297 190 678q0 382 -190 679z" />
<glyph horiz-adv-x="999" d="M821 1860l16 -74q-405 -83 -742 -298l-40 64q344 221 766 308z" />
<glyph horiz-adv-x="2136" d="M1080 107l107 107l107 -107l-107 -107z" />
</font>
</defs>
</svg>
