<?xml version="1.0" standalone="no"?>
<!DOCTYPE svg PUBLIC "-//W3C//DTD SVG 1.1//EN" "http://www.w3.org/Graphics/SVG/1.1/DTD/svg11.dtd" >
<svg xmlns="http://www.w3.org/2000/svg" xmlns:xlink="http://www.w3.org/1999/xlink" version="1.1">
<metadata></metadata>
<defs>
<font id="estedadlight" horiz-adv-x="0" >
<font-face units-per-em="2048" ascent="1638" descent="-410" />
<missing-glyph horiz-adv-x="550" />
<glyph unicode="&#x627;&#x653;" horiz-adv-x="560" d="M562 1525l88 -40q-44 -97 -98 -138t-133 -41q-61 0 -169 38q-80 29 -114 29q-42 0 -74 -29t-72 -86l-80 50q98 184 236 184q57 0 127 -26q120 -45 161 -45q75 0 128 104zM355 1123v-1104h-150v1104h150z" />
<glyph unicode="&#x627;&#x654;" horiz-adv-x="500" d="M86 1323l-31 68l102 47q-64 76 -64 163q0 77 54 130t146 53h85v-74h-85q-64 0 -94.5 -31t-30.5 -78q0 -73 61 -131l227 103l31 -68zM325 19h-150v1209h150v-1209z" />
<glyph unicode="&#x648;&#x654;" horiz-adv-x="928" d="M660 21q-83 -23 -172 -23q-55 0 -105 10t-95.5 33.5t-78.5 58t-52.5 86.5t-19.5 116q0 101 40 196.5t118 160.5t175 65q66 0 120.5 -26t90 -67.5t63 -99.5t42.5 -114.5t24.5 -120.5t12 -109.5t2.5 -89.5q0 -234 -168 -382t-494 -233l-44 142q491 125 541 397zM672 177 q-5 78 -20 147.5t-39.5 126.5t-61 90t-81.5 33q-68 0 -125.5 -81t-57.5 -191q0 -84 47 -119t154 -35q92 0 184 29zM291 864l-31 68l102 47q-64 76 -64 163q0 77 54 130t146 53h85v-74h-85q-64 0 -94.5 -31t-30.5 -78q0 -73 61 -131l227 103l31 -68z" />
<glyph unicode="&#x627;&#x655;" horiz-adv-x="500" d="M87 -706l-31 68l102 47q-64 76 -64 163q0 77 54 130t146 53h85v-74h-85q-64 0 -94.5 -31t-30.5 -78q0 -73 61 -131l227 103l31 -68zM325 19h-150v1209h150v-1209z" />
<glyph unicode="&#x64a;&#x654;" horiz-adv-x="1449" d="M263 551l-31 68l102 47q-64 76 -64 163q0 77 54 130t146 53h85v-74h-85q-64 0 -94.5 -31t-30.5 -78q0 -73 61 -131l227 103l31 -68zM1319 708l-41 -144q-87 27 -172 27q-169 0 -255 -76.5t-86 -202.5q0 -40 12 -68t32 -45t57.5 -27t75.5 -14.5t100 -7.5q51 -2 91 -9 t83.5 -25t72.5 -47t47.5 -78t18.5 -115q0 -100 -49.5 -175t-136.5 -119t-194 -65t-233 -21q-100 0 -186 16.5t-161.5 54.5t-129 94.5t-84 140t-30.5 188.5q0 101 19.5 216t44.5 198l144 -46q-58 -196 -58 -368q0 -180 111.5 -262t339.5 -82q214 0 333.5 59t119.5 167 q0 77 -38 100t-153 29q-68 3 -119 10.5t-106.5 27.5t-91 50.5t-59 83t-23.5 122.5q0 203 129.5 324.5t364.5 121.5q106 0 210 -33z" />
<glyph unicode="&#xe015;&#xfe8e;" horiz-adv-x="1033" d="M506 1760l60 45l178 -237l178 237l60 -45l-238 -317zM660 526q-136 -175 -331 -324l-1 -18q88 -37 196 -37q236 0 236 107q0 92 -100 272zM656 771q66 121 97.5 222.5t31.5 234.5h150q0 -174 -45.5 -304t-139.5 -280q148 -243 148 -392q0 -77 -37 -130.5t-98 -78.5 t-116.5 -34.5t-116.5 -9.5q-203 0 -365 101v156q122 90 221 181.5t184 208.5q-155 230 -472 448l86 124q299 -206 472 -447z" />
<glyph unicode="&#xe016;&#xfe8e;" horiz-adv-x="1372" d="M746 1760l60 45l178 -237l178 237l60 -45l-238 -317zM474 380l-150 -6q0 224 -41.5 412t-135.5 404l138 58q99 -231 144 -433t45 -435zM1372 0h-1q-308 0 -405 220q-99 -123 -305.5 -171.5t-560.5 -48.5v150q199 0 335.5 12t232 36.5t148 69t75 103t22.5 144.5v713h150 v-711q0 -203 65 -285q66 -82 243 -82h1v-150z" />
<glyph unicode="&#xfeea;&#x654;" horiz-adv-x="1041" arabic-form="final" d="M614 1688q-62 29 -108 29q-61 0 -100.5 -34.5t-39.5 -74.5q0 -47 26 -67.5t87 -38.5q31 -10 50 -18t45.5 -25t40 -44t13.5 -62q0 -55 -39.5 -96.5t-95 -60.5t-115.5 -19q-97 0 -172 35l32 68q58 -28 140 -28q75 0 125.5 31t50.5 69q0 30 -21 45.5t-76 32.5 q-33 10 -55.5 20.5t-51 30.5t-43.5 52.5t-15 75.5q0 75 62.5 129t151.5 54q56 0 138 -35zM604 688q-159 -25 -254 -91t-95 -147q0 -71 56.5 -108.5t165.5 -37.5q69 0 150 24zM1041 0h-1q-144 0 -231.5 43.5t-139.5 138.5q-101 -28 -192 -28q-68 0 -130.5 16t-118.5 49 t-89.5 91.5t-33.5 135.5q0 68 28.5 127t75.5 101.5t111 76.5t132 55t143 34l-8 133l150 9l33 -554q4 -75 17.5 -123.5t43 -85t80.5 -53t129 -16.5h1v-150z" />
<glyph unicode="&#x627;&#xfedf;&#xfee0;&#xfeea;" horiz-adv-x="2710" arabic-form="isolated" d="M1563 1558q0 70 -29 151l70 25q35 -96 35 -176q0 -71 -37 -115t-93 -44q-76 0 -124 75q-46 -75 -124 -75q-56 0 -93 44t-37 115q0 80 35 176l70 -25q-29 -81 -29 -151q0 -85 62 -85q29 0 53.5 25t24.5 69v74h76v-74q0 -44 24.5 -69t53.5 -25q62 0 62 85zM1347 2174h76 v-334h-76v334zM602 688q-159 -25 -254 -91t-95 -147q0 -71 56.5 -108.5t165.5 -37.5q69 0 150 24zM1039 0h-1q-144 0 -231.5 43.5t-139.5 138.5q-101 -28 -192 -28q-68 0 -130.5 16t-118.5 49t-89.5 91.5t-33.5 135.5q0 68 28.5 127t75.5 101.5t111 76.5t132 55t143 34 l-8 133l150 9l33 -554q4 -75 17.5 -123.5t43 -85t80.5 -53t129 -16.5h1v-150zM1039 150q159 0 217 74q54 70 54 250v754h150v-754q0 -175 51 -245q57 -79 219 -79h1v-150h-1q-248 0 -345 156q-98 -156 -346 -156q-32 0 -53.5 22t-21.5 53t21.5 53t53.5 22zM2152 391 q0 -186 -94 -283q-107 -108 -327 -108q-31 0 -53 22t-22 53t22 53t53 22q90 0 143.5 13.5t82.5 46.5q45 52 45 181v837h150v-837zM2607 19h-150v1209h150v-1209z" />
<glyph unicode="&#x640;&#x64b;" horiz-adv-x="811" arabic-form="medial" d="M0 150h811v-150h-811q-32 0 -53.5 22t-21.5 53t21.5 53t53.5 22zM580 1639l31 -68l-401 -182l-31 68zM647 1464l31 -68l-401 -182l-31 68z" />
<glyph unicode="&#x640;&#x64e;" horiz-adv-x="811" arabic-form="medial" d="M0 150h811v-150h-811q-32 0 -53.5 22t-21.5 53t21.5 53t53.5 22zM613 1464l31 -68l-401 -182l-31 68z" />
<glyph unicode="&#x640;&#x64f;" horiz-adv-x="811" arabic-form="medial" d="M0 150h811v-150h-811q-32 0 -53.5 22t-21.5 53t21.5 53t53.5 22zM462 1366q-141 58 -141 162q0 67 50 114t111 47q66 0 102.5 -49t36.5 -103q0 -70 -34.5 -133t-90.5 -107.5t-116 -76t-122 -48.5l-22 72q138 40 226 122zM512 1427q34 53 34 110q0 29 -18 52.5t-46 23.5 q-30 0 -58 -26.5t-28 -57.5q0 -30 30.5 -56.5t85.5 -45.5z" />
<glyph unicode="&#x640;&#x650;" horiz-adv-x="811" arabic-form="medial" d="M0 150h811v-150h-811q-32 0 -53.5 22t-21.5 53t21.5 53t53.5 22zM613 -423l31 -68l-401 -182l-31 68z" />
<glyph unicode="&#x640;&#x651;" horiz-adv-x="811" arabic-form="medial" d="M0 150h811v-150h-811q-32 0 -53.5 22t-21.5 53t21.5 53t53.5 22zM584 1450q0 70 -29 151l70 25q35 -96 35 -176q0 -71 -37 -115t-93 -44q-76 0 -124 75q-46 -75 -124 -75q-56 0 -93 44t-37 115q0 80 35 176l70 -25q-29 -81 -29 -151q0 -85 62 -85q29 0 53.5 25t24.5 69 v74h76v-74q0 -44 24.5 -69t53.5 -25q62 0 62 85z" />
<glyph unicode="&#x640;&#x652;" horiz-adv-x="811" arabic-form="medial" d="M0 150h811v-150h-811q-32 0 -53.5 22t-21.5 53t21.5 53t53.5 22zM406 1622q-49 0 -82.5 -33.5t-33.5 -82.5t33.5 -82.5t82.5 -33.5q48 0 82 34t34 82t-33.5 82t-82.5 34zM406 1697q79 0 135.5 -56t56.5 -135t-56 -135t-136 -56t-136 56t-56 135t56 135t136 56z" />
<glyph unicode="&#xfedf;&#xfe82;" horiz-adv-x="1033" arabic-form="isolated" d="M-6 1419q25 51 67.5 87t99.5 36q55 0 108 -41q34 -26 65 -26q29 0 55 23.5t43 62.5l70 -30q-23 -55 -66 -93t-102 -38q-58 0 -111 41q-34 26 -62 26q-29 0 -55.5 -22.5t-43.5 -58.5zM660 526q-136 -175 -331 -324l-1 -18q88 -37 196 -37q236 0 236 107q0 92 -100 272z M656 771q66 121 97.5 222.5t31.5 234.5h150q0 -174 -45.5 -304t-139.5 -280q148 -243 148 -392q0 -77 -37 -130.5t-98 -78.5t-116.5 -34.5t-116.5 -9.5q-203 0 -365 101v156q122 90 221 181.5t184 208.5q-155 230 -472 448l86 124q299 -206 472 -447z" />
<glyph unicode="&#xfee0;&#xfe82;" horiz-adv-x="1372" arabic-form="final" d="M-6 1419q25 51 67.5 87t99.5 36q55 0 108 -41q34 -26 65 -26q29 0 55 23.5t43 62.5l70 -30q-23 -55 -66 -93t-102 -38q-58 0 -111 41q-34 26 -62 26q-29 0 -55.5 -22.5t-43.5 -58.5zM474 380l-150 -6q0 224 -41.5 412t-135.5 404l138 58q99 -231 144 -433t45 -435z M1372 0h-1q-308 0 -405 220q-99 -123 -305.5 -171.5t-560.5 -48.5v150q199 0 335.5 12t232 36.5t148 69t75 103t22.5 144.5v713h150v-711q0 -203 65 -285q66 -82 243 -82h1v-150z" />
<glyph unicode="&#xfedf;&#xfe84;" horiz-adv-x="1033" arabic-form="isolated" d="M136 1313l-31 68l102 47q-64 76 -64 163q0 77 54 130t146 53h85v-74h-85q-64 0 -94.5 -31t-30.5 -78q0 -73 61 -131l227 103l31 -68zM660 526q-136 -175 -331 -324l-1 -18q88 -37 196 -37q236 0 236 107q0 92 -100 272zM656 771q66 121 97.5 222.5t31.5 234.5h150 q0 -174 -45.5 -304t-139.5 -280q148 -243 148 -392q0 -77 -37 -130.5t-98 -78.5t-116.5 -34.5t-116.5 -9.5q-203 0 -365 101v156q122 90 221 181.5t184 208.5q-155 230 -472 448l86 124q299 -206 472 -447z" />
<glyph unicode="&#xfee0;&#xfe84;" horiz-adv-x="1372" arabic-form="final" d="M136 1313l-31 68l102 47q-64 76 -64 163q0 77 54 130t146 53h85v-74h-85q-64 0 -94.5 -31t-30.5 -78q0 -73 61 -131l227 103l31 -68zM474 380l-150 -6q0 224 -41.5 412t-135.5 404l138 58q99 -231 144 -433t45 -435zM1372 0h-1q-308 0 -405 220q-99 -123 -305.5 -171.5 t-560.5 -48.5v150q199 0 335.5 12t232 36.5t148 69t75 103t22.5 144.5v713h150v-711q0 -203 65 -285q66 -82 243 -82h1v-150z" />
<glyph unicode="&#xfedf;&#xfe88;" horiz-adv-x="1033" arabic-form="isolated" d="M134 -667l-31 68l102 47q-64 76 -64 163q0 77 54 130t146 53h85v-74h-85q-64 0 -94.5 -31t-30.5 -78q0 -73 61 -131l227 103l31 -68zM660 526q-136 -175 -331 -324l-1 -18q88 -37 196 -37q236 0 236 107q0 92 -100 272zM656 771q66 121 97.5 222.5t31.5 234.5h150 q0 -174 -45.5 -304t-139.5 -280q148 -243 148 -392q0 -77 -37 -130.5t-98 -78.5t-116.5 -34.5t-116.5 -9.5q-203 0 -365 101v156q122 90 221 181.5t184 208.5q-155 230 -472 448l86 124q299 -206 472 -447z" />
<glyph unicode="&#xfee0;&#xfe88;" horiz-adv-x="1372" arabic-form="final" d="M134 -667l-31 68l102 47q-64 76 -64 163q0 77 54 130t146 53h85v-74h-85q-64 0 -94.5 -31t-30.5 -78q0 -73 61 -131l227 103l31 -68zM474 380l-150 -6q0 224 -41.5 412t-135.5 404l138 58q99 -231 144 -433t45 -435zM1372 0h-1q-308 0 -405 220q-99 -123 -305.5 -171.5 t-560.5 -48.5v150q199 0 335.5 12t232 36.5t148 69t75 103t22.5 144.5v713h150v-711q0 -203 65 -285q66 -82 243 -82h1v-150z" />
<glyph unicode="&#xfedf;&#xfe8e;" horiz-adv-x="1033" arabic-form="isolated" d="M660 526q-136 -175 -331 -324l-1 -18q88 -37 196 -37q236 0 236 107q0 92 -100 272zM656 771q66 121 97.5 222.5t31.5 234.5h150q0 -174 -45.5 -304t-139.5 -280q148 -243 148 -392q0 -77 -37 -130.5t-98 -78.5t-116.5 -34.5t-116.5 -9.5q-203 0 -365 101v156 q122 90 221 181.5t184 208.5q-155 230 -472 448l86 124q299 -206 472 -447z" />
<glyph unicode="&#xfee0;&#xfe8e;" horiz-adv-x="1372" arabic-form="final" d="M474 380l-150 -6q0 224 -41.5 412t-135.5 404l138 58q99 -231 144 -433t45 -435zM1372 0h-1q-308 0 -405 220q-99 -123 -305.5 -171.5t-560.5 -48.5v150q199 0 335.5 12t232 36.5t148 69t75 103t22.5 144.5v713h150v-711q0 -203 65 -285q66 -82 243 -82h1v-150z" />
<glyph unicode="&#x64e;&#x654;" d="M-185 1501l-31 68l102 47q-64 76 -64 163q0 77 54 130t146 53h85v-74h-85q-64 0 -94.5 -31t-30.5 -78q0 -73 61 -131l227 103l31 -68zM185 2271l31 -68l-401 -182l-31 68z" />
<glyph unicode="&#x64f;&#x654;" d="M-185 1501l-31 68l102 47q-64 76 -64 163q0 77 54 130t146 53h85v-74h-85q-64 0 -94.5 -31t-30.5 -78q0 -73 61 -131l227 103l31 -68zM33 2213q-141 58 -141 162q0 67 50 114t111 47q66 0 102.5 -49t36.5 -103q0 -70 -34.5 -133t-90.5 -107.5t-116 -76t-122 -48.5l-22 72 q138 40 226 122zM83 2274q34 53 34 110q0 29 -18 52.5t-46 23.5q-30 0 -58 -26.5t-28 -57.5q0 -30 30.5 -56.5t85.5 -45.5z" />
<glyph unicode="&#x64e;&#x651;" d="M178 1692q0 70 -29 151l70 25q35 -96 35 -176q0 -71 -37 -115t-93 -44q-76 0 -124 75q-46 -75 -124 -75q-56 0 -93 44t-37 115q0 80 35 176l70 -25q-29 -81 -29 -151q0 -85 62 -85q29 0 53.5 25t24.5 69v74h76v-74q0 -44 24.5 -69t53.5 -25q62 0 62 85zM185 2225l31 -68 l-401 -182l-31 68z" />
<glyph unicode="&#x64b;&#x651;" d="M185 2430l31 -68l-401 -182l-31 68zM185 2216l31 -68l-401 -182l-31 68zM178 1692q0 70 -29 151l70 25q35 -96 35 -176q0 -71 -37 -115t-93 -44q-76 0 -124 75q-46 -75 -124 -75q-56 0 -93 44t-37 115q0 80 35 176l70 -25q-29 -81 -29 -151q0 -85 62 -85q29 0 53.5 25 t24.5 69v74h76v-74q0 -44 24.5 -69t53.5 -25q62 0 62 85z" />
<glyph unicode="&#x650;&#x651;" d="M185 1750l31 -68l-401 -182l-31 68zM178 2007q0 70 -29 151l70 25q35 -96 35 -176q0 -71 -37 -115t-93 -44q-76 0 -124 75q-46 -75 -124 -75q-56 0 -93 44t-37 115q0 80 35 176l70 -25q-29 -81 -29 -151q0 -85 62 -85q29 0 53.5 25t24.5 69v74h76v-74q0 -44 24.5 -69 t53.5 -25q62 0 62 85z" />
<glyph unicode="&#x64d;&#x651;" d="M185 1964l31 -68l-401 -182l-31 68zM185 1750l31 -68l-401 -182l-31 68zM178 2167q0 70 -29 151l70 25q35 -96 35 -176q0 -71 -37 -115t-93 -44q-76 0 -124 75q-46 -75 -124 -75q-56 0 -93 44t-37 115q0 80 35 176l70 -25q-29 -81 -29 -151q0 -85 62 -85q29 0 53.5 25 t24.5 69v74h76v-74q0 -44 24.5 -69t53.5 -25q62 0 62 85z" />
<glyph unicode="&#x64f;&#x651;" d="M178 1692q0 70 -29 151l70 25q35 -96 35 -176q0 -71 -37 -115t-93 -44q-76 0 -124 75q-46 -75 -124 -75q-56 0 -93 44t-37 115q0 80 35 176l70 -25q-29 -81 -29 -151q0 -85 62 -85q29 0 53.5 25t24.5 69v74h76v-74q0 -44 24.5 -69t53.5 -25q62 0 62 85zM51 2163 q-141 58 -141 162q0 67 50 114t111 47q66 0 102.5 -49t36.5 -103q0 -70 -34.5 -133t-90.5 -107.5t-116 -76t-122 -48.5l-22 72q138 40 226 122zM101 2224q34 53 34 110q0 29 -18 52.5t-46 23.5q-30 0 -58 -26.5t-28 -57.5q0 -30 30.5 -56.5t85.5 -45.5z" />
<glyph unicode="&#x64c;&#x651;" d="M-183 2354q0 -82 48 -153l-60 -39q-60 91 -60 193q0 142 100.5 242.5t243.5 100.5v-70q-112 0 -192 -80.5t-80 -193.5zM79 2187q-141 58 -141 162q0 67 50 114t111 47q66 0 102.5 -49t36.5 -103q0 -70 -34.5 -133t-90.5 -107.5t-116 -76t-122 -48.5l-22 72 q138 40 226 122zM129 2248q34 53 34 110q0 29 -18 52.5t-46 23.5q-30 0 -58 -26.5t-28 -57.5q0 -30 30.5 -56.5t85.5 -45.5zM178 1692q0 70 -29 151l70 25q35 -96 35 -176q0 -71 -37 -115t-93 -44q-76 0 -124 75q-46 -75 -124 -75q-56 0 -93 44t-37 115q0 80 35 176l70 -25 q-29 -81 -29 -151q0 -85 62 -85q29 0 53.5 25t24.5 69v74h76v-74q0 -44 24.5 -69t53.5 -25q62 0 62 85z" />
<glyph unicode="&#x66e;" horiz-adv-x="1873" d="M1679 588q-51 -184 -51 -270q0 -42 9.5 -70.5t35 -52t75 -34.5t124.5 -11h1v-150h-1q-164 0 -258.5 58t-120.5 166q-128 -125 -301 -173.5t-442 -48.5q-117 0 -214.5 14.5t-179 46.5t-137 81t-86.5 120.5t-31 161.5q0 136 66 300l138 -55q-53 -139 -53 -244 q0 -145 121 -210t388 -65q171 0 293.5 18t205.5 52t137.5 94t84.5 131.5t51 176.5z" />
<glyph unicode="&#x66f;" horiz-adv-x="921" d="M668 390q-102 -28 -196 -28q-72 0 -131.5 16.5t-108 51t-75.5 93.5t-27 137q0 101 40 196.5t118 160.5t175 65q66 0 120.5 -26t90 -67.5t63 -99.5t42.5 -114.5t24.5 -120.5t12 -109.5t2.5 -89.5q0 -77 -11 -137t-37.5 -106.5t-60 -80t-88 -57t-112.5 -38t-142.5 -22.5 t-168 -11t-198.5 -3q-32 0 -53.5 22t-21.5 53t21.5 53t53.5 22q106 0 180.5 1.5t144.5 6t116 12t86.5 21t64 30.5t41.5 42t25.5 55.5t9.5 71.5zM664 535q-7 107 -30 193.5t-67.5 145t-103.5 58.5q-68 0 -125.5 -81t-57.5 -191q0 -84 47 -119t154 -35q90 0 183 29z" />
<glyph unicode="&#x66f;" horiz-adv-x="908" d="M0 150q152 0 271 25q-152 120 -152 313q0 161 94 256t241 95q145 0 240 -95.5t95 -255.5q0 -192 -152 -313q119 -25 270 -25h1v-150h-1q-266 0 -453 66q-188 -66 -454 -66q-32 0 -53.5 22t-21.5 53t21.5 53t53.5 22zM454 226q185 84 185 262q0 98 -49.5 149.5 t-135.5 51.5q-88 0 -136.5 -51t-48.5 -150q0 -178 185 -262z" />
<glyph unicode="&#x66f;" horiz-adv-x="1415" d="M1157 0h-182q-70 0 -131 17t-111.5 51.5t-79.5 94.5t-29 140q0 101 40 196.5t118 160.5t175 65q69 0 125.5 -28t93.5 -77t63.5 -106t41 -125.5t21.5 -125t9 -113.5h104v-150h-109q-30 -243 -200 -373.5t-422 -130.5q-121 0 -224.5 32t-184 94.5t-126.5 164t-46 231.5 q0 180 108 426l133 -61q-43 -98 -67 -196.5t-24 -168.5q0 -180 111.5 -276t319.5 -96q203 0 327 92t146 262zM1159 150q-4 111 -26.5 205t-68.5 157.5t-107 63.5q-68 0 -125.5 -81t-57.5 -191q0 -84 47 -119t154 -35h184z" />
<glyph unicode="&#x6a1;" horiz-adv-x="1876" d="M1417 67q-198 -67 -526 -67q-92 0 -166.5 3.5t-158.5 14t-148 28t-125.5 48t-101 72.5t-63.5 102.5t-24 135.5q0 126 66 315l142 -47q-56 -168 -56 -260q0 -148 152 -205t483 -57q207 0 344 28q-148 120 -148 310q0 161 94 256t241 95q145 0 240 -95.5t95 -255.5 q0 -196 -153 -312q125 -26 271 -26h1v-150h-1q-275 0 -458 67zM1419 228q94 41 141 103t47 157q0 98 -49.5 149.5t-135.5 51.5q-88 0 -136.5 -51t-48.5 -150q0 -176 182 -260z" />
<glyph unicode="&#x6ca;" horiz-adv-x="928" d="M187 1061l123 123l123 -123l-123 -123zM518 1061l123 123l123 -123l-123 -123zM815 0q-35 -192 -198.5 -317.5t-453.5 -200.5l-44 142q474 120 537 376h-168q-70 0 -131 17t-111.5 51.5t-79.5 94.5t-29 140q0 101 40 196.5t118 160.5t175 65q61 0 112 -22.5t86 -59 t62.5 -87.5t44 -102t27.5 -110t15.5 -104t6.5 -90h104v-150h-113zM673 150q-4 80 -18 153t-37.5 135.5t-62 100t-85.5 37.5q-68 0 -125.5 -81t-57.5 -191q0 -84 47 -119t154 -35h185z" />
<glyph unicode="&#x67e;" horiz-adv-x="1873" arabic-form="final" d="M695 -609l123 123l123 -123l-123 -123zM860 -325l123 123l123 -123l-123 -123zM529 -325l123 123l123 -123l-123 -123zM1679 588q-51 -184 -51 -270q0 -42 9.5 -70.5t35 -52t75 -34.5t124.5 -11h1v-150h-1q-164 0 -258.5 58t-120.5 166q-128 -125 -301 -173.5t-442 -48.5 q-117 0 -214.5 14.5t-179 46.5t-137 81t-86.5 120.5t-31 161.5q0 136 66 300l138 -55q-53 -139 -53 -244q0 -145 121 -210t388 -65q171 0 293.5 18t205.5 52t137.5 94t84.5 131.5t51 176.5z" />
<glyph unicode="&#x67e;" horiz-adv-x="547" arabic-form="initial" d="M-17 -609l123 123l123 -123l-123 -123zM148 -325l123 123l123 -123l-123 -123zM-183 -325l123 123l123 -123l-123 -123zM370 776q69 -207 69 -369q0 -92 -23.5 -164t-74 -127.5t-137 -85.5t-204.5 -30q-32 0 -53.5 22t-21.5 53t21.5 53t53.5 22q295 0 295 257 q0 116 -66 321z" />
<glyph unicode="&#x67e;" horiz-adv-x="767" arabic-form="medial" d="M-47 -609l123 123l123 -123l-123 -123zM118 -325l123 123l123 -123l-123 -123zM-213 -325l123 123l123 -123l-123 -123zM0 150q191 0 256 93q53 76 53 259v104h150v-104q0 -177 47 -250q32 -53 94.5 -77.5t165.5 -24.5h1v-150h-1q-277 0 -382 181q-105 -181 -384 -181 q-32 0 -53.5 22t-21.5 53t21.5 53t53.5 22z" />
<glyph unicode="&#x6a4;" horiz-adv-x="1875" arabic-form="final" d="M1298 1522l123 123l123 -123l-123 -123zM1464 1238l123 123l123 -123l-123 -123zM1133 1238l123 123l123 -123l-123 -123zM1416 67q-198 -67 -526 -67q-92 0 -166.5 3.5t-158.5 14t-148 28t-125.5 48t-101 72.5t-63.5 102.5t-24 135.5q0 126 66 315l142 -47 q-56 -168 -56 -260q0 -148 152 -205t483 -57q207 0 344 28q-148 120 -148 310q0 161 94 256t241 95q145 0 240 -95.5t95 -255.5q0 -196 -153 -312q125 -26 271 -26h1v-150h-1q-275 0 -458 67zM1418 228q94 41 141 103t47 157q0 98 -49.5 149.5t-135.5 51.5q-88 0 -136.5 -51 t-48.5 -150q0 -176 182 -260z" />
<glyph unicode="&#x6a4;" horiz-adv-x="921" arabic-form="initial" d="M339 1709l123 123l123 -123l-123 -123zM505 1425l123 123l123 -123l-123 -123zM174 1425l123 123l123 -123l-123 -123zM668 390q-102 -28 -196 -28q-72 0 -131.5 16.5t-108 51t-75.5 93.5t-27 137q0 101 40 196.5t118 160.5t175 65q66 0 120.5 -26t90 -67.5t63 -99.5 t42.5 -114.5t24.5 -120.5t12 -109.5t2.5 -89.5q0 -77 -11 -137t-37.5 -106.5t-60 -80t-88 -57t-112.5 -38t-142.5 -22.5t-168 -11t-198.5 -3q-32 0 -53.5 22t-21.5 53t21.5 53t53.5 22q106 0 180.5 1.5t144.5 6t116 12t86.5 21t64 30.5t41.5 42t25.5 55.5t9.5 71.5zM664 535 q-7 107 -30 193.5t-67.5 145t-103.5 58.5q-68 0 -125.5 -81t-57.5 -191q0 -84 47 -119t154 -35q90 0 183 29z" />
<glyph unicode="&#x6a4;" horiz-adv-x="908" arabic-form="medial" d="M330 1476l123 123l123 -123l-123 -123zM496 1192l123 123l123 -123l-123 -123zM165 1192l123 123l123 -123l-123 -123zM0 150q152 0 271 25q-152 120 -152 313q0 161 94 256t241 95q145 0 240 -95.5t95 -255.5q0 -192 -152 -313q119 -25 270 -25h1v-150h-1 q-266 0 -453 66q-188 -66 -454 -66q-32 0 -53.5 22t-21.5 53t21.5 53t53.5 22zM454 226q185 84 185 262q0 98 -49.5 149.5t-135.5 51.5q-88 0 -136.5 -51t-48.5 -150q0 -178 185 -262z" />
<glyph unicode="&#x686;" horiz-adv-x="1398" arabic-form="final" d="M797.748 -92.5566l116.844 116.844l116.844 -116.844l-116.844 -116.844zM483.748 -92.5566l116.844 116.844l116.844 -116.844l-116.844 -116.844zM640.748 -318.557l116.844 116.844l116.844 -116.844l-116.844 -116.844zM1226 -471l56 -139q-260 -103 -524 -103 q-104 0 -196.5 15.5t-178 51.5t-147 90.5t-98.5 139t-37 189.5q0 91 27.5 171t73 143.5t117 121t146.5 100.5t175 84t189 71t201 62l-425 160q-51 16 -98 16q-92 0 -140.5 -66.5t-65.5 -210.5l-150 17q10 88 34.5 160t66 129.5t106.5 89t149 31.5q79 0 147 -25l592 -225 v-167q-98 -26 -209 -59q27 -40 50 -69t56.5 -60.5t68.5 -51.5t82.5 -32.5t102.5 -12.5h1v-150h-1q-75 0 -142 18t-118.5 47t-99 73t-82 89t-68.5 101q-149 -51 -259 -104t-198 -120.5t-133.5 -150.5t-45.5 -180q0 -116 68.5 -193t180.5 -109.5t264 -32.5q228 0 462 91z" />
<glyph unicode="&#x686;" horiz-adv-x="1316" arabic-form="initial" d="M491 -559l123 123l123 -123l-123 -123zM656 -275l123 123l123 -123l-123 -123zM325 -275l123 123l123 -123l-123 -123zM101 442q67 409 335 409q89 0 195 -50l551 -247v-158q-201 -138 -372 -221t-373 -129t-437 -46q-31 0 -53 22t-22 53t22 53t53 22q305 0 539.5 75.5 t464.5 241.5l-439 199q-77 35 -129 35q-141 0 -187 -283z" />
<glyph unicode="&#x686;" horiz-adv-x="1316" arabic-form="medial" d="M491 -559l123 123l123 -123l-123 -123zM656 -275l123 123l123 -123l-123 -123zM325 -275l123 123l123 -123l-123 -123zM101 442q67 409 335 409q89 0 195 -50l551 -247v-158q-126 -85 -164 -108q58 -67 125.5 -102.5t171.5 -35.5h1v-150h-1q-260 0 -430 214 q-205 -110 -416 -162t-469 -52q-31 0 -53 22t-22 53t22 53t53 22q305 0 539.5 75.5t464.5 241.5l-439 199q-77 35 -129 35q-141 0 -187 -283z" />
<glyph unicode="&#x698;" horiz-adv-x="960" arabic-form="final" d="M440 1220l123 123l123 -123l-123 -123zM606 936l123 123l123 -123l-123 -123zM275 936l123 123l123 -123l-123 -123zM482 554l139 56l88 -290q31 -98 83.5 -134t166.5 -36h1v-150h-1q-142 0 -235 63q-14 -193 -164 -344t-396 -241l-51 142q468 171 468 510q0 155 -99 424 z" />
<glyph unicode="&#x6a9;" horiz-adv-x="1864" arabic-form="final" d="M1864 150v-150h-1q-160 0 -258 58.5t-167 171.5q-22 -59 -72 -102t-110.5 -67t-144.5 -38.5t-157.5 -18.5t-166.5 -4q-129 0 -227 10.5t-186.5 38.5t-145 74.5t-89.5 120.5t-33 174q0 130 48 288l145 -42q-43 -142 -43 -242q0 -159 124.5 -215.5t417.5 -56.5 q126 0 217 9.5t161 32t105 62.5t35 98q0 100 -127 237.5t-320 276.5v166q176 115 393.5 204t431.5 135l32 -147q-178 -39 -361.5 -109.5t-332.5 -158.5v-26q179 -128 282 -253t178 -269q26 -49 43 -78t42 -62.5t50 -52t59.5 -35t78 -23.5t98.5 -7h1z" />
<glyph unicode="&#x6a9;" horiz-adv-x="999" arabic-form="initial" d="M0 150h121q190 0 268.5 48.5t78.5 153.5q0 100 -127 237.5t-320 276.5v166q176 115 393.5 204t431.5 135l32 -147q-178 -39 -361.5 -109.5t-332.5 -158.5v-26q92 -69 164 -133.5t136.5 -140t100 -155.5t35.5 -157t-27.5 -137t-73.5 -98.5t-111 -63.5t-135 -35t-150 -10 h-123q-32 0 -53.5 22t-21.5 53t21.5 53t53.5 22z" />
<glyph unicode="&#x6a9;" horiz-adv-x="1020" arabic-form="medial" d="M0 150h121q190 0 268.5 48.5t78.5 153.5q0 100 -127 237.5t-320 276.5v166q176 115 393.5 204t431.5 135l32 -147q-178 -39 -361.5 -109.5t-332.5 -158.5v-26q179 -128 282 -253t178 -269q30 -57 51.5 -91.5t53 -70.5t67 -54.5t86.5 -30t117 -11.5h1v-150h-1 q-160 0 -261.5 58.5t-171.5 170.5q-78 -229 -463 -229h-123q-32 0 -53.5 22t-21.5 53t21.5 53t53.5 22z" />
<glyph unicode="&#x6af;" horiz-adv-x="1864" arabic-form="final" d="M1864 150v-150h-1q-160 0 -258 58.5t-167 171.5q-22 -59 -72 -102t-110.5 -67t-144.5 -38.5t-157.5 -18.5t-166.5 -4q-129 0 -227 10.5t-186.5 38.5t-145 74.5t-89.5 120.5t-33 174q0 130 48 288l145 -42q-43 -142 -43 -242q0 -159 124.5 -215.5t417.5 -56.5 q126 0 217 9.5t161 32t105 62.5t35 98q0 100 -127 237.5t-320 276.5v166q176 115 393.5 204t431.5 135l32 -147q-178 -39 -361.5 -109.5t-332.5 -158.5v-26q179 -128 282 -253t178 -269q26 -49 43 -78t42 -62.5t50 -52t59.5 -35t78 -23.5t98.5 -7h1zM1613 1601l20 -92 q-403 -83 -739 -297l-50 80q344 221 769 309z" />
<glyph unicode="&#x6af;" horiz-adv-x="999" arabic-form="initial" d="M757 1601l20 -92q-403 -83 -739 -297l-50 80q344 221 769 309zM0 150h121q190 0 268.5 48.5t78.5 153.5q0 100 -127 237.5t-320 276.5v166q176 115 393.5 204t431.5 135l32 -147q-178 -39 -361.5 -109.5t-332.5 -158.5v-26q92 -69 164 -133.5t136.5 -140t100 -155.5 t35.5 -157t-27.5 -137t-73.5 -98.5t-111 -63.5t-135 -35t-150 -10h-123q-32 0 -53.5 22t-21.5 53t21.5 53t53.5 22z" />
<glyph unicode="&#x6af;" horiz-adv-x="1020" arabic-form="medial" d="M757 1601l20 -92q-403 -83 -739 -297l-50 80q344 221 769 309zM0 150h121q190 0 268.5 48.5t78.5 153.5q0 100 -127 237.5t-320 276.5v166q176 115 393.5 204t431.5 135l32 -147q-178 -39 -361.5 -109.5t-332.5 -158.5v-26q179 -128 282 -253t178 -269q30 -57 51.5 -91.5 t53 -70.5t67 -54.5t86.5 -30t117 -11.5h1v-150h-1q-160 0 -261.5 58.5t-171.5 170.5q-78 -229 -463 -229h-123q-32 0 -53.5 22t-21.5 53t21.5 53t53.5 22z" />
<glyph unicode="&#x6ba;" horiz-adv-x="1660" arabic-form="final" d="M258 572l129 -76q-133 -258 -133 -468q0 -184 127 -283t343 -99q150 0 269 48t191.5 145t72.5 229q0 179 -155 493l133 61l132 -306q39 -92 99 -129t193 -37h1v-150h-1q-155 0 -253 56q-5 -113 -44 -206.5t-102.5 -158t-149 -109t-181 -65.5t-199.5 -21q-127 0 -239.5 35 t-199 101t-137 168.5t-50.5 229.5q0 246 154 542z" />
<glyph unicode="&#x6c6;" horiz-adv-x="928" arabic-form="final" d="M815 0q-35 -192 -198.5 -317.5t-453.5 -200.5l-44 142q474 120 537 376h-168q-70 0 -131 17t-111.5 51.5t-79.5 94.5t-29 140q0 101 40 196.5t118 160.5t175 65q61 0 112 -22.5t86 -59t62.5 -87.5t44 -102t27.5 -110t15.5 -104t6.5 -90h104v-150h-113zM673 150 q-4 80 -18 153t-37.5 135.5t-62 100t-85.5 37.5q-68 0 -125.5 -81t-57.5 -191q0 -84 47 -119t154 -35h185zM232 1320l60 45l178 -237l178 237l60 -45l-238 -317z" />
<glyph unicode="&#x649;" horiz-adv-x="547" arabic-form="initial" d="M370 776q69 -207 69 -369q0 -92 -23.5 -164t-74 -127.5t-137 -85.5t-204.5 -30q-32 0 -53.5 22t-21.5 53t21.5 53t53.5 22q295 0 295 257q0 116 -66 321z" />
<glyph unicode="&#x649;" horiz-adv-x="767" arabic-form="medial" d="M0 150q191 0 256 93q53 76 53 259v104h150v-104q0 -177 47 -250q32 -53 94.5 -77.5t165.5 -24.5h1v-150h-1q-277 0 -382 181q-105 -181 -384 -181q-32 0 -53.5 22t-21.5 53t21.5 53t53.5 22z" />
<glyph unicode="&#x6cc;" horiz-adv-x="1453" arabic-form="final" d="M1453 150v-150h-201q47 -29 71 -78t24 -105q0 -178 -164.5 -289t-444.5 -111q-291 0 -457 139.5t-166 408.5q0 158 39 298t111 297l135 -70q-66 -149 -101.5 -273t-35.5 -263q0 -199 117 -293t354 -94q105 0 188.5 16.5t133.5 42t83 58t45.5 61.5t12.5 56q0 199 -480 199 v150h736z" />
<glyph unicode="&#x6cc;" horiz-adv-x="547" arabic-form="initial" d="M150 -326l123 123l123 -123l-123 -123zM-181 -326l123 123l123 -123l-123 -123zM370 776q69 -207 69 -369q0 -92 -23.5 -164t-74 -127.5t-137 -85.5t-204.5 -30q-32 0 -53.5 22t-21.5 53t21.5 53t53.5 22q295 0 295 257q0 116 -66 321z" />
<glyph unicode="&#x6cc;" horiz-adv-x="767" arabic-form="medial" d="M119 -326l123 123l123 -123l-123 -123zM-212 -326l123 123l123 -123l-123 -123zM0 150q191 0 256 93q53 76 53 259v104h150v-104q0 -177 47 -250q32 -53 94.5 -77.5t165.5 -24.5h1v-150h-1q-277 0 -382 181q-105 -181 -384 -181q-32 0 -53.5 22t-21.5 53t21.5 53t53.5 22 z" />
<glyph unicode="&#xfdfc;" horiz-adv-x="3141" arabic-form="isolated" d="M982 1228h150v-1183q0 -268 -139 -408.5t-391 -140.5q-227 0 -363 123t-136 335q0 180 90 400l135 -58q-76 -197 -76 -348q0 -146 93 -224t273 -78q186 0 275 94.5t89 304.5v1183zM1455 1228h150v-837q0 -129 45 -181q53 -60 225 -60h1v-150h-1q-219 0 -326 108 q-94 97 -94 283v837zM2026 -326l123 123l123 -123l-123 -123zM1695 -326l123 123l123 -123l-123 -123zM2246 776q69 -207 69 -369q0 -92 -23.5 -164t-74 -127.5t-137 -85.5t-204.5 -30q-32 0 -53.5 22t-21.5 53t21.5 53t53.5 22q295 0 295 257q0 116 -66 321zM2826 554 l139 56q110 -274 110 -480q0 -221 -150.5 -388.5t-416.5 -263.5l-51 142q468 171 468 510q0 176 -99 424z" />
<glyph unicode="&#x622;" horiz-adv-x="596" arabic-form="final" d="M-6 1436q25 51 67.5 87t99.5 36q55 0 108 -41q34 -26 65 -26q29 0 55 23.5t43 62.5l70 -30q-23 -55 -66 -93t-102 -38q-58 0 -111 41q-34 26 -62 26q-29 0 -55.5 -22.5t-43.5 -58.5zM175 1228h150v-837q0 -129 45 -181q53 -60 225 -60h1v-150h-1q-219 0 -326 108 q-94 97 -94 283v837z" />
<glyph unicode="&#x623;" horiz-adv-x="596" arabic-form="final" d="M91 1323l-31 68l102 47q-64 76 -64 163q0 77 54 130t146 53h85v-74h-85q-64 0 -94.5 -31t-30.5 -78q0 -73 61 -131l227 103l31 -68zM175 1228h150v-837q0 -129 45 -181q53 -60 225 -60h1v-150h-1q-219 0 -326 108q-94 97 -94 283v837z" />
<glyph unicode="&#x624;" horiz-adv-x="928" arabic-form="final" d="M291 864l-31 68l102 47q-64 76 -64 163q0 77 54 130t146 53h85v-74h-85q-64 0 -94.5 -31t-30.5 -78q0 -73 61 -131l227 103l31 -68zM815 0q-35 -192 -198.5 -317.5t-453.5 -200.5l-44 142q474 120 537 376h-168q-70 0 -131 17t-111.5 51.5t-79.5 94.5t-29 140 q0 101 40 196.5t118 160.5t175 65q61 0 112 -22.5t86 -59t62.5 -87.5t44 -102t27.5 -110t15.5 -104t6.5 -90h104v-150h-113zM673 150q-4 80 -18 153t-37.5 135.5t-62 100t-85.5 37.5q-68 0 -125.5 -81t-57.5 -191q0 -84 47 -119t154 -35h185z" />
<glyph unicode="&#x625;" horiz-adv-x="596" arabic-form="final" d="M215 -706l-31 68l102 47q-64 76 -64 163q0 77 54 130t146 53h85v-74h-85q-64 0 -94.5 -31t-30.5 -78q0 -73 61 -131l227 103l31 -68zM175 1228h150v-837q0 -129 45 -181q53 -60 225 -60h1v-150h-1q-219 0 -326 108q-94 97 -94 283v837z" />
<glyph unicode="&#x626;" horiz-adv-x="1453" arabic-form="final" d="M665 351l-31 68l102 47q-64 76 -64 163q0 77 54 130t146 53h85v-74h-85q-64 0 -94.5 -31t-30.5 -78q0 -73 61 -131l227 103l31 -68zM1453 150v-150h-201q47 -29 71 -78t24 -105q0 -178 -164.5 -289t-444.5 -111q-291 0 -457 139.5t-166 408.5q0 158 39 298t111 297 l135 -70q-66 -149 -101.5 -273t-35.5 -263q0 -199 117 -293t354 -94q105 0 188.5 16.5t133.5 42t83 58t45.5 61.5t12.5 56q0 199 -480 199v150h736z" />
<glyph unicode="&#x626;" horiz-adv-x="547" arabic-form="initial" d="M78 893l-31 68l102 47q-64 76 -64 163q0 77 54 130t146 53h85v-74h-85q-64 0 -94.5 -31t-30.5 -78q0 -73 61 -131l227 103l31 -68zM370 776q69 -207 69 -369q0 -92 -23.5 -164t-74 -127.5t-137 -85.5t-204.5 -30q-32 0 -53.5 22t-21.5 53t21.5 53t53.5 22q295 0 295 257 q0 116 -66 321z" />
<glyph unicode="&#x626;" horiz-adv-x="767" arabic-form="medial" d="M42 709l-31 68l102 47q-64 76 -64 163q0 77 54 130t146 53h85v-74h-85q-64 0 -94.5 -31t-30.5 -78q0 -73 61 -131l227 103l31 -68zM0 150q191 0 256 93q53 76 53 259v104h150v-104q0 -177 47 -250q32 -53 94.5 -77.5t165.5 -24.5h1v-150h-1q-277 0 -382 181 q-105 -181 -384 -181q-32 0 -53.5 22t-21.5 53t21.5 53t53.5 22z" />
<glyph unicode="&#x627;" horiz-adv-x="596" arabic-form="final" d="M175 1228h150v-837q0 -129 45 -181q53 -60 225 -60h1v-150h-1q-219 0 -326 108q-94 97 -94 283v837z" />
<glyph unicode="&#x628;" horiz-adv-x="1873" arabic-form="final" d="M695 -326l123 123l123 -123l-123 -123zM1679 588q-51 -184 -51 -270q0 -42 9.5 -70.5t35 -52t75 -34.5t124.5 -11h1v-150h-1q-164 0 -258.5 58t-120.5 166q-128 -125 -301 -173.5t-442 -48.5q-117 0 -214.5 14.5t-179 46.5t-137 81t-86.5 120.5t-31 161.5q0 136 66 300 l138 -55q-53 -139 -53 -244q0 -145 121 -210t388 -65q171 0 293.5 18t205.5 52t137.5 94t84.5 131.5t51 176.5z" />
<glyph unicode="&#x628;" horiz-adv-x="547" arabic-form="initial" d="M9 -326l123 123l123 -123l-123 -123zM370 776q69 -207 69 -369q0 -92 -23.5 -164t-74 -127.5t-137 -85.5t-204.5 -30q-32 0 -53.5 22t-21.5 53t21.5 53t53.5 22q295 0 295 257q0 116 -66 321z" />
<glyph unicode="&#x628;" horiz-adv-x="767" arabic-form="medial" d="M9 -326l123 123l123 -123l-123 -123zM0 150q191 0 256 93q53 76 53 259v104h150v-104q0 -177 47 -250q32 -53 94.5 -77.5t165.5 -24.5h1v-150h-1q-277 0 -382 181q-105 -181 -384 -181q-32 0 -53.5 22t-21.5 53t21.5 53t53.5 22z" />
<glyph unicode="&#x629;" horiz-adv-x="1041" arabic-form="final" d="M536 1338l123 123l123 -123l-123 -123zM205 1338l123 123l123 -123l-123 -123zM604 688q-159 -25 -254 -91t-95 -147q0 -71 56.5 -108.5t165.5 -37.5q69 0 150 24zM1041 0h-1q-144 0 -231.5 43.5t-139.5 138.5q-101 -28 -192 -28q-68 0 -130.5 16t-118.5 49t-89.5 91.5 t-33.5 135.5q0 68 28.5 127t75.5 101.5t111 76.5t132 55t143 34l-8 133l150 9l33 -554q4 -75 17.5 -123.5t43 -85t80.5 -53t129 -16.5h1v-150z" />
<glyph unicode="&#x62a;" horiz-adv-x="1873" arabic-form="final" d="M911 732l123 123l123 -123l-123 -123zM580 732l123 123l123 -123l-123 -123zM1679 588q-51 -184 -51 -270q0 -42 9.5 -70.5t35 -52t75 -34.5t124.5 -11h1v-150h-1q-164 0 -258.5 58t-120.5 166q-128 -125 -301 -173.5t-442 -48.5q-117 0 -214.5 14.5t-179 46.5t-137 81 t-86.5 120.5t-31 161.5q0 136 66 300l138 -55q-53 -139 -53 -244q0 -145 121 -210t388 -65q171 0 293.5 18t205.5 52t137.5 94t84.5 131.5t51 176.5z" />
<glyph unicode="&#x62a;" horiz-adv-x="547" arabic-form="initial" d="M272 1108l123 123l123 -123l-123 -123zM-59 1108l123 123l123 -123l-123 -123zM370 776q69 -207 69 -369q0 -92 -23.5 -164t-74 -127.5t-137 -85.5t-204.5 -30q-32 0 -53.5 22t-21.5 53t21.5 53t53.5 22q295 0 295 257q0 116 -66 321z" />
<glyph unicode="&#x62a;" horiz-adv-x="767" arabic-form="medial" d="M338 975l123 123l123 -123l-123 -123zM7 975l123 123l123 -123l-123 -123zM0 150q191 0 256 93q53 76 53 259v104h150v-104q0 -177 47 -250q32 -53 94.5 -77.5t165.5 -24.5h1v-150h-1q-277 0 -382 181q-105 -181 -384 -181q-32 0 -53.5 22t-21.5 53t21.5 53t53.5 22z" />
<glyph unicode="&#x62b;" horiz-adv-x="1873" arabic-form="final" d="M745 1016l123 123l123 -123l-123 -123zM911 732l123 123l123 -123l-123 -123zM580 732l123 123l123 -123l-123 -123zM1679 588q-51 -184 -51 -270q0 -42 9.5 -70.5t35 -52t75 -34.5t124.5 -11h1v-150h-1q-164 0 -258.5 58t-120.5 166q-128 -125 -301 -173.5t-442 -48.5 q-117 0 -214.5 14.5t-179 46.5t-137 81t-86.5 120.5t-31 161.5q0 136 66 300l138 -55q-53 -139 -53 -244q0 -145 121 -210t388 -65q171 0 293.5 18t205.5 52t137.5 94t84.5 131.5t51 176.5z" />
<glyph unicode="&#x62b;" horiz-adv-x="547" arabic-form="initial" d="M106 1392l123 123l123 -123l-123 -123zM272 1108l123 123l123 -123l-123 -123zM-59 1108l123 123l123 -123l-123 -123zM370 776q69 -207 69 -369q0 -92 -23.5 -164t-74 -127.5t-137 -85.5t-204.5 -30q-32 0 -53.5 22t-21.5 53t21.5 53t53.5 22q295 0 295 257 q0 116 -66 321z" />
<glyph unicode="&#x62b;" horiz-adv-x="767" arabic-form="medial" d="M172 1143l123 123l123 -123l-123 -123zM338 859l123 123l123 -123l-123 -123zM7 859l123 123l123 -123l-123 -123zM0 150q191 0 256 93q53 76 53 259v104h150v-104q0 -177 47 -250q32 -53 94.5 -77.5t165.5 -24.5h1v-150h-1q-277 0 -382 181q-105 -181 -384 -181 q-32 0 -53.5 22t-21.5 53t21.5 53t53.5 22z" />
<glyph unicode="&#x62c;" horiz-adv-x="1398" arabic-form="final" d="M616 -163l123 123l123 -123l-123 -123zM1226 -471l56 -139q-260 -103 -524 -103q-104 0 -196.5 15.5t-178 51.5t-147 90.5t-98.5 139t-37 189.5q0 91 27.5 171t73 143.5t117 121t146.5 100.5t175 84t189 71t201 62l-425 160q-51 16 -98 16q-92 0 -140.5 -66.5 t-65.5 -210.5l-150 17q10 88 34.5 160t66 129.5t106.5 89t149 31.5q79 0 147 -25l592 -225v-167q-98 -26 -209 -59q27 -40 50 -69t56.5 -60.5t68.5 -51.5t82.5 -32.5t102.5 -12.5h1v-150h-1q-75 0 -142 18t-118.5 47t-99 73t-82 89t-68.5 101q-149 -51 -259 -104 t-198 -120.5t-133.5 -150.5t-45.5 -180q0 -116 68.5 -193t180.5 -109.5t264 -32.5q228 0 462 91z" />
<glyph unicode="&#x62c;" horiz-adv-x="1316" arabic-form="initial" d="M478 -276l123 123l123 -123l-123 -123zM101 442q67 409 335 409q89 0 195 -50l551 -247v-158q-201 -138 -372 -221t-373 -129t-437 -46q-31 0 -53 22t-22 53t22 53t53 22q305 0 539.5 75.5t464.5 241.5l-439 199q-77 35 -129 35q-141 0 -187 -283z" />
<glyph unicode="&#x62c;" horiz-adv-x="1316" arabic-form="medial" d="M478 -276l123 123l123 -123l-123 -123zM101 442q67 409 335 409q89 0 195 -50l551 -247v-158q-126 -85 -164 -108q58 -67 125.5 -102.5t171.5 -35.5h1v-150h-1q-260 0 -430 214q-205 -110 -416 -162t-469 -52q-31 0 -53 22t-22 53t22 53t53 22q305 0 539.5 75.5 t464.5 241.5l-439 199q-77 35 -129 35q-141 0 -187 -283z" />
<glyph unicode="&#x62d;" horiz-adv-x="1398" arabic-form="final" d="M1226 -471l56 -139q-260 -103 -524 -103q-104 0 -196.5 15.5t-178 51.5t-147 90.5t-98.5 139t-37 189.5q0 91 27.5 171t73 143.5t117 121t146.5 100.5t175 84t189 71t201 62l-425 160q-51 16 -98 16q-92 0 -140.5 -66.5t-65.5 -210.5l-150 17q10 88 34.5 160t66 129.5 t106.5 89t149 31.5q79 0 147 -25l592 -225v-167q-98 -26 -209 -59q27 -40 50 -69t56.5 -60.5t68.5 -51.5t82.5 -32.5t102.5 -12.5h1v-150h-1q-75 0 -142 18t-118.5 47t-99 73t-82 89t-68.5 101q-149 -51 -259 -104t-198 -120.5t-133.5 -150.5t-45.5 -180q0 -116 68.5 -193 t180.5 -109.5t264 -32.5q228 0 462 91z" />
<glyph unicode="&#x62d;" horiz-adv-x="1316" arabic-form="initial" d="M101 442q67 409 335 409q89 0 195 -50l551 -247v-158q-201 -138 -372 -221t-373 -129t-437 -46q-31 0 -53 22t-22 53t22 53t53 22q305 0 539.5 75.5t464.5 241.5l-439 199q-77 35 -129 35q-141 0 -187 -283z" />
<glyph unicode="&#x62d;" horiz-adv-x="1316" arabic-form="medial" d="M101 442q67 409 335 409q89 0 195 -50l551 -247v-158q-126 -85 -164 -108q58 -67 125.5 -102.5t171.5 -35.5h1v-150h-1q-260 0 -430 214q-205 -110 -416 -162t-469 -52q-31 0 -53 22t-22 53t22 53t53 22q305 0 539.5 75.5t464.5 241.5l-439 199q-77 35 -129 35 q-141 0 -187 -283z" />
<glyph unicode="&#x62e;" horiz-adv-x="1398" arabic-form="final" d="M389 1191l123 123l123 -123l-123 -123zM1226 -471l56 -139q-260 -103 -524 -103q-104 0 -196.5 15.5t-178 51.5t-147 90.5t-98.5 139t-37 189.5q0 91 27.5 171t73 143.5t117 121t146.5 100.5t175 84t189 71t201 62l-425 160q-51 16 -98 16q-92 0 -140.5 -66.5 t-65.5 -210.5l-150 17q10 88 34.5 160t66 129.5t106.5 89t149 31.5q79 0 147 -25l592 -225v-167q-98 -26 -209 -59q27 -40 50 -69t56.5 -60.5t68.5 -51.5t82.5 -32.5t102.5 -12.5h1v-150h-1q-75 0 -142 18t-118.5 47t-99 73t-82 89t-68.5 101q-149 -51 -259 -104 t-198 -120.5t-133.5 -150.5t-45.5 -180q0 -116 68.5 -193t180.5 -109.5t264 -32.5q228 0 462 91z" />
<glyph unicode="&#x62e;" horiz-adv-x="1316" arabic-form="initial" d="M331 1225l123 123l123 -123l-123 -123zM101 442q67 409 335 409q89 0 195 -50l551 -247v-158q-201 -138 -372 -221t-373 -129t-437 -46q-31 0 -53 22t-22 53t22 53t53 22q305 0 539.5 75.5t464.5 241.5l-439 199q-77 35 -129 35q-141 0 -187 -283z" />
<glyph unicode="&#x62e;" horiz-adv-x="1316" arabic-form="medial" d="M331 1225l123 123l123 -123l-123 -123zM101 442q67 409 335 409q89 0 195 -50l551 -247v-158q-126 -85 -164 -108q58 -67 125.5 -102.5t171.5 -35.5h1v-150h-1q-260 0 -430 214q-205 -110 -416 -162t-469 -52q-31 0 -53 22t-22 53t22 53t53 22q305 0 539.5 75.5 t464.5 241.5l-439 199q-77 35 -129 35q-141 0 -187 -283z" />
<glyph unicode="&#x62f;" horiz-adv-x="1180" arabic-form="final" d="M1180 150v-150h-1q-130 0 -221.5 39.5t-162.5 144.5q-49 -92 -148 -138t-218 -46q-221 0 -369 111l79 127q117 -88 290 -88q119 0 190 51t71 134q0 48 -26 108l-170 401l138 60l206 -485q27 -63 49 -105.5t46.5 -73t46.5 -48t54.5 -27t64 -12.5t80.5 -3h1z" />
<glyph unicode="&#x630;" horiz-adv-x="1180" arabic-form="final" d="M407 1269l123 123l123 -123l-123 -123zM1180 150v-150h-1q-130 0 -221.5 39.5t-162.5 144.5q-49 -92 -148 -138t-218 -46q-221 0 -369 111l79 127q117 -88 290 -88q119 0 190 51t71 134q0 48 -26 108l-170 401l138 60l206 -485q27 -63 49 -105.5t46.5 -73t46.5 -48 t54.5 -27t64 -12.5t80.5 -3h1z" />
<glyph unicode="&#x631;" horiz-adv-x="960" arabic-form="final" d="M482 554l139 56l88 -290q31 -98 83.5 -134t166.5 -36h1v-150h-1q-142 0 -235 63q-14 -193 -164 -344t-396 -241l-51 142q468 171 468 510q0 155 -99 424z" />
<glyph unicode="&#x632;" horiz-adv-x="960" arabic-form="final" d="M398 928l123 123l123 -123l-123 -123zM482 554l139 56l88 -290q31 -98 83.5 -134t166.5 -36h1v-150h-1q-142 0 -235 63q-14 -193 -164 -344t-396 -241l-51 142q468 171 468 510q0 155 -99 424z" />
<glyph unicode="&#x633;" horiz-adv-x="2614" arabic-form="final" d="M2235 692l41 -207q15 -75 23.5 -110t25.5 -82.5t37.5 -66.5t54.5 -41t81.5 -28.5t114.5 -6.5h1v-150h-1q-149 0 -240.5 44.5t-144.5 129.5q-73 -174 -265 -174q-75 0 -144 33t-111 98q-86 -131 -235 -131q-96 0 -165 55q-6 -138 -57 -246.5t-136 -176t-194.5 -102 t-236.5 -34.5q-121 0 -224.5 32t-184 94.5t-126.5 164t-46 231.5q0 113 43.5 263t113.5 275l130 -68q-62 -114 -99.5 -247t-37.5 -223q0 -180 111.5 -276t319.5 -96q227 0 354 113t127 317q0 87 -32.5 198t-104.5 290l141 54q39 -112 63.5 -177.5t50.5 -124.5t43.5 -86 t42 -48t47 -26.5t56.5 -5.5q146 0 171 209l26 223l143 -14l-19 -189q-1 -9 -1 -50q0 -95 48.5 -137t121.5 -42q88 0 126.5 57.5t38.5 168.5q0 76 -15 160l-24 126z" />
<glyph unicode="&#x633;" horiz-adv-x="1538" arabic-form="initial" d="M1392 689q23 -109 33 -181t10 -166q0 -130 -65 -221q-87 -121 -242 -121q-82 0 -145.5 38.5t-102.5 102.5q-39 -64 -102.5 -102.5t-145.5 -38.5q-90 0 -157 45t-105 120q-105 -165 -370 -165q-32 0 -53.5 22t-21.5 53t21.5 53t53.5 22q182 0 247 81q62 79 62 285v90h150 v-172q0 -153 55 -226q41 -58 119 -58t119 58q56 75 56 226v162h144v-162q0 -150 56 -225q42 -59 119 -59q92 0 131 74q27 48 27 118q0 137 -39 316z" />
<glyph unicode="&#x633;" horiz-adv-x="1735" arabic-form="medial" d="M1392 689l32 -233q27 -176 90 -238q66 -68 220 -68h1v-150h-1q-241 0 -352 149q-38 -69 -103 -109t-151 -40q-82 0 -145.5 39t-102.5 103q-39 -65 -102.5 -103.5t-145.5 -38.5q-90 0 -157 45t-105 120q-105 -165 -370 -165q-32 0 -53.5 22t-21.5 53t21.5 53t53.5 22 q179 0 246 80q63 78 63 286v90h150v-172q0 -151 55 -226q42 -58 119 -58q84 0 127 66q48 73 48 218v162h144v-162q0 -140 46 -214q44 -70 129 -70q84 0 125 62q32 49 32 130q0 106 -40 324z" />
<glyph unicode="&#x634;" horiz-adv-x="2614" arabic-form="final" d="M1574 1223l123 123l123 -123l-123 -123zM1740 939l123 123l123 -123l-123 -123zM1409 939l123 123l123 -123l-123 -123zM2235 692l41 -207q15 -75 23.5 -110t25.5 -82.5t37.5 -66.5t54.5 -41t81.5 -28.5t114.5 -6.5h1v-150h-1q-149 0 -240.5 44.5t-144.5 129.5 q-73 -174 -265 -174q-75 0 -144 33t-111 98q-86 -131 -235 -131q-96 0 -165 55q-6 -138 -57 -246.5t-136 -176t-194.5 -102t-236.5 -34.5q-121 0 -224.5 32t-184 94.5t-126.5 164t-46 231.5q0 113 43.5 263t113.5 275l130 -68q-62 -114 -99.5 -247t-37.5 -223 q0 -180 111.5 -276t319.5 -96q227 0 354 113t127 317q0 87 -32.5 198t-104.5 290l141 54q39 -112 63.5 -177.5t50.5 -124.5t43.5 -86t42 -48t47 -26.5t56.5 -5.5q146 0 171 209l26 223l143 -14l-19 -189q-1 -9 -1 -50q0 -95 48.5 -137t121.5 -42q88 0 126.5 57.5t38.5 168.5 q0 76 -15 160l-24 126z" />
<glyph unicode="&#x634;" horiz-adv-x="1538" arabic-form="initial" d="M757 1223l123 123l123 -123l-123 -123zM923 939l123 123l123 -123l-123 -123zM592 939l123 123l123 -123l-123 -123zM1392 689q23 -109 33 -181t10 -166q0 -130 -65 -221q-87 -121 -242 -121q-82 0 -145.5 38.5t-102.5 102.5q-39 -64 -102.5 -102.5t-145.5 -38.5 q-90 0 -157 45t-105 120q-105 -165 -370 -165q-32 0 -53.5 22t-21.5 53t21.5 53t53.5 22q182 0 247 81q62 79 62 285v90h150v-172q0 -153 55 -226q41 -58 119 -58t119 58q56 75 56 226v162h144v-162q0 -150 56 -225q42 -59 119 -59q92 0 131 74q27 48 27 118q0 137 -39 316z " />
<glyph unicode="&#x634;" horiz-adv-x="1735" arabic-form="medial" d="M757 1223l123 123l123 -123l-123 -123zM923 939l123 123l123 -123l-123 -123zM592 939l123 123l123 -123l-123 -123zM1392 689l32 -233q27 -176 90 -238q66 -68 220 -68h1v-150h-1q-241 0 -352 149q-38 -69 -103 -109t-151 -40q-82 0 -145.5 39t-102.5 103 q-39 -65 -102.5 -103.5t-145.5 -38.5q-90 0 -157 45t-105 120q-105 -165 -370 -165q-32 0 -53.5 22t-21.5 53t21.5 53t53.5 22q179 0 246 80q63 78 63 286v90h150v-172q0 -151 55 -226q42 -58 119 -58q84 0 127 66q48 73 48 218v162h144v-162q0 -140 46 -214q44 -70 129 -70 q84 0 125 62q32 49 32 130q0 106 -40 324z" />
<glyph unicode="&#x635;" horiz-adv-x="2416" arabic-form="final" d="M1292 272q116 214 268 320t304 106q148 0 251 -91.5t103 -240.5q0 -76 -36 -143q61 -73 233 -73h1v-150h-1q-227 0 -334 110q-77 -56 -185.5 -83.5t-224.5 -27.5q-185 0 -359 69q-6 -142 -56.5 -252.5t-135.5 -179.5t-195.5 -104.5t-240.5 -35.5q-121 0 -224.5 32 t-184 94.5t-126.5 164t-46 231.5q0 113 43.5 263t113.5 275l130 -68q-62 -114 -99.5 -247t-37.5 -223q0 -180 111.5 -276t319.5 -96q227 0 354 113t127 317q0 87 -32.5 198t-104.5 290l141 54q72 -160 123 -346zM1416 189q120 -40 255 -40q180 0 288.5 60.5t108.5 156.5 q0 82 -55.5 132t-148.5 50q-51 0 -104.5 -18t-112 -57.5t-118.5 -112t-113 -171.5z" />
<glyph unicode="&#x635;" horiz-adv-x="1612" arabic-form="initial" d="M0 150q165 0 231 68q75 75 78 283v105h150v-204q0 -108 60 -159q69 129 151 227t165 155.5t163.5 85.5t158.5 28q132 0 231 -83t99 -223q0 -83 -42.5 -155t-111 -122t-155.5 -86t-176.5 -53t-172.5 -17q-174 0 -286.5 33.5t-171.5 124.5q-106 -158 -371 -158 q-32 0 -53.5 22t-21.5 53t21.5 53t53.5 22zM643 166q65 -16 186 -16q133 0 252 40.5t187.5 105t68.5 132.5q0 74 -51.5 117.5t-133.5 43.5q-53 0 -112 -21t-126 -67t-138 -132t-133 -203z" />
<glyph unicode="&#x635;" horiz-adv-x="1635" arabic-form="medial" d="M643 165q65 -16 186 -16q133 0 252 41t187.5 105.5t68.5 132.5q0 74 -51.5 117.5t-133.5 43.5q-53 0 -112 -21.5t-126 -67.5t-138 -132t-133 -203zM459 606v-206q0 -107 59 -157q91 171 205.5 285.5t221.5 162.5t212 48q132 0 231 -83t99 -223q0 -115 -83 -208 q62 -75 230 -75h1v-150h-1q-237 0 -347 126q-96 -61 -219 -93.5t-239 -32.5q-175 0 -287.5 33t-171.5 124q-108 -157 -370 -157q-31 0 -53 22t-22 53t22 53t53 22q176 0 243 80q66 80 66 286v90h150z" />
<glyph unicode="&#x636;" horiz-adv-x="2416" arabic-form="final" d="M1741 1073l123 123l123 -123l-123 -123zM1292 272q116 214 268 320t304 106q148 0 251 -91.5t103 -240.5q0 -76 -36 -143q61 -73 233 -73h1v-150h-1q-227 0 -334 110q-77 -56 -185.5 -83.5t-224.5 -27.5q-185 0 -359 69q-6 -142 -56.5 -252.5t-135.5 -179.5 t-195.5 -104.5t-240.5 -35.5q-121 0 -224.5 32t-184 94.5t-126.5 164t-46 231.5q0 113 43.5 263t113.5 275l130 -68q-62 -114 -99.5 -247t-37.5 -223q0 -180 111.5 -276t319.5 -96q227 0 354 113t127 317q0 87 -32.5 198t-104.5 290l141 54q72 -160 123 -346zM1416 189 q120 -40 255 -40q180 0 288.5 60.5t108.5 156.5q0 82 -55.5 132t-148.5 50q-51 0 -104.5 -18t-112 -57.5t-118.5 -112t-113 -171.5z" />
<glyph unicode="&#x636;" horiz-adv-x="1612" arabic-form="initial" d="M1007 1071l123 123l123 -123l-123 -123zM0 150q165 0 231 68q75 75 78 283v105h150v-204q0 -108 60 -159q69 129 151 227t165 155.5t163.5 85.5t158.5 28q132 0 231 -83t99 -223q0 -83 -42.5 -155t-111 -122t-155.5 -86t-176.5 -53t-172.5 -17q-174 0 -286.5 33.5 t-171.5 124.5q-106 -158 -371 -158q-32 0 -53.5 22t-21.5 53t21.5 53t53.5 22zM643 166q65 -16 186 -16q133 0 252 40.5t187.5 105t68.5 132.5q0 74 -51.5 117.5t-133.5 43.5q-53 0 -112 -21t-126 -67t-138 -132t-133 -203z" />
<glyph unicode="&#x636;" horiz-adv-x="1635" arabic-form="medial" d="M1007 1071l123 123l123 -123l-123 -123zM643 165q65 -16 186 -16q133 0 252 41t187.5 105.5t68.5 132.5q0 74 -51.5 117.5t-133.5 43.5q-53 0 -112 -21.5t-126 -67.5t-138 -132t-133 -203zM459 606v-206q0 -107 59 -157q91 171 205.5 285.5t221.5 162.5t212 48 q132 0 231 -83t99 -223q0 -115 -83 -208q62 -75 230 -75h1v-150h-1q-237 0 -347 126q-96 -61 -219 -93.5t-239 -32.5q-175 0 -287.5 33t-171.5 124q-108 -157 -370 -157q-31 0 -53 22t-22 53t22 53t53 22q176 0 243 80q66 80 66 286v90h150z" />
<glyph unicode="&#x637;" horiz-adv-x="1538" arabic-form="final" d="M564 151q148 3 260.5 14t185 31t120 43t71 55.5t31.5 62t8 68.5q0 74 -51.5 119t-133.5 45q-50 0 -113 -26t-131.5 -76t-135 -138t-111.5 -198zM403 150v1078h150v-823q109 157 249.5 245.5t257.5 88.5q132 0 231 -83t99 -223q0 -133 -72 -219q55 -64 219 -64h1v-150h-1 q-224 0 -338 115q-210 -115 -721 -115h-386v150h311z" />
<glyph unicode="&#x637;" horiz-adv-x="1317" arabic-form="initial" d="M344 151q148 3 260.5 14t185 31t120 43t71 55.5t31.5 62t8 68.5q0 74 -51.5 119t-133.5 45q-50 0 -113 -26t-131.5 -76t-135 -138t-111.5 -198zM0 150h183v1078h150v-823q109 157 249.5 245.5t257.5 88.5q132 0 231 -83t99 -223q0 -86 -28.5 -152t-93.5 -120t-170 -89 t-259.5 -53.5t-360.5 -18.5h-258q-32 0 -53.5 22t-21.5 53t21.5 53t53.5 22z" />
<glyph unicode="&#x637;" horiz-adv-x="1318" arabic-form="medial" d="M344 151q148 3 260.5 14t185 31t120 43t71 55.5t31.5 62t8 68.5q0 74 -51.5 119t-133.5 45q-50 0 -113 -26t-131.5 -76t-135 -138t-111.5 -198zM0 150l183 1v1077h150v-823q109 158 249 246t258 88q132 0 231 -83t99 -223q0 -133 -72 -219q57 -64 219 -64h1v-150h-1 q-226 0 -338 115q-210 -115 -721 -115h-258q-32 0 -53.5 22t-21.5 53t21.5 53t53.5 22z" />
<glyph unicode="&#x638;" horiz-adv-x="1538" arabic-form="final" d="M965 1113l123 123l123 -123l-123 -123zM564 151q148 3 260.5 14t185 31t120 43t71 55.5t31.5 62t8 68.5q0 74 -51.5 119t-133.5 45q-50 0 -113 -26t-131.5 -76t-135 -138t-111.5 -198zM403 150v1078h150v-823q109 157 249.5 245.5t257.5 88.5q132 0 231 -83t99 -223 q0 -133 -72 -219q55 -64 219 -64h1v-150h-1q-224 0 -338 115q-210 -115 -721 -115h-386v150h311z" />
<glyph unicode="&#x638;" horiz-adv-x="1317" arabic-form="initial" d="M745 1113l123 123l123 -123l-123 -123zM344 151q148 3 260.5 14t185 31t120 43t71 55.5t31.5 62t8 68.5q0 74 -51.5 119t-133.5 45q-50 0 -113 -26t-131.5 -76t-135 -138t-111.5 -198zM0 150h183v1078h150v-823q109 157 249.5 245.5t257.5 88.5q132 0 231 -83t99 -223 q0 -86 -28.5 -152t-93.5 -120t-170 -89t-259.5 -53.5t-360.5 -18.5h-258q-32 0 -53.5 22t-21.5 53t21.5 53t53.5 22z" />
<glyph unicode="&#x638;" horiz-adv-x="1318" arabic-form="medial" d="M745 1113l123 123l123 -123l-123 -123zM344 151q148 3 260.5 14t185 31t120 43t71 55.5t31.5 62t8 68.5q0 74 -51.5 119t-133.5 45q-50 0 -113 -26t-131.5 -76t-135 -138t-111.5 -198zM0 150l183 1v1077h150v-823q109 158 249 246t258 88q132 0 231 -83t99 -223 q0 -133 -72 -219q57 -64 219 -64h1v-150h-1q-226 0 -338 115q-210 -115 -721 -115h-258q-32 0 -53.5 22t-21.5 53t21.5 53t53.5 22z" />
<glyph unicode="&#x639;" horiz-adv-x="1144" arabic-form="final" d="M994 488q0 -90 -52 -158.5t-138 -126.5q157 -53 339 -53h1v-150h-1q-292 0 -505 102q-398 -169 -398 -404q0 -123 139 -206t342 -83q176 0 327 63l52 -140q-180 -72 -383 -72q-123 0 -234.5 28.5t-199.5 82t-140.5 137.5t-52.5 187q0 303 398 500q-164 107 -334 297 l6 142q81 65 194 103.5t240 38.5q74 0 144 -18.5t128 -53.5t93 -91t35 -125zM844 480q0 58 -70.5 102t-173.5 44q-77 0 -155.5 -20.5t-124.5 -51.5l-2 -22q168 -179 325 -265q201 97 201 213z" />
<glyph unicode="&#x639;" horiz-adv-x="1083" arabic-form="initial" d="M278 410q0 -88 76 -138t197 -50q47 0 67 4l292 56l27 -148l-485 -92q-221 -42 -452 -42q-31 0 -53 22t-22 53t22 53t53 22q140 0 269 18q-141 88 -141 242q0 187 118 309.5t281 122.5q212 0 347 -168l-116 -97q-90 115 -231 115q-102 0 -175.5 -77.5t-73.5 -204.5z" />
<glyph unicode="&#x639;" horiz-adv-x="1026" arabic-form="medial" d="M96 590q70 87 192.5 136t260.5 49q68 0 134 -19t123.5 -55.5t92.5 -99t35 -141.5q0 -84 -45.5 -157t-121.5 -119q114 -34 258 -34h1v-150h-1q-234 0 -428 86q-235 -86 -597 -86q-32 0 -53.5 22t-21.5 53t21.5 53t53.5 22q250 0 419 40q-132 77 -323 266v134zM256 534v-27 q67 -61 110.5 -98.5t108.5 -82.5t127 -75q87 38 134.5 93t47.5 112q0 78 -64.5 123.5t-170.5 45.5q-83 0 -165.5 -26t-127.5 -65z" />
<glyph unicode="&#x63a;" horiz-adv-x="1144" arabic-form="final" d="M473 1126l123 123l123 -123l-123 -123zM994 488q0 -90 -52 -158.5t-138 -126.5q157 -53 339 -53h1v-150h-1q-292 0 -505 102q-398 -169 -398 -404q0 -123 139 -206t342 -83q176 0 327 63l52 -140q-180 -72 -383 -72q-123 0 -234.5 28.5t-199.5 82t-140.5 137.5t-52.5 187 q0 303 398 500q-164 107 -334 297l6 142q81 65 194 103.5t240 38.5q74 0 144 -18.5t128 -53.5t93 -91t35 -125zM844 480q0 58 -70.5 102t-173.5 44q-77 0 -155.5 -20.5t-124.5 -51.5l-2 -22q168 -179 325 -265q201 97 201 213z" />
<glyph unicode="&#x63a;" horiz-adv-x="1083" arabic-form="initial" d="M404 1200l123 123l123 -123l-123 -123zM278 410q0 -88 76 -138t197 -50q47 0 67 4l292 56l27 -148l-485 -92q-221 -42 -452 -42q-31 0 -53 22t-22 53t22 53t53 22q140 0 269 18q-141 88 -141 242q0 187 118 309.5t281 122.5q212 0 347 -168l-116 -97q-90 115 -231 115 q-102 0 -175.5 -77.5t-73.5 -204.5z" />
<glyph unicode="&#x63a;" horiz-adv-x="1026" arabic-form="medial" d="M411 1120l123 123l123 -123l-123 -123zM96 590q70 87 192.5 136t260.5 49q68 0 134 -19t123.5 -55.5t92.5 -99t35 -141.5q0 -84 -45.5 -157t-121.5 -119q114 -34 258 -34h1v-150h-1q-234 0 -428 86q-235 -86 -597 -86q-32 0 -53.5 22t-21.5 53t21.5 53t53.5 22 q250 0 419 40q-132 77 -323 266v134zM256 534v-27q67 -61 110.5 -98.5t108.5 -82.5t127 -75q87 38 134.5 93t47.5 112q0 78 -64.5 123.5t-170.5 45.5q-83 0 -165.5 -26t-127.5 -65z" />
<glyph unicode="&#x641;" horiz-adv-x="1875" arabic-form="final" d="M1298 1215l123 123l123 -123l-123 -123zM1416 67q-198 -67 -526 -67q-92 0 -166.5 3.5t-158.5 14t-148 28t-125.5 48t-101 72.5t-63.5 102.5t-24 135.5q0 126 66 315l142 -47q-56 -168 -56 -260q0 -148 152 -205t483 -57q207 0 344 28q-148 120 -148 310q0 161 94 256 t241 95q145 0 240 -95.5t95 -255.5q0 -196 -153 -312q125 -26 271 -26h1v-150h-1q-275 0 -458 67zM1418 228q94 41 141 103t47 157q0 98 -49.5 149.5t-135.5 51.5q-88 0 -136.5 -51t-48.5 -150q0 -176 182 -260z" />
<glyph unicode="&#x641;" horiz-adv-x="921" arabic-form="initial" d="M340 1433l123 123l123 -123l-123 -123zM668 390q-102 -28 -196 -28q-72 0 -131.5 16.5t-108 51t-75.5 93.5t-27 137q0 101 40 196.5t118 160.5t175 65q66 0 120.5 -26t90 -67.5t63 -99.5t42.5 -114.5t24.5 -120.5t12 -109.5t2.5 -89.5q0 -77 -11 -137t-37.5 -106.5 t-60 -80t-88 -57t-112.5 -38t-142.5 -22.5t-168 -11t-198.5 -3q-32 0 -53.5 22t-21.5 53t21.5 53t53.5 22q106 0 180.5 1.5t144.5 6t116 12t86.5 21t64 30.5t41.5 42t25.5 55.5t9.5 71.5zM664 535q-7 107 -30 193.5t-67.5 145t-103.5 58.5q-68 0 -125.5 -81t-57.5 -191 q0 -84 47 -119t154 -35q90 0 183 29z" />
<glyph unicode="&#x641;" horiz-adv-x="908" arabic-form="medial" d="M331 1199l123 123l123 -123l-123 -123zM0 150q152 0 271 25q-152 120 -152 313q0 161 94 256t241 95q145 0 240 -95.5t95 -255.5q0 -192 -152 -313q119 -25 270 -25h1v-150h-1q-266 0 -453 66q-188 -66 -454 -66q-32 0 -53.5 22t-21.5 53t21.5 53t53.5 22zM454 226 q185 84 185 262q0 98 -49.5 149.5t-135.5 51.5q-88 0 -136.5 -51t-48.5 -150q0 -178 185 -262z" />
<glyph unicode="&#x642;" horiz-adv-x="1415" arabic-form="final" d="M1003 1060l123 123l123 -123l-123 -123zM672 1060l123 123l123 -123l-123 -123zM1157 0h-182q-70 0 -131 17t-111.5 51.5t-79.5 94.5t-29 140q0 101 40 196.5t118 160.5t175 65q69 0 125.5 -28t93.5 -77t63.5 -106t41 -125.5t21.5 -125t9 -113.5h104v-150h-109 q-30 -243 -200 -373.5t-422 -130.5q-121 0 -224.5 32t-184 94.5t-126.5 164t-46 231.5q0 180 108 426l133 -61q-43 -98 -67 -196.5t-24 -168.5q0 -180 111.5 -276t319.5 -96q203 0 327 92t146 262zM1159 150q-4 111 -26.5 205t-68.5 157.5t-107 63.5q-68 0 -125.5 -81 t-57.5 -191q0 -84 47 -119t154 -35h184z" />
<glyph unicode="&#x642;" horiz-adv-x="921" arabic-form="initial" d="M505 1410l123 123l123 -123l-123 -123zM174 1410l123 123l123 -123l-123 -123zM668 390q-102 -28 -196 -28q-72 0 -131.5 16.5t-108 51t-75.5 93.5t-27 137q0 101 40 196.5t118 160.5t175 65q66 0 120.5 -26t90 -67.5t63 -99.5t42.5 -114.5t24.5 -120.5t12 -109.5 t2.5 -89.5q0 -77 -11 -137t-37.5 -106.5t-60 -80t-88 -57t-112.5 -38t-142.5 -22.5t-168 -11t-198.5 -3q-32 0 -53.5 22t-21.5 53t21.5 53t53.5 22q106 0 180.5 1.5t144.5 6t116 12t86.5 21t64 30.5t41.5 42t25.5 55.5t9.5 71.5zM664 535q-7 107 -30 193.5t-67.5 145 t-103.5 58.5q-68 0 -125.5 -81t-57.5 -191q0 -84 47 -119t154 -35q90 0 183 29z" />
<glyph unicode="&#x642;" horiz-adv-x="908" arabic-form="medial" d="M496 1177l123 123l123 -123l-123 -123zM165 1177l123 123l123 -123l-123 -123zM0 150q152 0 271 25q-152 120 -152 313q0 161 94 256t241 95q145 0 240 -95.5t95 -255.5q0 -192 -152 -313q119 -25 270 -25h1v-150h-1q-266 0 -453 66q-188 -66 -454 -66q-32 0 -53.5 22 t-21.5 53t21.5 53t53.5 22zM454 226q185 84 185 262q0 98 -49.5 149.5t-135.5 51.5q-88 0 -136.5 -51t-48.5 -150q0 -178 185 -262z" />
<glyph unicode="&#x643;" horiz-adv-x="1748" arabic-form="final" d="M967 1002q-62 29 -108 29q-61 0 -100.5 -34.5t-39.5 -74.5q0 -47 26 -67.5t87 -38.5q31 -10 50 -18t45.5 -25t40 -44t13.5 -62q0 -55 -39.5 -96.5t-95 -60.5t-115.5 -19q-97 0 -172 35l32 68q58 -28 140 -28q75 0 125.5 31t50.5 69q0 30 -21 45.5t-76 32.5 q-33 10 -55.5 20.5t-51 30.5t-43.5 52.5t-15 75.5q0 75 62.5 129t151.5 54q56 0 138 -35zM1290 1247h150v-730q0 -123 19.5 -197.5t72.5 -115.5q69 -54 215 -54h1v-150h-1q-170 0 -278 70q-68 45 -105 116q-24 -37 -62 -67q-70 -65 -190.5 -92t-312.5 -27q-78 0 -141 3 t-137.5 13t-131.5 26.5t-113 46.5t-92 70.5t-58.5 99.5t-22.5 133q0 110 35 260l146 -36q-31 -130 -31 -224q0 -72 36 -120t111 -74.5t172.5 -37t239.5 -10.5q182 0 275.5 17.5t139.5 68.5q35 40 49 106t14 175v730z" />
<glyph unicode="&#x643;" horiz-adv-x="999" arabic-form="initial" d="M0 150h121q190 0 268.5 48.5t78.5 153.5q0 100 -127 237.5t-320 276.5v166q176 115 393.5 204t431.5 135l32 -147q-178 -39 -361.5 -109.5t-332.5 -158.5v-26q92 -69 164 -133.5t136.5 -140t100 -155.5t35.5 -157t-27.5 -137t-73.5 -98.5t-111 -63.5t-135 -35t-150 -10 h-123q-32 0 -53.5 22t-21.5 53t21.5 53t53.5 22z" />
<glyph unicode="&#x643;" horiz-adv-x="1020" arabic-form="medial" d="M0 150h121q190 0 268.5 48.5t78.5 153.5q0 100 -127 237.5t-320 276.5v166q176 115 393.5 204t431.5 135l32 -147q-178 -39 -361.5 -109.5t-332.5 -158.5v-26q179 -128 282 -253t178 -269q30 -57 51.5 -91.5t53 -70.5t67 -54.5t86.5 -30t117 -11.5h1v-150h-1 q-160 0 -261.5 58.5t-171.5 170.5q-78 -229 -463 -229h-123q-32 0 -53.5 22t-21.5 53t21.5 53t53.5 22z" />
<glyph unicode="&#x644;" horiz-adv-x="1439" arabic-form="final" d="M1439 150v-150h-1q-206 0 -307 102v-74q0 -254 -141 -393t-388 -139q-227 0 -363 123t-136 335q0 180 90 400l135 -58q-76 -197 -76 -348q0 -146 93 -224t273 -78q186 0 275 94.5t89 304.5v1183h150v-712q0 -205 64 -285q65 -81 242 -81h1z" />
<glyph unicode="&#x644;" horiz-adv-x="596" arabic-form="initial" d="M421 391q0 -186 -94 -283q-107 -108 -327 -108q-31 0 -53 22t-22 53t22 53t53 22q90 0 143.5 13.5t82.5 46.5q45 52 45 181v837h150v-837z" />
<glyph unicode="&#x644;" horiz-adv-x="692" arabic-form="medial" d="M0 150q159 0 217 74q54 70 54 250v754h150v-754q0 -175 51 -245q57 -79 219 -79h1v-150h-1q-248 0 -345 156q-98 -156 -346 -156q-32 0 -53.5 22t-21.5 53t21.5 53t53.5 22z" />
<glyph unicode="&#x645;" horiz-adv-x="1329" arabic-form="final" d="M523 213q20 -6 63.5 -19.5t70.5 -21.5t65.5 -15t70.5 -7q75 0 113 33.5t38 117.5q0 106 -53 175t-131 69q-101 0 -161.5 -96t-75.5 -236zM1329 0h-1q-176 0 -290 117q-78 -117 -245 -117q-136 0 -280 58q-67 26 -112 26q-66 0 -107 -47.5t-41 -136.5v-685h-150v685 q0 131 74 226t197 105q7 61 21.5 119.5t44.5 123t71.5 112t105.5 78.5t143 31q94 0 167.5 -49.5t113.5 -124.5t50 -164q13 -114 69 -160.5t168 -46.5h1v-150z" />
<glyph unicode="&#x645;" horiz-adv-x="1046" arabic-form="initial" d="M0 150q81 0 122.5 32t83.5 120q25 54 46 112q23 62 54 113.5t73.5 95t100.5 68t125 24.5q78 0 143.5 -36.5t107 -94.5t64.5 -126.5t23 -136.5q0 -132 -90 -226.5t-227 -94.5q-102 0 -175 43t-151 124q-107 -167 -300 -167q-32 0 -53.5 22t-21.5 53t21.5 53t53.5 22z M372 310q48 -68 114 -114t140 -46q68 0 117.5 48.5t49.5 122.5q0 95 -57.5 169.5t-130.5 74.5q-139 0 -213 -203z" />
<glyph unicode="&#x645;" horiz-adv-x="1238" arabic-form="medial" d="M0 150q81 0 122.5 32t83.5 120q25 54 46 112q23 62 54 113.5t73.5 95t100.5 68t125 24.5q71 0 133 -31t103 -81.5t67 -111.5t33 -125q15 -88 53 -135q65 -81 243 -81h1v-150h-1q-245 0 -353 136q-38 -62 -108 -99t-148 -37q-71 0 -134.5 25.5t-103.5 57.5t-90 84 q-107 -167 -300 -167q-32 0 -53.5 22t-21.5 53t21.5 53t53.5 22zM372 310q48 -68 114.5 -114t141.5 -46q68 0 116.5 48.5t48.5 122.5q0 95 -57.5 169.5t-130.5 74.5q-139 0 -213 -203z" />
<glyph unicode="&#x646;" horiz-adv-x="1660" arabic-form="final" d="M630 308l123 123l123 -123l-123 -123zM258 572l129 -76q-133 -258 -133 -468q0 -184 127 -283t343 -99q150 0 269 48t191.5 145t72.5 229q0 179 -155 493l133 61l132 -306q39 -92 99 -129t193 -37h1v-150h-1q-155 0 -253 56q-5 -113 -44 -206.5t-102.5 -158t-149 -109 t-181 -65.5t-199.5 -21q-127 0 -239.5 35t-199 101t-137 168.5t-50.5 229.5q0 246 154 542z" />
<glyph unicode="&#x646;" horiz-adv-x="547" arabic-form="initial" d="M91 1108l123 123l123 -123l-123 -123zM370 776q69 -207 69 -369q0 -92 -23.5 -164t-74 -127.5t-137 -85.5t-204.5 -30q-32 0 -53.5 22t-21.5 53t21.5 53t53.5 22q295 0 295 257q0 116 -66 321z" />
<glyph unicode="&#x646;" horiz-adv-x="767" arabic-form="medial" d="M173 975l123 123l123 -123l-123 -123zM0 150q191 0 256 93q53 76 53 259v104h150v-104q0 -177 47 -250q32 -53 94.5 -77.5t165.5 -24.5h1v-150h-1q-277 0 -382 181q-105 -181 -384 -181q-32 0 -53.5 22t-21.5 53t21.5 53t53.5 22z" />
<glyph unicode="&#x647;" horiz-adv-x="1041" arabic-form="final" d="M604 688q-159 -25 -254 -91t-95 -147q0 -71 56.5 -108.5t165.5 -37.5q69 0 150 24zM1041 0h-1q-144 0 -231.5 43.5t-139.5 138.5q-101 -28 -192 -28q-68 0 -130.5 16t-118.5 49t-89.5 91.5t-33.5 135.5q0 68 28.5 127t75.5 101.5t111 76.5t132 55t143 34l-8 133l150 9 l33 -554q4 -75 17.5 -123.5t43 -85t80.5 -53t129 -16.5h1v-150z" />
<glyph unicode="&#x647;" horiz-adv-x="1293" arabic-form="initial" d="M0 150q167 0 287 29q-165 118 -165 281q0 95 56 179t137 125l-162 59l59 143l452 -174q93 -36 160 -66t141 -75t119.5 -92t75.5 -111.5t30 -138.5q0 -133 -88.5 -221t-247.5 -88q-75 0 -184 19.5t-197 52.5q-192 -72 -473 -72q-32 0 -53.5 22t-21.5 53t21.5 53t53.5 22z M475 233q79 37 125 101.5t46 145.5q0 90 -35.5 145t-111.5 55q-80 0 -153.5 -62t-73.5 -158q0 -134 203 -227zM636 183q128 -33 220 -33q184 0 184 159q0 160 -281 284q35 -129 0.5 -234.5t-123.5 -175.5z" />
<glyph unicode="&#x647;" horiz-adv-x="986" arabic-form="medial" d="M305 174q188 31 282 101.5t94 174.5q0 166 -137 166q-102 0 -167 -111.5t-72 -330.5zM986 0h-1q-114 0 -165.5 -40t-51.5 -134v-247l-128 -82q-181 18 -308.5 159t-162.5 349q-67 -5 -169 -5q-31 0 -53 22t-22 53t22 53t53 22q96 0 159 5q3 128 26 235.5t67.5 193 t119 134t172.5 48.5q128 0 204.5 -81t76.5 -222q0 -114 -69.5 -208t-184 -152.5t-257.5 -80.5q23 -143 112 -248.5t190 -120.5l14 9v164q0 147 102.5 235.5t252.5 88.5h1v-150z" />
<glyph unicode="&#x648;" horiz-adv-x="928" arabic-form="final" d="M815 0q-35 -192 -198.5 -317.5t-453.5 -200.5l-44 142q474 120 537 376h-168q-70 0 -131 17t-111.5 51.5t-79.5 94.5t-29 140q0 101 40 196.5t118 160.5t175 65q61 0 112 -22.5t86 -59t62.5 -87.5t44 -102t27.5 -110t15.5 -104t6.5 -90h104v-150h-113zM673 150 q-4 80 -18 153t-37.5 135.5t-62 100t-85.5 37.5q-68 0 -125.5 -81t-57.5 -191q0 -84 47 -119t154 -35h185z" />
<glyph unicode="&#x649;" horiz-adv-x="1453" arabic-form="final" d="M1453 150v-150h-201q47 -29 71 -78t24 -105q0 -178 -164.5 -289t-444.5 -111q-291 0 -457 139.5t-166 408.5q0 158 39 298t111 297l135 -70q-66 -149 -101.5 -273t-35.5 -263q0 -199 117 -293t354 -94q105 0 188.5 16.5t133.5 42t83 58t45.5 61.5t12.5 56q0 199 -480 199 v150h736z" />
<glyph unicode="&#x64a;" horiz-adv-x="1453" arabic-form="final" d="M800 -867l123 123l123 -123l-123 -123zM469 -867l123 123l123 -123l-123 -123zM1453 150v-150h-201q47 -29 71 -78t24 -105q0 -178 -164.5 -289t-444.5 -111q-291 0 -457 139.5t-166 408.5q0 158 39 298t111 297l135 -70q-66 -149 -101.5 -273t-35.5 -263 q0 -199 117 -293t354 -94q105 0 188.5 16.5t133.5 42t83 58t45.5 61.5t12.5 56q0 199 -480 199v150h736z" />
<glyph unicode="&#x64a;" horiz-adv-x="547" arabic-form="initial" d="M150 -326l123 123l123 -123l-123 -123zM-181 -326l123 123l123 -123l-123 -123zM370 776q69 -207 69 -369q0 -92 -23.5 -164t-74 -127.5t-137 -85.5t-204.5 -30q-32 0 -53.5 22t-21.5 53t21.5 53t53.5 22q295 0 295 257q0 116 -66 321z" />
<glyph unicode="&#x64a;" horiz-adv-x="767" arabic-form="medial" d="M119 -326l123 123l123 -123l-123 -123zM-212 -326l123 123l123 -123l-123 -123zM0 150q191 0 256 93q53 76 53 259v104h150v-104q0 -177 47 -250q32 -53 94.5 -77.5t165.5 -24.5h1v-150h-1q-277 0 -382 181q-105 -181 -384 -181q-32 0 -53.5 22t-21.5 53t21.5 53t53.5 22 z" />
<glyph />
<glyph horiz-adv-x="682" />
<glyph unicode=" "  horiz-adv-x="550" />
<glyph unicode="&#x09;" horiz-adv-x="550" />
<glyph unicode="&#xa0;" horiz-adv-x="550" />
<glyph unicode="!" horiz-adv-x="610" d="M380 412h-150v1035h150v-1035zM202 102q0 42 31 71t73 29t72 -29t30 -71t-30 -72t-72 -30t-73 30t-31 72z" />
<glyph unicode="&#x22;" horiz-adv-x="676" d="M424 1413h104v-520h-104v520zM148 1413h104v-520h-104v520z" />
<glyph unicode="#" horiz-adv-x="1698" d="M423 -30l-145 34l128 425h-291v123h332l101 342h-341v122h382l128 423l145 -34l-117 -389h392l128 423l145 -34l-117 -389h290v-122h-331l-101 -342h340v-123h-381l-139 -459l-145 34l128 425h-392zM1096 894h-392l-101 -342h392z" />
<glyph unicode="$" horiz-adv-x="1171" d="M88 405h150q0 -139 104 -218t258 -79q145 0 239.5 67.5t94.5 194.5q0 55 -25 99t-75 77.5t-112.5 58.5t-149.5 49q-65 18 -121.5 39t-120.5 57t-108.5 79t-74 104.5t-29.5 133.5q0 91 37.5 165t100.5 121t144.5 72.5t171.5 25.5q130 0 238.5 -49.5t176 -148t67.5 -227.5 h-150q0 137 -93.5 217.5t-238.5 80.5q-136 0 -220 -67.5t-84 -192.5q0 -200 349 -295q49 -13 88 -25.5t90 -32.5t89 -41.5t77.5 -53t65 -67t41.5 -82.5t16 -101q0 -77 -28 -142t-75.5 -109t-110 -75t-131 -45.5t-139.5 -14.5q-76 0 -149 16.5t-139 51.5t-115.5 84.5 t-79 119.5t-29.5 153zM531 1620h108v-1832h-108v1832z" />
<glyph unicode="%" horiz-adv-x="1464" d="M1209 237q0 61 -41 105t-100 44t-100.5 -44t-41.5 -105q0 -60 41.5 -102t100.5 -42t100 42t41 102zM1313 237q0 -103 -71 -175.5t-174 -72.5t-175 73t-72 175q0 101 71 177.5t176 76.5t175 -76.5t70 -177.5zM538 1136q0 61 -41 105t-100 44t-100.5 -44t-41.5 -105 q0 -60 41.5 -102t100.5 -42t100 42t41 102zM642 1136q0 -103 -71 -175.5t-174 -72.5t-175 73t-72 175q0 101 71 177.5t176 76.5t175 -76.5t70 -177.5zM995 1453l135 -63l-661 -1434l-135 64z" />
<glyph unicode="&#x26;" horiz-adv-x="1188" d="M475 829q67 36 106.5 61t80 60t59 76t18.5 91q0 70 -52 121t-143 51q-96 0 -150 -57t-54 -145q0 -79 54 -150zM779 182l-347 464q-59 -37 -96 -70.5t-61.5 -85t-24.5 -115.5q0 -118 77.5 -186t217.5 -68t234 61zM968 165l109 -145l-127 -71l-92 124q-132 -80 -313 -80 q-195 0 -320 106t-125 276q0 68 20 127.5t57 106t78 81t94 67.5l-78 105q-81 98 -81 225q0 133 95 231t259 98q154 0 249.5 -89t95.5 -210q0 -61 -21 -115.5t-51 -93t-79 -77t-87 -61.5t-93 -52l316 -427q64 94 64 232h150q0 -220 -120 -358z" />
<glyph unicode="'" horiz-adv-x="400" d="M148 1413h104v-520h-104v520z" />
<glyph unicode="(" horiz-adv-x="598" d="M468 29l-126 -81q-217 340 -217 757q0 416 217 756l126 -81q-96 -150 -144.5 -313t-48.5 -362q0 -376 193 -676z" />
<glyph unicode=")" horiz-adv-x="598" d="M130 1380l126 81q217 -340 217 -757q0 -416 -217 -756l-126 81q96 150 144.5 313t48.5 362q0 376 -193 676z" />
<glyph unicode="*" horiz-adv-x="1133" d="M176 1106l34 103l301 -99v318h110v-318l302 99l34 -103l-303 -100l188 -257l-88 -64l-188 257l-188 -257l-87 64l187 257z" />
<glyph unicode="+" horiz-adv-x="993" d="M886 570v-122h-320v-327h-140v327h-318v122h318v328h140v-328h320z" />
<glyph unicode="," horiz-adv-x="465" d="M220 -217l-53 41q31 35 65 99.5t34 126.5q-120 0 -120 106q0 44 28.5 72.5t69.5 28.5q52 0 82 -35t30 -102q0 -171 -136 -337z" />
<glyph unicode="-" horiz-adv-x="993" d="M886 570v-122h-778v122h778z" />
<glyph unicode="." horiz-adv-x="550" d="M172 102q0 42 31 71t73 29t72 -29t30 -71t-30 -72t-72 -30t-73 30t-31 72z" />
<glyph unicode="/" horiz-adv-x="1050" d="M788 1453l135 -63l-661 -1434l-135 64z" />
<glyph unicode="0" horiz-adv-x="1206" d="M604 -37q-86 0 -157 27t-120.5 71t-87 106.5t-60 128t-36.5 141t-19 139t-5 129.5t5 129.5t19 139t36.5 140.5t60 127.5t87 106.5t120.5 71t157 27t157 -27t120 -71t87 -106.5t60 -127.5t36 -140.5t19 -139t5 -129.5t-5 -129.5t-19 -139t-36 -141t-60 -128t-87 -106.5 t-120 -71t-157 -27zM604 91q72 0 130 35.5t95.5 94.5t62.5 140t35.5 166t10.5 178t-10.5 178t-35.5 166t-62.5 140t-95.5 94.5t-130 35.5q-90 0 -157 -53t-104.5 -143.5t-55.5 -195t-18 -222.5t18 -222.5t55.5 -195t104.5 -143.5t157 -53z" />
<glyph unicode="1" horiz-adv-x="907" d="M202 1059l-2 122l125 1q92 1 132.5 18.5t62.5 62.5v165h150v-1447h-150v1123q-71 -42 -214 -44z" />
<glyph unicode="2" horiz-adv-x="1154" d="M1057 0h-957v124q0 78 32 147t81.5 119t123.5 96t143 76t156 61q75 26 126.5 65.5t77.5 88.5t37 97.5t11 107.5q0 148 -91.5 228t-222.5 80q-58 0 -113 -21.5t-100.5 -62t-73 -107t-27.5 -147.5h-150q0 141 67 249t171.5 162.5t225.5 54.5q122 0 226.5 -50t171 -151.5 t66.5 -234.5q0 -69 -15.5 -133t-51.5 -130.5t-106.5 -122.5t-170.5 -91q-208 -73 -324 -160t-116 -202v-15h803v-128z" />
<glyph unicode="3" horiz-adv-x="1146" d="M90 415h150q0 -144 91 -219t232 -75q66 0 122.5 15t103 46t73.5 84.5t27 123.5q0 77 -26.5 135.5t-73 93.5t-105.5 52t-130 17h-86v123h86q136 0 216 63.5t80 167.5q0 120 -79 184t-195 64q-124 0 -200.5 -63t-76.5 -188h-150q0 95 36.5 169t98 118.5t136 67.5t156.5 23 q79 0 153.5 -24t135.5 -69t98 -118t37 -164q0 -93 -47 -169.5t-129 -120.5q98 -49 156.5 -142.5t58.5 -219.5q0 -102 -43.5 -181.5t-114.5 -125t-152 -68t-166 -22.5q-72 0 -139.5 16t-128.5 50t-106.5 82.5t-72 119t-26.5 154.5z" />
<glyph unicode="4" horiz-adv-x="1159" d="M762 452v751l-525 -751h525zM1112 452v-122h-200v-349h-150v349h-684v124l669 957h165v-959h200z" />
<glyph unicode="5" horiz-adv-x="1188" d="M152 395h150q0 -129 70.5 -201.5t203.5 -72.5q175 0 259.5 88.5t84.5 285.5q0 183 -88.5 281.5t-255.5 98.5q-70 0 -152 -31.5t-153 -83.5l-102 51l58 600h855v-127h-718l-32 -342q121 56 244 56q156 0 269.5 -66.5t169 -179t55.5 -257.5q0 -238 -129 -370t-365 -132 q-198 0 -311 113.5t-113 288.5z" />
<glyph unicode="6" horiz-adv-x="1160" d="M617 773q-177 0 -344 -137q4 -119 21.5 -207t54.5 -160.5t102.5 -110t158.5 -37.5q138 0 223 93t85 225q0 159 -86 246.5t-215 87.5zM618 896q198 0 324 -122t126 -332q0 -85 -31 -165t-87.5 -143.5t-145 -102t-194.5 -38.5q-90 0 -163 23.5t-122.5 62t-87 95.5t-59 116 t-35 131.5t-17.5 134t-4 132.5q0 337 136.5 532.5t381.5 195.5q240 0 412 -144l-85 -92q-139 110 -313 110q-159 0 -262 -126.5t-112 -373.5q160 106 338 106z" />
<glyph unicode="7" horiz-adv-x="1093" d="M75 1284v127h868l43 -117l-599 -1330l-141 47l578 1273h-749z" />
<glyph unicode="8" horiz-adv-x="1107" d="M793 1068q0 92 -60 156.5t-179 64.5t-179.5 -65t-60.5 -156q0 -122 56 -179.5t183 -57.5t183.5 57.5t56.5 179.5zM250 380q0 -117 80 -188t224 -71t223.5 71t79.5 188q0 132 -91 225t-213 93q-126 0 -214.5 -91.5t-88.5 -226.5zM780 762q101 -57 164 -161.5t63 -220.5 q0 -169 -125.5 -278t-327.5 -109q-203 0 -328.5 109.5t-125.5 277.5q0 118 62 222.5t163 160.5q-77 45 -119 125.5t-42 179.5q0 63 24 123t70 111t123 82.5t173 31.5t173 -31.5t122.5 -82.5t69.5 -111t24 -123q0 -101 -43 -182t-120 -124z" />
<glyph unicode="9" horiz-adv-x="1167" d="M892 774q-3 94 -14 168.5t-35.5 141t-61.5 111t-94.5 70t-132.5 25.5q-137 0 -221.5 -94t-84.5 -226q0 -159 85.5 -245.5t214.5 -86.5q178 0 344 136zM886 620q-161 -107 -339 -107q-197 0 -323 122.5t-126 332.5q0 85 30.5 164.5t87 143t144.5 102t194 38.5 q90 0 163 -23.5t122.5 -62t87 -95t59 -115.5t35 -131.5t17.5 -134t4 -132.5q0 -345 -136 -537t-382 -192q-238 0 -411 145l85 91q136 -108 313 -108q78 0 142.5 28.5t115.5 86.5t81.5 156t35.5 228z" />
<glyph unicode=":" horiz-adv-x="613" d="M215 674q0 42 31 71t73 29t72 -29t30 -71t-30 -72t-72 -30t-73 30t-31 72zM215 152q0 42 31 71t73 29t72 -29t30 -71t-30 -72t-72 -30t-73 30t-31 72z" />
<glyph unicode=";" horiz-adv-x="612" d="M203 674q0 42 31 71t73 29t72 -29t30 -71t-30 -72t-72 -30t-73 30t-31 72zM275 -194l-53 41q31 35 65 99.5t34 126.5q-120 0 -120 106q0 44 28.5 72.5t69.5 28.5q52 0 82 -35t30 -102q0 -171 -136 -337z" />
<glyph unicode="&#x3c;" horiz-adv-x="775" d="M565 1048l67 -69l-392 -372l392 -372l-67 -70l-466 442z" />
<glyph unicode="=" horiz-adv-x="993" d="M886 370v-122h-778v122h778zM886 820v-122h-778v122h778z" />
<glyph unicode="&#x3e;" horiz-adv-x="775" d="M189 165l-67 70l392 371l-392 373l67 69l466 -442z" />
<glyph unicode="?" horiz-adv-x="1067" d="M282 978l-150 -18q-7 56 -7 98q0 78 25.5 147t74.5 123.5t127 86t176 31.5q127 0 223 -60.5t143.5 -157t47.5 -211.5q0 -55 -14 -100t-42 -80t-54.5 -58t-65.5 -50q-34 -23 -54 -39t-47 -44t-41.5 -56t-25 -70.5t-10.5 -93.5h-150q0 62 13.5 115.5t32.5 90.5t51 72.5 t56.5 56t60.5 46.5q72 52 106 99t34 124q0 128 -72 208.5t-192 80.5q-125 0 -189 -69.5t-64 -191.5q0 -44 7 -80zM624 102q0 42 -31 71t-73 29t-72 -29t-30 -71t30 -72t72 -30t73 30t31 72z" />
<glyph unicode="@" horiz-adv-x="2211" d="M1121 1062q98 0 179 -23.5t124.5 -50.5t105.5 -76l-54 -605q-1 -9 -1 -27q0 -85 48 -133.5t126 -48.5q122 0 205.5 124t83.5 310q0 173 -67 330t-179.5 268.5t-265.5 177.5t-320 66t-320.5 -66t-266 -177.5t-180 -268.5t-67.5 -330t67 -330t180 -268.5t266.5 -177.5 t320.5 -66q128 0 239 35l39 -99q-135 -40 -278 -40q-197 0 -374.5 75.5t-304.5 203.5t-202 302t-75 365q0 153 47.5 296.5t135 260.5t204.5 205t264 136.5t305 48.5q197 0 374.5 -76t304.5 -203.5t201.5 -302t74.5 -365.5q0 -79 -15.5 -156t-50 -149t-84 -126.5 t-122.5 -87.5t-160 -33q-97 0 -165.5 43t-101.5 115q-62 -78 -146 -118t-178 -40q-85 0 -161.5 28.5t-138.5 84t-99 148.5t-37 213q0 141 41 257t111.5 192t164.5 117.5t202 41.5zM1121 935q-70 0 -133.5 -27.5t-117.5 -83t-86 -151t-32 -219.5q0 -79 17 -140.5t44 -100 t65 -63.5t77 -34.5t83 -9.5q49 0 96 20t91.5 61.5t75.5 117t40 176.5l33 381q-51 37 -107 55t-146 18z" />
<glyph unicode="A" horiz-adv-x="1315" d="M386 535h544l-272 705zM180 0h-158l559 1431h155l557 -1431h-158l-158 412h-638z" />
<glyph unicode="B" horiz-adv-x="1298" d="M175 1431h540q171 0 292 -120t121 -285q0 -93 -42.5 -171t-115.5 -129q100 -47 160.5 -139.5t60.5 -204.5q0 -164 -120 -273t-293 -109h-603v1431zM325 646v-518h453q111 0 187 69.5t76 184.5q0 116 -77.5 190t-185.5 74h-453zM715 768q111 0 187 71.5t76 186.5 q0 117 -77.5 197.5t-185.5 80.5h-390v-536h390z" />
<glyph unicode="C" horiz-adv-x="1317" d="M1102 235l109 -90q-177 -165 -436 -165q-130 0 -239.5 40.5t-185 111t-128.5 165.5t-78 202t-25 223t25 222t78 199t129 161t185 107.5t239 39.5q260 0 436 -163l-109 -91q-137 127 -327 127q-163 0 -279 -79.5t-171.5 -213.5t-55.5 -309t55.5 -312t172 -219.5 t278.5 -82.5q190 0 327 127z" />
<glyph unicode="D" horiz-adv-x="1365" d="M590 1431q132 0 241.5 -38.5t185.5 -106t128.5 -159.5t77 -198t24.5 -224q0 -148 -40 -273.5t-118.5 -223t-206 -153t-292.5 -55.5h-415v1431h415zM590 1304h-265v-1176h265q251 0 379 152t128 425q0 276 -129 437.5t-378 161.5z" />
<glyph unicode="E" horiz-adv-x="1106" d="M1044 128v-128h-869v1431h869v-127h-719v-538h719v-122h-719v-516h719z" />
<glyph unicode="F" horiz-adv-x="1098" d="M325 0h-150v1431h869v-127h-719v-538h603v-122h-603v-644z" />
<glyph unicode="G" horiz-adv-x="1480" d="M760 622l-1 121l566 3v-300q0 -76 -15.5 -142t-54 -127t-97 -103.5t-150 -68t-207.5 -25.5q-130 0 -239.5 40.5t-185 111t-128.5 165.5t-78 202t-25 223t25 222t78 199t129 161t185 107.5t239 39.5q137 0 258.5 -42.5t204.5 -120.5l-109 -91q-59 55 -153.5 88.5 t-200.5 33.5q-164 0 -279.5 -78.5t-171 -211t-55.5 -307.5t55.5 -310.5t171.5 -217t279 -81.5q114 0 189.5 23t115 69.5t54.5 103t15 137.5v177z" />
<glyph unicode="H" horiz-adv-x="1369" d="M1044 1431h150v-1431h-150v666h-719v-666h-150v1431h150v-643h719v643z" />
<glyph unicode="I" horiz-adv-x="575" d="M362 0h-150v1431h150v-1431z" />
<glyph unicode="J" horiz-adv-x="890" d="M70 37l79 113q65 -42 158 -42q123 0 191 61.5t68 212.5v1049h150v-1049q0 -134 -57 -226.5t-147 -134t-205 -41.5q-134 0 -237 57z" />
<glyph unicode="K" horiz-adv-x="1253" d="M1020 1431h196l-649 -697l646 -734h-189l-555 630l-144 -154v-476h-150v1431h150v-747z" />
<glyph unicode="L" horiz-adv-x="1091" d="M1044 128v-128h-869v1431h150v-1303h719z" />
<glyph unicode="M" horiz-adv-x="1815" d="M325 0h-150v1431h167l541 -1248l592 1248h165v-1431h-150v1143l-538 -1143h-142l-485 1123v-1123z" />
<glyph unicode="N" horiz-adv-x="1416" d="M1091 1431h150v-1431h-157l-759 1186v-1186h-150v1431h156l760 -1187v1187z" />
<glyph unicode="O" horiz-adv-x="1542" d="M771 1451q130 0 239 -41t185 -112t129 -166.5t78 -203t25 -223.5q0 -146 -40.5 -274.5t-119 -230t-206.5 -161t-290 -59.5t-290 59.5t-206.5 161t-119 230t-40.5 274.5q0 116 25 223.5t78 203t129 166.5t185 112t239 41zM771 1324q-123 0 -220.5 -48t-159 -132.5 t-94 -196t-32.5 -242.5q0 -175 55.5 -307.5t171.5 -211t279 -78.5t279 78.5t171.5 211t55.5 307.5q0 131 -32.5 242.5t-94 196t-159 132.5t-220.5 48z" />
<glyph unicode="P" horiz-adv-x="1224" d="M325 0h-150v1431h540q173 0 293 -112t120 -276t-120 -274t-293 -110h-390v-659zM325 1304v-518h390q111 0 187 71t76 186q0 116 -76.5 188.5t-186.5 72.5h-390z" />
<glyph unicode="Q" horiz-adv-x="1542" d="M771 1451q130 0 239 -41t185 -112t129 -166.5t78 -203t25 -223.5q0 -146 -40.5 -274.5t-119 -230t-206.5 -161t-290 -59.5t-290 59.5t-206.5 161t-119 230t-40.5 274.5q0 116 25 223.5t78 203t129 166.5t185 112t239 41zM771 1324q-123 0 -220.5 -48t-159 -132.5 t-94 -196t-32.5 -242.5q0 -175 55.5 -307.5t171.5 -211t279 -78.5t279 78.5t171.5 211t55.5 307.5q0 131 -32.5 242.5t-94 196t-159 132.5t-220.5 48zM1358 -1l-83 -69l-479 571l84 70z" />
<glyph unicode="R" horiz-adv-x="1303" d="M175 1431h540q173 0 293 -112.5t120 -276.5q0 -102 -50 -186t-136 -133q86 -52 136 -137t50 -187v-399h-150v404q0 113 -77.5 186t-185.5 73h-390v-663h-150v1431zM325 785h390q111 0 187 71t76 186q0 116 -77 189t-186 73h-390v-519z" />
<glyph unicode="S" horiz-adv-x="1171" d="M88 405h150q0 -139 104 -218t258 -79q145 0 239.5 67.5t94.5 194.5q0 55 -25 99t-75 77.5t-112.5 58.5t-149.5 49q-65 18 -121.5 39t-120.5 57t-108.5 79t-74 104.5t-29.5 133.5q0 91 37.5 165t100.5 121t144.5 72.5t171.5 25.5q130 0 238.5 -49.5t176 -148t67.5 -227.5 h-150q0 137 -93.5 217.5t-238.5 80.5q-136 0 -220 -67.5t-84 -192.5q0 -200 349 -295q49 -13 88 -25.5t90 -32.5t89 -41.5t77.5 -53t65 -67t41.5 -82.5t16 -101q0 -77 -28 -142t-75.5 -109t-110 -75t-131 -45.5t-139.5 -14.5q-76 0 -149 16.5t-139 51.5t-115.5 84.5 t-79 119.5t-29.5 153z" />
<glyph unicode="T" horiz-adv-x="1220" d="M685 0h-150v1304h-487v127h1124v-127h-487v-1304z" />
<glyph unicode="U" horiz-adv-x="1358" d="M1042 1431h150v-971q0 -139 -69.5 -249.5t-186 -170.5t-257.5 -60t-257.5 60t-186 170.5t-69.5 249.5v971h150v-977q0 -159 104 -252.5t259 -93.5t259 93.5t104 252.5v977z" />
<glyph unicode="V" horiz-adv-x="1315" d="M1135 1431h158l-565 -1431h-141l-565 1431h158l477 -1223z" />
<glyph unicode="W" horiz-adv-x="1960" d="M1752 1431h156l-422 -1431h-159l-347 1207l-348 -1207h-159l-421 1431h156l345 -1208l349 1208h156l348 -1208z" />
<glyph unicode="X" horiz-adv-x="1216" d="M1176 0h-174l-394 591l-394 -591h-174l480 705l-480 726h174l394 -612l394 612h174l-480 -726z" />
<glyph unicode="Y" horiz-adv-x="1179" d="M984 1431h173l-492 -779v-652h-150v652l-493 779h173l395 -642z" />
<glyph unicode="Z" horiz-adv-x="1290" d="M82 1304v127h1126v-131l-956 -1172h956v-128h-1126v132l956 1172h-956z" />
<glyph unicode="[" horiz-adv-x="642" d="M554 128v-128h-409v1431h409v-127h-259v-1176h259z" />
<glyph unicode="\" horiz-adv-x="1019" d="M942 22l-134 -68l-731 1433l135 69z" />
<glyph unicode="]" horiz-adv-x="642" d="M88 1304v127h409v-1431h-409v128h259v1176h-259z" />
<glyph unicode="^" horiz-adv-x="704" d="M615 1164l-59 -47l-204 257l-204 -257l-59 47l225 284h76z" />
<glyph unicode="_" horiz-adv-x="666" d="M678 149v-150h-690v150h690z" />
<glyph unicode="`" horiz-adv-x="524" d="M394 1184l-63 -40l-201 320l63 40z" />
<glyph unicode="a" horiz-adv-x="1020" d="M908 0h-147q-43 146 -43 340v406q0 89 -65.5 138.5t-168.5 49.5t-167.5 -49.5t-64.5 -138.5h-150q0 100 57 174t142 108t183 34q70 0 137 -20t123 -57t90 -98.5t34 -137.5v-409q0 -204 40 -340zM827 582l-54 -104q-88 22 -181 22q-154 0 -258.5 -58t-104.5 -164 q0 -80 52 -124t152 -44q115 0 200 69t85 181h120q0 -90 -37 -163.5t-98.5 -119t-136 -70.5t-153.5 -25q-146 0 -238 80.5t-92 217.5q0 74 32 132.5t83.5 95t120 61t136 34t137.5 9.5q118 0 235 -30z" />
<glyph unicode="b" horiz-adv-x="1198" d="M308 0h-150v1431h150v-1431zM668 1062q89 0 162 -31.5t122.5 -84t83.5 -123t49 -146.5t15 -157q0 -102 -25.5 -195.5t-75.5 -172t-135.5 -125.5t-195.5 -47q-108 0 -194.5 44t-140.5 119.5t-82.5 172t-28.5 204.5t28.5 204.5t82.5 172.5t140.5 120.5t194.5 44.5zM628 933 q-151 0 -236 -115.5t-85 -297.5t84.5 -297t236.5 -115t237 115t85 297q0 118 -36.5 210.5t-110.5 147.5t-175 55z" />
<glyph unicode="c" horiz-adv-x="1038" d="M820 274l135 -56q-56 -108 -158.5 -173t-244.5 -65q-95 0 -174.5 31t-133 83.5t-91 122.5t-54.5 146t-17 157t17 157.5t54.5 146.5t91 122.5t133 84t174.5 31.5q142 0 244.5 -64t159.5 -171l-136 -56q-87 164 -268 164q-151 0 -235.5 -116.5t-84.5 -298.5t84 -297 t236 -115q179 0 268 166z" />
<glyph unicode="d" horiz-adv-x="1198" d="M1040 0h-150v1431h150v-1431zM530 -20q-89 0 -162 31.5t-122.5 84t-83.5 123t-49 146.5t-15 157q0 102 25.5 195.5t75.5 172t135.5 125.5t195.5 47q108 0 194.5 -44t140.5 -119.5t82.5 -172t28.5 -204.5t-28.5 -204.5t-82.5 -172.5t-140.5 -120.5t-194.5 -44.5zM570 109 q151 0 236 115.5t85 297.5t-84.5 297t-236.5 115t-237 -115t-85 -297q0 -118 36.5 -210.5t110.5 -147.5t175 -55z" />
<glyph unicode="e" horiz-adv-x="1089" d="M230 464q13 -187 111.5 -271.5t260.5 -84.5q168 0 329 76l46 -102q-186 -102 -389 -102q-230 0 -371.5 140.5t-141.5 399.5q0 81 17 157.5t54 146.5t90.5 122.5t133 84t174.5 31.5t174 -31t133 -83.5t92 -122.5t55 -147t17 -158l-1 -56h-784zM230 577h629 q-16 161 -96.5 259.5t-218.5 98.5q-137 0 -218 -98.5t-96 -259.5z" />
<glyph unicode="f" horiz-adv-x="664" d="M659 1448v-114h-191q-41 0 -72 -30.5t-31 -78.5v-1225h-150v1225q0 98 72 169.5t179 71.5q95 0 193 -18zM50 932v110h610v-110h-610z" />
<glyph unicode="g" horiz-adv-x="1200" d="M893 1042h150v-970q0 -127 -40 -225t-109 -157.5t-157 -89.5t-190 -30q-217 0 -430 124l57 106q179 -105 364 -105q74 0 136.5 20t112.5 61.5t78 113t28 166.5v986zM532 -20q-89 0 -162 31.5t-122.5 84t-83.5 123t-49 146.5t-15 157q0 102 25.5 195.5t75.5 172 t135.5 125.5t195.5 47q108 0 194.5 -44t140.5 -119.5t82.5 -172t28.5 -204.5t-28.5 -204.5t-82.5 -172.5t-140.5 -120.5t-194.5 -44.5zM572 109q151 0 236 115.5t85 297.5t-84.5 297t-236.5 115t-237 -115t-85 -297q0 -118 36.5 -210.5t110.5 -147.5t175 -55z" />
<glyph unicode="h" horiz-adv-x="1118" d="M298 0h-150v1431h150v-1431zM237 626q0 199 96.5 317.5t277.5 118.5q94 0 165 -33.5t112.5 -91.5t61.5 -129t20 -154v-654h-150v641q0 136 -71.5 212.5t-190.5 76.5q-125 0 -193 -79t-68 -225h-60z" />
<glyph unicode="i" horiz-adv-x="485" d="M140 1374q0 42 31 71t73 29t72 -29t30 -71t-30 -72t-72 -30t-73 30t-31 72zM167 1042h150v-1042h-150v1042z" />
<glyph unicode="j" horiz-adv-x="507" d="M156 1374q0 42 31 71t73 29t72 -29t30 -71t-30 -72t-72 -30t-73 30t-31 72zM182 -174v1216h150v-1216q0 -97 -72.5 -169t-179.5 -72q-55 0 -111 18v115h108q42 0 73.5 30.5t31.5 77.5z" />
<glyph unicode="k" horiz-adv-x="990" d="M798 1042h192l-486 -521l452 -521h-188l-361 413l-107 -117v-296h-150v1431h150v-923z" />
<glyph unicode="l" horiz-adv-x="485" d="M318 0h-150v1431h150v-1431z" />
<glyph unicode="m" horiz-adv-x="1591" d="M142 1042h150v-1042h-150v1042zM248 696q0 69 18 132t53.5 117t97.5 86t143 32q72 0 128 -22.5t90 -58.5t55.5 -85.5t29.5 -98t8 -102.5v-715h-150v715q0 102 -56.5 168.5t-157.5 66.5q-97 0 -155.5 -71.5t-58.5 -163.5h-45zM826 696q0 69 18 132t53.5 117t97.5 86 t143 32q72 0 128 -22.5t90 -58.5t55.5 -85.5t29.5 -98t8 -102.5v-715h-150v715q0 102 -56.5 168.5t-157.5 66.5q-97 0 -155.5 -71.5t-58.5 -163.5h-45z" />
<glyph unicode="n" horiz-adv-x="1118" d="M298 0h-150v1042h150v-1042zM237 626q0 199 96.5 317.5t277.5 118.5q94 0 165 -33.5t112.5 -91.5t61.5 -129t20 -154v-654h-150v641q0 136 -71.5 212.5t-190.5 76.5q-125 0 -193 -79t-68 -225h-60z" />
<glyph unicode="o" horiz-adv-x="1105" d="M553 935q-151 0 -235 -116.5t-84 -298.5t83.5 -297t235.5 -115t235.5 115t83.5 297t-84 298.5t-235 116.5zM553 1062q95 0 174.5 -31.5t133 -84t90.5 -122.5t54 -146.5t17 -157.5t-17 -157t-54 -146t-90.5 -122.5t-133 -83.5t-174.5 -31t-174.5 31t-133 83.5t-90.5 122.5 t-54 146t-17 157t17 157.5t54 146.5t90.5 122.5t133 84t174.5 31.5z" />
<glyph unicode="p" horiz-adv-x="1190" d="M150 1042h150v-1452h-150v1452zM661 1062q89 0 162 -31.5t122.5 -84t83.5 -123t49 -146.5t15 -157q0 -102 -25.5 -195.5t-75.5 -172t-135.5 -125.5t-195.5 -47q-108 0 -194.5 44t-140.5 119.5t-82.5 172t-28.5 204.5t28.5 204.5t82.5 172.5t140.5 120.5t194.5 44.5z M621 933q-151 0 -236 -115.5t-85 -297.5t84.5 -297t236.5 -115t237 115t85 297q0 118 -36.5 210.5t-110.5 147.5t-175 55z" />
<glyph unicode="q" horiz-adv-x="1190" d="M890 1042h150v-1452h-150v1452zM530 -20q-89 0 -162 31.5t-122.5 84t-83.5 123t-49 146.5t-15 157q0 102 25.5 195.5t75.5 172t135.5 125.5t195.5 47q108 0 194.5 -44t140.5 -119.5t82.5 -172t28.5 -204.5t-28.5 -204.5t-82.5 -172.5t-140.5 -120.5t-194.5 -44.5z M570 109q151 0 236 115.5t85 297.5t-84.5 297t-236.5 115t-237 -115t-85 -297q0 -118 36.5 -210.5t110.5 -147.5t175 -55z" />
<glyph unicode="r" horiz-adv-x="721" d="M150 1042h150v-1042h-150v1042zM300 516h-120q0 77 15 149.5t48.5 141.5t83.5 120.5t125.5 82.5t168.5 31h70v-132h-85q-147 0 -226.5 -110t-79.5 -283z" />
<glyph unicode="s" horiz-adv-x="989" d="M90 318h150q0 -97 70.5 -146t183.5 -49q112 0 183.5 49t71.5 143q0 34 -12 60t-32 43t-55 29.5t-73.5 20t-94.5 13.5q-40 5 -67 9t-70 13.5t-72.5 20.5t-63.5 31t-55 44t-35 59.5t-14 78.5q0 64 23.5 117.5t62 88.5t89.5 59t104.5 34.5t109.5 10.5q70 0 136.5 -18 t124 -53.5t92.5 -97t35 -141.5h-150q0 91 -65.5 137t-172.5 46q-106 0 -172.5 -45.5t-66.5 -132.5q0 -68 57 -98t190 -46q41 -5 70.5 -9.5t74 -15t76.5 -23t67 -34t57.5 -48t37 -65.5t14.5 -85q0 -67 -24.5 -122t-64.5 -91.5t-93 -62t-109 -36.5t-114 -11q-73 0 -142 19 t-129 56t-96.5 101.5t-36.5 146.5z" />
<glyph unicode="t" horiz-adv-x="697" d="M637 130v-114q-88 -18 -173 -18q-107 0 -178.5 71.5t-71.5 169.5v1093h150v-1093q0 -48 31 -78.5t72 -30.5h170zM27 932v110h610v-110h-610z" />
<glyph unicode="u" horiz-adv-x="1118" d="M820 1042h150v-1042h-150v1042zM881 417q0 -199 -96.5 -317.5t-277.5 -118.5q-94 0 -165 33.5t-112.5 91.5t-61.5 129t-20 154v654h150v-641q0 -136 71.5 -212.5t190.5 -76.5q125 0 193 79t68 225h60z" />
<glyph unicode="v" horiz-adv-x="1037" d="M856 1042h159l-416 -1042h-158l-419 1042h159l338 -850z" />
<glyph unicode="w" horiz-adv-x="1520" d="M1304 1042h156l-308 -1042h-164l-228 811l-227 -811h-163l-310 1042h156l234 -822l232 822h156l232 -822z" />
<glyph unicode="x" horiz-adv-x="1160" d="M936 1042h184l-448 -536l424 -506h-185l-330 408l-331 -408h-186l424 506l-448 536h184l357 -438z" />
<glyph unicode="y" horiz-adv-x="1036" d="M856 1042h158l-397 -999q-18 -46 -29 -73.5t-31 -70.5t-36 -70.5t-41 -63.5t-49 -58.5t-56.5 -47t-67.5 -38t-79 -22.5t-93 -9h-66v132h66q114 0 181.5 70t132.5 228h-12l-415 1022h160l340 -847z" />
<glyph unicode="z" horiz-adv-x="991" d="M72 915v127h846v-130l-678 -784h678v-128h-846v132l678 783h-678z" />
<glyph unicode="{" horiz-adv-x="706" d="M309 716q59 -43 92.5 -104.5t33.5 -135.5v-272q0 -76 79 -76h130v-128h-147q-91 0 -151.5 55t-60.5 137v284q0 66 -37.5 111t-95.5 62l-52 15v105l52 15q59 17 96 62t37 110v285q0 82 60.5 136t151.5 54h147v-127h-130q-79 0 -79 -76v-272q0 -150 -126 -240z" />
<glyph unicode="|" horiz-adv-x="440" d="M145 1431h150v-1843h-150v1843z" />
<glyph unicode="}" horiz-adv-x="706" d="M434 716q-126 90 -126 240v272q0 76 -79 76h-129v127h146q91 0 151.5 -54t60.5 -136v-285q0 -65 37.5 -110t96.5 -62l52 -15v-105l-52 -15q-59 -17 -96.5 -62.5t-37.5 -110.5v-284q0 -82 -60.5 -137t-151.5 -55h-146v128h129q79 0 79 76v272q0 74 33.5 135.5t92.5 104.5z " />
<glyph unicode="~" horiz-adv-x="868" d="M78 1159q38 88 94.5 132.5t115.5 44.5q81 0 168 -65q39 -29 65 -39.5t60 -10.5q31 0 70 32.5t70 104.5l70 -30q-38 -89 -94.5 -135.5t-115.5 -46.5q-86 0 -169 65q-41 30 -65.5 40t-58.5 10q-33 0 -71 -30t-69 -102z" />
<glyph unicode="&#xa1;" horiz-adv-x="610" d="M230 631h150v-1035h-150v1035zM408 941q0 -42 -31 -71t-73 -29t-72 29t-30 71t30 72t72 30t73 -30t31 -72z" />
<glyph unicode="&#xa2;" horiz-adv-x="1038" d="M626 984h-150v447h150v-447zM626 -348h-150v444h150v-444zM820 274l135 -56q-56 -108 -158.5 -173t-244.5 -65q-95 0 -174.5 31t-133 83.5t-91 122.5t-54.5 146t-17 157t17 157.5t54.5 146.5t91 122.5t133 84t174.5 31.5q142 0 244.5 -64t159.5 -171l-136 -56 q-87 164 -268 164q-151 0 -235.5 -116.5t-84.5 -298.5t84 -297t236 -115q179 0 268 166z" />
<glyph unicode="&#xa3;" horiz-adv-x="1269" d="M602 1319q-64 0 -113 -48.5t-49 -123.5v-869q0 -91 -46 -150h760v-128h-1039v128q88 0 131.5 35t43.5 115v864q0 124 89 214t223 90q123 0 207 -74.5t103 -187.5l-148 -19q-11 67 -56 110.5t-106 43.5zM120 480v110h610v-110h-610z" />
<glyph unicode="&#xa4;" horiz-adv-x="1305" d="M440 912l-121 -78l-247 282l121 78zM319 244l121 -78l-247 -282l-121 78zM986 834l-120 78l246 282l120 -78zM866 166l120 78l246 -282l-120 -78zM649 935q-151 0 -235 -116.5t-84 -298.5t83.5 -297t235.5 -115t235.5 115t83.5 297t-84 298.5t-235 116.5zM649 1062 q95 0 174.5 -31.5t133 -84t90.5 -122.5t54 -146.5t17 -157.5t-17 -157t-54 -146t-90.5 -122.5t-133 -83.5t-174.5 -31t-174.5 31t-133 83.5t-90.5 122.5t-54 146t-17 157t17 157.5t54 146.5t90.5 122.5t133 84t174.5 31.5z" />
<glyph unicode="&#xa5;" horiz-adv-x="1179" d="M984 1431h173l-492 -779v-652h-150v652l-493 779h173l395 -642zM245 217v110h690v-110h-690zM245 543v110h690v-110h-690z" />
<glyph unicode="&#xa6;" horiz-adv-x="440" d="M295 862h-150v569h150v-569zM295 0h-150v531h150v-531z" />
<glyph unicode="&#xa7;" horiz-adv-x="1002" d="M102 285h150q0 -94 68.5 -141t180.5 -47t181.5 46t69.5 134q0 58 -61.5 87t-201.5 48q-42 6 -71 10.5t-73.5 15.5t-75 23.5t-65 34t-55.5 47.5t-35 64t-14 84q0 87 41.5 152t111.5 105q-153 65 -153 197q0 66 24 120.5t63.5 90.5t92.5 61t108.5 36t112.5 11t112.5 -11 t108 -36t92 -61.5t63.5 -90.5t24 -120h-150q0 94 -68.5 140.5t-181.5 46.5q-112 0 -181.5 -45.5t-69.5 -134.5q0 -58 60.5 -86t203.5 -50q43 -6 72.5 -11.5t73.5 -17t74.5 -25t64.5 -35.5t54.5 -49t34.5 -66t14 -85q0 -164 -148 -247q148 -65 148 -195q0 -82 -36 -145.5 t-95.5 -100.5t-128 -55.5t-141.5 -18.5t-141.5 19t-127.5 56t-94.5 100.5t-35.5 144.5zM495 884q-108 -2 -176.5 -50.5t-68.5 -142.5q0 -70 57 -98.5t200 -48.5q112 2 178.5 46t66.5 137q0 32 -11 55t-29 38.5t-52.5 27.5t-70.5 19.5t-94 16.5z" />
<glyph unicode="&#xa8;" horiz-adv-x="666" d="M410.028 1228.85q0 33.7051 24.877 56.9775q24.8779 23.2725 58.582 23.2725t57.7793 -23.2725t24.0752 -56.9775q0 -33.7041 -24.0752 -57.7793q-24.0752 -24.0742 -57.7793 -24.0742t-58.582 24.0742q-24.877 24.0752 -24.877 57.7793zM108.028 1228.85 q0 33.7051 24.877 56.9775q24.8779 23.2725 58.582 23.2725t57.7793 -23.2725t24.0752 -56.9775q0 -33.7041 -24.0752 -57.7793q-24.0752 -24.0742 -57.7793 -24.0742t-58.582 24.0742q-24.877 24.0752 -24.877 57.7793z" />
<glyph unicode="&#xa9;" horiz-adv-x="1750" d="M265 720q0 -128 49.5 -243t132 -197t194.5 -130t234 -48t234 48t194.5 130t132 197t49.5 243t-49.5 243t-132 196t-194.5 129t-234 48t-234 -48t-194.5 -129t-132 -196t-49.5 -243zM115 720q0 151 59 289t160 239t242.5 161t298.5 60t298.5 -60t242.5 -161t160 -239 t59 -289t-59 -289t-160 -239.5t-242.5 -161.5t-298.5 -60t-298.5 60t-242.5 161.5t-160 239.5t-59 289zM1192 968l-102 -61q-40 48 -97 74.5t-118 26.5q-115 0 -196 -83t-81 -204q0 -120 81 -203t196 -83q61 0 118 26.5t97 74.5l102 -62q-57 -69 -141 -108t-176 -39 q-174 0 -288.5 117.5t-114.5 276.5q0 102 50 192t143.5 146t209.5 56q92 0 176 -39t141 -108z" />
<glyph unicode="&#xaa;" horiz-adv-x="747" d="M502 1234v72q0 54 -41.5 82.5t-110.5 28.5q-70 0 -110 -28t-40 -85h-74q0 95 67 141.5t157 46.5q56 0 105.5 -17t86 -61t36.5 -108v-255q0 -98 44 -131l-46 -59q-39 31 -57 84q-78 -89 -209 -89q-87 0 -142.5 49t-55.5 125q0 108 84 159t215 51q43 0 91 -6zM502 1158 q-61 7 -91 7q-223 0 -223 -135q0 -43 31 -71t91 -28q140 0 192 127v100z" />
<glyph unicode="&#xab;" horiz-adv-x="1173" d="M963 1048l67 -69l-392 -372l392 -372l-67 -70l-466 442zM565 1048l67 -69l-392 -372l392 -372l-67 -70l-466 442z" />
<glyph unicode="&#xac;" horiz-adv-x="1073" d="M88 443v132h840v-350h-150v218h-690z" />
<glyph unicode="&#xad;" horiz-adv-x="993" d="M886 570v-122h-778v122h778z" />
<glyph unicode="&#xae;" horiz-adv-x="1750" d="M115 720q0 151 59 289t160 239t242.5 161t298.5 60t298.5 -60t242.5 -161t160 -239t59 -289t-59 -289t-160 -239.5t-242.5 -161.5t-298.5 -60t-298.5 60t-242.5 161.5t-160 239.5t-59 289zM265 720q0 -128 49.5 -243t132 -197t194.5 -130t234 -48t234 48t194.5 130 t132 197t49.5 243t-49.5 243t-132 196t-194.5 129t-234 48t-234 -48t-194.5 -129t-132 -196t-49.5 -243zM722 681h184q81 0 134.5 45t53.5 120t-53.5 121t-134.5 46h-184v-332zM1195 368l-102 -62l-219 267h-152v-236h-124v784h308q131 0 222.5 -78.5t91.5 -196.5 q0 -92 -58 -160.5t-149 -95.5z" />
<glyph unicode="&#xaf;" horiz-adv-x="993" d="M886 1077v-122h-778v122h778z" />
<glyph unicode="&#xb0;" horiz-adv-x="646" d="M478 1427q0 65 -45 110t-110 45t-110 -45t-45 -110t45 -109.5t110 -44.5t110 44.5t45 109.5zM552 1427q0 -95 -67 -162t-162 -67t-162 67t-67 162t67 162.5t162 67.5t162 -67.5t67 -162.5z" />
<glyph unicode="&#xb1;" horiz-adv-x="993" d="M886 115v-122h-778v122h778zM886 606v-122h-320v-327h-140v327h-318v122h318v328h140v-328h320z" />
<glyph unicode="&#xb2;" horiz-adv-x="658" d="M112 881v73l275 250q24 24 33.5 43t9.5 55q0 56 -34.5 85.5t-86.5 29.5q-53 0 -87 -30t-34 -87h-76q0 91 59 141.5t138 50.5q78 0 137.5 -50t59.5 -140q0 -87 -67 -150l-218 -196h289v-75h-398z" />
<glyph unicode="&#xb3;" horiz-adv-x="606" d="M188 1318h-76q0 75 56.5 124.5t134.5 49.5q77 0 134 -49.5t57 -122.5q0 -83 -73 -134q73 -52 73 -134q0 -73 -57 -122t-134 -49q-78 0 -134.5 49.5t-56.5 124.5h76q0 -40 32.5 -69.5t82.5 -29.5t82.5 28.5t32.5 67.5t-32.5 68t-82.5 29h-63v75h63q50 0 82.5 28.5 t32.5 67.5t-32.5 68t-82.5 29t-82.5 -29.5t-32.5 -69.5z" />
<glyph unicode="&#xb4;" horiz-adv-x="517" d="M327 1504l63 -40l-200 -320l-63 40z" />
<glyph unicode="&#xb5;" horiz-adv-x="1123" d="M152 1042h150v-690q0 -102 48 -168t162 -66q137 0 222.5 87.5t85.5 224.5v612h150v-1042h-150v118q-128 -133 -318 -133q-125 0 -200 63v-552h-150v1546z" />
<glyph unicode="&#xb6;" horiz-adv-x="1268" d="M708 1304h-167q-117 0 -204 -92t-87 -242t87 -241.5t204 -91.5h167v667zM1116 -412h-130v1716h-148v-1716h-130v921h-167q-188 0 -314.5 134t-126.5 327t126.5 327t314.5 134h575v-1843z" />
<glyph unicode="&#xb7;" horiz-adv-x="345" d="M128 764q0 42 31 71t73 29t72 -29t30 -71t-30 -72t-72 -30t-73 30t-31 72z" />
<glyph unicode="&#xb8;" horiz-adv-x="723" d="M161 -348q72 -63 189 -63q64 0 112.5 28t48.5 64q0 64 -57 145t-134 139l54 82q101 -73 163 -168.5t62 -197.5q0 -51 -24 -89.5t-62.5 -59t-79.5 -30.5t-84 -10q-147 0 -243 95z" />
<glyph unicode="&#xb9;" horiz-adv-x="457" d="M86 1275v75h156v107h76v-631h-76v449h-156z" />
<glyph unicode="&#xba;" horiz-adv-x="646" d="M478 1427q0 65 -45 110t-110 45t-110 -45t-45 -110t45 -109.5t110 -44.5t110 44.5t45 109.5zM552 1427q0 -95 -67 -162t-162 -67t-162 67t-67 162t67 162.5t162 67.5t162 -67.5t67 -162.5z" />
<glyph unicode="&#xbb;" horiz-adv-x="1172" d="M189 165l-67 70l392 371l-392 373l67 69l466 -442zM586 165l-67 70l392 371l-392 373l67 69l466 -442z" />
<glyph unicode="&#xbc;" horiz-adv-x="1965" d="M138 1182v124h64q93 0 133 15.5t61 59.5v165h150v-1086h-150v766q-72 -44 -214 -44h-44zM1828 -60v-122h-134v-246h-150v246h-514v110l508 781h156v-769h134zM1544 -60v536l-348 -536h348zM622 -58l-126 70l1046 1388l126 -72z" />
<glyph unicode="&#xbd;" horiz-adv-x="2096" d="M620 -58l-127 70l1047 1388l126 -72zM1981 -314v-127h-737v124l496 474q47 45 70.5 92t23.5 118q0 107 -64 164t-158 57q-93 0 -155 -59.5t-62 -174.5h-150q0 112 52 196t134 125t181 41q71 0 136.5 -23.5t117.5 -67t83.5 -112.5t31.5 -152q0 -172 -131 -294l-397 -381 h528zM138 1182v124h64q93 0 133 15.5t61 59.5v165h150v-1086h-150v766q-72 -44 -214 -44h-44z" />
<glyph unicode="&#xbe;" horiz-adv-x="2140" d="M2002 -60v-122h-133v-246h-150v246h-514v110l509 781h155v-769h133zM1719 -60v535l-348 -535h348zM426 924h-94v122h94q117 0 175.5 46t58.5 154q0 76 -64 133t-153 57q-92 0 -155 -57.5t-63 -172.5h-150q0 168 107.5 263t260.5 95q150 0 258.5 -93t108.5 -225 q0 -177 -136 -261q136 -84 136 -260q0 -132 -108.5 -225t-258.5 -93q-73 0 -138.5 23t-117 66.5t-82 113t-30.5 154.5h150q0 -115 63 -172.5t155 -57.5q89 0 153 57.5t64 133.5q0 107 -58.5 153t-175.5 46zM798 -58l-127 70l1047 1388l126 -72z" />
<glyph unicode="&#xbf;" horiz-adv-x="1127" d="M845 65l150 18q7 -56 7 -98q0 -78 -25.5 -147t-74.5 -123.5t-127 -86t-176 -31.5q-127 0 -223 60.5t-143.5 157t-47.5 211.5q0 55 14 100t42 80t54.5 58t65.5 50q34 23 54 39t47 44t41.5 56t25 70.5t10.5 93.5h150q0 -62 -13.5 -115.5t-32.5 -90.5t-51 -72.5t-56.5 -56 t-60.5 -46.5q-72 -52 -106 -99t-34 -124q0 -128 72 -208.5t192 -80.5q125 0 189 69.5t64 191.5q0 44 -7 80zM503 941q0 -42 31 -71t73 -29t72 29t30 71t-30 72t-72 30t-73 -30t-31 -72z" />
<glyph unicode="&#xc0;" horiz-adv-x="1315" d="M386 535h544l-272 705zM180 0h-158l559 1431h155l557 -1431h-158l-158 412h-638zM791 1778l-63 -40l-201 320l63 40z" />
<glyph unicode="&#xc1;" horiz-adv-x="1315" d="M386 535h544l-272 705zM180 0h-158l559 1431h155l557 -1431h-158l-158 412h-638zM727 2098l63 -40l-200 -320l-63 40z" />
<glyph unicode="&#xc2;" horiz-adv-x="1315" d="M386 535h544l-272 705zM180 0h-158l559 1431h155l557 -1431h-158l-158 412h-638zM923 1758l-59 -47l-204 257l-204 -257l-59 47l225 284h76z" />
<glyph unicode="&#xc3;" horiz-adv-x="1315" d="M386 535h544l-272 705zM180 0h-158l559 1431h155l557 -1431h-158l-158 412h-638zM302 1773q38 88 94.5 132.5t115.5 44.5q81 0 168 -65q39 -29 65 -39.5t60 -10.5q31 0 70 32.5t70 104.5l70 -30q-38 -89 -94.5 -135.5t-115.5 -46.5q-86 0 -169 65q-41 30 -65.5 40 t-58.5 10q-33 0 -71 -30t-69 -102z" />
<glyph unicode="&#xc4;" horiz-adv-x="1315" d="M386 535h544l-272 705zM180 0h-158l559 1431h155l557 -1431h-158l-158 412h-638zM736.028 1842.85q0 33.7051 24.877 56.9775q24.8779 23.2725 58.582 23.2725t57.7793 -23.2725t24.0752 -56.9775q0 -33.7041 -24.0752 -57.7793q-24.0752 -24.0742 -57.7793 -24.0742 t-58.582 24.0742q-24.877 24.0752 -24.877 57.7793zM434.028 1842.85q0 33.7051 24.877 56.9775q24.8779 23.2725 58.582 23.2725t57.7793 -23.2725t24.0752 -56.9775q0 -33.7041 -24.0752 -57.7793q-24.0752 -24.0742 -57.7793 -24.0742t-58.582 24.0742 q-24.877 24.0752 -24.877 57.7793z" />
<glyph unicode="&#xc5;" horiz-adv-x="1315" d="M386 535h544l-272 705zM180 0h-158l559 1431h155l557 -1431h-158l-158 412h-638zM813 1993q0 65 -45 110t-110 45t-110 -45t-45 -110t45 -109.5t110 -44.5t110 44.5t45 109.5zM887 1993q0 -95 -67 -162t-162 -67t-162 67t-67 162t67 162.5t162 67.5t162 -67.5t67 -162.5z " />
<glyph unicode="&#xc6;" horiz-adv-x="1831" d="M845 1246h-46l-362 -764h408v764zM727 1431h1040v-127h-772v-548h772v-123h-772v-505h772v-128h-922v360h-469l-180 -360h-164z" />
<glyph unicode="&#xc7;" horiz-adv-x="1438" d="M1102 235l109 -90q-177 -165 -436 -165q-130 0 -239.5 40.5t-185 111t-128.5 165.5t-78 202t-25 223t25 222t78 199t129 161t185 107.5t239 39.5q260 0 436 -163l-109 -91q-137 127 -327 127q-163 0 -279 -79.5t-171.5 -213.5t-55.5 -309t55.5 -312t172 -219.5 t278.5 -82.5q190 0 327 127zM477 -326q72 -63 189 -63q64 0 112.5 28t48.5 64q0 64 -57 145t-134 139l54 82q101 -73 163 -168.5t62 -197.5q0 -51 -24 -89.5t-62.5 -59t-79.5 -30.5t-84 -10q-147 0 -243 95z" />
<glyph unicode="&#xc8;" horiz-adv-x="1106" d="M1044 128v-128h-869v1431h869v-127h-719v-538h719v-122h-719v-516h719zM734 1778l-63 -40l-201 320l63 40z" />
<glyph unicode="&#xc9;" horiz-adv-x="1106" d="M1044 128v-128h-869v1431h869v-127h-719v-538h719v-122h-719v-516h719zM670 2098l63 -40l-200 -320l-63 40z" />
<glyph unicode="&#xca;" horiz-adv-x="1106" d="M1044 128v-128h-869v1431h869v-127h-719v-538h719v-122h-719v-516h719zM865 1758l-59 -47l-204 257l-204 -257l-59 47l225 284h76z" />
<glyph unicode="&#xcb;" horiz-adv-x="1106" d="M1044 128v-128h-869v1431h869v-127h-719v-538h719v-122h-719v-516h719zM679.028 1842.85q0 33.7051 24.877 56.9775q24.8779 23.2725 58.582 23.2725t57.7793 -23.2725t24.0752 -56.9775q0 -33.7041 -24.0752 -57.7793q-24.0752 -24.0742 -57.7793 -24.0742 t-58.582 24.0742q-24.877 24.0752 -24.877 57.7793zM377.028 1842.85q0 33.7051 24.877 56.9775q24.8779 23.2725 58.582 23.2725t57.7793 -23.2725t24.0752 -56.9775q0 -33.7041 -24.0752 -57.7793q-24.0752 -24.0742 -57.7793 -24.0742t-58.582 24.0742 q-24.877 24.0752 -24.877 57.7793z" />
<glyph unicode="&#xcc;" horiz-adv-x="575" d="M362 0h-150v1431h150v-1431zM420 1778l-63 -40l-201 320l63 40z" />
<glyph unicode="&#xcd;" horiz-adv-x="575" d="M362 0h-150v1431h150v-1431zM357 2098l63 -40l-200 -320l-63 40z" />
<glyph unicode="&#xce;" horiz-adv-x="575" d="M362 0h-150v1431h150v-1431zM551 1758l-59 -47l-204 257l-204 -257l-59 47l225 284h76z" />
<glyph unicode="&#xcf;" horiz-adv-x="575" d="M362 0h-150v1431h150v-1431zM365.028 1842.85q0 33.7051 24.877 56.9775q24.8779 23.2725 58.582 23.2725t57.7793 -23.2725t24.0752 -56.9775q0 -33.7041 -24.0752 -57.7793q-24.0752 -24.0742 -57.7793 -24.0742t-58.582 24.0742q-24.877 24.0752 -24.877 57.7793z M63.0283 1842.85q0 33.7051 24.877 56.9775q24.8779 23.2725 58.582 23.2725t57.7793 -23.2725t24.0752 -56.9775q0 -33.7041 -24.0752 -57.7793q-24.0752 -24.0742 -57.7793 -24.0742t-58.582 24.0742q-24.877 24.0752 -24.877 57.7793z" />
<glyph unicode="&#xd0;" horiz-adv-x="1569" d="M881 762v-122h-778v122h778zM847 1431q132 0 241.5 -38.5t185.5 -106t128.5 -159.5t77 -198t24.5 -224q0 -148 -40 -273.5t-118.5 -223t-206 -153t-292.5 -55.5h-415v1431h415zM847 1304h-265v-1176h265q251 0 379 152t128 425q0 276 -129 437.5t-378 161.5z" />
<glyph unicode="&#xd1;" horiz-adv-x="1416" d="M1091 1431h150v-1431h-157l-759 1186v-1186h-150v1431h156l760 -1187v1187zM352 1806q38 88 94.5 132.5t115.5 44.5q81 0 168 -65q39 -29 65 -39.5t60 -10.5q31 0 70 32.5t70 104.5l70 -30q-38 -89 -94.5 -135.5t-115.5 -46.5q-86 0 -169 65q-41 30 -65.5 40t-58.5 10 q-33 0 -71 -30t-69 -102z" />
<glyph unicode="&#xd2;" horiz-adv-x="1542" d="M771 1451q130 0 239 -41t185 -112t129 -166.5t78 -203t25 -223.5q0 -146 -40.5 -274.5t-119 -230t-206.5 -161t-290 -59.5t-290 59.5t-206.5 161t-119 230t-40.5 274.5q0 116 25 223.5t78 203t129 166.5t185 112t239 41zM771 1324q-123 0 -220.5 -48t-159 -132.5 t-94 -196t-32.5 -242.5q0 -175 55.5 -307.5t171.5 -211t279 -78.5t279 78.5t171.5 211t55.5 307.5q0 131 -32.5 242.5t-94 196t-159 132.5t-220.5 48zM903 1778l-63 -40l-201 320l63 40z" />
<glyph unicode="&#xd3;" horiz-adv-x="1542" d="M771 1451q130 0 239 -41t185 -112t129 -166.5t78 -203t25 -223.5q0 -146 -40.5 -274.5t-119 -230t-206.5 -161t-290 -59.5t-290 59.5t-206.5 161t-119 230t-40.5 274.5q0 116 25 223.5t78 203t129 166.5t185 112t239 41zM771 1324q-123 0 -220.5 -48t-159 -132.5 t-94 -196t-32.5 -242.5q0 -175 55.5 -307.5t171.5 -211t279 -78.5t279 78.5t171.5 211t55.5 307.5q0 131 -32.5 242.5t-94 196t-159 132.5t-220.5 48zM839 2098l63 -40l-200 -320l-63 40z" />
<glyph unicode="&#xd4;" horiz-adv-x="1542" d="M771 1451q130 0 239 -41t185 -112t129 -166.5t78 -203t25 -223.5q0 -146 -40.5 -274.5t-119 -230t-206.5 -161t-290 -59.5t-290 59.5t-206.5 161t-119 230t-40.5 274.5q0 116 25 223.5t78 203t129 166.5t185 112t239 41zM771 1324q-123 0 -220.5 -48t-159 -132.5 t-94 -196t-32.5 -242.5q0 -175 55.5 -307.5t171.5 -211t279 -78.5t279 78.5t171.5 211t55.5 307.5q0 131 -32.5 242.5t-94 196t-159 132.5t-220.5 48zM1034 1758l-59 -47l-204 257l-204 -257l-59 47l225 284h76z" />
<glyph unicode="&#xd5;" horiz-adv-x="1542" d="M771 1451q130 0 239 -41t185 -112t129 -166.5t78 -203t25 -223.5q0 -146 -40.5 -274.5t-119 -230t-206.5 -161t-290 -59.5t-290 59.5t-206.5 161t-119 230t-40.5 274.5q0 116 25 223.5t78 203t129 166.5t185 112t239 41zM771 1324q-123 0 -220.5 -48t-159 -132.5 t-94 -196t-32.5 -242.5q0 -175 55.5 -307.5t171.5 -211t279 -78.5t279 78.5t171.5 211t55.5 307.5q0 131 -32.5 242.5t-94 196t-159 132.5t-220.5 48zM414 1773q38 88 94.5 132.5t115.5 44.5q81 0 168 -65q39 -29 65 -39.5t60 -10.5q31 0 70 32.5t70 104.5l70 -30 q-38 -89 -94.5 -135.5t-115.5 -46.5q-86 0 -169 65q-41 30 -65.5 40t-58.5 10q-33 0 -71 -30t-69 -102z" />
<glyph unicode="&#xd6;" horiz-adv-x="1542" d="M771 1451q130 0 239 -41t185 -112t129 -166.5t78 -203t25 -223.5q0 -146 -40.5 -274.5t-119 -230t-206.5 -161t-290 -59.5t-290 59.5t-206.5 161t-119 230t-40.5 274.5q0 116 25 223.5t78 203t129 166.5t185 112t239 41zM771 1324q-123 0 -220.5 -48t-159 -132.5 t-94 -196t-32.5 -242.5q0 -175 55.5 -307.5t171.5 -211t279 -78.5t279 78.5t171.5 211t55.5 307.5q0 131 -32.5 242.5t-94 196t-159 132.5t-220.5 48zM849.028 1842.85q0 33.7051 24.877 56.9775q24.8779 23.2725 58.582 23.2725t57.7793 -23.2725t24.0752 -56.9775 q0 -33.7041 -24.0752 -57.7793q-24.0752 -24.0742 -57.7793 -24.0742t-58.582 24.0742q-24.877 24.0752 -24.877 57.7793zM547.028 1842.85q0 33.7051 24.877 56.9775q24.8779 23.2725 58.582 23.2725t57.7793 -23.2725t24.0752 -56.9775q0 -33.7041 -24.0752 -57.7793 q-24.0752 -24.0742 -57.7793 -24.0742t-58.582 24.0742q-24.877 24.0752 -24.877 57.7793z" />
<glyph unicode="&#xd7;" horiz-adv-x="864" d="M523.138 825.987l86.2725 -43.1289l-275.035 -550.117l-86.2725 43.1289zM750.987 408.773l-43.1289 -86.2646l-550.117 275.082l43.1289 86.2656z" />
<glyph unicode="&#xd8;" horiz-adv-x="1750" d="M1574 1454l75 -78l-1473 -1421l-75 78zM903 1451q130 0 239 -41t185 -112t129 -166.5t78 -203t25 -223.5q0 -146 -40.5 -274.5t-119 -230t-206.5 -161t-290 -59.5t-290 59.5t-206.5 161t-119 230t-40.5 274.5q0 116 25 223.5t78 203t129 166.5t185 112t239 41zM903 1324 q-123 0 -220.5 -48t-159 -132.5t-94 -196t-32.5 -242.5q0 -175 55.5 -307.5t171.5 -211t279 -78.5t279 78.5t171.5 211t55.5 307.5q0 131 -32.5 242.5t-94 196t-159 132.5t-220.5 48z" />
<glyph unicode="&#xd9;" horiz-adv-x="1358" d="M1042 1431h150v-971q0 -139 -69.5 -249.5t-186 -170.5t-257.5 -60t-257.5 60t-186 170.5t-69.5 249.5v971h150v-977q0 -159 104 -252.5t259 -93.5t259 93.5t104 252.5v977zM811 1778l-63 -40l-201 320l63 40z" />
<glyph unicode="&#xda;" horiz-adv-x="1358" d="M1042 1431h150v-971q0 -139 -69.5 -249.5t-186 -170.5t-257.5 -60t-257.5 60t-186 170.5t-69.5 249.5v971h150v-977q0 -159 104 -252.5t259 -93.5t259 93.5t104 252.5v977zM748 2098l63 -40l-200 -320l-63 40z" />
<glyph unicode="&#xdb;" horiz-adv-x="1358" d="M1042 1431h150v-971q0 -139 -69.5 -249.5t-186 -170.5t-257.5 -60t-257.5 60t-186 170.5t-69.5 249.5v971h150v-977q0 -159 104 -252.5t259 -93.5t259 93.5t104 252.5v977zM943 1758l-59 -47l-204 257l-204 -257l-59 47l225 284h76z" />
<glyph unicode="&#xdc;" horiz-adv-x="1358" d="M1042 1431h150v-971q0 -139 -69.5 -249.5t-186 -170.5t-257.5 -60t-257.5 60t-186 170.5t-69.5 249.5v971h150v-977q0 -159 104 -252.5t259 -93.5t259 93.5t104 252.5v977zM757.028 1842.85q0 33.7051 24.877 56.9775q24.8779 23.2725 58.582 23.2725t57.7793 -23.2725 t24.0752 -56.9775q0 -33.7041 -24.0752 -57.7793q-24.0752 -24.0742 -57.7793 -24.0742t-58.582 24.0742q-24.877 24.0752 -24.877 57.7793zM455.028 1842.85q0 33.7051 24.877 56.9775q24.8779 23.2725 58.582 23.2725t57.7793 -23.2725t24.0752 -56.9775 q0 -33.7041 -24.0752 -57.7793q-24.0752 -24.0742 -57.7793 -24.0742t-58.582 24.0742q-24.877 24.0752 -24.877 57.7793z" />
<glyph unicode="&#xdd;" horiz-adv-x="1179" d="M984 1431h173l-492 -779v-652h-150v652l-493 779h173l395 -642zM658 2098l63 -40l-200 -320l-63 40z" />
<glyph unicode="&#xde;" horiz-adv-x="1169" d="M328 432h262q142 0 229 69.5t87 204.5q0 136 -87 205.5t-229 69.5h-262v-549zM328 0h-150v1431h150v-327h262q93 0 175.5 -25t148 -72.5t104 -125t38.5 -175.5t-38.5 -175t-104 -124.5t-148 -72.5t-175.5 -25h-262v-309z" />
<glyph unicode="&#xdf;" horiz-adv-x="1164" d="M544 0v133q226 0 298 22.5t72 102.5q0 54 -30 92.5t-93 83.5q-37 27 -59 45.5t-52.5 52t-45.5 74t-15 88.5q0 47 14 88t28.5 62.5t41.5 55.5q25 31 38.5 50.5t26 55t12.5 74.5q0 111 -60 177.5t-173 66.5q-117 0 -174.5 -66.5t-57.5 -186.5v-1071h-150v1071q0 75 23 142 t68.5 121t120 85.5t170.5 31.5q94 0 168.5 -31.5t120.5 -85t70 -121t24 -142.5q0 -128 -94 -226q-34 -36 -51 -69t-17 -79q0 -48 28 -82t89 -77q36 -25 62.5 -49t55.5 -59t45 -80t16 -95q0 -66 -23 -112t-62.5 -74t-108 -43.5t-143 -20.5t-183.5 -5z" />
<glyph unicode="&#xe0;" horiz-adv-x="1020" d="M908 0h-147q-43 146 -43 340v406q0 89 -65.5 138.5t-168.5 49.5t-167.5 -49.5t-64.5 -138.5h-150q0 100 57 174t142 108t183 34q70 0 137 -20t123 -57t90 -98.5t34 -137.5v-409q0 -204 40 -340zM827 582l-54 -104q-88 22 -181 22q-154 0 -258.5 -58t-104.5 -164 q0 -80 52 -124t152 -44q115 0 200 69t85 181h120q0 -90 -37 -163.5t-98.5 -119t-136 -70.5t-153.5 -25q-146 0 -238 80.5t-92 217.5q0 74 32 132.5t83.5 95t120 61t136 34t137.5 9.5q118 0 235 -30zM629 1336l-63 -40l-201 320l63 40z" />
<glyph unicode="&#xe1;" horiz-adv-x="1020" d="M908 0h-147q-43 146 -43 340v406q0 89 -65.5 138.5t-168.5 49.5t-167.5 -49.5t-64.5 -138.5h-150q0 100 57 174t142 108t183 34q70 0 137 -20t123 -57t90 -98.5t34 -137.5v-409q0 -204 40 -340zM827 582l-54 -104q-88 22 -181 22q-154 0 -258.5 -58t-104.5 -164 q0 -80 52 -124t152 -44q115 0 200 69t85 181h120q0 -90 -37 -163.5t-98.5 -119t-136 -70.5t-153.5 -25q-146 0 -238 80.5t-92 217.5q0 74 32 132.5t83.5 95t120 61t136 34t137.5 9.5q118 0 235 -30zM565 1656l63 -40l-200 -320l-63 40z" />
<glyph unicode="&#xe2;" horiz-adv-x="1020" d="M908 0h-147q-43 146 -43 340v406q0 89 -65.5 138.5t-168.5 49.5t-167.5 -49.5t-64.5 -138.5h-150q0 100 57 174t142 108t183 34q70 0 137 -20t123 -57t90 -98.5t34 -137.5v-409q0 -204 40 -340zM827 582l-54 -104q-88 22 -181 22q-154 0 -258.5 -58t-104.5 -164 q0 -80 52 -124t152 -44q115 0 200 69t85 181h120q0 -90 -37 -163.5t-98.5 -119t-136 -70.5t-153.5 -25q-146 0 -238 80.5t-92 217.5q0 74 32 132.5t83.5 95t120 61t136 34t137.5 9.5q118 0 235 -30zM761 1316l-59 -47l-204 257l-204 -257l-59 47l225 284h76z" />
<glyph unicode="&#xe3;" horiz-adv-x="1020" d="M908 0h-147q-43 146 -43 340v406q0 89 -65.5 138.5t-168.5 49.5t-167.5 -49.5t-64.5 -138.5h-150q0 100 57 174t142 108t183 34q70 0 137 -20t123 -57t90 -98.5t34 -137.5v-409q0 -204 40 -340zM827 582l-54 -104q-88 22 -181 22q-154 0 -258.5 -58t-104.5 -164 q0 -80 52 -124t152 -44q115 0 200 69t85 181h120q0 -90 -37 -163.5t-98.5 -119t-136 -70.5t-153.5 -25q-146 0 -238 80.5t-92 217.5q0 74 32 132.5t83.5 95t120 61t136 34t137.5 9.5q118 0 235 -30zM135 1357q38 88 94.5 132.5t115.5 44.5q81 0 168 -65q39 -29 65 -39.5 t60 -10.5q31 0 70 32.5t70 104.5l70 -30q-38 -89 -94.5 -135.5t-115.5 -46.5q-86 0 -169 65q-41 30 -65.5 40t-58.5 10q-33 0 -71 -30t-69 -102z" />
<glyph unicode="&#xe4;" horiz-adv-x="1020" d="M908 0h-147q-43 146 -43 340v406q0 89 -65.5 138.5t-168.5 49.5t-167.5 -49.5t-64.5 -138.5h-150q0 100 57 174t142 108t183 34q70 0 137 -20t123 -57t90 -98.5t34 -137.5v-409q0 -204 40 -340zM827 582l-54 -104q-88 22 -181 22q-154 0 -258.5 -58t-104.5 -164 q0 -80 52 -124t152 -44q115 0 200 69t85 181h120q0 -90 -37 -163.5t-98.5 -119t-136 -70.5t-153.5 -25q-146 0 -238 80.5t-92 217.5q0 74 32 132.5t83.5 95t120 61t136 34t137.5 9.5q118 0 235 -30zM569.028 1400.85q0 33.7051 24.877 56.9775 q24.8779 23.2725 58.582 23.2725t57.7793 -23.2725t24.0752 -56.9775q0 -33.7041 -24.0752 -57.7793q-24.0752 -24.0742 -57.7793 -24.0742t-58.582 24.0742q-24.877 24.0752 -24.877 57.7793zM267.028 1400.85q0 33.7051 24.877 56.9775q24.8779 23.2725 58.582 23.2725 t57.7793 -23.2725t24.0752 -56.9775q0 -33.7041 -24.0752 -57.7793q-24.0752 -24.0742 -57.7793 -24.0742t-58.582 24.0742q-24.877 24.0752 -24.877 57.7793z" />
<glyph unicode="&#xe5;" horiz-adv-x="1020" d="M908 0h-147q-43 146 -43 340v406q0 89 -65.5 138.5t-168.5 49.5t-167.5 -49.5t-64.5 -138.5h-150q0 100 57 174t142 108t183 34q70 0 137 -20t123 -57t90 -98.5t34 -137.5v-409q0 -204 40 -340zM827 582l-54 -104q-88 22 -181 22q-154 0 -258.5 -58t-104.5 -164 q0 -80 52 -124t152 -44q115 0 200 69t85 181h120q0 -90 -37 -163.5t-98.5 -119t-136 -70.5t-153.5 -25q-146 0 -238 80.5t-92 217.5q0 74 32 132.5t83.5 95t120 61t136 34t137.5 9.5q118 0 235 -30zM652 1551q0 65 -45 110t-110 45t-110 -45t-45 -110t45 -109.5t110 -44.5 t110 44.5t45 109.5zM726 1551q0 -95 -67 -162t-162 -67t-162 67t-67 162t67 162.5t162 67.5t162 -67.5t67 -162.5z" />
<glyph unicode="&#xe6;" horiz-adv-x="1729" d="M865 481q14 -175 108.5 -274.5t254.5 -99.5t320 82l64 -107q-201 -102 -398 -102q-300 0 -425 246q-51 -111 -152.5 -178.5t-238.5 -67.5q-140 0 -231.5 82t-91.5 215q0 91 41 159t112.5 106.5t157.5 57t186 18.5q75 0 138 -8v101q0 96 -62 160t-172 64 q-107 0 -169.5 -49.5t-62.5 -139.5h-150q0 101 55.5 174.5t140.5 107.5t186 34q112 0 203 -57t139 -148q148 205 361 205q118 0 211.5 -44.5t150 -119t85.5 -166.5t29 -194v-57h-790zM865 594h634q-15 158 -97.5 249.5t-222.5 91.5q-139 0 -219 -91.5t-95 -249.5zM710 495 q-79 11 -141 11q-158 0 -252.5 -56t-94.5 -165q0 -86 50.5 -130.5t139.5 -44.5q133 0 215.5 80t82.5 202v103z" />
<glyph unicode="&#xe7;" horiz-adv-x="1017" d="M820 274l135 -56q-56 -108 -158.5 -173t-244.5 -65q-95 0 -174.5 31t-133 83.5t-91 122.5t-54.5 146t-17 157t17 157.5t54.5 146.5t91 122.5t133 84t174.5 31.5q142 0 244.5 -64t159.5 -171l-136 -56q-87 164 -268 164q-151 0 -235.5 -116.5t-84.5 -298.5t84 -297 t236 -115q179 0 268 166zM291 -325q72 -63 189 -63q64 0 112.5 28t48.5 64q0 64 -57 145t-134 139l54 82q101 -73 163 -168.5t62 -197.5q0 -51 -24 -89.5t-62.5 -59t-79.5 -30.5t-84 -10q-147 0 -243 95z" />
<glyph unicode="&#xe8;" horiz-adv-x="1089" d="M230 464q13 -187 111.5 -271.5t260.5 -84.5q168 0 329 76l46 -102q-186 -102 -389 -102q-230 0 -371.5 140.5t-141.5 399.5q0 81 17 157.5t54 146.5t90.5 122.5t133 84t174.5 31.5t174 -31t133 -83.5t92 -122.5t55 -147t17 -158l-1 -56h-784zM230 577h629 q-16 161 -96.5 259.5t-218.5 98.5q-137 0 -218 -98.5t-96 -259.5zM680 1336l-63 -40l-201 320l63 40z" />
<glyph unicode="&#xe9;" horiz-adv-x="1089" d="M230 464q13 -187 111.5 -271.5t260.5 -84.5q168 0 329 76l46 -102q-186 -102 -389 -102q-230 0 -371.5 140.5t-141.5 399.5q0 81 17 157.5t54 146.5t90.5 122.5t133 84t174.5 31.5t174 -31t133 -83.5t92 -122.5t55 -147t17 -158l-1 -56h-784zM230 577h629 q-16 161 -96.5 259.5t-218.5 98.5q-137 0 -218 -98.5t-96 -259.5zM615 1656l63 -40l-200 -320l-63 40z" />
<glyph unicode="&#xea;" horiz-adv-x="1089" d="M230 464q13 -187 111.5 -271.5t260.5 -84.5q168 0 329 76l46 -102q-186 -102 -389 -102q-230 0 -371.5 140.5t-141.5 399.5q0 81 17 157.5t54 146.5t90.5 122.5t133 84t174.5 31.5t174 -31t133 -83.5t92 -122.5t55 -147t17 -158l-1 -56h-784zM230 577h629 q-16 161 -96.5 259.5t-218.5 98.5q-137 0 -218 -98.5t-96 -259.5zM812 1316l-59 -47l-204 257l-204 -257l-59 47l225 284h76z" />
<glyph unicode="&#xeb;" horiz-adv-x="1089" d="M230 464q13 -187 111.5 -271.5t260.5 -84.5q168 0 329 76l46 -102q-186 -102 -389 -102q-230 0 -371.5 140.5t-141.5 399.5q0 81 17 157.5t54 146.5t90.5 122.5t133 84t174.5 31.5t174 -31t133 -83.5t92 -122.5t55 -147t17 -158l-1 -56h-784zM230 577h629 q-16 161 -96.5 259.5t-218.5 98.5q-137 0 -218 -98.5t-96 -259.5zM625.028 1400.85q0 33.7051 24.877 56.9775q24.8779 23.2725 58.582 23.2725t57.7793 -23.2725t24.0752 -56.9775q0 -33.7041 -24.0752 -57.7793q-24.0752 -24.0742 -57.7793 -24.0742t-58.582 24.0742 q-24.877 24.0752 -24.877 57.7793zM323.028 1400.85q0 33.7051 24.877 56.9775q24.8779 23.2725 58.582 23.2725t57.7793 -23.2725t24.0752 -56.9775q0 -33.7041 -24.0752 -57.7793q-24.0752 -24.0742 -57.7793 -24.0742t-58.582 24.0742q-24.877 24.0752 -24.877 57.7793z " />
<glyph unicode="&#xec;" horiz-adv-x="507" d="M386 1336l-63 -40l-201 320l63 40zM180 1042h150v-1042h-150v1042z" />
<glyph unicode="&#xed;" horiz-adv-x="507" d="M322 1656l63 -40l-200 -320l-63 40zM180 1042h150v-1042h-150v1042z" />
<glyph unicode="&#xee;" horiz-adv-x="507" d="M517 1316l-59 -47l-204 257l-204 -257l-59 47l225 284h76zM180 1042h150v-1042h-150v1042z" />
<glyph unicode="&#xef;" horiz-adv-x="507" d="M331.028 1400.85q0 33.7051 24.877 56.9775q24.8779 23.2725 58.582 23.2725t57.7793 -23.2725t24.0752 -56.9775q0 -33.7041 -24.0752 -57.7793q-24.0752 -24.0742 -57.7793 -24.0742t-58.582 24.0742q-24.877 24.0752 -24.877 57.7793zM29.0283 1400.85 q0 33.7051 24.877 56.9775q24.8779 23.2725 58.582 23.2725t57.7793 -23.2725t24.0752 -56.9775q0 -33.7041 -24.0752 -57.7793q-24.0752 -24.0742 -57.7793 -24.0742t-58.582 24.0742q-24.877 24.0752 -24.877 57.7793zM180 1042h150v-1042h-150v1042z" />
<glyph unicode="&#xf0;" horiz-adv-x="1113" d="M556 935q-151 0 -234.5 -116.5t-83.5 -298.5t83 -297t235 -115t236 115t84 297t-84.5 298.5t-235.5 116.5zM556 1062q107 0 188 -38q-79 116 -176 207l-157 -126l-78 97l136 110q-105 73 -206 92l23 123q147 -27 285 -132l147 119l78 -97l-129 -105q173 -169 266 -375.5 t93 -416.5q0 -81 -17 -157t-54.5 -146t-91 -122.5t-133 -83.5t-174.5 -31q-118 0 -210.5 47t-147 125.5t-82.5 172t-28 195.5q0 81 17 157.5t54 146.5t90.5 122.5t132.5 84t174 31.5z" />
<glyph unicode="&#xf1;" horiz-adv-x="1118" d="M298 0h-150v1042h150v-1042zM237 626q0 199 96.5 317.5t277.5 118.5q94 0 165 -33.5t112.5 -91.5t61.5 -129t20 -154v-654h-150v641q0 136 -71.5 212.5t-190.5 76.5q-125 0 -193 -79t-68 -225h-60zM200 1337q38 88 94.5 132.5t115.5 44.5q81 0 168 -65q39 -29 65 -39.5 t60 -10.5q31 0 70 32.5t70 104.5l70 -30q-38 -89 -94.5 -135.5t-115.5 -46.5q-86 0 -169 65q-41 30 -65.5 40t-58.5 10q-33 0 -71 -30t-69 -102z" />
<glyph unicode="&#xf2;" horiz-adv-x="1105" d="M553 935q-151 0 -235 -116.5t-84 -298.5t83.5 -297t235.5 -115t235.5 115t83.5 297t-84 298.5t-235 116.5zM553 1062q95 0 174.5 -31.5t133 -84t90.5 -122.5t54 -146.5t17 -157.5t-17 -157t-54 -146t-90.5 -122.5t-133 -83.5t-174.5 -31t-174.5 31t-133 83.5t-90.5 122.5 t-54 146t-17 157t17 157.5t54 146.5t90.5 122.5t133 84t174.5 31.5zM687 1336l-63 -40l-201 320l63 40z" />
<glyph unicode="&#xf3;" horiz-adv-x="1105" d="M553 935q-151 0 -235 -116.5t-84 -298.5t83.5 -297t235.5 -115t235.5 115t83.5 297t-84 298.5t-235 116.5zM553 1062q95 0 174.5 -31.5t133 -84t90.5 -122.5t54 -146.5t17 -157.5t-17 -157t-54 -146t-90.5 -122.5t-133 -83.5t-174.5 -31t-174.5 31t-133 83.5t-90.5 122.5 t-54 146t-17 157t17 157.5t54 146.5t90.5 122.5t133 84t174.5 31.5zM623 1656l63 -40l-200 -320l-63 40z" />
<glyph unicode="&#xf4;" horiz-adv-x="1105" d="M553 935q-151 0 -235 -116.5t-84 -298.5t83.5 -297t235.5 -115t235.5 115t83.5 297t-84 298.5t-235 116.5zM553 1062q95 0 174.5 -31.5t133 -84t90.5 -122.5t54 -146.5t17 -157.5t-17 -157t-54 -146t-90.5 -122.5t-133 -83.5t-174.5 -31t-174.5 31t-133 83.5t-90.5 122.5 t-54 146t-17 157t17 157.5t54 146.5t90.5 122.5t133 84t174.5 31.5zM819 1316l-59 -47l-204 257l-204 -257l-59 47l225 284h76z" />
<glyph unicode="&#xf5;" horiz-adv-x="1105" d="M553 935q-151 0 -235 -116.5t-84 -298.5t83.5 -297t235.5 -115t235.5 115t83.5 297t-84 298.5t-235 116.5zM553 1062q95 0 174.5 -31.5t133 -84t90.5 -122.5t54 -146.5t17 -157.5t-17 -157t-54 -146t-90.5 -122.5t-133 -83.5t-174.5 -31t-174.5 31t-133 83.5t-90.5 122.5 t-54 146t-17 157t17 157.5t54 146.5t90.5 122.5t133 84t174.5 31.5zM199 1331q38 88 94.5 132.5t115.5 44.5q81 0 168 -65q39 -29 65 -39.5t60 -10.5q31 0 70 32.5t70 104.5l70 -30q-38 -89 -94.5 -135.5t-115.5 -46.5q-86 0 -169 65q-41 30 -65.5 40t-58.5 10 q-33 0 -71 -30t-69 -102z" />
<glyph unicode="&#xf6;" horiz-adv-x="1105" d="M553 935q-151 0 -235 -116.5t-84 -298.5t83.5 -297t235.5 -115t235.5 115t83.5 297t-84 298.5t-235 116.5zM553 1062q95 0 174.5 -31.5t133 -84t90.5 -122.5t54 -146.5t17 -157.5t-17 -157t-54 -146t-90.5 -122.5t-133 -83.5t-174.5 -31t-174.5 31t-133 83.5t-90.5 122.5 t-54 146t-17 157t17 157.5t54 146.5t90.5 122.5t133 84t174.5 31.5zM633.028 1400.85q0 33.7051 24.877 56.9775q24.8779 23.2725 58.582 23.2725t57.7793 -23.2725t24.0752 -56.9775q0 -33.7041 -24.0752 -57.7793q-24.0752 -24.0742 -57.7793 -24.0742t-58.582 24.0742 q-24.877 24.0752 -24.877 57.7793zM331.028 1400.85q0 33.7051 24.877 56.9775q24.8779 23.2725 58.582 23.2725t57.7793 -23.2725t24.0752 -56.9775q0 -33.7041 -24.0752 -57.7793q-24.0752 -24.0742 -57.7793 -24.0742t-58.582 24.0742q-24.877 24.0752 -24.877 57.7793z " />
<glyph unicode="&#xf7;" horiz-adv-x="978" d="M878 570v-122h-778v122h778zM400 822q0 42 31 71t73 29t72 -29t30 -71t-30 -72t-72 -30t-73 30t-31 72zM400 212q0 42 31 71t73 29t72 -29t30 -71t-30 -72t-72 -30t-73 30t-31 72z" />
<glyph unicode="&#xf8;" horiz-adv-x="1105" d="M553 935q-151 0 -235 -116.5t-84 -298.5t83.5 -297t235.5 -115t235.5 115t83.5 297t-84 298.5t-235 116.5zM553 1062q95 0 174.5 -31.5t133 -84t90.5 -122.5t54 -146.5t17 -157.5t-17 -157t-54 -146t-90.5 -122.5t-133 -83.5t-174.5 -31t-174.5 31t-133 83.5t-90.5 122.5 t-54 146t-17 157t17 157.5t54 146.5t90.5 122.5t133 84t174.5 31.5zM197 -40l-86 67l798 1025l86 -67z" />
<glyph unicode="&#xf9;" horiz-adv-x="1118" d="M820 1042h150v-1042h-150v1042zM881 417q0 -199 -96.5 -317.5t-277.5 -118.5q-94 0 -165 33.5t-112.5 91.5t-61.5 129t-20 154v654h150v-641q0 -136 71.5 -212.5t190.5 -76.5q125 0 193 79t68 225h60zM694 1336l-63 -40l-201 320l63 40z" />
<glyph unicode="&#xfa;" horiz-adv-x="1118" d="M820 1042h150v-1042h-150v1042zM881 417q0 -199 -96.5 -317.5t-277.5 -118.5q-94 0 -165 33.5t-112.5 91.5t-61.5 129t-20 154v654h150v-641q0 -136 71.5 -212.5t190.5 -76.5q125 0 193 79t68 225h60zM631 1656l63 -40l-200 -320l-63 40z" />
<glyph unicode="&#xfb;" horiz-adv-x="1118" d="M820 1042h150v-1042h-150v1042zM881 417q0 -199 -96.5 -317.5t-277.5 -118.5q-94 0 -165 33.5t-112.5 91.5t-61.5 129t-20 154v654h150v-641q0 -136 71.5 -212.5t190.5 -76.5q125 0 193 79t68 225h60zM825 1316l-59 -47l-204 257l-204 -257l-59 47l225 284h76z" />
<glyph unicode="&#xfc;" horiz-adv-x="1118" d="M820 1042h150v-1042h-150v1042zM881 417q0 -199 -96.5 -317.5t-277.5 -118.5q-94 0 -165 33.5t-112.5 91.5t-61.5 129t-20 154v654h150v-641q0 -136 71.5 -212.5t190.5 -76.5q125 0 193 79t68 225h60zM639.028 1400.85q0 33.7051 24.877 56.9775 q24.8779 23.2725 58.582 23.2725t57.7793 -23.2725t24.0752 -56.9775q0 -33.7041 -24.0752 -57.7793q-24.0752 -24.0742 -57.7793 -24.0742t-58.582 24.0742q-24.877 24.0752 -24.877 57.7793zM337.028 1400.85q0 33.7051 24.877 56.9775q24.8779 23.2725 58.582 23.2725 t57.7793 -23.2725t24.0752 -56.9775q0 -33.7041 -24.0752 -57.7793q-24.0752 -24.0742 -57.7793 -24.0742t-58.582 24.0742q-24.877 24.0752 -24.877 57.7793z" />
<glyph unicode="&#xfd;" horiz-adv-x="1036" d="M856 1042h158l-397 -999q-18 -46 -29 -73.5t-31 -70.5t-36 -70.5t-41 -63.5t-49 -58.5t-56.5 -47t-67.5 -38t-79 -22.5t-93 -9h-66v132h66q114 0 181.5 70t132.5 228h-12l-415 1022h160l340 -847zM579 1656l63 -40l-200 -320l-63 40z" />
<glyph unicode="&#xfe;" horiz-adv-x="1243" d="M686 1062q89 0 162 -31.5t122.5 -84t83.5 -123t49 -146.5t15 -157q0 -102 -25.5 -195.5t-75.5 -172t-135.5 -125.5t-195.5 -47q-108 0 -194.5 44t-140.5 119.5t-82.5 172t-28.5 204.5t28.5 204.5t82.5 172.5t140.5 120.5t194.5 44.5zM646 933q-151 0 -236 -115.5 t-85 -297.5t84.5 -297t236.5 -115t237 115t85 297q0 118 -36.5 210.5t-110.5 147.5t-175 55zM175 1431h150v-1843h-150v1843z" />
<glyph unicode="&#xff;" horiz-adv-x="1036" d="M856 1042h158l-397 -999q-18 -46 -29 -73.5t-31 -70.5t-36 -70.5t-41 -63.5t-49 -58.5t-56.5 -47t-67.5 -38t-79 -22.5t-93 -9h-66v132h66q114 0 181.5 70t132.5 228h-12l-415 1022h160l340 -847zM590.028 1406.85q0 33.7051 24.877 56.9775 q24.8779 23.2725 58.582 23.2725t57.7793 -23.2725t24.0752 -56.9775q0 -33.7041 -24.0752 -57.7793q-24.0752 -24.0742 -57.7793 -24.0742t-58.582 24.0742q-24.877 24.0752 -24.877 57.7793zM288.028 1406.85q0 33.7051 24.877 56.9775q24.8779 23.2725 58.582 23.2725 t57.7793 -23.2725t24.0752 -56.9775q0 -33.7041 -24.0752 -57.7793q-24.0752 -24.0742 -57.7793 -24.0742t-58.582 24.0742q-24.877 24.0752 -24.877 57.7793z" />
<glyph unicode="&#x131;" horiz-adv-x="425" d="M138 1042h150v-1042h-150v1042z" />
<glyph unicode="&#x152;" horiz-adv-x="1697" d="M692 137v1157q-146 -10 -250 -89.5t-154 -207t-50 -292.5q0 -250 116.5 -401.5t337.5 -166.5zM1560 1431v-127h-718v-538h718v-122h-718v-516h718v-128h-816q-131 0 -239.5 37t-185 102t-129 154t-77.5 192.5t-25 219.5t25 221.5t78 198t129 160.5t185 107t239 39h816z " />
<glyph unicode="&#x153;" horiz-adv-x="1908" d="M1018 464q13 -187 111.5 -271.5t260.5 -84.5q168 0 329 76l46 -102q-186 -102 -389 -102q-230 0 -371.5 140.5t-141.5 399.5q0 81 17 157.5t54 146.5t90.5 122.5t133 84t174.5 31.5t174 -31t133 -83.5t92 -122.5t55 -147t17 -158l-1 -56h-784zM1018 577h629 q-16 161 -96.5 259.5t-218.5 98.5q-137 0 -218 -98.5t-96 -259.5zM553 935q-151 0 -235 -116.5t-84 -298.5t83.5 -297t235.5 -115t235.5 115t83.5 297t-84 298.5t-235 116.5zM553 1062q95 0 174.5 -31.5t133 -84t90.5 -122.5t54 -146.5t17 -157.5t-17 -157t-54 -146 t-90.5 -122.5t-133 -83.5t-174.5 -31t-174.5 31t-133 83.5t-90.5 122.5t-54 146t-17 157t17 157.5t54 146.5t90.5 122.5t133 84t174.5 31.5z" />
<glyph unicode="&#x237;" horiz-adv-x="425" d="M138 -174v1216h150v-1216q0 -97 -72.5 -169t-179.5 -72q-55 0 -111 18v115h108q42 0 73.5 30.5t31.5 77.5z" />
<glyph unicode="&#x60c;" horiz-adv-x="550" d="M273 484l61 -43q-31 -46 -57.5 -118.5t-26.5 -119.5q55 0 94.5 -25t39.5 -74q0 -42 -25 -73t-79 -31t-84 35.5t-30 95.5q0 199 107 353z" />
<glyph unicode="&#x615;" d="M271 1714q0 -35 -13 -63t-32.5 -46.5t-53.5 -31.5t-65.5 -20.5t-80 -11.5t-85 -5t-91.5 -2h-121v76h115v428h75v-302q96 120 207 120q61 0 103 -39.5t42 -102.5zM-74 1611q149 4 209.5 27.5t60.5 75.5q0 66 -70 66q-46 0 -100 -41.5t-100 -127.5z" />
<glyph unicode="&#x61b;" horiz-adv-x="550" d="M273 842l61 -43q-31 -46 -57.5 -118.5t-26.5 -119.5q55 0 94.5 -25t39.5 -74q0 -42 -25 -73t-79 -31t-84 35.5t-30 95.5q0 199 107 353zM172 102q0 42 31 71t73 29t72 -29t30 -71t-30 -72t-72 -30t-73 30t-31 72z" />
<glyph unicode="&#x61f;" horiz-adv-x="1067" d="M629 410h-150q0 51 -10.5 93.5t-25 70.5t-41.5 56t-47 44t-54 39q-39 27 -65.5 50t-54.5 58t-42 80t-14 100q0 115 47.5 211.5t143.5 157t223 60.5q98 0 176 -31.5t127 -86t74.5 -123.5t25.5 -147q0 -41 -7 -97l-149 18q6 31 6 79q0 122 -64 191.5t-189 69.5 q-120 0 -192 -80.5t-72 -208.5q0 -77 34 -123t107 -99q46 -33 76.5 -61.5t65.5 -74.5t53 -108t18 -138zM644 102q0 42 -31 71t-73 29t-72 -29t-30 -71t30 -72t72 -30t73 30t31 72z" />
<glyph unicode="&#x621;" horiz-adv-x="878" d="M682 617l-84 -69q-67 78 -167 78q-75 0 -133.5 -58.5t-58.5 -154.5q0 -146 252 -146l242 99l41 -100l-628 -260l-42 101l213 87q-188 53 -188 215q0 143 90 234t212 91q154 0 251 -117z" />
<glyph unicode="&#x627;" horiz-adv-x="500" d="M325 19h-150v1209h150v-1209z" />
<glyph unicode="&#x628;" horiz-adv-x="1782" d="M769 -386l123 123l123 -123l-123 -123zM1629 711q47 -154 47 -290q0 -101 -39.5 -176.5t-106.5 -121.5t-170 -74t-214 -38.5t-255 -10.5t-255 10.5t-214 38.5t-170 74t-106.5 121.5t-39.5 176.5q0 136 47 290l145 -42q-42 -138 -42 -245q0 -80 40 -133.5t123.5 -84 t196.5 -43.5t275 -13t275 13t196.5 43.5t123.5 84t40 133.5q0 107 -42 245z" />
<glyph unicode="&#x629;" horiz-adv-x="869" d="M478 1171l123 123l123 -123l-123 -123zM147 1171l123 123l123 -123l-123 -123zM435 150q85 0 129 41t44 116q0 76 -47 163t-126 166q-79 -79 -126.5 -166t-47.5 -163q0 -75 44 -116t130 -41zM435 0q-141 0 -230 85t-89 220q0 260 319 533q318 -273 318 -533 q0 -134 -88 -219.5t-230 -85.5z" />
<glyph unicode="&#x62a;" horiz-adv-x="1782" d="M934 775l123 123l123 -123l-123 -123zM603 775l123 123l123 -123l-123 -123zM1629 711q47 -154 47 -290q0 -101 -39.5 -176.5t-106.5 -121.5t-170 -74t-214 -38.5t-255 -10.5t-255 10.5t-214 38.5t-170 74t-106.5 121.5t-39.5 176.5q0 136 47 290l145 -42 q-42 -138 -42 -245q0 -80 40 -133.5t123.5 -84t196.5 -43.5t275 -13t275 13t196.5 43.5t123.5 84t40 133.5q0 107 -42 245z" />
<glyph unicode="&#x62b;" horiz-adv-x="1782" d="M768 1059l123 123l123 -123l-123 -123zM934 775l123 123l123 -123l-123 -123zM603 775l123 123l123 -123l-123 -123zM1629 711q47 -154 47 -290q0 -101 -39.5 -176.5t-106.5 -121.5t-170 -74t-214 -38.5t-255 -10.5t-255 10.5t-214 38.5t-170 74t-106.5 121.5 t-39.5 176.5q0 136 47 290l145 -42q-42 -138 -42 -245q0 -80 40 -133.5t123.5 -84t196.5 -43.5t275 -13t275 13t196.5 43.5t123.5 84t40 133.5q0 107 -42 245z" />
<glyph unicode="&#x62c;" horiz-adv-x="1360" d="M646 -146l123 123l123 -123l-123 -123zM1226 -471l56 -139q-260 -103 -524 -103q-104 0 -196.5 15.5t-178 51.5t-147 90.5t-98.5 139t-37 189.5q0 91 27.5 171t73 143.5t117 121t146.5 100.5t175 84t189 71t201 62l-425 160q-51 16 -98 16q-92 0 -140.5 -66.5 t-65.5 -210.5l-150 17q10 88 34.5 160t66 129.5t106.5 89t149 31.5q79 0 147 -25l592 -225v-167q-129 -34 -232 -65.5t-209.5 -70.5t-186 -78.5t-151.5 -89t-117.5 -103t-72 -118.5t-26.5 -137q0 -116 68.5 -193t180.5 -109.5t264 -32.5q228 0 462 91z" />
<glyph unicode="&#x62d;" horiz-adv-x="1360" d="M1226 -471l56 -139q-260 -103 -524 -103q-104 0 -196.5 15.5t-178 51.5t-147 90.5t-98.5 139t-37 189.5q0 91 27.5 171t73 143.5t117 121t146.5 100.5t175 84t189 71t201 62l-425 160q-51 16 -98 16q-92 0 -140.5 -66.5t-65.5 -210.5l-150 17q10 88 34.5 160t66 129.5 t106.5 89t149 31.5q79 0 147 -25l592 -225v-167q-129 -34 -232 -65.5t-209.5 -70.5t-186 -78.5t-151.5 -89t-117.5 -103t-72 -118.5t-26.5 -137q0 -116 68.5 -193t180.5 -109.5t264 -32.5q228 0 462 91z" />
<glyph unicode="&#x62e;" horiz-adv-x="1360" d="M389 1196l123 123l123 -123l-123 -123zM1226 -471l56 -139q-260 -103 -524 -103q-104 0 -196.5 15.5t-178 51.5t-147 90.5t-98.5 139t-37 189.5q0 91 27.5 171t73 143.5t117 121t146.5 100.5t175 84t189 71t201 62l-425 160q-51 16 -98 16q-92 0 -140.5 -66.5 t-65.5 -210.5l-150 17q10 88 34.5 160t66 129.5t106.5 89t149 31.5q79 0 147 -25l592 -225v-167q-129 -34 -232 -65.5t-209.5 -70.5t-186 -78.5t-151.5 -89t-117.5 -103t-72 -118.5t-26.5 -137q0 -116 68.5 -193t180.5 -109.5t264 -32.5q228 0 462 91z" />
<glyph unicode="&#x62f;" horiz-adv-x="936" d="M833 326q0 -73 -29.5 -130.5t-76.5 -93.5t-111.5 -59.5t-129 -33t-134.5 -9.5q-125 0 -264 36l37 143q113 -29 229 -29q149 0 239.5 46t90.5 136q0 208 -310 470l96 114q179 -151 271 -294t92 -296z" />
<glyph unicode="&#x630;" horiz-adv-x="936" d="M362 1269l123 123l123 -123l-123 -123zM833 326q0 -73 -29.5 -130.5t-76.5 -93.5t-111.5 -59.5t-129 -33t-134.5 -9.5q-125 0 -264 36l37 143q113 -29 229 -29q149 0 239.5 46t90.5 136q0 208 -310 470l96 114q179 -151 271 -294t92 -296z" />
<glyph unicode="&#x631;" horiz-adv-x="834" d="M482 554l139 56q110 -274 110 -480q0 -221 -150.5 -388.5t-416.5 -263.5l-51 142q468 171 468 510q0 176 -99 424z" />
<glyph unicode="&#x632;" horiz-adv-x="834" d="M398 949l123 123l123 -123l-123 -123zM482 554l139 56q110 -274 110 -480q0 -221 -150.5 -388.5t-416.5 -263.5l-51 142q468 171 468 510q0 176 -99 424z" />
<glyph unicode="&#x633;" horiz-adv-x="2378" d="M1963 -1q-75 0 -144 33t-111 98q-86 -131 -235 -131q-96 0 -165 55q-6 -138 -57 -246.5t-136 -175.5t-194.5 -101.5t-236.5 -34.5q-121 0 -224.5 32t-184 94.5t-126.5 164t-46 231.5q0 113 43.5 263t113.5 275l130 -68q-62 -114 -99.5 -247t-37.5 -223q0 -180 111.5 -276 t319.5 -96q227 0 354 113t127 317q0 87 -32.5 198t-104.5 290l141 54q30 -85 49 -138t40.5 -106.5t35.5 -83.5t32 -58.5t31.5 -41.5t33 -23.5t38 -13.5t44.5 -3q146 0 170 209l26 223l143 -14l-17 -166q-3 -33 -3 -63q0 -98 47 -143.5t123 -45.5q163 0 163 232 q0 137 -56 313l144 45q62 -199 62 -354q0 -57 -9.5 -110t-32 -104.5t-57.5 -89t-89.5 -60.5t-123.5 -23z" />
<glyph unicode="&#x634;" horiz-adv-x="2378" d="M1544 1223l123 123l123 -123l-123 -123zM1710 939l123 123l123 -123l-123 -123zM1379 939l123 123l123 -123l-123 -123zM1963 -1q-75 0 -144 33t-111 98q-86 -131 -235 -131q-96 0 -165 55q-6 -138 -57 -246.5t-136 -175.5t-194.5 -101.5t-236.5 -34.5q-121 0 -224.5 32 t-184 94.5t-126.5 164t-46 231.5q0 113 43.5 263t113.5 275l130 -68q-62 -114 -99.5 -247t-37.5 -223q0 -180 111.5 -276t319.5 -96q227 0 354 113t127 317q0 87 -32.5 198t-104.5 290l141 54q30 -85 49 -138t40.5 -106.5t35.5 -83.5t32 -58.5t31.5 -41.5t33 -23.5t38 -13.5 t44.5 -3q146 0 170 209l26 223l143 -14l-17 -166q-3 -33 -3 -63q0 -98 47 -143.5t123 -45.5q163 0 163 232q0 137 -56 313l144 45q62 -199 62 -354q0 -57 -9.5 -110t-32 -104.5t-57.5 -89t-89.5 -60.5t-123.5 -23z" />
<glyph unicode="&#x635;" horiz-adv-x="2322" d="M1671 -1q-185 0 -359 69q-6 -142 -56.5 -252.5t-135.5 -179.5t-195.5 -104.5t-240.5 -35.5q-121 0 -224.5 32t-184 94.5t-126.5 164t-46 231.5q0 113 43.5 263t113.5 275l130 -68q-62 -114 -99.5 -247t-37.5 -223q0 -180 111.5 -276t319.5 -96q227 0 354 113t127 317 q0 87 -32.5 198t-104.5 290l141 54q72 -160 123 -346q116 214 268 320t304 106q148 0 251 -91.5t103 -240.5q0 -78 -33.5 -142t-87.5 -105t-126.5 -68.5t-147 -39.5t-152.5 -12zM1416 189q120 -40 255 -40q180 0 288.5 60.5t108.5 156.5q0 82 -55.5 132t-148.5 50 q-51 0 -104.5 -18t-112 -57.5t-118.5 -112t-113 -171.5z" />
<glyph unicode="&#x636;" horiz-adv-x="2408" d="M1741 1058l123 123l123 -123l-123 -123zM1671 -1q-185 0 -359 69q-6 -142 -56.5 -252.5t-135.5 -179.5t-195.5 -104.5t-240.5 -35.5q-121 0 -224.5 32t-184 94.5t-126.5 164t-46 231.5q0 113 43.5 263t113.5 275l130 -68q-62 -114 -99.5 -247t-37.5 -223 q0 -180 111.5 -276t319.5 -96q227 0 354 113t127 317q0 87 -32.5 198t-104.5 290l141 54q72 -160 123 -346q116 214 268 320t304 106q148 0 251 -91.5t103 -240.5q0 -78 -33.5 -142t-87.5 -105t-126.5 -68.5t-147 -39.5t-152.5 -12zM1416 189q120 -40 255 -40 q180 0 288.5 60.5t108.5 156.5q0 82 -55.5 132t-148.5 50q-51 0 -104.5 -18t-112 -57.5t-118.5 -112t-113 -171.5z" />
<glyph unicode="&#x637;" horiz-adv-x="1515" d="M564 173v-23q126 1 227 9.5t171 22t121 34.5t81 43t47.5 51t23 55.5t5.5 59.5q0 74 -51.5 119t-133.5 45q-51 0 -113 -22.5t-131.5 -69t-135.5 -131t-111 -193.5zM403 150v1078h150v-803q107 155 247 234.5t266 79.5q81 0 154 -34.5t121.5 -106t48.5 -165.5 q0 -86 -28.5 -152t-93.5 -120t-170 -89t-259.5 -53.5t-360.5 -18.5h-386v150h311z" />
<glyph unicode="&#x638;" horiz-adv-x="1515" d="M965 1098l123 123l123 -123l-123 -123zM564 173v-23q126 1 227 9.5t171 22t121 34.5t81 43t47.5 51t23 55.5t5.5 59.5q0 74 -51.5 119t-133.5 45q-51 0 -113 -22.5t-131.5 -69t-135.5 -131t-111 -193.5zM403 150v1078h150v-803q107 155 247 234.5t266 79.5 q81 0 154 -34.5t121.5 -106t48.5 -165.5q0 -86 -28.5 -152t-93.5 -120t-170 -89t-259.5 -53.5t-360.5 -18.5h-386v150h311z" />
<glyph unicode="&#x639;" horiz-adv-x="1299" d="M957 943l-114 -96q-99 123 -247 123q-110 0 -188.5 -81t-78.5 -212q0 -101 100.5 -151t266.5 -50q104 0 278 30l25 -155q-124 -13 -229.5 -38t-202 -67t-164 -99t-107.5 -138.5t-40 -180.5q0 -115 70 -200t184.5 -127t258.5 -42q200 0 367 71l60 -138q-191 -86 -426 -86 q-130 0 -247 32.5t-211 94.5t-150 162.5t-56 226.5q0 186 99 320.5t265 217.5q-59 15 -109 39.5t-92 61.5t-66 90t-24 117q0 98 34.5 183.5t92 143.5t133 91.5t157.5 33.5q210 0 361 -177z" />
<glyph unicode="&#x63a;" horiz-adv-x="1299" d="M473 1508l123 123l123 -123l-123 -123zM957 943l-114 -96q-99 123 -247 123q-110 0 -188.5 -81t-78.5 -212q0 -101 100.5 -151t266.5 -50q104 0 278 30l25 -155q-124 -13 -229.5 -38t-202 -67t-164 -99t-107.5 -138.5t-40 -180.5q0 -115 70 -200t184.5 -127t258.5 -42 q200 0 367 71l60 -138q-191 -86 -426 -86q-130 0 -247 32.5t-211 94.5t-150 162.5t-56 226.5q0 186 99 320.5t265 217.5q-59 15 -109 39.5t-92 61.5t-66 90t-24 117q0 98 34.5 183.5t92 143.5t133 91.5t157.5 33.5q210 0 361 -177z" />
<glyph unicode="&#x640;" horiz-adv-x="811" d="M0 150h811v-150h-811q-32 0 -53.5 22t-21.5 53t21.5 53t53.5 22z" />
<glyph unicode="&#x641;" horiz-adv-x="1752" d="M1190 1433l123 123l123 -123l-123 -123zM1496 535q-5 78 -20 147.5t-39.5 126.5t-61 90t-81.5 33q-68 0 -125.5 -81t-57.5 -191q0 -84 47 -119t154 -35q92 0 184 29zM1649 455q0 -79 -20.5 -144t-57 -111.5t-92.5 -82t-119.5 -57.5t-145 -35.5t-163.5 -19t-180 -5.5 q-160 0 -274.5 10.5t-212 38t-156 74.5t-90.5 120t-32 175q0 130 48 288l145 -42q-43 -142 -43 -242q0 -67 20.5 -112.5t62.5 -77.5t117 -49.5t173.5 -25t243.5 -7.5q308 0 456 54.5t170 184.5q-98 -27 -197 -27q-71 0 -131 17t-108 51t-75 93t-27 137q0 101 40 196.5 t118 160.5t175 65q66 0 120.5 -26t90 -67.5t63 -99.5t42.5 -114.5t24.5 -120.5t12 -109.5t2.5 -89.5z" />
<glyph unicode="&#x642;" horiz-adv-x="1415" d="M1003 1060l123 123l123 -123l-123 -123zM672 1060l123 123l123 -123l-123 -123zM1158 178q-7 107 -30 193.5t-67.5 145t-103.5 58.5q-68 0 -125.5 -81t-57.5 -191q0 -84 47 -119t154 -35q91 0 183 29zM1159 24q-93 -25 -184 -25q-55 0 -105 10t-95.5 33.5t-78.5 58 t-52.5 86.5t-19.5 116q0 101 40 196.5t118 160.5t175 65q66 0 120 -26t90 -67t63.5 -98.5t42.5 -113.5t24.5 -120t12 -110.5t2.5 -91.5q0 -146 -48 -262t-133.5 -189.5t-199 -112t-247.5 -38.5q-121 0 -224.5 32t-184 94.5t-126.5 164t-46 231.5q0 180 108 426l133 -61 q-43 -98 -67 -196.5t-24 -168.5q0 -180 111.5 -276t319.5 -96q210 0 335 98.5t140 279.5z" />
<glyph unicode="&#x643;" horiz-adv-x="1585" d="M967 1002q-62 29 -108 29q-61 0 -100.5 -34.5t-39.5 -74.5q0 -47 26 -67.5t87 -38.5q31 -10 50 -18t45.5 -25t40 -44t13.5 -62q0 -55 -39.5 -96.5t-95 -60.5t-115.5 -19q-97 0 -172 35l32 68q58 -28 140 -28q75 0 125.5 31t50.5 69q0 30 -21 45.5t-76 32.5 q-33 10 -55.5 20.5t-51 30.5t-43.5 52.5t-15 75.5q0 75 62.5 129t151.5 54q56 0 138 -35zM1290 1247h150v-730q0 -262 -105 -377q-69 -76 -195.5 -108t-340.5 -32q-78 0 -141 3t-137.5 13t-131.5 26.5t-113 46.5t-92 70.5t-58.5 99.5t-22.5 133q0 110 35 260l146 -36 q-31 -130 -31 -224q0 -72 35.5 -120t110 -74.5t170 -37t233.5 -10.5q190 0 285.5 18t140.5 68q35 39 48.5 105t13.5 176v730z" />
<glyph unicode="&#x644;" horiz-adv-x="1268" d="M982 1228h150v-1183q0 -268 -139 -408.5t-391 -140.5q-227 0 -363 123t-136 335q0 180 90 400l135 -58q-76 -197 -76 -348q0 -146 93 -224t273 -78q186 0 275 94.5t89 304.5v1183z" />
<glyph unicode="&#x645;" horiz-adv-x="1199" d="M374 231q7 61 21.5 119.5t44.5 123t71.5 112t105.5 78.5t143 31q78 0 143 -34.5t106 -91t63 -126t22 -142.5q0 -78 -25.5 -138t-69 -94.5t-95.5 -51.5t-111 -17q-131 0 -280 58q-66 26 -112 26q-66 0 -107 -47.5t-41 -136.5v-685h-150v685q0 131 74 226t197 105zM523 213 q20 -6 63.5 -19.5t70.5 -21.5t65.5 -15t70.5 -7q76 0 113.5 32t37.5 116q0 107 -52.5 177t-131.5 70q-101 0 -161.5 -96t-75.5 -236z" />
<glyph unicode="&#x646;" horiz-adv-x="1512" d="M630 308l123 123l123 -123l-123 -123zM1257 68q0 179 -155 493l134 63q50 -102 80 -170t61 -181.5t31 -210.5q0 -112 -38.5 -206t-104 -159.5t-153 -111.5t-184.5 -67.5t-199 -21.5q-124 0 -235.5 34.5t-199 99t-139 167.5t-51.5 231q0 131 44.5 274.5t109.5 269.5 l128 -76q-56 -108 -94 -232.5t-38 -236.5q0 -183 127.5 -282t342.5 -99q150 0 269 48t191.5 145t72.5 229z" />
<glyph unicode="&#x647;" horiz-adv-x="869" d="M435 150q85 0 129 41t44 116q0 76 -47 163t-126 166q-79 -79 -126.5 -166t-47.5 -163q0 -75 44 -116t130 -41zM435 0q-141 0 -230 85t-89 220q0 260 319 533q318 -273 318 -533q0 -134 -88 -219.5t-230 -85.5z" />
<glyph unicode="&#x648;" horiz-adv-x="928" d="M660 21q-83 -23 -172 -23q-55 0 -105 10t-95.5 33.5t-78.5 58t-52.5 86.5t-19.5 116q0 101 40 196.5t118 160.5t175 65q66 0 120.5 -26t90 -67.5t63 -99.5t42.5 -114.5t24.5 -120.5t12 -109.5t2.5 -89.5q0 -234 -168 -382t-494 -233l-44 142q491 125 541 397zM672 177 q-5 78 -20 147.5t-39.5 126.5t-61 90t-81.5 33q-68 0 -125.5 -81t-57.5 -191q0 -84 47 -119t154 -35q92 0 184 29z" />
<glyph unicode="&#x649;" horiz-adv-x="1449" d="M1308 708l-41 -144q-87 27 -172 27q-169 0 -255 -76.5t-86 -202.5q0 -40 12 -68t32 -45t57.5 -27t75.5 -14.5t100 -7.5q51 -2 91 -9t83.5 -25t72.5 -47t47.5 -78t18.5 -115q0 -100 -49.5 -175t-136.5 -119t-194 -65t-233 -21q-100 0 -186 16.5t-161.5 54.5t-129 94.5 t-84 140t-30.5 188.5q0 101 19.5 216t44.5 198l144 -46q-58 -196 -58 -368q0 -180 111.5 -262t339.5 -82q214 0 333.5 59t119.5 167q0 77 -38 100t-153 29q-68 3 -119 10.5t-106.5 27.5t-91 50.5t-59 83t-23.5 122.5q0 203 129.5 324.5t364.5 121.5q106 0 210 -33z" />
<glyph unicode="&#x64a;" horiz-adv-x="1449" d="M818 -829l123 123l123 -123l-123 -123zM487 -829l123 123l123 -123l-123 -123zM1308 708l-41 -144q-87 27 -172 27q-169 0 -255 -76.5t-86 -202.5q0 -40 12 -68t32 -45t57.5 -27t75.5 -14.5t100 -7.5q51 -2 91 -9t83.5 -25t72.5 -47t47.5 -78t18.5 -115 q0 -100 -49.5 -175t-136.5 -119t-194 -65t-233 -21q-100 0 -186 16.5t-161.5 54.5t-129 94.5t-84 140t-30.5 188.5q0 101 19.5 216t44.5 198l144 -46q-58 -196 -58 -368q0 -180 111.5 -262t339.5 -82q214 0 333.5 59t119.5 167q0 77 -38 100t-153 29q-68 3 -119 10.5 t-106.5 27.5t-91 50.5t-59 83t-23.5 122.5q0 203 129.5 324.5t364.5 121.5q106 0 210 -33z" />
<glyph unicode="&#x64b;" d="M186 1966l31 -68l-401 -182l-31 68zM186 1752l31 -68l-401 -182l-31 68z" />
<glyph unicode="&#x64c;" d="M-230 1866q0 -82 48 -153l-60 -39q-60 91 -60 193q0 142 100.5 242.5t243.5 100.5v-70q-112 0 -192 -80.5t-80 -193.5zM32 1699q-141 58 -141 162q0 67 50 114t111 47q66 0 102.5 -49t36.5 -103q0 -70 -34.5 -133t-90.5 -107.5t-116 -76t-122 -48.5l-22 72 q138 40 226 122zM82 1760q34 53 34 110q0 29 -18 52.5t-46 23.5q-30 0 -58 -26.5t-28 -57.5q0 -30 30.5 -56.5t85.5 -45.5z" />
<glyph unicode="&#x64d;" d="M186 -339l31 -68l-401 -182l-31 68zM186 -125l31 -68l-401 -182l-31 68z" />
<glyph unicode="&#x64e;" d="M185 1753l31 -68l-401 -182l-31 68z" />
<glyph unicode="&#x64f;" d="M32 1699q-141 58 -141 162q0 67 50 114t111 47q66 0 102.5 -49t36.5 -103q0 -70 -34.5 -133t-90.5 -107.5t-116 -76t-122 -48.5l-22 72q138 40 226 122zM82 1760q34 53 34 110q0 29 -18 52.5t-46 23.5q-30 0 -58 -26.5t-28 -57.5q0 -30 30.5 -56.5t85.5 -45.5z" />
<glyph unicode="&#x650;" d="M186 -125l31 -68l-401 -182l-31 68z" />
<glyph unicode="&#x651;" d="M178 1695q0 70 -29 151l70 25q35 -96 35 -176q0 -71 -37 -115t-93 -44q-76 0 -124 75q-46 -75 -124 -75q-56 0 -93 44t-37 115q0 80 35 176l70 -25q-29 -81 -29 -151q0 -85 62 -85q29 0 53.5 25t24.5 69v74h76v-74q0 -44 24.5 -69t53.5 -25q62 0 62 85z" />
<glyph unicode="&#x652;" d="M0 1848q-49 0 -82.5 -33.5t-33.5 -82.5t33.5 -82.5t82.5 -33.5q48 0 82 34t34 82t-33.5 82t-82.5 34zM0 1923q79 0 135.5 -56t56.5 -135t-56 -135t-136 -56t-136 56t-56 135t56 135t136 56z" />
<glyph unicode="&#x653;" d="M-254 1536q25 51 67.5 87t99.5 36q55 0 108 -41q34 -26 65 -26q29 0 55 23.5t43 62.5l70 -30q-23 -55 -66 -93t-102 -38q-58 0 -111 41q-34 26 -62 26q-29 0 -55.5 -22.5t-43.5 -58.5z" />
<glyph unicode="&#x654;" d="M-185 1503l-31 68l102 47q-64 76 -64 163q0 77 54 130t146 53h85v-74h-85q-64 0 -94.5 -31t-30.5 -78q0 -73 61 -131l227 103l31 -68z" />
<glyph unicode="&#x655;" d="M-162 -653l-31 68l102 47q-64 76 -64 163q0 77 54 130t146 53h85v-74h-85q-64 0 -94.5 -31t-30.5 -78q0 -73 61 -131l227 103l31 -68z" />
<glyph unicode="&#x656;" d="M-38 -184h76v-334h-76v334z" />
<glyph unicode="&#x657;" d="M-32 1833q141 -57.9912 141 -161.991q0 -67 -50 -114.003t-111 -47.0068q-66 -0.00390625 -102.5 48.9932q-36.5 48.998 -36.5 102.998q0 70 34.5 133.002t90.5 107.506q56 44.5029 116 76.0068t122 48.5078l22 -71.999q-138 -40.0078 -226 -122.014zM-82 1772 q-34 -53.002 -34 -110.002q0 -29 18 -52.499t46 -23.4971q30 0.00195312 58 26.5029q28 26.502 28 57.502q0 30 -30.5 56.498t-85.5 45.4951z" />
<glyph unicode="&#x65a;" d="M-238 1826l60 45l178 -237l178 237l60 -45l-238 -317z" />
<glyph unicode="&#x660;" horiz-adv-x="845" d="M422 622q-73 0 -122.5 -49.5t-49.5 -122.5t50 -123.5t122 -50.5t122.5 50.5t50.5 123.5q0 72 -50 122t-123 50zM422 747q123 0 210.5 -86.5t87.5 -210.5t-87 -211.5t-211 -87.5t-210.5 87.5t-86.5 211.5t86.5 210.5t210.5 86.5z" />
<glyph unicode="&#x661;" horiz-adv-x="618" d="M493 -1h-150q0 339 -51 603t-169 602l141 48q122 -349 175.5 -626.5t53.5 -626.5z" />
<glyph unicode="&#x662;" horiz-adv-x="1046" d="M565 799q46 0 79.5 13.5t56 43t37 65t21.5 91t9.5 109.5t2.5 131h150q0 -52 -0.5 -86t-4 -88.5t-10 -92t-18.5 -85.5t-29.5 -81t-44 -67.5t-60.5 -55.5t-80 -34t-102 -13q-82 0 -147 44q68 -348 68 -693h-150q0 173 -16 330.5t-52 318.5t-66 269t-86 291l143 43 q22 -72 33.5 -109t31.5 -94.5t35 -86.5t38 -66t45.5 -54.5t52 -30t63.5 -12.5z" />
<glyph unicode="&#x663;" horiz-adv-x="1383" d="M836 1224q-11 -115 -11 -198q0 -47 1.5 -75t9 -60t21.5 -48.5t39 -27.5t62 -11q44 0 74.5 20t46 58t21.5 81t6 100q0 86 -18 173l146 30q22 -104 22 -202q0 -82 -17 -153t-52 -130t-95.5 -93t-140.5 -34q-85 0 -132 35.5t-84 108.5q-38 -72 -82 -108t-120 -36 q-59 0 -105 28q65 -336 65 -682h-150q0 329 -55.5 601.5t-164.5 606.5l143 44q28 -97 45.5 -152t38.5 -113.5t37.5 -87t38 -53.5t45 -33.5t53.5 -8.5t53.5 10.5t40 26.5t29 47.5t20.5 61t14 80.5t9 92.5t7 109.5z" />
<glyph unicode="&#x664;" horiz-adv-x="997" d="M330 638q-63 32 -103.5 110t-40.5 166q0 76 27 135.5t72.5 97t110.5 61.5t135 34t152 10v-150q-178 0 -262.5 -46t-84.5 -144q0 -93 89.5 -141.5t264.5 -48.5v-150q-184 0 -299.5 -82.5t-115.5 -198.5q0 -37 13.5 -63t34.5 -41.5t56 -24t70 -11t84 -2.5h283v-150h-319 q-76 0 -139.5 14t-117.5 44t-84.5 86t-30.5 132q0 109 57 211.5t148 151.5z" />
<glyph unicode="&#x665;" horiz-adv-x="1196" d="M496 1252q72 -60 130 -113t129 -125t123.5 -143t98 -151.5t70 -167.5t24.5 -174q0 -103 -35 -179t-100 -121.5t-148 -67t-187 -21.5q-100 0 -183.5 21.5t-150.5 66t-104.5 120.5t-37.5 178q0 178 91.5 337t279.5 340q-63 59 -96 86zM603 947q-171 -164 -249.5 -297.5 t-78.5 -274.5q0 -128 79.5 -182t246.5 -54q172 0 246 52t74 187q0 134 -83.5 272t-234.5 297z" />
<glyph unicode="&#x666;" horiz-adv-x="1168" d="M166 1106l32 146q198 -44 420 -44q137 0 239 18l78 -69q-6 -143 -6 -274q0 -261 23 -416t94 -440l-146 -36q-72 287 -96.5 455t-24.5 437q0 85 3 183q-68 -8 -164 -8q-230 0 -452 48z" />
<glyph unicode="&#x667;" horiz-adv-x="1315" d="M1067 1253l119 -93q-96 -124 -161.5 -230.5t-123.5 -242.5t-99.5 -301.5t-75.5 -385.5h-136q-44 287 -107 492t-143.5 352t-210.5 316l119 92q157 -205 250 -395t160 -477q67 287 160 478t249 395z" />
<glyph unicode="&#x668;" horiz-adv-x="1315" d="M248 -10l-119 93q96 124 161.5 230t123.5 242t99.5 301.5t75.5 385.5h136q44 -287 107 -492t143.5 -352t210.5 -316l-120 -92q-157 204 -249.5 395t-159.5 478q-67 -287 -160 -478t-249 -395z" />
<glyph unicode="&#x669;" horiz-adv-x="1035" d="M657 543q-77 -17 -156 -17q-74 0 -138 15.5t-119 49t-87 94t-32 141.5q0 61 13.5 121t42 115t68 97.5t96 67.5t122.5 25q76 0 135.5 -26.5t96.5 -69.5t61 -103t33.5 -122t9.5 -131q0 -158 8 -251q6 -193 27.5 -286.5t73.5 -212.5l-138 -60q-60 137 -85 244t-32 309z M654 696l-1 104q0 157 -43.5 229.5t-142.5 72.5q-80 0 -136 -78.5t-56 -197.5q0 -81 54 -115.5t172 -34.5q76 0 153 20z" />
<glyph unicode="&#x66a;" horiz-adv-x="1464" d="M1209 237q0 61 -41 105t-100 44t-100.5 -44t-41.5 -105q0 -60 41.5 -102t100.5 -42t100 42t41 102zM1313 237q0 -103 -71 -175.5t-174 -72.5t-175 73t-72 175q0 101 71 177.5t176 76.5t175 -76.5t70 -177.5zM538 1136q0 61 -41 105t-100 44t-100.5 -44t-41.5 -105 q0 -60 41.5 -102t100.5 -42t100 42t41 102zM642 1136q0 -103 -71 -175.5t-174 -72.5t-175 73t-72 175q0 101 71 177.5t176 76.5t175 -76.5t70 -177.5zM995 1453l135 -63l-661 -1434l-135 64z" />
<glyph unicode="&#x66b;" horiz-adv-x="787" d="M240 -306l-141 54l457 1167l141 -54z" />
<glyph unicode="&#x66c;" horiz-adv-x="587" d="M179 759l-58 69q53 58 107.5 145.5t71.5 143.5q-53 0 -103.5 40.5t-50.5 104.5q0 60 39.5 104t98.5 44q67 0 112 -44t45 -133q0 -93 -85.5 -238t-176.5 -236z" />
<glyph unicode="&#x66d;" horiz-adv-x="910" d="M509 604h-108v318l-275 -158l-55 93l275 160l-275 159l55 94l275 -159v317h108v-317l275 159l55 -94l-275 -159l275 -160l-55 -93l-275 158v-318z" />
<glyph unicode="&#x66e;" horiz-adv-x="1782" d="M1629 711q47 -154 47 -290q0 -101 -39.5 -176.5t-106.5 -121.5t-170 -74t-214 -38.5t-255 -10.5t-255 10.5t-214 38.5t-170 74t-106.5 121.5t-39.5 176.5q0 136 47 290l145 -42q-42 -138 -42 -245q0 -80 40 -133.5t123.5 -84t196.5 -43.5t275 -13t275 13t196.5 43.5 t123.5 84t40 133.5q0 107 -42 245z" />
<glyph unicode="&#x66f;" horiz-adv-x="1415" d="M1158 178q-7 107 -30 193.5t-67.5 145t-103.5 58.5q-68 0 -125.5 -81t-57.5 -191q0 -84 47 -119t154 -35q91 0 183 29zM1159 24q-93 -25 -184 -25q-55 0 -105 10t-95.5 33.5t-78.5 58t-52.5 86.5t-19.5 116q0 101 40 196.5t118 160.5t175 65q66 0 120 -26t90 -67 t63.5 -98.5t42.5 -113.5t24.5 -120t12 -110.5t2.5 -91.5q0 -146 -48 -262t-133.5 -189.5t-199 -112t-247.5 -38.5q-121 0 -224.5 32t-184 94.5t-126.5 164t-46 231.5q0 180 108 426l133 -61q-43 -98 -67 -196.5t-24 -168.5q0 -180 111.5 -276t319.5 -96q210 0 335 98.5 t140 279.5z" />
<glyph unicode="&#x670;" d="M-38 1874h76v-334h-76v334z" />
<glyph unicode="&#x67e;" horiz-adv-x="1782" d="M769 -609l123 123l123 -123l-123 -123zM934 -325l123 123l123 -123l-123 -123zM603 -325l123 123l123 -123l-123 -123zM1629 711q47 -154 47 -290q0 -101 -39.5 -176.5t-106.5 -121.5t-170 -74t-214 -38.5t-255 -10.5t-255 10.5t-214 38.5t-170 74t-106.5 121.5 t-39.5 176.5q0 136 47 290l145 -42q-42 -138 -42 -245q0 -80 40 -133.5t123.5 -84t196.5 -43.5t275 -13t275 13t196.5 43.5t123.5 84t40 133.5q0 107 -42 245z" />
<glyph unicode="&#x686;" horiz-adv-x="1360" d="M837.748 -73.5566l116.844 116.844l116.844 -116.844l-116.844 -116.844zM523.748 -73.5566l116.844 116.844l116.844 -116.844l-116.844 -116.844zM680.748 -308.557l116.844 116.844l116.844 -116.844l-116.844 -116.844zM1226 -471l56 -139q-260 -103 -524 -103 q-104 0 -196.5 15.5t-178 51.5t-147 90.5t-98.5 139t-37 189.5q0 91 27.5 171t73 143.5t117 121t146.5 100.5t175 84t189 71t201 62l-425 160q-51 16 -98 16q-92 0 -140.5 -66.5t-65.5 -210.5l-150 17q10 88 34.5 160t66 129.5t106.5 89t149 31.5q79 0 147 -25l592 -225 v-167q-129 -34 -232 -65.5t-209.5 -70.5t-186 -78.5t-151.5 -89t-117.5 -103t-72 -118.5t-26.5 -137q0 -116 68.5 -193t180.5 -109.5t264 -32.5q228 0 462 91z" />
<glyph unicode="&#x695;" horiz-adv-x="834" d="M146 -756l60 45l178 -237l178 237l60 -45l-238 -317zM482 554l139 56q110 -274 110 -480q0 -221 -150.5 -388.5t-416.5 -263.5l-51 142q468 171 468 510q0 176 -99 424z" />
<glyph unicode="&#x698;" horiz-adv-x="834" d="M428 1169l123 123l123 -123l-123 -123zM594 885l123 123l123 -123l-123 -123zM263 885l123 123l123 -123l-123 -123zM482 554l139 56q110 -274 110 -480q0 -221 -150.5 -388.5t-416.5 -263.5l-51 142q468 171 468 510q0 176 -99 424z" />
<glyph unicode="&#x6a1;" horiz-adv-x="1752" d="M1496 535q-5 78 -20 147.5t-39.5 126.5t-61 90t-81.5 33q-68 0 -125.5 -81t-57.5 -191q0 -84 47 -119t154 -35q92 0 184 29zM1649 455q0 -79 -20.5 -144t-57 -111.5t-92.5 -82t-119.5 -57.5t-145 -35.5t-163.5 -19t-180 -5.5q-160 0 -274.5 10.5t-212 38t-156 74.5 t-90.5 120t-32 175q0 130 48 288l145 -42q-43 -142 -43 -242q0 -67 20.5 -112.5t62.5 -77.5t117 -49.5t173.5 -25t243.5 -7.5q308 0 456 54.5t170 184.5q-98 -27 -197 -27q-71 0 -131 17t-108 51t-75 93t-27 137q0 101 40 196.5t118 160.5t175 65q66 0 120.5 -26t90 -67.5 t63 -99.5t42.5 -114.5t24.5 -120.5t12 -109.5t2.5 -89.5z" />
<glyph unicode="&#x6a4;" horiz-adv-x="1752" d="M1174 1716l123 123l123 -123l-123 -123zM1340 1432l123 123l123 -123l-123 -123zM1009 1432l123 123l123 -123l-123 -123zM1496 535q-5 78 -20 147.5t-39.5 126.5t-61 90t-81.5 33q-68 0 -125.5 -81t-57.5 -191q0 -84 47 -119t154 -35q92 0 184 29zM1649 455 q0 -79 -20.5 -144t-57 -111.5t-92.5 -82t-119.5 -57.5t-145 -35.5t-163.5 -19t-180 -5.5q-160 0 -274.5 10.5t-212 38t-156 74.5t-90.5 120t-32 175q0 130 48 288l145 -42q-43 -142 -43 -242q0 -67 20.5 -112.5t62.5 -77.5t117 -49.5t173.5 -25t243.5 -7.5q308 0 456 54.5 t170 184.5q-98 -27 -197 -27q-71 0 -131 17t-108 51t-75 93t-27 137q0 101 40 196.5t118 160.5t175 65q66 0 120.5 -26t90 -67.5t63 -99.5t42.5 -114.5t24.5 -120.5t12 -109.5t2.5 -89.5z" />
<glyph unicode="&#x6a9;" horiz-adv-x="1848" d="M154 706l145 -42q-43 -142 -43 -242q0 -159 124.5 -215.5t417.5 -56.5q126 0 217 9.5t161 32t105 62.5t35 98q0 100 -127 237.5t-320 276.5v166q176 115 393.5 204t431.5 135l32 -147q-178 -39 -361.5 -109.5t-332.5 -158.5v-26q92 -68 164 -133t136 -140.5t99 -155.5 t35 -157q0 -64 -21.5 -115t-56.5 -86.5t-89 -62t-110 -41.5t-128 -24t-135 -12t-139 -3q-129 0 -227 10.5t-186.5 38.5t-145 74.5t-89.5 120.5t-33 174q0 130 48 288z" />
<glyph unicode="&#x6af;" horiz-adv-x="1848" d="M1613 1601l20 -92q-403 -83 -739 -297l-50 80q344 221 769 309zM154 706l145 -42q-43 -142 -43 -242q0 -159 124.5 -215.5t417.5 -56.5q126 0 217 9.5t161 32t105 62.5t35 98q0 100 -127 237.5t-320 276.5v166q176 115 393.5 204t431.5 135l32 -147 q-178 -39 -361.5 -109.5t-332.5 -158.5v-26q92 -68 164 -133t136 -140.5t99 -155.5t35 -157q0 -64 -21.5 -115t-56.5 -86.5t-89 -62t-110 -41.5t-128 -24t-135 -12t-139 -3q-129 0 -227 10.5t-186.5 38.5t-145 74.5t-89.5 120.5t-33 174q0 130 48 288z" />
<glyph unicode="&#x6b5;" horiz-adv-x="1268" d="M824 1770l60 45l178 -237l178 237l60 -45l-238 -317zM982 1228h150v-1183q0 -268 -139 -408.5t-391 -140.5q-227 0 -363 123t-136 335q0 180 90 400l135 -58q-76 -197 -76 -348q0 -146 93 -224t273 -78q186 0 275 94.5t89 304.5v1183z" />
<glyph unicode="&#x6ba;" horiz-adv-x="1512" d="M1257 68q0 179 -155 493l134 63q50 -102 80 -170t61 -181.5t31 -210.5q0 -112 -38.5 -206t-104 -159.5t-153 -111.5t-184.5 -67.5t-199 -21.5q-124 0 -235.5 34.5t-199 99t-139 167.5t-51.5 231q0 131 44.5 274.5t109.5 269.5l128 -76q-56 -108 -94 -232.5t-38 -236.5 q0 -183 127.5 -282t342.5 -99q150 0 269 48t191.5 145t72.5 229z" />
<glyph unicode="&#x6be;" horiz-adv-x="1293" d="M0 150q167 0 287 29q-165 118 -165 281q0 95 56 179t137 125l-162 59l59 143l452 -174q93 -36 160 -66t141 -75t119.5 -92t75.5 -111.5t30 -138.5q0 -133 -88.5 -221t-247.5 -88q-75 0 -184 19.5t-197 52.5q-192 -72 -473 -72q-32 0 -53.5 22t-21.5 53t21.5 53t53.5 22z M475 233q79 37 125 101.5t46 145.5q0 90 -35.5 145t-111.5 55q-80 0 -153.5 -62t-73.5 -158q0 -134 203 -227zM636 183q128 -33 220 -33q184 0 184 159q0 160 -281 284q35 -129 0.5 -234.5t-123.5 -175.5z" />
<glyph unicode="&#x6c0;" horiz-adv-x="869" d="M580 1560q-62 29 -108 29q-61 0 -100.5 -34.5t-39.5 -74.5q0 -47 26 -67.5t87 -38.5q31 -10 50 -18t45.5 -25t40 -44t13.5 -62q0 -55 -39.5 -96.5t-95 -60.5t-115.5 -19q-97 0 -172 35l32 68q58 -28 140 -28q75 0 125.5 31t50.5 69q0 30 -21 45.5t-76 32.5 q-33 10 -55.5 20.5t-51 30.5t-43.5 52.5t-15 75.5q0 75 62.5 129t151.5 54q56 0 138 -35zM435 150q85 0 129 41t44 116q0 76 -47 163t-126 166q-79 -79 -126.5 -166t-47.5 -163q0 -75 44 -116t130 -41zM435 0q-141 0 -230 85t-89 220q0 260 319 533q318 -273 318 -533 q0 -134 -88 -219.5t-230 -85.5z" />
<glyph unicode="&#x6c2;" horiz-adv-x="869" d="M243 989l-31 68l102 47q-64 76 -64 163q0 77 54 130t146 53h85v-74h-85q-64 0 -94.5 -31t-30.5 -78q0 -73 61 -131l227 103l31 -68zM435 150q85 0 129 41t44 116q0 76 -47 163t-126 166q-79 -79 -126.5 -166t-47.5 -163q0 -75 44 -116t130 -41zM435 0q-141 0 -230 85 t-89 220q0 260 319 533q318 -273 318 -533q0 -134 -88 -219.5t-230 -85.5z" />
<glyph unicode="&#x6c6;" horiz-adv-x="928" d="M232 1320l60 45l178 -237l178 237l60 -45l-238 -317zM660 21q-83 -23 -172 -23q-55 0 -105 10t-95.5 33.5t-78.5 58t-52.5 86.5t-19.5 116q0 101 40 196.5t118 160.5t175 65q66 0 120.5 -26t90 -67.5t63 -99.5t42.5 -114.5t24.5 -120.5t12 -109.5t2.5 -89.5 q0 -234 -168 -382t-494 -233l-44 142q491 125 541 397zM672 177q-5 78 -20 147.5t-39.5 126.5t-61 90t-81.5 33q-68 0 -125.5 -81t-57.5 -191q0 -84 47 -119t154 -35q92 0 184 29z" />
<glyph unicode="&#x6ca;" horiz-adv-x="928" d="M532 1082l123 123l123 -123l-123 -123zM201 1082l123 123l123 -123l-123 -123zM660 21q-83 -23 -172 -23q-55 0 -105 10t-95.5 33.5t-78.5 58t-52.5 86.5t-19.5 116q0 101 40 196.5t118 160.5t175 65q66 0 120.5 -26t90 -67.5t63 -99.5t42.5 -114.5t24.5 -120.5 t12 -109.5t2.5 -89.5q0 -234 -168 -382t-494 -233l-44 142q491 125 541 397zM672 177q-5 78 -20 147.5t-39.5 126.5t-61 90t-81.5 33q-68 0 -125.5 -81t-57.5 -191q0 -84 47 -119t154 -35q92 0 184 29z" />
<glyph unicode="&#x6cc;" horiz-adv-x="1449" d="M1308 708l-41 -144q-87 27 -172 27q-169 0 -255 -76.5t-86 -202.5q0 -40 12 -68t32 -45t57.5 -27t75.5 -14.5t100 -7.5q51 -2 91 -9t83.5 -25t72.5 -47t47.5 -78t18.5 -115q0 -100 -49.5 -175t-136.5 -119t-194 -65t-233 -21q-100 0 -186 16.5t-161.5 54.5t-129 94.5 t-84 140t-30.5 188.5q0 101 19.5 216t44.5 198l144 -46q-58 -196 -58 -368q0 -180 111.5 -262t339.5 -82q214 0 333.5 59t119.5 167q0 77 -38 100t-153 29q-68 3 -119 10.5t-106.5 27.5t-91 50.5t-59 83t-23.5 122.5q0 203 129.5 324.5t364.5 121.5q106 0 210 -33z" />
<glyph unicode="&#x6ce;" horiz-adv-x="1504" d="M145 986l60 45l178 -237l178 237l60 -45l-238 -317zM1308 708l-41 -144q-87 27 -172 27q-169 0 -255 -76.5t-86 -202.5q0 -40 12 -68t32 -45t57.5 -27t75.5 -14.5t100 -7.5q51 -2 91 -9t83.5 -25t72.5 -47t47.5 -78t18.5 -115q0 -100 -49.5 -175t-136.5 -119t-194 -65 t-233 -21q-100 0 -186 16.5t-161.5 54.5t-129 94.5t-84 140t-30.5 188.5q0 101 19.5 216t44.5 198l144 -46q-58 -196 -58 -368q0 -180 111.5 -262t339.5 -82q214 0 333.5 59t119.5 167q0 77 -38 100t-153 29q-68 3 -119 10.5t-106.5 27.5t-91 50.5t-59 83t-23.5 122.5 q0 203 129.5 324.5t364.5 121.5q106 0 210 -33z" />
<glyph unicode="&#x6d5;" horiz-adv-x="869" d="M435 150q85 0 129 41t44 116q0 76 -47 163t-126 166q-79 -79 -126.5 -166t-47.5 -163q0 -75 44 -116t130 -41zM435 0q-141 0 -230 85t-89 220q0 260 319 533q318 -273 318 -533q0 -134 -88 -219.5t-230 -85.5z" />
<glyph unicode="&#x6f0;" horiz-adv-x="845" d="M422 622q-73 0 -122.5 -49.5t-49.5 -122.5t50 -123.5t122 -50.5t122.5 50.5t50.5 123.5q0 72 -50 122t-123 50zM422 747q123 0 210.5 -86.5t87.5 -210.5t-87 -211.5t-211 -87.5t-210.5 87.5t-86.5 211.5t86.5 210.5t210.5 86.5z" />
<glyph unicode="&#x6f1;" horiz-adv-x="618" d="M493 -1h-150q0 339 -51 603t-169 602l141 48q122 -349 175.5 -626.5t53.5 -626.5z" />
<glyph unicode="&#x6f2;" horiz-adv-x="1086" d="M565 799q46 0 79.5 13.5t56 43t37 65t21.5 91t9.5 109.5t2.5 131h150q0 -52 -0.5 -86t-4 -88.5t-10 -92t-18.5 -85.5t-29.5 -81t-44 -67.5t-60.5 -55.5t-80 -34t-102 -13q-82 0 -147 44q68 -348 68 -693h-150q0 173 -16 330.5t-52 318.5t-66 269t-86 291l143 43 q22 -72 33.5 -109t31.5 -94.5t35 -86.5t38 -66t45.5 -54.5t52 -30t63.5 -12.5z" />
<glyph unicode="&#x6f3;" horiz-adv-x="1383" d="M836 1224q-11 -115 -11 -198q0 -47 1.5 -75t9 -60t21.5 -48.5t39 -27.5t62 -11q44 0 74.5 20t46 58t21.5 81t6 100q0 86 -18 173l146 30q22 -104 22 -202q0 -82 -17 -153t-52 -130t-95.5 -93t-140.5 -34q-85 0 -132 35.5t-84 108.5q-38 -72 -82 -108t-120 -36 q-59 0 -105 28q65 -336 65 -682h-150q0 329 -55.5 601.5t-164.5 606.5l143 44q28 -97 45.5 -152t38.5 -113.5t37.5 -87t38 -53.5t45 -33.5t53.5 -8.5t53.5 10.5t40 26.5t29 47.5t20.5 61t14 80.5t9 92.5t7 109.5z" />
<glyph unicode="&#x6f4;" horiz-adv-x="1179" d="M436 638q57 -333 57 -638h-150q0 320 -53.5 587t-162.5 620l143 45q61 -145 104 -312q24 150 126.5 240t240.5 90q102 0 221 -62l-64 -134q-73 46 -164 46q-105 0 -179.5 -78.5t-74.5 -212.5q0 -78 75 -114t189 -36q128 0 228 35l26 -142q-117 -40 -242 -40 q-208 0 -320 106z" />
<glyph unicode="&#x6f5;" horiz-adv-x="1276" d="M646 80q-82 -90 -212 -90t-219.5 95.5t-89.5 270.5q0 167 98 345t307 353q-47 38 -100 76l86 122q98 -68 174 -135q220 -193 340.5 -390t120.5 -386q0 -168 -86.5 -259.5t-212.5 -91.5q-125 0 -206 90zM583 308h130v-43q0 -57 38.5 -91t96.5 -34q153 0 153 201 q0 272 -356 613q-133 -106 -218.5 -218t-118.5 -203t-33 -177q0 -64 14.5 -109t40 -67t52 -31t57.5 -9q60 0 102 34.5t42 90.5v43z" />
<glyph unicode="&#x6f6;" horiz-adv-x="1034" d="M565 662q139 0 280 89l99 -119q-226 -153 -396 -307t-292 -335l-130 74q86 129 183 230t239 225q-61 0 -119 12.5t-112.5 39t-95.5 65t-65.5 95.5t-24.5 125q0 171 110 283.5t273 112.5q160 0 293 -123l-103 -109q-82 82 -190 82q-99 0 -166 -68.5t-67 -177.5 q0 -93 80.5 -143.5t203.5 -50.5z" />
<glyph unicode="&#x6f7;" horiz-adv-x="1315" d="M1067 1253l119 -93q-96 -124 -161.5 -230.5t-123.5 -242.5t-99.5 -301.5t-75.5 -385.5h-136q-44 287 -107 492t-143.5 352t-210.5 316l119 92q157 -205 250 -395t160 -477q67 287 160 478t249 395z" />
<glyph unicode="&#x6f8;" horiz-adv-x="1315" d="M248 -10l-119 93q96 124 161.5 230t123.5 242t99.5 301.5t75.5 385.5h136q44 -287 107 -492t143.5 -352t210.5 -316l-120 -92q-157 204 -249.5 395t-159.5 478q-67 -287 -160 -478t-249 -395z" />
<glyph unicode="&#x6f9;" horiz-adv-x="1095" d="M657 543q-77 -17 -156 -17q-74 0 -138 15.5t-119 49t-87 94t-32 141.5q0 61 13.5 121t42 115t68 97.5t96 67.5t122.5 25q76 0 135.5 -26.5t96.5 -69.5t61 -103t33.5 -122t9.5 -131q0 -158 8 -251q6 -193 27.5 -286.5t73.5 -212.5l-138 -60q-60 137 -85 244t-32 309z M654 696l-1 104q0 157 -43.5 229.5t-142.5 72.5q-80 0 -136 -78.5t-56 -197.5q0 -81 54 -115.5t172 -34.5q76 0 153 20z" />
<glyph unicode="&#x2018;" horiz-adv-x="598" d="M276 745q-55 92 -92 223.5t-37 244.5q0 90 41.5 143.5t117.5 53.5q73 0 109 -42.5t36 -110.5q0 -44 -21 -66t-50.5 -25t-59 -4t-50.5 -10t-21 -35q0 -60 29 -161t64 -163z" />
<glyph unicode="&#x2019;" horiz-adv-x="598" d="M322 745l-66 48q35 62 64 163t29 161q0 26 -21 35t-50.5 10t-59 4t-50.5 25t-21 66q0 68 36 110.5t109 42.5q76 0 117.5 -53.5t41.5 -143.5q0 -113 -37 -244.5t-92 -223.5z" />
<glyph unicode="&#x201c;" horiz-adv-x="1038" d="M716 745q-55 92 -92 223.5t-37 244.5q0 90 41.5 143.5t117.5 53.5q73 0 109 -42.5t36 -110.5q0 -44 -21 -66t-50.5 -25t-59 -4t-50.5 -10t-21 -35q0 -60 29 -161t64 -163zM276 745q-55 92 -92 223.5t-37 244.5q0 90 41.5 143.5t117.5 53.5q73 0 109 -42.5t36 -110.5 q0 -44 -21 -66t-50.5 -25t-59 -4t-50.5 -10t-21 -35q0 -60 29 -161t64 -163z" />
<glyph unicode="&#x201d;" horiz-adv-x="1038" d="M762 745l-66 48q35 62 64 163t29 161q0 26 -21 35t-50.5 10t-59 4t-50.5 25t-21 66q0 68 36 110.5t109 42.5q76 0 117.5 -53.5t41.5 -143.5q0 -113 -37 -244.5t-92 -223.5zM322 745l-66 48q35 62 64 163t29 161q0 26 -21 35t-50.5 10t-59 4t-50.5 25t-21 66 q0 68 36 110.5t109 42.5q76 0 117.5 -53.5t41.5 -143.5q0 -113 -37 -244.5t-92 -223.5z" />
<glyph unicode="&#x25fc;" horiz-adv-x="1040" d="M0 1040h1040v-1040h-1040v1040z" />
<glyph unicode="&#xe000;" horiz-adv-x="120" d="M0 149h120v-150h-120q-32 0 -53.5 21.5t-21.5 53.5t21.5 53.5t53.5 21.5z" />
<glyph unicode="&#xe001;" horiz-adv-x="320" d="M0 149h320v-150h-320q-32 0 -53.5 21.5t-21.5 53.5t21.5 53.5t53.5 21.5z" />
<glyph unicode="&#xe002;" horiz-adv-x="450" d="M0 149h450v-150h-450q-32 0 -53.5 21.5t-21.5 53.5t21.5 53.5t53.5 21.5z" />
<glyph unicode="&#xe003;" horiz-adv-x="1762" d="M1580 1454l75 -78l-1473 -1421l-75 78z" />
<glyph unicode="&#xe004;" horiz-adv-x="1088" d="M188 -40l-86 67l798 1025l86 -67z" />
<glyph unicode="&#xe005;" horiz-adv-x="1462" d="M1358 -1l-83 -69l-479 571l84 70z" />
<glyph unicode="&#xe006;" horiz-adv-x="1146" d="M228 94v110h690v-110h-690zM228 420v110h690v-110h-690z" />
<glyph unicode="&#xe007;" horiz-adv-x="869" d="M580 1560q-62 29 -108 29q-61 0 -100.5 -34.5t-39.5 -74.5q0 -47 26 -67.5t87 -38.5q31 -10 50 -18t45.5 -25t40 -44t13.5 -62q0 -55 -39.5 -96.5t-95 -60.5t-115.5 -19q-97 0 -172 35l32 68q58 -28 140 -28q75 0 125.5 31t50.5 69q0 30 -21 45.5t-76 32.5 q-33 10 -55.5 20.5t-51 30.5t-43.5 52.5t-15 75.5q0 75 62.5 129t151.5 54q56 0 138 -35z" />
<glyph unicode="&#xe008;" horiz-adv-x="1454" d="M533 1136q0 61 -41 105t-100 44t-100.5 -44t-41.5 -105q0 -60 41.5 -102t100.5 -42t100 42t41 102zM637 1136q0 -103 -71 -175.5t-174 -72.5t-175 73t-72 175q0 101 71 177.5t176 76.5t175 -76.5t70 -177.5z" />
<glyph unicode="&#xe009;" horiz-adv-x="1146" d="M519 1620h108v-1832h-108v1832z" />
<glyph unicode="&#xe00a;" horiz-adv-x="1214" d="M92 462v110h610v-110h-610z" />
<glyph unicode="&#xe00b;" horiz-adv-x="1108" d="M870 582l-54 -104q-88 22 -181 22q-154 0 -258.5 -58t-104.5 -164q0 -80 52 -124t152 -44q115 0 200 69t85 181h120q0 -90 -37 -163.5t-98.5 -119t-136 -70.5t-153.5 -25q-146 0 -238 80.5t-92 217.5q0 74 32 132.5t83.5 95t120 61t136 34t137.5 9.5q118 0 235 -30z" />
<glyph unicode="&#xe00c;" horiz-adv-x="1536" d="M798 696q0 69 18 132t53.5 117t97.5 86t143 32q72 0 128 -22.5t90 -58.5t55.5 -85.5t29.5 -98t8 -102.5v-715h-150v715q0 102 -56.5 168.5t-157.5 66.5q-97 0 -155.5 -71.5t-58.5 -163.5h-45z" />
<glyph unicode="&#xe00d;" horiz-adv-x="1068" d="M215 626q0 199 96.5 317.5t277.5 118.5q94 0 165 -33.5t112.5 -91.5t61.5 -129t20 -154v-654h-150v641q0 136 -71.5 212.5t-190.5 76.5q-125 0 -193 -79t-68 -225h-60z" />
<glyph unicode="&#xe00e;" horiz-adv-x="754" d="M275 518h-120q0 77 15 149.5t48.5 141.5t83.5 120.5t125.5 82.5t168.5 31h70v-132h-85q-147 0 -226.5 -110t-79.5 -283z" />
<glyph unicode="&#xe00f;" horiz-adv-x="1158" d="M656 1062q89 0 162 -31.5t122.5 -84t83.5 -123t49 -146.5t15 -157q0 -102 -25.5 -195.5t-75.5 -172t-135.5 -125.5t-195.5 -47q-108 0 -194.5 44t-140.5 119.5t-82.5 172t-28.5 204.5t28.5 204.5t82.5 172.5t140.5 120.5t194.5 44.5zM616 933q-151 0 -236 -115.5 t-85 -297.5t84.5 -297t236.5 -115t237 115t85 297q0 118 -36.5 210.5t-110.5 147.5t-175 55z" />
<glyph unicode="&#xe010;" horiz-adv-x="960" d="M146 -756l60 45l178 -237l178 237l60 -45l-238 -317zM482 554l139 56l88 -290q31 -98 83.5 -134t166.5 -36h1v-150h-1q-142 0 -235 63q-14 -193 -164 -344t-396 -241l-51 142q468 171 468 510q0 155 -99 424z" />
<glyph unicode="&#xe011;" horiz-adv-x="1453" d="M583 773l60 45l178 -237l178 237l60 -45l-238 -317zM1453 150v-150h-201q47 -29 71 -78t24 -105q0 -178 -164.5 -289t-444.5 -111q-291 0 -457 139.5t-166 408.5q0 158 39 298t111 297l135 -70q-66 -149 -101.5 -273t-35.5 -263q0 -199 117 -293t354 -94 q105 0 188.5 16.5t133.5 42t83 58t45.5 61.5t12.5 56q0 199 -480 199v150h736z" />
<glyph unicode="&#xe012;" horiz-adv-x="547" d="M49 1384l60 45l178 -237l178 237l60 -45l-238 -317zM150 -326l123 123l123 -123l-123 -123zM-181 -326l123 123l123 -123l-123 -123zM370 776q69 -207 69 -369q0 -92 -23.5 -164t-74 -127.5t-137 -85.5t-204.5 -30q-32 0 -53.5 22t-21.5 53t21.5 53t53.5 22 q295 0 295 257q0 116 -66 321z" />
<glyph unicode="&#xe013;" horiz-adv-x="767" d="M146 1174l60 45l178 -237l178 237l60 -45l-238 -317zM119 -326l123 123l123 -123l-123 -123zM-212 -326l123 123l123 -123l-123 -123zM0 150q191 0 256 93q53 76 53 259v104h150v-104q0 -177 47 -250q32 -53 94.5 -77.5t165.5 -24.5h1v-150h-1q-277 0 -382 181 q-105 -181 -384 -181q-32 0 -53.5 22t-21.5 53t21.5 53t53.5 22z" />
<glyph unicode="&#xe014;" horiz-adv-x="1439" d="M823 1770l60 45l178 -237l178 237l60 -45l-238 -317zM1439 150v-150h-1q-206 0 -307 102v-74q0 -254 -141 -393t-388 -139q-227 0 -363 123t-136 335q0 180 90 400l135 -58q-76 -197 -76 -348q0 -146 93 -224t273 -78q186 0 275 94.5t89 304.5v1183h150v-712 q0 -205 64 -285q65 -81 242 -81h1z" />
<glyph unicode="&#xe015;" horiz-adv-x="596" d="M60 1770l60 45l178 -237l178 237l60 -45l-238 -317zM421 391q0 -186 -94 -283q-107 -108 -327 -108q-31 0 -53 22t-22 53t22 53t53 22q90 0 143.5 13.5t82.5 46.5q45 52 45 181v837h150v-837z" />
<glyph unicode="&#xe016;" horiz-adv-x="692" d="M112 1770l60 45l178 -237l178 237l60 -45l-238 -317zM0 150q159 0 217 74q54 70 54 250v754h150v-754q0 -175 51 -245q57 -79 219 -79h1v-150h-1q-248 0 -345 156q-98 -156 -346 -156q-32 0 -53.5 22t-21.5 53t21.5 53t53.5 22z" />
<glyph unicode="&#xe020;" horiz-adv-x="878" d="M682 617l-84 -69q-67 78 -167 78q-75 0 -133.5 -58.5t-58.5 -154.5q0 -146 252 -146l242 99l41 -100l-628 -260l-42 101l213 87q-188 53 -188 215q0 143 90 234t212 91q154 0 251 -117z" />
<glyph unicode="&#xe021;" horiz-adv-x="560" d="M562 1525l88 -40q-44 -97 -98 -138t-133 -41q-61 0 -169 38q-80 29 -114 29q-42 0 -74 -29t-72 -86l-80 50q98 184 236 184q57 0 127 -26q120 -45 161 -45q75 0 128 104zM355 1123v-1104h-150v1104h150z" />
<glyph unicode="&#xe022;" horiz-adv-x="500" d="M325 19h-150v1209h150v-1209z" />
<glyph unicode="&#xe023;" horiz-adv-x="1360" d="M1226 -471l56 -139q-260 -103 -524 -103q-104 0 -196.5 15.5t-178 51.5t-147 90.5t-98.5 139t-37 189.5q0 91 27.5 171t73 143.5t117 121t146.5 100.5t175 84t189 71t201 62l-425 160q-51 16 -98 16q-92 0 -140.5 -66.5t-65.5 -210.5l-150 17q10 88 34.5 160t66 129.5 t106.5 89t149 31.5q79 0 147 -25l592 -225v-167q-129 -34 -232 -65.5t-209.5 -70.5t-186 -78.5t-151.5 -89t-117.5 -103t-72 -118.5t-26.5 -137q0 -116 68.5 -193t180.5 -109.5t264 -32.5q228 0 462 91z" />
<glyph unicode="&#xe024;" horiz-adv-x="936" d="M833 326q0 -73 -29.5 -130.5t-76.5 -93.5t-111.5 -59.5t-129 -33t-134.5 -9.5q-125 0 -264 36l37 143q113 -29 229 -29q149 0 239.5 46t90.5 136q0 208 -310 470l96 114q179 -151 271 -294t92 -296z" />
<glyph unicode="&#xe025;" horiz-adv-x="834" d="M482 554l139 56q110 -274 110 -480q0 -221 -150.5 -388.5t-416.5 -263.5l-51 142q468 171 468 510q0 176 -99 424z" />
<glyph unicode="&#xe026;" horiz-adv-x="2378" d="M1963 -1q-75 0 -144 33t-111 98q-86 -131 -235 -131q-96 0 -165 55q-6 -138 -57 -246.5t-136 -175.5t-194.5 -101.5t-236.5 -34.5q-121 0 -224.5 32t-184 94.5t-126.5 164t-46 231.5q0 113 43.5 263t113.5 275l130 -68q-62 -114 -99.5 -247t-37.5 -223q0 -180 111.5 -276 t319.5 -96q227 0 354 113t127 317q0 87 -32.5 198t-104.5 290l141 54q30 -85 49 -138t40.5 -106.5t35.5 -83.5t32 -58.5t31.5 -41.5t33 -23.5t38 -13.5t44.5 -3q146 0 170 209l26 223l143 -14l-17 -166q-3 -33 -3 -63q0 -98 47 -143.5t123 -45.5q163 0 163 232 q0 137 -56 313l144 45q62 -199 62 -354q0 -57 -9.5 -110t-32 -104.5t-57.5 -89t-89.5 -60.5t-123.5 -23z" />
<glyph unicode="&#xe027;" horiz-adv-x="2322" d="M1671 -1q-185 0 -359 69q-6 -142 -56.5 -252.5t-135.5 -179.5t-195.5 -104.5t-240.5 -35.5q-121 0 -224.5 32t-184 94.5t-126.5 164t-46 231.5q0 113 43.5 263t113.5 275l130 -68q-62 -114 -99.5 -247t-37.5 -223q0 -180 111.5 -276t319.5 -96q227 0 354 113t127 317 q0 87 -32.5 198t-104.5 290l141 54q72 -160 123 -346q116 214 268 320t304 106q148 0 251 -91.5t103 -240.5q0 -78 -33.5 -142t-87.5 -105t-126.5 -68.5t-147 -39.5t-152.5 -12zM1416 189q120 -40 255 -40q180 0 288.5 60.5t108.5 156.5q0 82 -55.5 132t-148.5 50 q-51 0 -104.5 -18t-112 -57.5t-118.5 -112t-113 -171.5z" />
<glyph unicode="&#xe028;" horiz-adv-x="1515" d="M564 173v-23q126 1 227 9.5t171 22t121 34.5t81 43t47.5 51t23 55.5t5.5 59.5q0 74 -51.5 119t-133.5 45q-51 0 -113 -22.5t-131.5 -69t-135.5 -131t-111 -193.5zM403 150v1078h150v-803q107 155 247 234.5t266 79.5q81 0 154 -34.5t121.5 -106t48.5 -165.5 q0 -86 -28.5 -152t-93.5 -120t-170 -89t-259.5 -53.5t-360.5 -18.5h-386v150h311z" />
<glyph unicode="&#xe029;" horiz-adv-x="1299" d="M957 943l-114 -96q-99 123 -247 123q-110 0 -188.5 -81t-78.5 -212q0 -101 100.5 -151t266.5 -50q104 0 278 30l25 -155q-124 -13 -229.5 -38t-202 -67t-164 -99t-107.5 -138.5t-40 -180.5q0 -115 70 -200t184.5 -127t258.5 -42q200 0 367 71l60 -138q-191 -86 -426 -86 q-130 0 -247 32.5t-211 94.5t-150 162.5t-56 226.5q0 186 99 320.5t265 217.5q-59 15 -109 39.5t-92 61.5t-66 90t-24 117q0 98 34.5 183.5t92 143.5t133 91.5t157.5 33.5q210 0 361 -177z" />
<glyph unicode="&#xe02a;" horiz-adv-x="811" d="M0 150h811v-150h-811q-32 0 -53.5 22t-21.5 53t21.5 53t53.5 22z" />
<glyph unicode="&#xe02b;" horiz-adv-x="1625" d="M1290 1247h150v-730q0 -262 -105 -377q-69 -76 -195.5 -108t-340.5 -32q-78 0 -141 3t-137.5 13t-131.5 26.5t-113 46.5t-92 70.5t-58.5 99.5t-22.5 133q0 110 35 260l146 -36q-31 -130 -31 -224q0 -72 35.5 -120t110 -74.5t170 -37t233.5 -10.5q190 0 285.5 18t140.5 68 q35 39 48.5 105t13.5 176v730z" />
<glyph unicode="&#xe02c;" horiz-adv-x="1268" d="M982 1228h150v-1183q0 -268 -139 -408.5t-391 -140.5q-227 0 -363 123t-136 335q0 180 90 400l135 -58q-76 -197 -76 -348q0 -146 93 -224t273 -78q186 0 275 94.5t89 304.5v1183z" />
<glyph unicode="&#xe02d;" horiz-adv-x="1199" d="M374 231q7 61 21.5 119.5t44.5 123t71.5 112t105.5 78.5t143 31q78 0 143 -34.5t106 -91t63 -126t22 -142.5q0 -78 -25.5 -138t-69 -94.5t-95.5 -51.5t-111 -17q-131 0 -280 58q-66 26 -112 26q-66 0 -107 -47.5t-41 -136.5v-685h-150v685q0 131 74 226t197 105zM523 213 q20 -6 63.5 -19.5t70.5 -21.5t65.5 -15t70.5 -7q76 0 113.5 32t37.5 116q0 107 -52.5 177t-131.5 70q-101 0 -161.5 -96t-75.5 -236z" />
<glyph unicode="&#xe02e;" horiz-adv-x="869" d="M435 150q85 0 129 41t44 116q0 76 -47 163t-126 166q-79 -79 -126.5 -166t-47.5 -163q0 -75 44 -116t130 -41zM435 0q-141 0 -230 85t-89 220q0 260 319 533q318 -273 318 -533q0 -134 -88 -219.5t-230 -85.5z" />
<glyph unicode="&#xe02f;" horiz-adv-x="928" d="M660 21q-83 -23 -172 -23q-55 0 -105 10t-95.5 33.5t-78.5 58t-52.5 86.5t-19.5 116q0 101 40 196.5t118 160.5t175 65q66 0 120.5 -26t90 -67.5t63 -99.5t42.5 -114.5t24.5 -120.5t12 -109.5t2.5 -89.5q0 -234 -168 -382t-494 -233l-44 142q491 125 541 397zM672 177 q-5 78 -20 147.5t-39.5 126.5t-61 90t-81.5 33q-68 0 -125.5 -81t-57.5 -191q0 -84 47 -119t154 -35q92 0 184 29z" />
<glyph unicode="&#xe030;" d="M-230 1866q0 -82 48 -153l-60 -39q-60 91 -60 193q0 142 100.5 242.5t243.5 100.5v-70q-112 0 -192 -80.5t-80 -193.5z" />
<glyph unicode="&#xe031;" d="M185 1753l31 -68l-401 -182l-31 68z" />
<glyph unicode="&#xe032;" d="M32 1699q-141 58 -141 162q0 67 50 114t111 47q66 0 102.5 -49t36.5 -103q0 -70 -34.5 -133t-90.5 -107.5t-116 -76t-122 -48.5l-22 72q138 40 226 122zM82 1760q34 53 34 110q0 29 -18 52.5t-46 23.5q-30 0 -58 -26.5t-28 -57.5q0 -30 30.5 -56.5t85.5 -45.5z" />
<glyph unicode="&#xe033;" d="M178 1695q0 70 -29 151l70 25q35 -96 35 -176q0 -71 -37 -115t-93 -44q-76 0 -124 75q-46 -75 -124 -75q-56 0 -93 44t-37 115q0 80 35 176l70 -25q-29 -81 -29 -151q0 -85 62 -85q29 0 53.5 25t24.5 69v74h76v-74q0 -44 24.5 -69t53.5 -25q62 0 62 85z" />
<glyph unicode="&#xe034;" d="M0 1848q-49 0 -82.5 -33.5t-33.5 -82.5t33.5 -82.5t82.5 -33.5q48 0 82 34t34 82t-33.5 82t-82.5 34zM0 1923q79 0 135.5 -56t56.5 -135t-56 -135t-136 -56t-136 56t-56 135t56 135t136 56z" />
<glyph unicode="&#xe035;" d="M-254 1536q25 51 67.5 87t99.5 36q55 0 108 -41q34 -26 65 -26q29 0 55 23.5t43 62.5l70 -30q-23 -55 -66 -93t-102 -38q-58 0 -111 41q-34 26 -62 26q-29 0 -55.5 -22.5t-43.5 -58.5z" />
<glyph unicode="&#xe036;" d="M-185 1503l-31 68l102 47q-64 76 -64 163q0 77 54 130t146 53h85v-74h-85q-64 0 -94.5 -31t-30.5 -78q0 -73 61 -131l227 103l31 -68z" />
<glyph unicode="&#xe037;" d="M-238 1826l60 45l178 -237l178 237l60 -45l-238 -317z" />
<glyph unicode="&#xe038;" horiz-adv-x="1782" d="M1629 711q47 -154 47 -290q0 -101 -39.5 -176.5t-106.5 -121.5t-170 -74t-214 -38.5t-255 -10.5t-255 10.5t-214 38.5t-170 74t-106.5 121.5t-39.5 176.5q0 136 47 290l145 -42q-42 -138 -42 -245q0 -80 40 -133.5t123.5 -84t196.5 -43.5t275 -13t275 13t196.5 43.5 t123.5 84t40 133.5q0 107 -42 245z" />
<glyph unicode="&#xe039;" horiz-adv-x="1415" d="M1158 178q-7 107 -30 193.5t-67.5 145t-103.5 58.5q-68 0 -125.5 -81t-57.5 -191q0 -84 47 -119t154 -35q91 0 183 29zM1159 24q-93 -25 -184 -25q-55 0 -105 10t-95.5 33.5t-78.5 58t-52.5 86.5t-19.5 116q0 101 40 196.5t118 160.5t175 65q66 0 120 -26t90 -67 t63.5 -98.5t42.5 -113.5t24.5 -120t12 -110.5t2.5 -91.5q0 -146 -48 -262t-133.5 -189.5t-199 -112t-247.5 -38.5q-121 0 -224.5 32t-184 94.5t-126.5 164t-46 231.5q0 180 108 426l133 -61q-43 -98 -67 -196.5t-24 -168.5q0 -180 111.5 -276t319.5 -96q210 0 335 98.5 t140 279.5z" />
<glyph unicode="&#xe03a;" d="M-38 1874h76v-334h-76v334z" />
<glyph unicode="&#xe03b;" horiz-adv-x="1752" d="M1496 535q-5 78 -20 147.5t-39.5 126.5t-61 90t-81.5 33q-68 0 -125.5 -81t-57.5 -191q0 -84 47 -119t154 -35q92 0 184 29zM1649 455q0 -79 -20.5 -144t-57 -111.5t-92.5 -82t-119.5 -57.5t-145 -35.5t-163.5 -19t-180 -5.5q-160 0 -274.5 10.5t-212 38t-156 74.5 t-90.5 120t-32 175q0 130 48 288l145 -42q-43 -142 -43 -242q0 -67 20.5 -112.5t62.5 -77.5t117 -49.5t173.5 -25t243.5 -7.5q308 0 456 54.5t170 184.5q-98 -27 -197 -27q-71 0 -131 17t-108 51t-75 93t-27 137q0 101 40 196.5t118 160.5t175 65q66 0 120.5 -26t90 -67.5 t63 -99.5t42.5 -114.5t24.5 -120.5t12 -109.5t2.5 -89.5z" />
<glyph unicode="&#xe03c;" horiz-adv-x="1848" d="M154 706l145 -42q-43 -142 -43 -242q0 -159 124.5 -215.5t417.5 -56.5q126 0 217 9.5t161 32t105 62.5t35 98q0 100 -127 237.5t-320 276.5v166q176 115 393.5 204t431.5 135l32 -147q-178 -39 -361.5 -109.5t-332.5 -158.5v-26q92 -68 164 -133t136 -140.5t99 -155.5 t35 -157q0 -64 -21.5 -115t-56.5 -86.5t-89 -62t-110 -41.5t-128 -24t-135 -12t-139 -3q-129 0 -227 10.5t-186.5 38.5t-145 74.5t-89.5 120.5t-33 174q0 130 48 288z" />
<glyph unicode="&#xe03d;" horiz-adv-x="1512" d="M1257 68q0 179 -155 493l134 63q50 -102 80 -170t61 -181.5t31 -210.5q0 -112 -38.5 -206t-104 -159.5t-153 -111.5t-184.5 -67.5t-199 -21.5q-124 0 -235.5 34.5t-199 99t-139 167.5t-51.5 231q0 131 44.5 274.5t109.5 269.5l128 -76q-56 -108 -94 -232.5t-38 -236.5 q0 -183 127.5 -282t342.5 -99q150 0 269 48t191.5 145t72.5 229z" />
<glyph unicode="&#xe03e;" horiz-adv-x="1449" d="M1308 708l-41 -144q-87 27 -172 27q-169 0 -255 -76.5t-86 -202.5q0 -40 12 -68t32 -45t57.5 -27t75.5 -14.5t100 -7.5q51 -2 91 -9t83.5 -25t72.5 -47t47.5 -78t18.5 -115q0 -100 -49.5 -175t-136.5 -119t-194 -65t-233 -21q-100 0 -186 16.5t-161.5 54.5t-129 94.5 t-84 140t-30.5 188.5q0 101 19.5 216t44.5 198l144 -46q-58 -196 -58 -368q0 -180 111.5 -262t339.5 -82q214 0 333.5 59t119.5 167q0 77 -38 100t-153 29q-68 3 -119 10.5t-106.5 27.5t-91 50.5t-59 83t-23.5 122.5q0 203 129.5 324.5t364.5 121.5q106 0 210 -33z" />
<glyph unicode="&#xe03f;" horiz-adv-x="1864" d="M1864 150v-150h-1q-160 0 -258 58.5t-167 171.5q-22 -59 -72 -102t-110.5 -67t-144.5 -38.5t-157.5 -18.5t-166.5 -4q-129 0 -227 10.5t-186.5 38.5t-145 74.5t-89.5 120.5t-33 174q0 130 48 288l145 -42q-43 -142 -43 -242q0 -159 124.5 -215.5t417.5 -56.5 q126 0 217 9.5t161 32t105 62.5t35 98q0 100 -127 237.5t-320 276.5v166q176 115 393.5 204t431.5 135l32 -147q-178 -39 -361.5 -109.5t-332.5 -158.5v-26q179 -128 282 -253t178 -269q26 -49 43 -78t42 -62.5t50 -52t59.5 -35t78 -23.5t98.5 -7h1z" />
<glyph unicode="&#xe040;" horiz-adv-x="1660" d="M258 572l129 -76q-133 -258 -133 -468q0 -184 127 -283t343 -99q150 0 269 48t191.5 145t72.5 229q0 179 -155 493l133 61l132 -306q39 -92 99 -129t193 -37h1v-150h-1q-155 0 -253 56q-5 -113 -44 -206.5t-102.5 -158t-149 -109t-181 -65.5t-199.5 -21q-127 0 -239.5 35 t-199 101t-137 168.5t-50.5 229.5q0 246 154 542z" />
<glyph unicode="&#xe041;" horiz-adv-x="547" d="M370 776q69 -207 69 -369q0 -92 -23.5 -164t-74 -127.5t-137 -85.5t-204.5 -30q-32 0 -53.5 22t-21.5 53t21.5 53t53.5 22q295 0 295 257q0 116 -66 321z" />
<glyph unicode="&#xe042;" horiz-adv-x="767" d="M0 150q191 0 256 93q53 76 53 259v104h150v-104q0 -177 47 -250q32 -53 94.5 -77.5t165.5 -24.5h1v-150h-1q-277 0 -382 181q-105 -181 -384 -181q-32 0 -53.5 22t-21.5 53t21.5 53t53.5 22z" />
<glyph unicode="&#xe043;" horiz-adv-x="1453" d="M1453 150v-150h-201q47 -29 71 -78t24 -105q0 -178 -164.5 -289t-444.5 -111q-291 0 -457 139.5t-166 408.5q0 158 39 298t111 297l135 -70q-66 -149 -101.5 -273t-35.5 -263q0 -199 117 -293t354 -94q105 0 188.5 16.5t133.5 42t83 58t45.5 61.5t12.5 56q0 199 -480 199 v150h736z" />
<glyph unicode="&#xe044;" horiz-adv-x="596" d="M175 1228h150v-837q0 -129 45 -181q53 -60 225 -60h1v-150h-1q-219 0 -326 108q-94 97 -94 283v837z" />
<glyph unicode="&#xe045;" horiz-adv-x="1398" d="M1226 -471l56 -139q-260 -103 -524 -103q-104 0 -196.5 15.5t-178 51.5t-147 90.5t-98.5 139t-37 189.5q0 91 27.5 171t73 143.5t117 121t146.5 100.5t175 84t189 71t201 62l-425 160q-51 16 -98 16q-92 0 -140.5 -66.5t-65.5 -210.5l-150 17q10 88 34.5 160t66 129.5 t106.5 89t149 31.5q79 0 147 -25l592 -225v-167q-98 -26 -209 -59q27 -40 50 -69t56.5 -60.5t68.5 -51.5t82.5 -32.5t102.5 -12.5h1v-150h-1q-75 0 -142 18t-118.5 47t-99 73t-82 89t-68.5 101q-149 -51 -259 -104t-198 -120.5t-133.5 -150.5t-45.5 -180q0 -116 68.5 -193 t180.5 -109.5t264 -32.5q228 0 462 91z" />
<glyph unicode="&#xe046;" horiz-adv-x="1316" d="M101 442q67 409 335 409q89 0 195 -50l551 -247v-158q-201 -138 -372 -221t-373 -129t-437 -46q-31 0 -53 22t-22 53t22 53t53 22q305 0 539.5 75.5t464.5 241.5l-439 199q-77 35 -129 35q-141 0 -187 -283z" />
<glyph unicode="&#xe047;" horiz-adv-x="1316" d="M101 442q67 409 335 409q89 0 195 -50l551 -247v-158q-126 -85 -164 -108q58 -67 125.5 -102.5t171.5 -35.5h1v-150h-1q-260 0 -430 214q-205 -110 -416 -162t-469 -52q-31 0 -53 22t-22 53t22 53t53 22q305 0 539.5 75.5t464.5 241.5l-439 199q-77 35 -129 35 q-141 0 -187 -283z" />
<glyph unicode="&#xe048;" horiz-adv-x="1180" d="M1180 150v-150h-1q-130 0 -221.5 39.5t-162.5 144.5q-49 -92 -148 -138t-218 -46q-221 0 -369 111l79 127q117 -88 290 -88q119 0 190 51t71 134q0 48 -26 108l-170 401l138 60l206 -485q27 -63 49 -105.5t46.5 -73t46.5 -48t54.5 -27t64 -12.5t80.5 -3h1z" />
<glyph unicode="&#xe049;" horiz-adv-x="960" d="M482 554l139 56l88 -290q31 -98 83.5 -134t166.5 -36h1v-150h-1q-142 0 -235 63q-14 -193 -164 -344t-396 -241l-51 142q468 171 468 510q0 155 -99 424z" />
<glyph unicode="&#xe04a;" horiz-adv-x="2614" d="M2235 692l41 -207q15 -75 23.5 -110t25.5 -82.5t37.5 -66.5t54.5 -41t81.5 -28.5t114.5 -6.5h1v-150h-1q-149 0 -240.5 44.5t-144.5 129.5q-73 -174 -265 -174q-75 0 -144 33t-111 98q-86 -131 -235 -131q-96 0 -165 55q-6 -138 -57 -246.5t-136 -176t-194.5 -102 t-236.5 -34.5q-121 0 -224.5 32t-184 94.5t-126.5 164t-46 231.5q0 113 43.5 263t113.5 275l130 -68q-62 -114 -99.5 -247t-37.5 -223q0 -180 111.5 -276t319.5 -96q227 0 354 113t127 317q0 87 -32.5 198t-104.5 290l141 54q39 -112 63.5 -177.5t50.5 -124.5t43.5 -86 t42 -48t47 -26.5t56.5 -5.5q146 0 171 209l26 223l143 -14l-19 -189q-1 -9 -1 -50q0 -95 48.5 -137t121.5 -42q88 0 126.5 57.5t38.5 168.5q0 76 -15 160l-24 126z" />
<glyph unicode="&#xe04b;" horiz-adv-x="1538" d="M1392 689q23 -109 33 -181t10 -166q0 -130 -65 -221q-87 -121 -242 -121q-82 0 -145.5 38.5t-102.5 102.5q-39 -64 -102.5 -102.5t-145.5 -38.5q-90 0 -157 45t-105 120q-105 -165 -370 -165q-32 0 -53.5 22t-21.5 53t21.5 53t53.5 22q182 0 247 81q62 79 62 285v90h150 v-172q0 -153 55 -226q41 -58 119 -58t119 58q56 75 56 226v162h144v-162q0 -150 56 -225q42 -59 119 -59q92 0 131 74q27 48 27 118q0 137 -39 316z" />
<glyph unicode="&#xe04c;" horiz-adv-x="1735" d="M1392 689l32 -233q27 -176 90 -238q66 -68 220 -68h1v-150h-1q-241 0 -352 149q-38 -69 -103 -109t-151 -40q-82 0 -145.5 39t-102.5 103q-39 -65 -102.5 -103.5t-145.5 -38.5q-90 0 -157 45t-105 120q-105 -165 -370 -165q-32 0 -53.5 22t-21.5 53t21.5 53t53.5 22 q179 0 246 80q63 78 63 286v90h150v-172q0 -151 55 -226q42 -58 119 -58q84 0 127 66q48 73 48 218v162h144v-162q0 -140 46 -214q44 -70 129 -70q84 0 125 62q32 49 32 130q0 106 -40 324z" />
<glyph unicode="&#xe04d;" horiz-adv-x="2416" d="M1292 272q116 214 268 320t304 106q148 0 251 -91.5t103 -240.5q0 -76 -36 -143q61 -73 233 -73h1v-150h-1q-227 0 -334 110q-77 -56 -185.5 -83.5t-224.5 -27.5q-185 0 -359 69q-6 -142 -56.5 -252.5t-135.5 -179.5t-195.5 -104.5t-240.5 -35.5q-121 0 -224.5 32 t-184 94.5t-126.5 164t-46 231.5q0 113 43.5 263t113.5 275l130 -68q-62 -114 -99.5 -247t-37.5 -223q0 -180 111.5 -276t319.5 -96q227 0 354 113t127 317q0 87 -32.5 198t-104.5 290l141 54q72 -160 123 -346zM1416 189q120 -40 255 -40q180 0 288.5 60.5t108.5 156.5 q0 82 -55.5 132t-148.5 50q-51 0 -104.5 -18t-112 -57.5t-118.5 -112t-113 -171.5z" />
<glyph unicode="&#xe04e;" horiz-adv-x="1612" d="M0 150q165 0 231 68q75 75 78 283v105h150v-204q0 -108 60 -159q69 129 151 227t165 155.5t163.5 85.5t158.5 28q132 0 231 -83t99 -223q0 -83 -42.5 -155t-111 -122t-155.5 -86t-176.5 -53t-172.5 -17q-174 0 -286.5 33.5t-171.5 124.5q-106 -158 -371 -158 q-32 0 -53.5 22t-21.5 53t21.5 53t53.5 22zM643 166q65 -16 186 -16q133 0 252 40.5t187.5 105t68.5 132.5q0 74 -51.5 117.5t-133.5 43.5q-53 0 -112 -21t-126 -67t-138 -132t-133 -203z" />
<glyph unicode="&#xe04f;" horiz-adv-x="1635" d="M643 165q65 -16 186 -16q133 0 252 41t187.5 105.5t68.5 132.5q0 74 -51.5 117.5t-133.5 43.5q-53 0 -112 -21.5t-126 -67.5t-138 -132t-133 -203zM459 606v-206q0 -107 59 -157q91 171 205.5 285.5t221.5 162.5t212 48q132 0 231 -83t99 -223q0 -115 -83 -208 q62 -75 230 -75h1v-150h-1q-237 0 -347 126q-96 -61 -219 -93.5t-239 -32.5q-175 0 -287.5 33t-171.5 124q-108 -157 -370 -157q-31 0 -53 22t-22 53t22 53t53 22q176 0 243 80q66 80 66 286v90h150z" />
<glyph unicode="&#xe050;" horiz-adv-x="1538" d="M564 151q148 3 260.5 14t185 31t120 43t71 55.5t31.5 62t8 68.5q0 74 -51.5 119t-133.5 45q-50 0 -113 -26t-131.5 -76t-135 -138t-111.5 -198zM403 150v1078h150v-823q109 157 249.5 245.5t257.5 88.5q132 0 231 -83t99 -223q0 -133 -72 -219q55 -64 219 -64h1v-150h-1 q-224 0 -338 115q-210 -115 -721 -115h-386v150h311z" />
<glyph unicode="&#xe051;" horiz-adv-x="1317" d="M344 151q148 3 260.5 14t185 31t120 43t71 55.5t31.5 62t8 68.5q0 74 -51.5 119t-133.5 45q-50 0 -113 -26t-131.5 -76t-135 -138t-111.5 -198zM0 150h183v1078h150v-823q109 157 249.5 245.5t257.5 88.5q132 0 231 -83t99 -223q0 -86 -28.5 -152t-93.5 -120t-170 -89 t-259.5 -53.5t-360.5 -18.5h-258q-32 0 -53.5 22t-21.5 53t21.5 53t53.5 22z" />
<glyph unicode="&#xe052;" horiz-adv-x="1318" d="M344 151q148 3 260.5 14t185 31t120 43t71 55.5t31.5 62t8 68.5q0 74 -51.5 119t-133.5 45q-50 0 -113 -26t-131.5 -76t-135 -138t-111.5 -198zM0 150l183 1v1077h150v-823q109 158 249 246t258 88q132 0 231 -83t99 -223q0 -133 -72 -219q57 -64 219 -64h1v-150h-1 q-226 0 -338 115q-210 -115 -721 -115h-258q-32 0 -53.5 22t-21.5 53t21.5 53t53.5 22z" />
<glyph unicode="&#xe053;" horiz-adv-x="1144" d="M994 488q0 -90 -52 -158.5t-138 -126.5q157 -53 339 -53h1v-150h-1q-292 0 -505 102q-398 -169 -398 -404q0 -123 139 -206t342 -83q176 0 327 63l52 -140q-180 -72 -383 -72q-123 0 -234.5 28.5t-199.5 82t-140.5 137.5t-52.5 187q0 303 398 500q-164 107 -334 297 l6 142q81 65 194 103.5t240 38.5q74 0 144 -18.5t128 -53.5t93 -91t35 -125zM844 480q0 58 -70.5 102t-173.5 44q-77 0 -155.5 -20.5t-124.5 -51.5l-2 -22q168 -179 325 -265q201 97 201 213z" />
<glyph unicode="&#xe054;" horiz-adv-x="1083" d="M278 410q0 -88 76 -138t197 -50q47 0 67 4l292 56l27 -148l-485 -92q-221 -42 -452 -42q-31 0 -53 22t-22 53t22 53t53 22q140 0 269 18q-141 88 -141 242q0 187 118 309.5t281 122.5q212 0 347 -168l-116 -97q-90 115 -231 115q-102 0 -175.5 -77.5t-73.5 -204.5z" />
<glyph unicode="&#xe055;" horiz-adv-x="1026" d="M96 590q70 87 192.5 136t260.5 49q68 0 134 -19t123.5 -55.5t92.5 -99t35 -141.5q0 -84 -45.5 -157t-121.5 -119q114 -34 258 -34h1v-150h-1q-234 0 -428 86q-235 -86 -597 -86q-32 0 -53.5 22t-21.5 53t21.5 53t53.5 22q250 0 419 40q-132 77 -323 266v134zM256 534v-27 q67 -61 110.5 -98.5t108.5 -82.5t127 -75q87 38 134.5 93t47.5 112q0 78 -64.5 123.5t-170.5 45.5q-83 0 -165.5 -26t-127.5 -65z" />
<glyph unicode="&#xe056;" horiz-adv-x="1748" d="M1290 1247h150v-730q0 -123 19.5 -197.5t72.5 -115.5q69 -54 215 -54h1v-150h-1q-170 0 -278 70q-68 45 -105 116q-24 -37 -62 -67q-70 -65 -190.5 -92t-312.5 -27q-78 0 -141 3t-137.5 13t-131.5 26.5t-113 46.5t-92 70.5t-58.5 99.5t-22.5 133q0 110 35 260l146 -36 q-31 -130 -31 -224q0 -72 36 -120t111 -74.5t172.5 -37t239.5 -10.5q182 0 275.5 17.5t139.5 68.5q35 40 49 106t14 175v730z" />
<glyph unicode="&#xe057;" horiz-adv-x="999" d="M0 150h121q190 0 268.5 48.5t78.5 153.5q0 100 -127 237.5t-320 276.5v166q176 115 393.5 204t431.5 135l32 -147q-178 -39 -361.5 -109.5t-332.5 -158.5v-26q92 -69 164 -133.5t136.5 -140t100 -155.5t35.5 -157t-27.5 -137t-73.5 -98.5t-111 -63.5t-135 -35t-150 -10 h-123q-32 0 -53.5 22t-21.5 53t21.5 53t53.5 22z" />
<glyph unicode="&#xe058;" horiz-adv-x="1020" d="M0 150h121q190 0 268.5 48.5t78.5 153.5q0 100 -127 237.5t-320 276.5v166q176 115 393.5 204t431.5 135l32 -147q-178 -39 -361.5 -109.5t-332.5 -158.5v-26q179 -128 282 -253t178 -269q30 -57 51.5 -91.5t53 -70.5t67 -54.5t86.5 -30t117 -11.5h1v-150h-1 q-160 0 -261.5 58.5t-171.5 170.5q-78 -229 -463 -229h-123q-32 0 -53.5 22t-21.5 53t21.5 53t53.5 22z" />
<glyph unicode="&#xe059;" horiz-adv-x="1439" d="M1439 150v-150h-1q-206 0 -307 102v-74q0 -254 -141 -393t-388 -139q-227 0 -363 123t-136 335q0 180 90 400l135 -58q-76 -197 -76 -348q0 -146 93 -224t273 -78q186 0 275 94.5t89 304.5v1183h150v-712q0 -205 64 -285q65 -81 242 -81h1z" />
<glyph unicode="&#xe05a;" horiz-adv-x="596" d="M421 391q0 -186 -94 -283q-107 -108 -327 -108q-31 0 -53 22t-22 53t22 53t53 22q90 0 143.5 13.5t82.5 46.5q45 52 45 181v837h150v-837z" />
<glyph unicode="&#xe05b;" horiz-adv-x="692" d="M0 150q159 0 217 74q54 70 54 250v754h150v-754q0 -175 51 -245q57 -79 219 -79h1v-150h-1q-248 0 -345 156q-98 -156 -346 -156q-32 0 -53.5 22t-21.5 53t21.5 53t53.5 22z" />
<glyph unicode="&#xe05c;" horiz-adv-x="1329" d="M523 213q20 -6 63.5 -19.5t70.5 -21.5t65.5 -15t70.5 -7q75 0 113 33.5t38 117.5q0 106 -53 175t-131 69q-101 0 -161.5 -96t-75.5 -236zM1329 0h-1q-176 0 -290 117q-78 -117 -245 -117q-136 0 -280 58q-67 26 -112 26q-66 0 -107 -47.5t-41 -136.5v-685h-150v685 q0 131 74 226t197 105q7 61 21.5 119.5t44.5 123t71.5 112t105.5 78.5t143 31q94 0 167.5 -49.5t113.5 -124.5t50 -164q13 -114 69 -160.5t168 -46.5h1v-150z" />
<glyph unicode="&#xe05d;" horiz-adv-x="1046" d="M0 150q81 0 122.5 32t83.5 120q25 54 46 112q23 62 54 113.5t73.5 95t100.5 68t125 24.5q78 0 143.5 -36.5t107 -94.5t64.5 -126.5t23 -136.5q0 -132 -90 -226.5t-227 -94.5q-102 0 -175 43t-151 124q-107 -167 -300 -167q-32 0 -53.5 22t-21.5 53t21.5 53t53.5 22z M372 310q48 -68 114 -114t140 -46q68 0 117.5 48.5t49.5 122.5q0 95 -57.5 169.5t-130.5 74.5q-139 0 -213 -203z" />
<glyph unicode="&#xe05e;" horiz-adv-x="1238" d="M0 150q81 0 122.5 32t83.5 120q25 54 46 112q23 62 54 113.5t73.5 95t100.5 68t125 24.5q71 0 133 -31t103 -81.5t67 -111.5t33 -125q15 -88 53 -135q65 -81 243 -81h1v-150h-1q-245 0 -353 136q-38 -62 -108 -99t-148 -37q-71 0 -134.5 25.5t-103.5 57.5t-90 84 q-107 -167 -300 -167q-32 0 -53.5 22t-21.5 53t21.5 53t53.5 22zM372 310q48 -68 114.5 -114t141.5 -46q68 0 116.5 48.5t48.5 122.5q0 95 -57.5 169.5t-130.5 74.5q-139 0 -213 -203z" />
<glyph unicode="&#xe05f;" horiz-adv-x="1041" d="M604 688q-159 -25 -254 -91t-95 -147q0 -71 56.5 -108.5t165.5 -37.5q69 0 150 24zM1041 0h-1q-144 0 -231.5 43.5t-139.5 138.5q-101 -28 -192 -28q-68 0 -130.5 16t-118.5 49t-89.5 91.5t-33.5 135.5q0 68 28.5 127t75.5 101.5t111 76.5t132 55t143 34l-8 133l150 9 l33 -554q4 -75 17.5 -123.5t43 -85t80.5 -53t129 -16.5h1v-150z" />
<glyph unicode="&#xe060;" horiz-adv-x="1293" d="M0 150q167 0 287 29q-165 118 -165 281q0 95 56 179t137 125l-162 59l59 143l452 -174q93 -36 160 -66t141 -75t119.5 -92t75.5 -111.5t30 -138.5q0 -133 -88.5 -221t-247.5 -88q-75 0 -184 19.5t-197 52.5q-192 -72 -473 -72q-32 0 -53.5 22t-21.5 53t21.5 53t53.5 22z M475 233q79 37 125 101.5t46 145.5q0 90 -35.5 145t-111.5 55q-80 0 -153.5 -62t-73.5 -158q0 -134 203 -227zM636 183q128 -33 220 -33q184 0 184 159q0 160 -281 284q35 -129 0.5 -234.5t-123.5 -175.5z" />
<glyph unicode="&#xe061;" horiz-adv-x="986" d="M305 174q188 31 282 101.5t94 174.5q0 166 -137 166q-102 0 -167 -111.5t-72 -330.5zM986 0h-1q-114 0 -165.5 -40t-51.5 -134v-247l-128 -82q-181 18 -308.5 159t-162.5 349q-67 -5 -169 -5q-31 0 -53 22t-22 53t22 53t53 22q96 0 159 5q3 128 26 235.5t67.5 193 t119 134t172.5 48.5q128 0 204.5 -81t76.5 -222q0 -114 -69.5 -208t-184 -152.5t-257.5 -80.5q23 -143 112 -248.5t190 -120.5l14 9v164q0 147 102.5 235.5t252.5 88.5h1v-150z" />
<glyph unicode="&#xe062;" horiz-adv-x="928" d="M815 0q-35 -192 -198.5 -317.5t-453.5 -200.5l-44 142q474 120 537 376h-168q-70 0 -131 17t-111.5 51.5t-79.5 94.5t-29 140q0 101 40 196.5t118 160.5t175 65q61 0 112 -22.5t86 -59t62.5 -87.5t44 -102t27.5 -110t15.5 -104t6.5 -90h104v-150h-113zM673 150 q-4 80 -18 153t-37.5 135.5t-62 100t-85.5 37.5q-68 0 -125.5 -81t-57.5 -191q0 -84 47 -119t154 -35h185z" />
<glyph unicode="&#xe063;" horiz-adv-x="1033" d="M660 526q-136 -175 -331 -324l-1 -18q88 -37 196 -37q236 0 236 107q0 92 -100 272zM656 771q66 121 97.5 222.5t31.5 234.5h150q0 -174 -45.5 -304t-139.5 -280q148 -243 148 -392q0 -77 -37 -130.5t-98 -78.5t-116.5 -34.5t-116.5 -9.5q-203 0 -365 101v156 q122 90 221 181.5t184 208.5q-155 230 -472 448l86 124q299 -206 472 -447z" />
<glyph unicode="&#xe064;" horiz-adv-x="1372" d="M474 380l-150 -6q0 224 -41.5 412t-135.5 404l138 58q99 -231 144 -433t45 -435zM1372 0h-1q-308 0 -405 220q-99 -123 -305.5 -171.5t-560.5 -48.5v150q199 0 335.5 12t232 36.5t148 69t75 103t22.5 144.5v713h150v-711q0 -203 65 -285q66 -82 243 -82h1v-150z" />
<glyph unicode="&#xe065;" horiz-adv-x="1873" d="M1679 588q-51 -184 -51 -270q0 -42 9.5 -70.5t35 -52t75 -34.5t124.5 -11h1v-150h-1q-164 0 -258.5 58t-120.5 166q-128 -125 -301 -173.5t-442 -48.5q-117 0 -214.5 14.5t-179 46.5t-137 81t-86.5 120.5t-31 161.5q0 136 66 300l138 -55q-53 -139 -53 -244 q0 -145 121 -210t388 -65q171 0 293.5 18t205.5 52t137.5 94t84.5 131.5t51 176.5z" />
<glyph unicode="&#xe066;" horiz-adv-x="921" d="M668 390q-102 -28 -196 -28q-72 0 -131.5 16.5t-108 51t-75.5 93.5t-27 137q0 101 40 196.5t118 160.5t175 65q66 0 120.5 -26t90 -67.5t63 -99.5t42.5 -114.5t24.5 -120.5t12 -109.5t2.5 -89.5q0 -77 -11 -137t-37.5 -106.5t-60 -80t-88 -57t-112.5 -38t-142.5 -22.5 t-168 -11t-198.5 -3q-32 0 -53.5 22t-21.5 53t21.5 53t53.5 22q106 0 180.5 1.5t144.5 6t116 12t86.5 21t64 30.5t41.5 42t25.5 55.5t9.5 71.5zM664 535q-7 107 -30 193.5t-67.5 145t-103.5 58.5q-68 0 -125.5 -81t-57.5 -191q0 -84 47 -119t154 -35q90 0 183 29z" />
<glyph unicode="&#xe067;" horiz-adv-x="1876" d="M1417 67q-198 -67 -526 -67q-92 0 -166.5 3.5t-158.5 14t-148 28t-125.5 48t-101 72.5t-63.5 102.5t-24 135.5q0 126 66 315l142 -47q-56 -168 -56 -260q0 -148 152 -205t483 -57q207 0 344 28q-148 120 -148 310q0 161 94 256t241 95q145 0 240 -95.5t95 -255.5 q0 -196 -153 -312q125 -26 271 -26h1v-150h-1q-275 0 -458 67zM1419 228q94 41 141 103t47 157q0 98 -49.5 149.5t-135.5 51.5q-88 0 -136.5 -51t-48.5 -150q0 -176 182 -260z" />
<glyph unicode="&#xe068;" horiz-adv-x="908" d="M0 150q152 0 271 25q-152 120 -152 313q0 161 94 256t241 95q145 0 240 -95.5t95 -255.5q0 -192 -152 -313q119 -25 270 -25h1v-150h-1q-266 0 -453 66q-188 -66 -454 -66q-32 0 -53.5 22t-21.5 53t21.5 53t53.5 22zM454 226q185 84 185 262q0 98 -49.5 149.5 t-135.5 51.5q-88 0 -136.5 -51t-48.5 -150q0 -178 185 -262z" />
<glyph unicode="&#xe069;" horiz-adv-x="1415" d="M1157 0h-182q-70 0 -131 17t-111.5 51.5t-79.5 94.5t-29 140q0 101 40 196.5t118 160.5t175 65q69 0 125.5 -28t93.5 -77t63.5 -106t41 -125.5t21.5 -125t9 -113.5h104v-150h-109q-30 -243 -200 -373.5t-422 -130.5q-121 0 -224.5 32t-184 94.5t-126.5 164t-46 231.5 q0 180 108 426l133 -61q-43 -98 -67 -196.5t-24 -168.5q0 -180 111.5 -276t319.5 -96q203 0 327 92t146 262zM1159 150q-4 111 -26.5 205t-68.5 157.5t-107 63.5q-68 0 -125.5 -81t-57.5 -191q0 -84 47 -119t154 -35h184z" />
<glyph unicode="&#xe06a;" horiz-adv-x="548" />
<glyph unicode="&#xe06b;" horiz-adv-x="548" />
<glyph unicode="&#xe06c;" horiz-adv-x="548" />
<glyph unicode="&#xe06d;" horiz-adv-x="548" />
<glyph unicode="&#xfd3e;" horiz-adv-x="598" d="M468 29l-126 -81q-217 340 -217 757q0 416 217 756l126 -81q-96 -150 -144.5 -313t-48.5 -362q0 -376 193 -676z" />
<glyph unicode="&#xfd3f;" horiz-adv-x="598" d="M130 1380l126 81q217 -340 217 -757q0 -416 -217 -756l-126 81q96 150 144.5 313t48.5 362q0 376 -193 676z" />
<glyph horiz-adv-x="999" d="M819 1893l20 -92q-403 -83 -739 -297l-50 80q344 221 769 309z" />
<glyph horiz-adv-x="2284" d="M1064 131l123 123l123 -123l-123 -123z" />
</font>
</defs>
</svg>
